%FSLAX44Y44*%
%MOMM*%
G71*
G01*
G75*
G04 Layer_Color=32896*
%ADD10R,2.0000X4.0000*%
%ADD11R,0.4500X2.0000*%
%ADD12R,1.1000X1.7000*%
%ADD13C,0.4000*%
%ADD14R,1.7000X1.1000*%
%ADD15R,2.6000X1.1000*%
%ADD16R,1.5000X1.5000*%
%ADD17C,0.3600*%
%ADD18C,0.3000*%
%ADD19R,1.1000X2.6000*%
%ADD20R,0.6000X1.1500*%
%ADD21R,1.1500X0.7500*%
%ADD22R,2.0000X2.0000*%
%ADD23C,2.0000*%
%ADD24C,0.2540*%
%ADD25C,0.3048*%
%ADD26C,0.1000*%
%ADD27C,1.0000*%
%ADD28C,0.4000*%
%ADD29C,2.0000*%
%ADD30C,0.5080*%
%ADD31C,0.2000*%
%ADD32C,0.5000*%
%ADD33C,1.5240*%
%ADD34C,1.5000*%
%ADD35R,1.5000X1.5000*%
%ADD36C,3.8000*%
%ADD37C,1.6000*%
%ADD38R,1.6000X1.6000*%
%ADD39R,1.8500X1.8500*%
%ADD40C,1.8500*%
%ADD41R,1.3500X1.3500*%
%ADD42C,1.3500*%
%ADD43R,1.3500X1.3500*%
%ADD44C,1.7780*%
%ADD45C,1.0000*%
%ADD46C,1.2700*%
%ADD47C,7.0000*%
%ADD48C,1.0160*%
%ADD49C,1.1620*%
%ADD50C,1.3000*%
%ADD51C,2.7000*%
%ADD52C,1.3200*%
%ADD53C,1.2000*%
%ADD54C,1.6700*%
%ADD55C,0.9000*%
%ADD56C,0.6500*%
%ADD57C,5.4000*%
%ADD58C,0.3000*%
%ADD59C,0.0025*%
G04:AMPARAMS|DCode=60|XSize=1.7mm|YSize=1.1mm|CornerRadius=0mm|HoleSize=0mm|Usage=FLASHONLY|Rotation=225.000|XOffset=0mm|YOffset=0mm|HoleType=Round|Shape=Rectangle|*
%AMROTATEDRECTD60*
4,1,4,0.2121,0.9900,0.9900,0.2121,-0.2121,-0.9900,-0.9900,-0.2121,0.2121,0.9900,0.0*
%
%ADD60ROTATEDRECTD60*%

%ADD61C,3.0000*%
%ADD62C,0.2500*%
%ADD63C,0.1270*%
%ADD64C,0.1524*%
%ADD65C,0.2032*%
%ADD66R,2.2032X4.2032*%
%ADD67R,0.6532X2.2032*%
%ADD68R,1.3032X1.9032*%
%ADD69C,0.6032*%
%ADD70R,1.9032X1.3032*%
%ADD71R,2.8032X1.3032*%
%ADD72R,1.7032X1.7032*%
%ADD73C,0.4800*%
%ADD74C,0.5032*%
%ADD75R,1.3032X2.8032*%
%ADD76R,0.8032X1.3532*%
%ADD77R,1.3532X0.9532*%
%ADD78R,2.2032X2.2032*%
%ADD79C,2.2032*%
%ADD80C,0.4200*%
%ADD81C,1.7272*%
%ADD82C,1.7032*%
%ADD83R,1.7032X1.7032*%
%ADD84C,4.0032*%
%ADD85C,1.8032*%
%ADD86R,1.8032X1.8032*%
%ADD87R,2.0532X2.0532*%
%ADD88C,2.0532*%
%ADD89R,1.5532X1.5532*%
%ADD90C,1.5532*%
%ADD91R,1.5532X1.5532*%
%ADD92C,1.9812*%
%ADD93C,1.2032*%
%ADD94C,1.4732*%
%ADD95C,7.2032*%
G04:AMPARAMS|DCode=96|XSize=1.9032mm|YSize=1.3032mm|CornerRadius=0mm|HoleSize=0mm|Usage=FLASHONLY|Rotation=225.000|XOffset=0mm|YOffset=0mm|HoleType=Round|Shape=Rectangle|*
%AMROTATEDRECTD96*
4,1,4,0.2121,1.1336,1.1336,0.2121,-0.2121,-1.1336,-1.1336,-0.2121,0.2121,1.1336,0.0*
%
%ADD96ROTATEDRECTD96*%

D24*
X1565804Y383093D02*
X1563265Y385633D01*
Y390711D01*
X1565804Y393250D01*
X1575961D01*
X1578500Y390711D01*
Y385633D01*
X1575961Y383093D01*
X1563265Y367858D02*
Y378015D01*
X1570883D01*
X1568343Y372937D01*
Y370397D01*
X1570883Y367858D01*
X1575961D01*
X1578500Y370397D01*
Y375476D01*
X1575961Y378015D01*
X1578500Y352623D02*
Y362780D01*
X1568343Y352623D01*
X1565804D01*
X1563265Y355162D01*
Y360241D01*
X1565804Y362780D01*
X1464196Y360157D02*
X1466735Y357617D01*
Y352539D01*
X1464196Y350000D01*
X1454039D01*
X1451500Y352539D01*
Y357617D01*
X1454039Y360157D01*
X1451500Y372853D02*
X1466735D01*
X1459117Y365235D01*
Y375392D01*
X1464196Y380470D02*
X1466735Y383009D01*
Y388088D01*
X1464196Y390627D01*
X1461657D01*
X1459117Y388088D01*
X1456578Y390627D01*
X1454039D01*
X1451500Y388088D01*
Y383009D01*
X1454039Y380470D01*
X1456578D01*
X1459117Y383009D01*
X1461657Y380470D01*
X1464196D01*
X1459117Y383009D02*
Y388088D01*
X1511804Y381093D02*
X1509265Y383633D01*
Y388711D01*
X1511804Y391250D01*
X1521961D01*
X1524500Y388711D01*
Y383633D01*
X1521961Y381093D01*
X1524500Y368397D02*
X1509265D01*
X1516882Y376015D01*
Y365858D01*
X1509265Y360780D02*
Y350623D01*
X1511804D01*
X1521961Y360780D01*
X1524500D01*
X1145093Y917446D02*
X1147633Y919985D01*
X1152711D01*
X1155250Y917446D01*
Y907289D01*
X1152711Y904750D01*
X1147633D01*
X1145093Y907289D01*
X1140015Y904750D02*
X1134937D01*
X1137476D01*
Y919985D01*
X1140015Y917446D01*
X1127319Y919985D02*
X1117162D01*
Y917446D01*
X1127319Y907289D01*
Y904750D01*
X1145093Y859071D02*
X1147633Y861610D01*
X1152711D01*
X1155250Y859071D01*
Y848914D01*
X1152711Y846375D01*
X1147633D01*
X1145093Y848914D01*
X1140015Y846375D02*
X1134937D01*
X1137476D01*
Y861610D01*
X1140015Y859071D01*
X1117162Y861610D02*
X1122241Y859071D01*
X1127319Y853992D01*
Y848914D01*
X1124780Y846375D01*
X1119702D01*
X1117162Y848914D01*
Y851453D01*
X1119702Y853992D01*
X1127319D01*
X1217554Y721343D02*
X1215015Y723883D01*
Y728961D01*
X1217554Y731500D01*
X1227711D01*
X1230250Y728961D01*
Y723883D01*
X1227711Y721343D01*
X1230250Y716265D02*
Y711187D01*
Y713726D01*
X1215015D01*
X1217554Y716265D01*
X1215015Y693412D02*
Y703569D01*
X1222633D01*
X1220093Y698491D01*
Y695952D01*
X1222633Y693412D01*
X1227711D01*
X1230250Y695952D01*
Y701030D01*
X1227711Y703569D01*
X1165554Y718343D02*
X1163015Y720882D01*
Y725961D01*
X1165554Y728500D01*
X1175711D01*
X1178250Y725961D01*
Y720882D01*
X1175711Y718343D01*
X1178250Y713265D02*
Y708187D01*
Y710726D01*
X1163015D01*
X1165554Y713265D01*
X1178250Y692952D02*
X1163015D01*
X1170632Y700569D01*
Y690412D01*
X1297689Y994406D02*
X1300228Y996945D01*
X1305307D01*
X1307846Y994406D01*
Y984249D01*
X1305307Y981710D01*
X1300228D01*
X1297689Y984249D01*
X1292611Y981710D02*
X1287533D01*
X1290072D01*
Y996945D01*
X1292611Y994406D01*
X1279915D02*
X1277376Y996945D01*
X1272298D01*
X1269758Y994406D01*
Y991867D01*
X1272298Y989327D01*
X1274837D01*
X1272298D01*
X1269758Y986788D01*
Y984249D01*
X1272298Y981710D01*
X1277376D01*
X1279915Y984249D01*
X1240539Y994406D02*
X1243079Y996945D01*
X1248157D01*
X1250696Y994406D01*
Y984249D01*
X1248157Y981710D01*
X1243079D01*
X1240539Y984249D01*
X1235461Y981710D02*
X1230383D01*
X1232922D01*
Y996945D01*
X1235461Y994406D01*
X1212608Y981710D02*
X1222765D01*
X1212608Y991867D01*
Y994406D01*
X1215147Y996945D01*
X1220226D01*
X1222765Y994406D01*
X1183389D02*
X1185928Y996945D01*
X1191007D01*
X1193546Y994406D01*
Y984249D01*
X1191007Y981710D01*
X1185928D01*
X1183389Y984249D01*
X1178311Y981710D02*
X1173233D01*
X1175772D01*
Y996945D01*
X1178311Y994406D01*
X1165615Y981710D02*
X1160537D01*
X1163076D01*
Y996945D01*
X1165615Y994406D01*
X1135907Y741054D02*
X1133367Y738515D01*
X1128289D01*
X1125750Y741054D01*
Y751211D01*
X1128289Y753750D01*
X1133367D01*
X1135907Y751211D01*
X1140985Y753750D02*
X1146063D01*
X1143524D01*
Y738515D01*
X1140985Y741054D01*
X1153681D02*
X1156220Y738515D01*
X1161299D01*
X1163838Y741054D01*
Y751211D01*
X1161299Y753750D01*
X1156220D01*
X1153681Y751211D01*
Y741054D01*
X1271304Y712093D02*
X1268765Y714632D01*
Y719711D01*
X1271304Y722250D01*
X1281461D01*
X1284000Y719711D01*
Y714632D01*
X1281461Y712093D01*
Y707015D02*
X1284000Y704476D01*
Y699397D01*
X1281461Y696858D01*
X1271304D01*
X1268765Y699397D01*
Y704476D01*
X1271304Y707015D01*
X1273843D01*
X1276383Y704476D01*
Y696858D01*
X1146813Y989834D02*
X1149352Y992373D01*
X1154431D01*
X1156970Y989834D01*
Y979677D01*
X1154431Y977138D01*
X1149352D01*
X1146813Y979677D01*
X1141735Y989834D02*
X1139196Y992373D01*
X1134117D01*
X1131578Y989834D01*
Y987295D01*
X1134117Y984755D01*
X1131578Y982216D01*
Y979677D01*
X1134117Y977138D01*
X1139196D01*
X1141735Y979677D01*
Y982216D01*
X1139196Y984755D01*
X1141735Y987295D01*
Y989834D01*
X1139196Y984755D02*
X1134117D01*
X1482804Y380593D02*
X1480265Y383133D01*
Y388211D01*
X1482804Y390750D01*
X1492961D01*
X1495500Y388211D01*
Y383133D01*
X1492961Y380593D01*
X1480265Y365358D02*
X1482804Y370437D01*
X1487883Y375515D01*
X1492961D01*
X1495500Y372976D01*
Y367897D01*
X1492961Y365358D01*
X1490422D01*
X1487883Y367897D01*
Y375515D01*
X1482804Y360280D02*
X1480265Y357741D01*
Y352662D01*
X1482804Y350123D01*
X1485343D01*
X1487883Y352662D01*
Y355201D01*
Y352662D01*
X1490422Y350123D01*
X1492961D01*
X1495500Y352662D01*
Y357741D01*
X1492961Y360280D01*
X1537304Y383343D02*
X1534765Y385882D01*
Y390961D01*
X1537304Y393500D01*
X1547461D01*
X1550000Y390961D01*
Y385882D01*
X1547461Y383343D01*
X1534765Y368108D02*
X1537304Y373187D01*
X1542383Y378265D01*
X1547461D01*
X1550000Y375726D01*
Y370647D01*
X1547461Y368108D01*
X1544922D01*
X1542383Y370647D01*
Y378265D01*
X1550000Y355412D02*
X1534765D01*
X1542383Y363030D01*
Y352873D01*
D31*
X1452500Y416000D02*
Y424000D01*
X1467500Y416000D02*
Y424000D01*
X1507625Y416000D02*
Y424000D01*
X1522625Y416000D02*
Y424000D01*
X1562750Y416000D02*
Y424000D01*
X1577750Y416000D02*
Y424000D01*
X1140725Y956382D02*
X1146382Y950725D01*
X1130118Y945775D02*
X1135775Y940118D01*
X1193500Y949500D02*
Y957500D01*
X1178500Y949500D02*
Y957500D01*
X1250750Y949500D02*
Y957500D01*
X1235750Y949500D02*
Y957500D01*
X1308000Y949500D02*
Y957500D01*
X1293000Y949500D02*
Y957500D01*
X1133250Y777250D02*
X1141250D01*
X1133250Y762250D02*
X1141250D01*
X1133250Y833875D02*
X1141250Y833875D01*
X1133250Y818875D02*
X1141250D01*
X1133250Y890500D02*
X1141250Y890500D01*
X1133250Y875500D02*
X1141250Y875500D01*
X1295000Y706750D02*
Y714750D01*
X1310000Y706750D02*
Y714750D01*
X1243000D02*
X1243000Y706750D01*
X1258000D02*
Y714750D01*
X1191000Y714750D02*
X1191000Y706750D01*
X1206000Y706750D02*
Y714750D01*
X1550000Y415500D02*
Y423500D01*
X1535000Y415500D02*
Y423500D01*
X1495250Y416250D02*
Y424250D01*
X1480250Y416250D02*
Y424250D01*
M02*
