%FSLAX44Y44*%
%MOMM*%
G71*
G01*
G75*
G04 Layer_Physical_Order=7*
G04 Layer_Color=128*
%ADD10R,2.0000X4.0000*%
%ADD11R,0.4500X2.0000*%
%ADD12R,1.1000X1.7000*%
%ADD13C,0.4000*%
%ADD14R,1.7000X1.1000*%
%ADD15R,2.6000X1.1000*%
%ADD16R,1.5000X1.5000*%
%ADD17C,0.3600*%
%ADD18C,0.3000*%
%ADD19R,1.1000X2.6000*%
%ADD20R,0.6000X1.1500*%
%ADD21R,1.1500X0.7500*%
%ADD22R,2.0000X2.0000*%
%ADD23C,2.0000*%
%ADD24C,0.2540*%
%ADD25C,0.3048*%
%ADD26C,0.1000*%
%ADD27C,1.0000*%
%ADD28C,0.4000*%
%ADD29C,2.0000*%
%ADD30C,0.5080*%
%ADD31C,0.2000*%
%ADD32C,0.5000*%
%ADD33C,1.5240*%
%ADD34C,1.5000*%
%ADD35R,1.5000X1.5000*%
%ADD36C,3.8000*%
%ADD37C,1.6000*%
%ADD38R,1.6000X1.6000*%
%ADD39R,1.8500X1.8500*%
%ADD40C,1.8500*%
%ADD41R,1.3500X1.3500*%
%ADD42C,1.3500*%
%ADD43R,1.3500X1.3500*%
%ADD44C,1.7780*%
%ADD45C,1.0000*%
%ADD46C,1.2700*%
%ADD47C,7.0000*%
%ADD48C,1.0160*%
%ADD49C,1.1620*%
%ADD50C,1.3000*%
%ADD51C,2.7000*%
%ADD52C,1.3200*%
%ADD53C,1.2000*%
%ADD54C,1.6700*%
%ADD55C,0.9000*%
%ADD56C,0.6500*%
%ADD57C,5.4000*%
%ADD58C,0.3000*%
%ADD59C,0.0025*%
D34*
X1418000Y312650D02*
D03*
D49*
X671750Y133500D02*
D03*
X709750D02*
D03*
X747750D02*
D03*
D50*
X1569000Y134000D02*
D03*
Y159400D02*
D03*
X1594400Y134000D02*
D03*
X1619800D02*
D03*
X1645200D02*
D03*
X1670600D02*
D03*
X1696000D02*
D03*
X1721400D02*
D03*
X1746800D02*
D03*
X1772200D02*
D03*
X1797600D02*
D03*
X1533760Y1203960D02*
D03*
Y1229360D02*
D03*
X1559160Y1203960D02*
D03*
Y1229360D02*
D03*
X1584560Y1203960D02*
D03*
Y1229360D02*
D03*
X1609960Y1203960D02*
D03*
Y1229360D02*
D03*
X898760Y1203960D02*
D03*
Y1229360D02*
D03*
X924160Y1203960D02*
D03*
Y1229360D02*
D03*
X949560Y1203960D02*
D03*
Y1229360D02*
D03*
X974960Y1203960D02*
D03*
Y1229360D02*
D03*
X1000360Y1203960D02*
D03*
Y1229360D02*
D03*
X1025760Y1203960D02*
D03*
Y1229360D02*
D03*
X1051160Y1203960D02*
D03*
Y1229360D02*
D03*
X1076560Y1203960D02*
D03*
Y1229360D02*
D03*
X1101960Y1203960D02*
D03*
Y1229360D02*
D03*
X1127360Y1203960D02*
D03*
Y1229360D02*
D03*
X1152760Y1203960D02*
D03*
Y1229360D02*
D03*
X1178160Y1203960D02*
D03*
Y1229360D02*
D03*
X1203560Y1203960D02*
D03*
Y1229360D02*
D03*
X1228960Y1203960D02*
D03*
Y1229360D02*
D03*
X1254360Y1203960D02*
D03*
Y1229360D02*
D03*
X1279760Y1203960D02*
D03*
Y1229360D02*
D03*
X1305160Y1203960D02*
D03*
Y1229360D02*
D03*
X1330560Y1203960D02*
D03*
Y1229360D02*
D03*
X1355960Y1203960D02*
D03*
Y1229360D02*
D03*
X1381360Y1203960D02*
D03*
Y1229360D02*
D03*
X1406760Y1203960D02*
D03*
Y1229360D02*
D03*
X1432160Y1203960D02*
D03*
Y1229360D02*
D03*
X1457560Y1203960D02*
D03*
Y1229360D02*
D03*
X1482960Y1203960D02*
D03*
Y1229360D02*
D03*
X1508360Y1203960D02*
D03*
Y1229360D02*
D03*
X1774160Y494360D02*
D03*
X1748760D02*
D03*
X1774160Y519760D02*
D03*
X1748760D02*
D03*
X1774160Y545160D02*
D03*
X1748760D02*
D03*
X1774160Y570560D02*
D03*
X1748760D02*
D03*
X1774160Y595960D02*
D03*
X1748760D02*
D03*
X1774160Y621360D02*
D03*
X1748760D02*
D03*
X1774160Y646760D02*
D03*
X1748760D02*
D03*
X1774160Y672160D02*
D03*
X1748760D02*
D03*
X1774160Y697560D02*
D03*
X1748760D02*
D03*
X1774160Y722960D02*
D03*
X1748760D02*
D03*
X1774160Y748360D02*
D03*
X1748760D02*
D03*
Y773760D02*
D03*
Y799160D02*
D03*
Y824560D02*
D03*
X1774160Y849960D02*
D03*
X1748760D02*
D03*
X1774160Y875360D02*
D03*
X1748760D02*
D03*
X1774160Y900760D02*
D03*
X1748760D02*
D03*
X1774160Y926160D02*
D03*
X1748760D02*
D03*
X1774160Y951560D02*
D03*
X1748760D02*
D03*
X1774160Y976960D02*
D03*
X1748760D02*
D03*
X1774160Y1002360D02*
D03*
X1748760D02*
D03*
X1774160Y1027760D02*
D03*
X1748760D02*
D03*
X1774160Y1053160D02*
D03*
X1748760D02*
D03*
X1774160Y1078560D02*
D03*
X1748760D02*
D03*
X1774160Y1103960D02*
D03*
X1748760D02*
D03*
X1774160Y367360D02*
D03*
X1748760D02*
D03*
X1774160Y392760D02*
D03*
X1748760D02*
D03*
X1774160Y418160D02*
D03*
X1748760D02*
D03*
X1774160Y443560D02*
D03*
X1748760D02*
D03*
X1774160Y468960D02*
D03*
X1748760D02*
D03*
X774160Y494360D02*
D03*
X748760D02*
D03*
X774160Y519760D02*
D03*
X748760D02*
D03*
X774160Y545160D02*
D03*
X748760D02*
D03*
X774160Y570560D02*
D03*
X748760D02*
D03*
X774160Y595960D02*
D03*
X748760D02*
D03*
X774160Y621360D02*
D03*
X748760D02*
D03*
X774160Y646760D02*
D03*
X748760D02*
D03*
X774160Y672160D02*
D03*
X748760D02*
D03*
X774160Y697560D02*
D03*
X748760D02*
D03*
X774160Y722960D02*
D03*
X748760D02*
D03*
X774160Y748360D02*
D03*
X748760D02*
D03*
X774160Y773760D02*
D03*
X748760D02*
D03*
X774160Y799160D02*
D03*
X748760D02*
D03*
X774160Y824560D02*
D03*
X748760D02*
D03*
X774160Y849960D02*
D03*
X748760D02*
D03*
X774160Y875360D02*
D03*
X748760D02*
D03*
X774160Y900760D02*
D03*
X748760D02*
D03*
X774160Y926160D02*
D03*
X748760D02*
D03*
X774160Y951560D02*
D03*
X748760D02*
D03*
X774160Y976960D02*
D03*
X748760D02*
D03*
X774160Y1002360D02*
D03*
X748760D02*
D03*
X774160Y1027760D02*
D03*
X748760D02*
D03*
X774160Y1053160D02*
D03*
X748760D02*
D03*
X774160Y1078560D02*
D03*
X748760D02*
D03*
X774160Y1103960D02*
D03*
X748760D02*
D03*
X774160Y367360D02*
D03*
X748760D02*
D03*
X774160Y392760D02*
D03*
X748760D02*
D03*
X774160Y418160D02*
D03*
Y443560D02*
D03*
Y468960D02*
D03*
X748760D02*
D03*
X624840Y1229360D02*
D03*
Y1203960D02*
D03*
Y1178560D02*
D03*
Y1153160D02*
D03*
X544950Y278000D02*
D03*
X570350D02*
D03*
X595750D02*
D03*
X547200Y221500D02*
D03*
X572600D02*
D03*
X598000D02*
D03*
X1186000Y201500D02*
D03*
Y176100D02*
D03*
Y150700D02*
D03*
D51*
X1855350Y208550D02*
D03*
Y328950D02*
D03*
D52*
X1828250Y256250D02*
D03*
Y281250D02*
D03*
X1808250Y256250D02*
D03*
Y281250D02*
D03*
D53*
X955000Y265500D02*
D03*
X832500Y225000D02*
D03*
X1114250Y327250D02*
D03*
X875750Y133750D02*
D03*
X1061250D02*
D03*
D54*
X650000Y338800D02*
D03*
D55*
X751750Y155000D02*
D03*
X1084000Y169500D02*
D03*
X1864750Y502750D02*
D03*
X1853500Y471750D02*
D03*
X1830775Y442750D02*
D03*
X1438000Y411500D02*
D03*
X1590250Y409500D02*
D03*
X1423750Y429750D02*
D03*
X1418750Y466250D02*
D03*
X1393500Y418000D02*
D03*
X1387250Y565250D02*
D03*
X1323750Y611250D02*
D03*
X1321000Y551500D02*
D03*
X1633000Y819750D02*
D03*
X1144250Y217250D02*
D03*
X1144500Y235500D02*
D03*
X1143250Y253750D02*
D03*
X710750Y236750D02*
D03*
X1026250Y218500D02*
D03*
X1064000Y172500D02*
D03*
X1570750Y792500D02*
D03*
X1090750Y461750D02*
D03*
X1859250Y411750D02*
D03*
X715250Y166000D02*
D03*
X730250Y165250D02*
D03*
X901500Y172500D02*
D03*
X1048000Y172500D02*
D03*
X909000Y235500D02*
D03*
X967500Y213000D02*
D03*
X1052500Y299000D02*
D03*
X719266Y302734D02*
D03*
X803250Y219250D02*
D03*
X787250Y235250D02*
D03*
X870750Y233750D02*
D03*
X886500Y246750D02*
D03*
X1409250Y934250D02*
D03*
X1432500Y935250D02*
D03*
X1070500Y923500D02*
D03*
X1087000Y902000D02*
D03*
X1174500Y515000D02*
D03*
X1175000Y408250D02*
D03*
X1203800Y469950D02*
D03*
X1232600Y469900D02*
D03*
X1261400Y468850D02*
D03*
X1290200Y468550D02*
D03*
X1332750Y528000D02*
D03*
X1107500Y237250D02*
D03*
X1398000Y743756D02*
D03*
X1905750Y676250D02*
D03*
X1869250Y645250D02*
D03*
X1085500Y742500D02*
D03*
X680500Y295500D02*
D03*
X1570750Y765750D02*
D03*
X1639000Y765000D02*
D03*
X1671750Y764750D02*
D03*
X1408000Y597750D02*
D03*
X1607750Y792750D02*
D03*
X1639250Y792750D02*
D03*
X1672000Y792500D02*
D03*
X1509500Y947250D02*
D03*
X1581250Y836500D02*
D03*
X1531000D02*
D03*
D56*
X1560250Y630000D02*
D03*
Y636500D02*
D03*
X1560000Y606000D02*
D03*
Y598500D02*
D03*
X1583250Y606000D02*
D03*
X1608750Y573500D02*
D03*
X1624750Y573500D02*
D03*
X1477750Y457500D02*
D03*
X1321680Y772040D02*
D03*
X1632250Y573500D02*
D03*
X1477750Y465500D02*
D03*
X1321680Y780040D02*
D03*
X1617250Y633500D02*
D03*
X1461750Y489500D02*
D03*
X1305680Y796040D02*
D03*
X1647250Y596000D02*
D03*
X1461750Y497500D02*
D03*
X1297680Y772040D02*
D03*
X1647250Y573500D02*
D03*
X1485750Y473500D02*
D03*
X1321680Y788040D02*
D03*
X1662250Y633500D02*
D03*
X1469750Y497500D02*
D03*
X1305680Y772040D02*
D03*
X1485750Y497500D02*
D03*
X1289680Y804040D02*
D03*
X1624500Y467250D02*
D03*
X1632000D02*
D03*
X1617000Y527250D02*
D03*
X1662000D02*
D03*
X1647000Y467250D02*
D03*
Y489750D02*
D03*
X1265680Y780040D02*
D03*
X1233680Y772040D02*
D03*
X1241680D02*
D03*
X1265680Y764040D02*
D03*
Y756040D02*
D03*
X1257680D02*
D03*
X1273680Y780040D02*
D03*
X1281680D02*
D03*
X1273680Y788040D02*
D03*
X1233680Y764040D02*
D03*
X1225680Y772040D02*
D03*
X1241680Y764040D02*
D03*
X1193680Y756040D02*
D03*
X1233680Y780040D02*
D03*
X1225680D02*
D03*
X1217680D02*
D03*
X1209680Y788040D02*
D03*
X1241680Y796040D02*
D03*
X1233680Y804040D02*
D03*
X1225680D02*
D03*
X1233680Y788040D02*
D03*
X1305680Y852040D02*
D03*
X1321680D02*
D03*
Y868040D02*
D03*
X1313680Y836040D02*
D03*
X1297680Y852040D02*
D03*
X1525750Y529500D02*
D03*
X1509750Y521500D02*
D03*
X1493750D02*
D03*
X1517750D02*
D03*
X1525750Y537500D02*
D03*
X1493750Y529500D02*
D03*
Y537500D02*
D03*
Y545500D02*
D03*
X1525750Y465500D02*
D03*
X1305680Y844040D02*
D03*
X1289680Y836040D02*
D03*
Y812040D02*
D03*
X1265680Y788040D02*
D03*
X1289680Y820040D02*
D03*
Y788040D02*
D03*
X1321220Y812500D02*
D03*
X1193680Y860040D02*
D03*
Y852040D02*
D03*
Y844040D02*
D03*
X1185680Y852040D02*
D03*
Y844040D02*
D03*
X1177680Y860040D02*
D03*
Y852040D02*
D03*
Y844040D02*
D03*
Y836040D02*
D03*
X1209680Y852040D02*
D03*
X1201680D02*
D03*
X1193680Y836040D02*
D03*
X1185680D02*
D03*
Y812040D02*
D03*
X1177680Y804040D02*
D03*
Y796040D02*
D03*
Y788040D02*
D03*
Y780040D02*
D03*
Y772040D02*
D03*
Y812040D02*
D03*
X1185680Y788040D02*
D03*
X1177680Y764040D02*
D03*
Y820040D02*
D03*
Y876040D02*
D03*
Y868040D02*
D03*
X1225680Y820040D02*
D03*
X1201680Y844040D02*
D03*
X1177680Y884040D02*
D03*
X1185680D02*
D03*
Y820040D02*
D03*
X1193680Y868040D02*
D03*
Y820040D02*
D03*
X1201680Y868040D02*
D03*
Y820040D02*
D03*
X1193680Y876040D02*
D03*
X1209680Y860040D02*
D03*
X1193680Y812040D02*
D03*
X1217680Y860040D02*
D03*
X1201680Y812040D02*
D03*
X1185680Y868040D02*
D03*
X1193680Y804040D02*
D03*
X1217680Y852040D02*
D03*
X1185680Y796040D02*
D03*
X1193680Y788040D02*
D03*
X1185680Y780040D02*
D03*
X1209680Y844040D02*
D03*
X1217680D02*
D03*
X1185680Y772040D02*
D03*
X1193680Y796040D02*
D03*
X1201680D02*
D03*
X1217680Y836040D02*
D03*
X1225680Y844040D02*
D03*
X1185680Y764040D02*
D03*
X1193680Y780040D02*
D03*
X1217680Y820040D02*
D03*
X1509750Y473500D02*
D03*
X1297680Y836040D02*
D03*
X1281680D02*
D03*
X1265680Y804040D02*
D03*
X1297680Y764040D02*
D03*
X1281680D02*
D03*
X1273680Y868040D02*
D03*
X1281680Y852040D02*
D03*
X1273680D02*
D03*
X1297680Y892040D02*
D03*
X1289680Y900040D02*
D03*
X1281680Y892040D02*
D03*
X1233680Y900040D02*
D03*
X1225680Y860040D02*
D03*
X1217680Y868040D02*
D03*
Y876040D02*
D03*
X1193680Y892040D02*
D03*
X1209680Y884040D02*
D03*
X1233680Y796040D02*
D03*
X1225680D02*
D03*
X1217680D02*
D03*
X1313680Y900040D02*
D03*
X1305680D02*
D03*
Y892040D02*
D03*
X1313680Y876040D02*
D03*
X1289680Y892040D02*
D03*
X1241680Y900040D02*
D03*
X1289680Y884040D02*
D03*
X1305680Y868040D02*
D03*
X1233680Y892040D02*
D03*
X1217680Y884040D02*
D03*
X1305680Y860040D02*
D03*
X1289680Y876040D02*
D03*
X1265680Y884040D02*
D03*
X1233680D02*
D03*
X1257680D02*
D03*
X1241680D02*
D03*
X1297680Y860040D02*
D03*
X1233680Y876040D02*
D03*
X1257680D02*
D03*
X1225680Y868040D02*
D03*
X1289680Y852040D02*
D03*
X1265680Y868040D02*
D03*
X1233680D02*
D03*
X1289680Y844040D02*
D03*
X1257680Y868040D02*
D03*
X1273680Y860040D02*
D03*
X1265680D02*
D03*
X1233680D02*
D03*
X1281680Y844040D02*
D03*
X1265680Y852040D02*
D03*
X1233680D02*
D03*
X1273680Y844040D02*
D03*
X1257680Y852040D02*
D03*
X1477750Y497500D02*
D03*
X1493750Y473500D02*
D03*
Y465500D02*
D03*
X1185680Y756040D02*
D03*
Y892040D02*
D03*
Y876040D02*
D03*
X1209680Y764040D02*
D03*
X1201680Y884040D02*
D03*
X1297680Y876040D02*
D03*
X1201680D02*
D03*
X1241680Y892040D02*
D03*
X1201680Y860040D02*
D03*
X1209680Y868040D02*
D03*
X1201680Y804040D02*
D03*
X1241680Y868040D02*
D03*
X1209680Y836040D02*
D03*
Y820040D02*
D03*
X1241680Y852040D02*
D03*
X1225680Y836040D02*
D03*
X1273680Y820040D02*
D03*
X1257680Y804040D02*
D03*
Y844040D02*
D03*
X1265680Y836040D02*
D03*
X1233680Y820040D02*
D03*
X1257680D02*
D03*
X1525750Y497500D02*
D03*
X1485750Y489500D02*
D03*
X1525750Y513500D02*
D03*
X1517750Y481500D02*
D03*
X1525750Y489500D02*
D03*
Y521500D02*
D03*
X1477750Y481500D02*
D03*
X1509750Y465500D02*
D03*
X1469750Y473500D02*
D03*
X1509750Y457500D02*
D03*
X1533750Y465500D02*
D03*
X1493750Y457500D02*
D03*
X1525750D02*
D03*
X1541750Y537500D02*
D03*
X1533750Y457500D02*
D03*
X1461750Y465500D02*
D03*
X1469750Y457500D02*
D03*
X1541750D02*
D03*
X1549750Y545500D02*
D03*
Y457500D02*
D03*
X1201680Y764040D02*
D03*
Y772040D02*
D03*
X1289680Y868040D02*
D03*
X1241680Y836040D02*
D03*
X1321680Y892040D02*
D03*
X1313680D02*
D03*
Y868040D02*
D03*
X1305680Y876040D02*
D03*
X1313680Y884040D02*
D03*
X1485750Y457500D02*
D03*
X1549750Y497500D02*
D03*
X1461750Y457500D02*
D03*
X1265680Y796040D02*
D03*
X1313680Y772040D02*
D03*
X1177680Y892040D02*
D03*
X1265680D02*
D03*
X1281680Y884040D02*
D03*
Y900040D02*
D03*
X1257680Y892040D02*
D03*
Y900040D02*
D03*
X1265680D02*
D03*
X1273680D02*
D03*
Y884040D02*
D03*
Y876040D02*
D03*
X1265680D02*
D03*
X1281680D02*
D03*
Y868040D02*
D03*
X1313680Y780040D02*
D03*
X1226310Y876043D02*
D03*
Y884043D02*
D03*
Y900044D02*
D03*
X1217680Y892040D02*
D03*
X1185680Y900040D02*
D03*
X1201680Y892040D02*
D03*
X1193680Y900040D02*
D03*
X1201680D02*
D03*
X1209680D02*
D03*
Y892040D02*
D03*
X1313680Y820040D02*
D03*
X1297680Y796040D02*
D03*
X1321680Y764040D02*
D03*
X1477750Y473500D02*
D03*
X1493750Y481500D02*
D03*
X1485750D02*
D03*
X1233680Y756040D02*
D03*
X1281680Y772040D02*
D03*
X1273680D02*
D03*
X1257680Y764040D02*
D03*
X1265680Y772040D02*
D03*
X1257680Y772038D02*
D03*
Y860040D02*
D03*
X1241680D02*
D03*
X1217680Y772040D02*
D03*
X1201680Y756040D02*
D03*
X1225680D02*
D03*
X1241680D02*
D03*
X1209680D02*
D03*
Y772040D02*
D03*
X1217680Y764040D02*
D03*
Y756500D02*
D03*
X1241680Y812040D02*
D03*
X1257680Y788040D02*
D03*
X1241680D02*
D03*
X1257680Y796040D02*
D03*
X1241680Y804040D02*
D03*
X1217750Y900250D02*
D03*
X1268000Y564000D02*
D03*
X1260000Y556000D02*
D03*
X1276000D02*
D03*
X1212000Y572000D02*
D03*
X1228000Y564000D02*
D03*
X1236000Y556000D02*
D03*
X1284000Y572000D02*
D03*
X1268000D02*
D03*
X1236000D02*
D03*
X1236000Y524000D02*
D03*
X1228000D02*
D03*
X1236000Y516000D02*
D03*
X1228000D02*
D03*
X1236000Y508000D02*
D03*
X1228000D02*
D03*
X1228000Y500000D02*
D03*
X1268000Y524000D02*
D03*
X1260000Y524000D02*
D03*
Y516000D02*
D03*
X1268000Y516000D02*
D03*
X1260000Y508000D02*
D03*
X1268000Y508000D02*
D03*
Y500000D02*
D03*
X1228000Y532000D02*
D03*
Y540000D02*
D03*
X1236000D02*
D03*
X1220000Y532000D02*
D03*
X1216000Y500000D02*
D03*
X1260000Y532000D02*
D03*
Y540000D02*
D03*
X1268000D02*
D03*
Y548000D02*
D03*
X1276000Y540000D02*
D03*
X1284000Y544000D02*
D03*
Y560000D02*
D03*
Y580000D02*
D03*
X1211500Y543750D02*
D03*
X1258500Y563750D02*
D03*
X1236000Y532000D02*
D03*
X1284000Y524000D02*
D03*
X1216000Y582500D02*
D03*
X1212000Y552000D02*
D03*
Y560000D02*
D03*
X1275750Y579750D02*
D03*
X1617250Y573500D02*
D03*
X1662000Y504750D02*
D03*
X1617000Y489750D02*
D03*
Y467250D02*
D03*
X1624750Y633500D02*
D03*
X1624500Y527250D02*
D03*
X1533750Y537500D02*
D03*
X1297680Y804040D02*
D03*
X1632250Y633500D02*
D03*
X1632000Y527250D02*
D03*
X1533750Y545500D02*
D03*
X1647250Y633500D02*
D03*
X1647000Y527250D02*
D03*
X1321680Y820040D02*
D03*
X1541750Y529500D02*
D03*
X1654750Y633500D02*
D03*
X1654500Y527250D02*
D03*
X1281680Y820040D02*
D03*
X1549750Y521500D02*
D03*
X1617250Y626000D02*
D03*
X1617000Y519750D02*
D03*
X1313680Y812040D02*
D03*
X1461750Y545500D02*
D03*
X1624750Y626000D02*
D03*
X1624500Y519750D02*
D03*
X1321680Y876040D02*
D03*
X1509750Y537500D02*
D03*
X1632250Y626000D02*
D03*
X1632000Y519750D02*
D03*
X1305680Y820040D02*
D03*
X1533750Y521500D02*
D03*
X1647250Y626000D02*
D03*
X1647000Y519750D02*
D03*
X1281680Y812040D02*
D03*
X1533750Y529500D02*
D03*
X1662250Y626000D02*
D03*
X1662000Y519750D02*
D03*
X1305680Y788040D02*
D03*
X1461750Y513500D02*
D03*
X1617250Y618500D02*
D03*
X1617000Y512250D02*
D03*
X1469750Y537500D02*
D03*
X1297680Y812040D02*
D03*
X1624750Y618500D02*
D03*
X1624500Y512250D02*
D03*
X1469750Y545500D02*
D03*
X1305680Y812040D02*
D03*
X1632250Y618500D02*
D03*
X1632000Y512250D02*
D03*
X1485750Y513500D02*
D03*
X1305680Y780040D02*
D03*
X1647250Y618500D02*
D03*
X1647000Y512250D02*
D03*
X1273680Y836040D02*
D03*
X1541750Y521500D02*
D03*
X1654750Y618500D02*
D03*
X1654500Y512250D02*
D03*
X1273680Y812040D02*
D03*
X1477750Y513500D02*
D03*
X1662250Y618500D02*
D03*
X1662000Y512250D02*
D03*
X1469750Y513500D02*
D03*
X1281680Y788040D02*
D03*
X1624750Y611000D02*
D03*
X1624500Y504750D02*
D03*
X1313680Y844040D02*
D03*
X1477750Y545500D02*
D03*
X1632250Y611000D02*
D03*
X1632000Y504750D02*
D03*
X1654750Y611000D02*
D03*
X1654500Y504750D02*
D03*
X1313680Y788040D02*
D03*
X1461750Y521500D02*
D03*
X1662250Y611000D02*
D03*
X1617250Y596000D02*
D03*
X1624750D02*
D03*
X1624500Y489750D02*
D03*
X1305680Y836040D02*
D03*
X1477750Y537500D02*
D03*
X1632250Y596000D02*
D03*
X1632000Y489750D02*
D03*
X1321680Y836040D02*
D03*
X1541750Y513500D02*
D03*
X1654750Y596000D02*
D03*
X1654500Y489750D02*
D03*
X1469750Y521500D02*
D03*
X1297680Y788040D02*
D03*
X1617250Y588500D02*
D03*
X1617000Y482250D02*
D03*
X1313680Y860040D02*
D03*
X1477750Y529500D02*
D03*
X1624750Y588500D02*
D03*
X1624500Y482250D02*
D03*
X1297680Y844040D02*
D03*
X1485750Y545500D02*
D03*
X1632250Y588500D02*
D03*
X1632000Y482250D02*
D03*
X1321680Y844040D02*
D03*
X1533750Y513500D02*
D03*
X1647250Y588500D02*
D03*
X1647000Y482250D02*
D03*
X1549750Y489500D02*
D03*
X1321680Y804040D02*
D03*
X1654750Y588500D02*
D03*
X1654500Y482250D02*
D03*
X1281680Y804040D02*
D03*
X1461750Y529500D02*
D03*
X1662250Y588500D02*
D03*
X1662000Y482250D02*
D03*
X1313680Y804040D02*
D03*
X1469750Y529500D02*
D03*
X1617250Y581000D02*
D03*
X1617000Y474750D02*
D03*
X1321680Y860040D02*
D03*
X1485750Y537500D02*
D03*
X1632250Y581000D02*
D03*
X1632000Y474750D02*
D03*
X1289680Y796040D02*
D03*
X1541750Y489500D02*
D03*
X1647250Y581000D02*
D03*
X1647000Y474750D02*
D03*
X1321680Y796040D02*
D03*
X1525750Y473500D02*
D03*
X1662250Y581000D02*
D03*
X1662000Y474750D02*
D03*
X1305680Y804040D02*
D03*
X1461750Y537500D02*
D03*
X1517750Y473500D02*
D03*
X1281680Y796040D02*
D03*
X1654750Y573500D02*
D03*
X1654500Y467250D02*
D03*
X1321680Y884040D02*
D03*
X1509750Y529500D02*
D03*
X1549750Y537500D02*
D03*
X1513500Y492750D02*
D03*
X1289680Y756040D02*
D03*
X1305720Y756000D02*
D03*
X1313680Y756040D02*
D03*
Y764040D02*
D03*
X1305680D02*
D03*
X1289680D02*
D03*
Y772040D02*
D03*
X1533750Y481500D02*
D03*
X1549750D02*
D03*
X1541750D02*
D03*
X1549750Y473500D02*
D03*
X1541750D02*
D03*
X1525750Y481500D02*
D03*
X1236750Y564000D02*
D03*
X1654750Y626000D02*
D03*
X1654500Y519750D02*
D03*
X1319000Y439250D02*
D03*
D57*
X597500Y1325000D02*
D03*
X1900000D02*
D03*
X597500Y147500D02*
D03*
X1900000D02*
D03*
D59*
X522500Y95000D02*
Y1385000D01*
Y95000D02*
X1965000D01*
Y1385000D01*
X522500D02*
X1965000D01*
M02*
