%FSLAX44Y44*%
%MOMM*%
G71*
G01*
G75*
G04 Layer_Physical_Order=6*
G04 Layer_Color=6736896*
%ADD10R,2.0000X4.0000*%
%ADD11R,0.4500X2.0000*%
%ADD12R,1.1000X1.7000*%
%ADD13C,0.4000*%
%ADD14R,1.7000X1.1000*%
%ADD15R,2.6000X1.1000*%
%ADD16R,1.5000X1.5000*%
%ADD17C,0.3600*%
%ADD18C,0.3000*%
%ADD19R,1.1000X2.6000*%
%ADD20R,0.6000X1.1500*%
%ADD21R,1.1500X0.7500*%
%ADD22R,2.0000X2.0000*%
%ADD23C,2.0000*%
%ADD24C,0.2540*%
%ADD25C,0.3048*%
%ADD26C,0.1000*%
%ADD27C,1.0000*%
%ADD28C,0.4000*%
%ADD29C,2.0000*%
%ADD30C,0.5080*%
%ADD31C,0.2000*%
%ADD32C,0.5000*%
%ADD33C,1.5240*%
%ADD34C,1.5000*%
%ADD35R,1.5000X1.5000*%
%ADD36C,3.8000*%
%ADD37C,1.6000*%
%ADD38R,1.6000X1.6000*%
%ADD39R,1.8500X1.8500*%
%ADD40C,1.8500*%
%ADD41R,1.3500X1.3500*%
%ADD42C,1.3500*%
%ADD43R,1.3500X1.3500*%
%ADD44C,1.7780*%
%ADD45C,1.0000*%
%ADD46C,1.2700*%
%ADD47C,7.0000*%
%ADD48C,1.0160*%
%ADD49C,1.1620*%
%ADD50C,1.3000*%
%ADD51C,2.7000*%
%ADD52C,1.3200*%
%ADD53C,1.2000*%
%ADD54C,1.6700*%
%ADD55C,0.9000*%
%ADD56C,0.6500*%
%ADD57C,5.4000*%
%ADD58C,0.3000*%
D13*
X1608750Y573500D02*
D03*
X1461750Y497500D02*
D03*
X1485750Y473500D02*
D03*
Y497500D02*
D03*
X1647000Y467250D02*
D03*
Y489750D02*
D03*
X1233680Y772040D02*
D03*
X1217680Y780040D02*
D03*
X1233680Y788040D02*
D03*
X1321680Y868040D02*
D03*
X1509750Y521500D02*
D03*
X1193680Y844040D02*
D03*
X1201680Y852040D02*
D03*
X1193680Y868040D02*
D03*
Y820040D02*
D03*
X1209680Y860040D02*
D03*
X1201680Y812040D02*
D03*
X1209680Y844040D02*
D03*
X1185680Y772040D02*
D03*
X1193680Y796040D02*
D03*
X1201680D02*
D03*
X1217680Y836040D02*
D03*
X1185680Y764040D02*
D03*
X1193680Y780040D02*
D03*
X1217680Y820040D02*
D03*
X1297680Y836040D02*
D03*
X1265680Y804040D02*
D03*
X1281680Y892040D02*
D03*
X1233680Y900040D02*
D03*
Y796040D02*
D03*
X1225680D02*
D03*
X1313680Y900040D02*
D03*
X1241680D02*
D03*
X1273680Y860040D02*
D03*
X1265680D02*
D03*
X1493750Y465500D02*
D03*
X1201680Y884040D02*
D03*
Y876040D02*
D03*
X1477750Y481500D02*
D03*
X1469750Y457500D02*
D03*
X1201680Y764040D02*
D03*
X1177680Y892040D02*
D03*
X1281680Y884040D02*
D03*
X1265680Y900040D02*
D03*
X1281680Y876040D02*
D03*
X1226310Y900044D02*
D03*
X1185680Y900040D02*
D03*
X1193680D02*
D03*
X1201680D02*
D03*
X1209680D02*
D03*
X1281680Y772040D02*
D03*
X1257680Y860040D02*
D03*
X1217750Y900250D02*
D03*
X1228000Y524000D02*
D03*
X1228000Y516000D02*
D03*
Y508000D02*
D03*
X1228000Y500000D02*
D03*
X1268000Y516000D02*
D03*
Y508000D02*
D03*
X1533750Y537500D02*
D03*
X1632000Y527250D02*
D03*
X1647000D02*
D03*
X1541750Y529500D02*
D03*
X1654500Y527250D02*
D03*
X1549750Y521500D02*
D03*
X1617250Y626000D02*
D03*
X1313680Y812040D02*
D03*
X1461750Y545500D02*
D03*
X1624500Y519750D02*
D03*
X1321680Y876040D02*
D03*
X1509750Y537500D02*
D03*
X1533750Y521500D02*
D03*
X1647000Y519750D02*
D03*
X1305680Y788040D02*
D03*
X1461750Y513500D02*
D03*
X1469750Y537500D02*
D03*
X1297680Y812040D02*
D03*
X1469750Y545500D02*
D03*
X1305680Y812040D02*
D03*
X1647000Y512250D02*
D03*
X1273680Y812040D02*
D03*
X1477750Y513500D02*
D03*
X1469750D02*
D03*
X1281680Y788040D02*
D03*
X1313680Y844040D02*
D03*
X1477750Y545500D02*
D03*
X1313680Y788040D02*
D03*
X1461750Y521500D02*
D03*
X1305680Y836040D02*
D03*
X1477750Y537500D02*
D03*
X1632000Y489750D02*
D03*
X1541750Y513500D02*
D03*
X1654750Y596000D02*
D03*
X1654500Y489750D02*
D03*
X1469750Y521500D02*
D03*
X1297680Y788040D02*
D03*
X1313680Y860040D02*
D03*
X1477750Y529500D02*
D03*
X1297680Y844040D02*
D03*
X1485750Y545500D02*
D03*
X1632000Y482250D02*
D03*
X1533750Y513500D02*
D03*
X1647000Y482250D02*
D03*
X1549750Y489500D02*
D03*
X1281680Y804040D02*
D03*
X1461750Y529500D02*
D03*
X1662250Y588500D02*
D03*
X1662000Y482250D02*
D03*
X1313680Y804040D02*
D03*
X1469750Y529500D02*
D03*
X1321680Y860040D02*
D03*
X1485750Y537500D02*
D03*
X1632000Y474750D02*
D03*
X1541750Y489500D02*
D03*
X1647000Y474750D02*
D03*
X1525750Y473500D02*
D03*
X1662250Y581000D02*
D03*
X1662000Y474750D02*
D03*
X1305680Y804040D02*
D03*
X1461750Y537500D02*
D03*
X1517750Y473500D02*
D03*
X1321680Y884040D02*
D03*
X1509750Y529500D02*
D03*
X1654500Y519750D02*
D03*
D24*
X1337500Y888500D02*
X1366500Y917500D01*
X1078750Y792750D02*
X1108000Y822000D01*
X796000Y792750D02*
X1078750D01*
X788750Y785500D02*
X796000Y792750D01*
X1104250Y781250D02*
X1139000Y816000D01*
X857850Y781250D02*
X1104250D01*
X785470Y708870D02*
X857850Y781250D01*
X1102000Y787500D02*
X1138750Y824250D01*
X813300Y787500D02*
X1102000D01*
X785470Y759670D02*
X813300Y787500D01*
X950500Y765250D02*
X1146066D01*
X832444Y647194D02*
X950500Y765250D01*
X832444Y638250D02*
Y647194D01*
X1280250Y1230000D02*
X1292250Y1218000D01*
Y1084000D02*
Y1218000D01*
X1272750Y1064500D02*
X1292250Y1084000D01*
X1221420Y989830D02*
Y1058580D01*
X1178250Y1101750D02*
X1221420Y1058580D01*
X1178250Y1101750D02*
Y1203750D01*
X1051750Y863250D02*
X1074750Y840250D01*
X760870Y863250D02*
X1051750D01*
X748760Y875360D02*
X760870Y863250D01*
X762320Y811000D02*
X1052000D01*
X748760Y824560D02*
X762320Y811000D01*
X1074750Y840250D02*
X1101750D01*
X748760Y926160D02*
X760420Y914500D01*
X748760Y976960D02*
X761970Y963750D01*
X748760Y1027760D02*
X762270Y1014250D01*
X748760Y1078560D02*
X760070Y1067250D01*
X1165250Y993750D02*
Y1036500D01*
X1026000Y1175750D02*
X1165250Y1036500D01*
X1026000Y1175750D02*
Y1204250D01*
X1221420Y989830D02*
X1235440Y975810D01*
X1199280Y973720D02*
Y1036470D01*
Y973720D02*
X1217060Y955940D01*
X1165250Y993750D02*
X1208810Y950190D01*
X974750Y1195750D02*
X1134250Y1036250D01*
Y1001500D02*
Y1036250D01*
X1127000Y1139500D02*
X1209990Y1056510D01*
Y976289D02*
Y1056510D01*
Y976289D02*
X1225280Y960999D01*
X974750Y1195750D02*
Y1204250D01*
X1077000Y1158750D02*
X1199280Y1036470D01*
X1077000Y1158750D02*
Y1203500D01*
X1127000Y1139500D02*
Y1203250D01*
X1294000Y1042000D02*
X1317250Y1065250D01*
X1330560Y1201940D02*
X1342500Y1190000D01*
Y1027000D02*
Y1190000D01*
X1330560Y1201940D02*
Y1203960D01*
X1306250Y1229500D02*
X1317250Y1218500D01*
Y1065250D02*
Y1218500D01*
X1434500Y1057750D02*
Y1205000D01*
X1342500Y965750D02*
X1434500Y1057750D01*
X1342500Y965454D02*
Y965750D01*
X1484810Y1078810D02*
Y1202940D01*
X1326750Y920750D02*
X1484810Y1078810D01*
X1251750Y938750D02*
Y1073000D01*
X1229000Y1095750D02*
X1251750Y1073000D01*
X1229000Y1095750D02*
Y1203500D01*
X1280250Y1093500D02*
Y1205000D01*
X1260500Y1073750D02*
X1280250Y1093500D01*
X1260500Y940000D02*
Y1073750D01*
X1272750Y940250D02*
Y1064500D01*
X1294000Y945750D02*
Y1042000D01*
X1309250Y993750D02*
X1342500Y1027000D01*
X1309250Y951750D02*
Y993750D01*
X1272000Y914500D02*
X1309250Y951750D01*
X1260000Y927500D02*
X1272750Y940250D01*
X1265680Y917430D02*
X1294000Y945750D01*
X1235440Y943039D02*
Y975810D01*
Y943039D02*
X1237080Y941400D01*
X1225280Y921720D02*
Y960999D01*
X1237080Y915330D02*
Y941400D01*
X1236750Y915000D02*
X1237080Y915330D01*
X1483750Y1204000D02*
X1484810Y1202940D01*
X1309750Y920750D02*
X1326750D01*
X1313680Y902996D02*
X1318364Y907680D01*
X1313680Y900040D02*
Y902996D01*
X608500Y1145250D02*
X615000Y1138750D01*
X608500Y1145250D02*
Y1162220D01*
X624840Y1178560D01*
X762270Y1014250D02*
X1000250D01*
X1112000Y902500D01*
Y892250D02*
Y902500D01*
X760070Y1067250D02*
X961500D01*
X1120500Y908250D01*
Y899500D02*
Y908250D01*
X615000Y1138750D02*
X904000D01*
X1162750Y880000D01*
X623500Y1153000D02*
X902000D01*
X1162960Y892040D01*
X1177680D01*
X761970Y963750D02*
X1010000D01*
X1118000Y855750D01*
X760420Y914500D02*
X1010500D01*
X1076750Y848250D01*
X1323000Y966750D02*
X1380500Y1024250D01*
Y1202750D01*
X924000Y1196000D02*
Y1203750D01*
Y1196000D02*
X1187500Y932500D01*
Y922750D02*
Y932500D01*
X905560Y1181000D02*
X1185750Y900810D01*
X1159000Y908500D02*
X1163500D01*
X899000Y1168500D02*
X1159000Y908500D01*
X625250Y1204000D02*
X660750Y1168500D01*
X899000D01*
X624840Y1228910D02*
Y1229360D01*
Y1228910D02*
X672750Y1181000D01*
X905560D01*
X1070875Y660875D02*
X1113750Y703750D01*
X1150250Y769434D02*
Y775250D01*
X1146000Y778184D02*
Y793000D01*
X769475Y584650D02*
X778844D01*
X769475Y559250D02*
X778844D01*
X769475Y533850D02*
X778844D01*
X769475Y508450D02*
X778844D01*
X802644Y532250D01*
X748760Y519760D02*
X758165D01*
X769475Y508450D01*
X778844Y533850D02*
X833244Y588250D01*
X758165Y545160D02*
X769475Y533850D01*
X748760Y545160D02*
X758165D01*
X748760Y570560D02*
X758165D01*
X769475Y559250D01*
X748760Y595960D02*
X758165D01*
X769475Y584650D01*
X748760Y621360D02*
X760070Y610050D01*
X778844D01*
X762850Y753045D02*
X769475Y759670D01*
X748760Y722960D02*
X762850Y737050D01*
Y753045D01*
X769475Y759670D02*
X785470D01*
X762850Y702245D02*
X769475Y708870D01*
X748760Y672160D02*
X762850Y686250D01*
Y702245D01*
X769475Y708870D02*
X785470D01*
X778844Y584650D02*
X832444Y638250D01*
X778844Y610050D02*
X943045Y774250D01*
X1054250D01*
X1054250Y774250D01*
X1142066D01*
X1146000Y778184D01*
X1146066Y765250D02*
X1150250Y769434D01*
X778844Y559250D02*
X856844Y637250D01*
X833244Y588250D02*
X833250D01*
X935500Y690500D01*
X1091500D01*
X1099000Y698000D01*
X956000Y639250D02*
X977625Y660875D01*
X1070875D01*
X802644Y532250D02*
X803000D01*
X910000Y639250D01*
X956000D01*
X748760Y773760D02*
X755820Y780820D01*
X755820D01*
X760500Y785500D01*
X788750D01*
X856844Y637250D02*
Y637345D01*
X978500Y759000D01*
X1095250D01*
X1318364Y907680D02*
X1334180D01*
X1535500Y1109000D01*
Y1203500D01*
X1722075Y133325D02*
X1722250Y133500D01*
X1366500Y917500D02*
X1485750D01*
X1509500Y941250D01*
Y947250D01*
D26*
X1233945Y772305D02*
X1237750Y768500D01*
X1233750Y772500D02*
X1233945Y772305D01*
X1201680Y763500D02*
X1202250D01*
X1201250D02*
X1201680D01*
X1217820Y780180D02*
X1222000Y776000D01*
X1217750Y780250D02*
X1217820Y780180D01*
X1636500Y516000D02*
X1647750Y527250D01*
X1613000Y516000D02*
X1636500D01*
X1607500Y521500D02*
X1613000Y516000D01*
X1549750Y521500D02*
X1607500D01*
X1506750Y525250D02*
X1519250D01*
X1521500Y527500D01*
Y531000D01*
X1524000Y533500D01*
X1536750D01*
X1537750Y534500D01*
Y540000D01*
X1539250Y541500D01*
X1528500Y542500D02*
X1533750Y537250D01*
X1528500Y542500D02*
Y547750D01*
X1530500Y549750D01*
X1539250Y541500D02*
X1628000D01*
X1637750Y531750D01*
Y525250D02*
Y531750D01*
X1636000Y523500D02*
X1637750Y525250D01*
X1628250Y523500D02*
X1636000D01*
X1624500Y519750D02*
X1628250Y523500D01*
X1609250Y512750D02*
X1609250D01*
X1604750Y517250D02*
X1609250Y512750D01*
X1549000Y517250D02*
X1604750D01*
X1609250Y512750D02*
X1613500Y508500D01*
X1643250D01*
X1647000Y512250D01*
X1650750Y502000D02*
Y516000D01*
X1649250Y500500D02*
X1650750Y502000D01*
X1612750Y500500D02*
X1649250D01*
X1608000Y505250D02*
X1612750Y500500D01*
X1608000Y505250D02*
Y508750D01*
X1530500Y549750D02*
X1634000D01*
X1651000Y532750D01*
X1524500Y461000D02*
X1635750D01*
X1521250Y464250D02*
X1524500Y461000D01*
X1521250Y464250D02*
Y470000D01*
X1462000Y497000D02*
X1465500Y493500D01*
X1481000D01*
X1482250Y492250D01*
X1642250Y448750D02*
X1650500Y457000D01*
X1650750Y516000D02*
X1654500Y519750D01*
X1605750Y511000D02*
X1608000Y508750D01*
X1550500Y511000D02*
X1605750D01*
X1544000Y517500D02*
X1550500Y511000D01*
X1505750Y517500D02*
X1544000D01*
X1485750Y497500D02*
X1505750Y517500D01*
X1631750Y452000D02*
X1647000Y467250D01*
X1635750Y461000D02*
X1639750Y465000D01*
Y467250D02*
X1647000Y474500D01*
X1639750Y465000D02*
Y467250D01*
X1517750Y473500D02*
X1521250Y470000D01*
X1628000Y478250D02*
X1632000Y482250D01*
X1594500Y478250D02*
X1628000D01*
X1583250Y489500D02*
X1594500Y478250D01*
X1525750Y473250D02*
X1529750Y469250D01*
X1578750D01*
X1580250Y470750D01*
X1628000D01*
X1632000Y474750D01*
X1549750Y489500D02*
X1583250D01*
X1643500Y485750D02*
X1646750Y482500D01*
X1597250Y485750D02*
X1643500D01*
X1589250Y493750D02*
X1597250Y485750D01*
X1628500Y493750D02*
X1632500Y489750D01*
X1597000Y493750D02*
X1628500D01*
X1588500Y502250D02*
X1597000Y493750D01*
X1546000D02*
X1589250D01*
X1541750Y489500D02*
X1546000Y493750D01*
X1625750Y533500D02*
X1632000Y527250D01*
X1545750Y533500D02*
X1625750D01*
X1541750Y529500D02*
X1545750Y533500D01*
X1647500Y519750D02*
X1651000Y523250D01*
Y532750D01*
X1546000Y520250D02*
X1549000Y517250D01*
X1546000Y520250D02*
Y522750D01*
X1543500Y525250D02*
X1546000Y522750D01*
X1537500Y525250D02*
X1543500D01*
X1654750Y527250D02*
X1658000Y524000D01*
Y499750D02*
Y524000D01*
X1654750Y496500D02*
X1658000Y499750D01*
X1602750Y496500D02*
X1654750D01*
X1593000Y506250D02*
X1602750Y496500D01*
X1549000Y506250D02*
X1593000D01*
X1541750Y513500D02*
X1549000Y506250D01*
X1545000Y502250D02*
X1588500D01*
X1533750Y513500D02*
X1545000Y502250D01*
X1533750Y521500D02*
X1537500Y525250D01*
X1647000Y490000D02*
X1650500Y486500D01*
Y457000D02*
Y486500D01*
X1503750Y521500D02*
X1509750D01*
X1501000Y524250D02*
X1503750Y521500D01*
X1501000Y524250D02*
Y794250D01*
X1311750Y888500D02*
X1337500D01*
X1309750Y886500D02*
X1311750Y888500D01*
X1150250Y775250D02*
X1167000Y792000D01*
X1146000Y793000D02*
X1153000Y800000D01*
X1139000Y816000D02*
X1197720D01*
X1167000Y824250D02*
X1167750Y825000D01*
X1138750Y824250D02*
X1167000D01*
X1108000Y822000D02*
X1114750Y828750D01*
X1073290Y832290D02*
X1169784D01*
X1052000Y811000D02*
X1073290Y832290D01*
X1101750Y840250D02*
X1205890D01*
X1112000Y892250D02*
X1140250Y864000D01*
X1120500Y899500D02*
X1147500Y872500D01*
X1114750Y828750D02*
X1208970D01*
X1169784Y832290D02*
X1213930D01*
X1217680Y836040D01*
X1208970Y828750D02*
X1217680Y820040D01*
X1076750Y848250D02*
X1189470D01*
X1193680Y844040D01*
X1205890Y840250D02*
X1209680Y844040D01*
X1147500Y872500D02*
X1189220D01*
X1193680Y868040D01*
X1140250Y864000D02*
X1205720D01*
X1197970Y855750D02*
X1201680Y852040D01*
X1205720Y864000D02*
X1209680Y860040D01*
X1167750Y825000D02*
X1188720D01*
X1193680Y820040D01*
X1167000Y792000D02*
X1197640D01*
X1197720Y816000D02*
X1201680Y812040D01*
X1153000Y800000D02*
X1189720D01*
X1193680Y796040D01*
X1197640Y792000D02*
X1201680Y796040D01*
X1189390Y775750D02*
X1193680Y780040D01*
X1181640Y768000D02*
X1185680Y772040D01*
X1181640Y760000D02*
X1185680Y764040D01*
X1134250Y1001500D02*
X1201680Y934070D01*
X1252750Y932250D02*
X1260500Y940000D01*
X1252750Y864970D02*
Y932250D01*
X1265680Y916570D02*
X1265750Y916640D01*
X1265680Y900040D02*
Y916570D01*
X1272000Y914500D02*
Y914750D01*
Y908500D02*
Y914500D01*
X1269750Y906250D02*
X1272000Y908500D01*
X1269750Y863970D02*
Y906250D01*
X1260000Y910500D02*
Y927500D01*
Y910500D02*
X1261750Y908750D01*
Y863970D02*
Y908750D01*
X1269750Y863970D02*
X1273680Y860040D01*
X1261750Y863970D02*
X1265680Y860040D01*
X1193680Y900040D02*
Y916570D01*
X1187500Y922750D02*
X1193680Y916570D01*
X1244930Y931680D02*
X1252000Y938750D01*
X1208810Y900910D02*
Y950190D01*
X1225680Y900674D02*
Y922500D01*
Y900674D02*
X1226310Y900044D01*
X1208810Y900910D02*
X1209680Y900040D01*
X1201680D02*
Y934070D01*
X1242290Y907283D02*
X1244930Y909923D01*
Y931680D01*
X1241680Y900040D02*
X1242290Y900650D01*
Y907283D01*
X1233680Y900040D02*
Y911930D01*
X1251750Y938750D02*
X1252000D01*
X1233680Y911930D02*
X1236750Y915000D01*
X1286000Y908954D02*
X1342500Y965454D01*
X1293500Y889000D02*
Y904500D01*
X1292610Y888110D02*
X1293500Y889000D01*
X1278000Y879720D02*
X1281680Y876040D01*
X1278000Y879720D02*
Y912268D01*
X1281680Y884040D02*
X1285750Y888110D01*
X1292610D01*
X1293500Y904500D02*
X1309750Y920750D01*
X1286000Y896360D02*
Y908954D01*
X1281680Y892040D02*
X1286000Y896360D01*
X1323000Y957268D02*
Y966750D01*
X1278000Y912268D02*
X1323000Y957268D01*
X1252750Y864970D02*
X1257680Y860040D01*
X1424750Y870500D02*
X1501000Y794250D01*
X1324140Y870500D02*
X1424750D01*
X1187000Y896500D02*
X1190180Y893320D01*
Y890590D02*
Y893320D01*
Y890590D02*
X1192230Y888540D01*
X1197180D01*
X1201680Y884040D01*
X1197720Y880000D02*
X1201680Y876040D01*
X1162750Y880000D02*
X1197720D01*
X1175500Y896500D02*
X1187000D01*
X1163500Y908500D02*
X1175500Y896500D01*
X1118000Y855750D02*
X1197970D01*
X1321680Y868040D02*
X1324140Y870500D01*
X1113750Y703750D02*
X1170000Y760000D01*
X1181640D01*
X1099000Y698500D02*
X1168500Y768000D01*
X1181640D01*
X1099000Y698000D02*
Y698500D01*
X1162661Y775750D02*
X1189390D01*
X1145911Y759000D02*
X1162661Y775750D01*
X1095250Y759000D02*
X1145911D01*
X1217060Y900940D02*
X1217750Y900250D01*
X1217060Y900940D02*
Y955940D01*
X1281250Y771500D02*
Y772500D01*
X1293250Y840470D02*
X1297680Y836040D01*
X1293250Y840470D02*
Y871500D01*
X1294000Y872250D01*
X1307250D01*
X1309750Y874750D01*
Y886500D01*
X1233680Y788040D02*
X1234460D01*
X1228250Y508000D02*
X1229000D01*
X1264000Y520000D02*
X1268000Y516000D01*
X1256750Y520000D02*
X1264000D01*
X1255250Y495250D02*
X1268000Y508000D01*
X1227250Y495250D02*
X1255250D01*
X1227750Y516250D02*
Y516500D01*
X1261390Y799750D02*
X1265680Y804040D01*
X1222000Y608500D02*
Y776000D01*
X1224000Y528000D02*
X1228000Y524000D01*
X1224000Y528000D02*
Y606500D01*
X1222000Y608500D02*
X1224000Y606500D01*
X1228000Y516000D02*
X1228500D01*
X1229500Y754000D02*
Y774750D01*
X1231000Y776250D01*
X1228500Y516000D02*
X1232000Y519500D01*
Y751500D01*
X1229500Y754000D02*
X1232000Y751500D01*
X1231000Y776250D02*
X1243500D01*
X1250500Y783250D01*
Y795250D01*
X1255000Y799750D01*
X1261390D01*
X1223290Y796040D02*
X1225680D01*
X1206000Y790250D02*
X1208250Y792500D01*
X1219750D01*
X1223290Y796040D01*
X1229750Y792110D02*
X1233680Y796040D01*
X1229750Y786000D02*
Y792110D01*
X1228250Y784500D02*
X1229750Y786000D01*
X1223250Y784500D02*
X1228250D01*
X1221750Y786000D02*
X1223250Y784500D01*
X1215750Y786000D02*
X1221750D01*
X1237750Y604750D02*
Y768500D01*
X1249500Y527250D02*
X1256750Y520000D01*
X1249500Y527250D02*
Y593000D01*
X1237750Y604750D02*
X1249500Y593000D01*
X1206000Y522000D02*
X1227750Y500250D01*
X1206000Y522000D02*
Y790250D01*
X1197500Y759750D02*
X1201250Y763500D01*
X1197500Y525000D02*
X1227250Y495250D01*
X1197500Y525000D02*
Y759750D01*
X1215500Y520500D02*
X1228000Y508000D01*
X1215500Y520500D02*
Y574250D01*
X1212500Y577250D02*
X1215500Y574250D01*
X1213500Y730875D02*
Y783750D01*
X1215750Y786000D01*
X1212500Y577250D02*
Y729875D01*
X1213500Y730875D01*
X1608750Y617250D02*
X1617250Y625750D01*
X1608750Y573500D02*
Y617250D01*
X1317680Y816040D02*
X1413806D01*
X1313680Y812040D02*
X1317680Y816040D01*
X1413806D02*
X1461750Y768096D01*
Y545500D02*
Y768096D01*
X1504750Y541000D02*
Y801250D01*
X1429960Y876040D02*
X1504750Y801250D01*
X1508250Y537500D02*
X1509750D01*
X1504750Y541000D02*
X1508250Y537500D01*
X1321680Y876040D02*
X1429960D01*
X1505250Y533000D02*
X1509750Y537500D01*
X1505250Y526750D02*
X1506750Y525250D01*
X1505250Y526750D02*
Y533000D01*
X1309500Y778250D02*
X1311750Y776000D01*
X1423264D01*
X1305750Y788000D02*
X1309500Y784250D01*
X1423264Y776000D02*
X1441000Y758263D01*
X1309500Y778250D02*
Y784250D01*
X1441000Y533219D02*
Y758263D01*
X1460719Y513500D02*
X1461750D01*
X1441000Y533219D02*
X1460719Y513500D01*
X1473750Y540750D02*
Y774556D01*
X1470500Y537500D02*
X1473750Y540750D01*
X1307707Y832080D02*
X1413082D01*
X1307547Y831920D02*
X1307707Y832080D01*
X1413242Y831920D02*
X1416386D01*
X1413082Y832080D02*
X1413242Y831920D01*
X1301420D02*
X1307547D01*
X1293750Y824250D02*
X1301420Y831920D01*
X1293750Y815970D02*
Y824250D01*
X1416386Y831920D02*
X1473750Y774556D01*
X1293750Y815970D02*
X1297680Y812040D01*
X1469750Y537500D02*
X1470500D01*
X1309174Y828540D02*
X1411615D01*
X1411906Y828250D01*
X1308884D02*
X1309174Y828540D01*
X1411906Y828250D02*
X1414399D01*
X1306500D02*
X1308884D01*
X1301750Y815970D02*
Y823500D01*
X1306500Y828250D01*
X1301750Y815970D02*
X1305680Y812040D01*
X1414399Y828250D02*
X1469750Y772899D01*
Y545500D02*
Y772899D01*
X1285750Y770000D02*
Y782250D01*
Y770000D02*
X1287500Y768250D01*
X1279750Y784250D02*
X1283750D01*
X1285750Y782250D01*
X1290750Y768250D02*
X1293750Y765250D01*
Y761250D02*
Y765250D01*
X1287500Y768250D02*
X1290750D01*
X1273680Y804070D02*
Y812040D01*
X1277750Y786250D02*
Y800000D01*
Y786250D02*
X1279750Y784250D01*
X1273680Y804070D02*
X1277750Y800000D01*
X1469000Y504750D02*
X1477750Y513500D01*
X1294750Y760250D02*
X1422750D01*
X1429500Y753500D01*
X1293750Y761250D02*
X1294750Y760250D01*
X1429500Y529500D02*
X1454250Y504750D01*
X1469000D01*
X1429500Y529500D02*
Y753500D01*
X1291500Y791750D02*
X1294000Y789250D01*
Y770500D02*
Y789250D01*
X1285390Y791750D02*
X1291500D01*
X1296250Y768250D02*
X1421114D01*
X1294000Y770500D02*
X1296250Y768250D01*
X1281680Y788040D02*
X1285390Y791750D01*
X1465000Y508750D02*
X1469750Y513500D01*
X1434000Y533750D02*
X1459000Y508750D01*
X1465000D01*
X1434000Y533750D02*
Y755364D01*
X1421114Y768250D02*
X1434000Y755364D01*
X1413713Y840250D02*
X1477750Y776213D01*
X1317470Y840250D02*
X1413713D01*
X1313680Y844040D02*
X1317470Y840250D01*
X1477750Y545500D02*
Y776213D01*
X1422231Y783750D02*
X1445750Y760231D01*
Y533475D02*
Y760231D01*
X1317750Y783750D02*
X1422231D01*
X1457725Y521500D02*
X1461750D01*
X1313680Y787820D02*
X1317750Y783750D01*
X1313680Y787820D02*
Y788040D01*
X1445750Y533475D02*
X1457725Y521500D01*
X1482000Y541750D02*
Y778219D01*
X1311250Y848250D02*
X1411969D01*
X1309680Y846680D02*
X1311250Y848250D01*
X1309680Y840040D02*
Y846680D01*
X1305680Y836040D02*
X1309680Y840040D01*
X1477750Y537500D02*
X1482000Y541750D01*
X1411969Y848250D02*
X1482000Y778219D01*
X1650250Y601000D02*
X1655000Y596250D01*
X1646250Y601000D02*
X1650250D01*
X1640500Y595250D02*
X1646250Y601000D01*
X1672750Y497500D02*
Y524750D01*
X1669250Y494000D02*
X1672750Y497500D01*
X1640500Y557000D02*
X1672750Y524750D01*
X1658750Y494000D02*
X1669250D01*
X1654500Y489750D02*
X1658750Y494000D01*
X1640500Y557000D02*
Y595250D01*
X1450750Y533481D02*
X1458271Y525960D01*
X1420802Y792250D02*
X1450750Y762302D01*
X1465290Y525960D02*
X1469750Y521500D01*
X1458271Y525960D02*
X1465290D01*
X1301890Y792250D02*
X1420802D01*
X1297680Y788040D02*
X1301890Y792250D01*
X1450750Y533481D02*
Y762302D01*
X1497250Y535000D02*
Y784536D01*
X1495750Y533500D02*
X1497250Y535000D01*
X1417746Y864040D02*
X1497250Y784536D01*
X1317680Y864040D02*
X1417746D01*
X1313680Y860040D02*
X1317680Y864040D01*
X1482250Y533500D02*
X1495750D01*
X1478250Y529500D02*
X1482250Y533500D01*
X1477750Y529500D02*
X1478250D01*
X1304440Y855750D02*
X1409716D01*
X1302180Y853490D02*
X1304440Y855750D01*
X1302180Y850590D02*
Y853490D01*
X1297680Y846090D02*
X1302180Y850590D01*
X1297680Y844040D02*
Y846090D01*
X1485710Y545540D02*
Y779756D01*
X1409716Y855750D02*
X1485710Y779756D01*
Y545540D02*
X1485750Y545500D01*
X1454670Y534568D02*
X1459738Y529500D01*
X1418596Y800000D02*
X1454670Y763926D01*
X1459738Y529500D02*
X1461750D01*
X1285720Y800000D02*
X1418596D01*
X1454670Y534568D02*
Y763926D01*
X1281680Y804040D02*
X1285720Y800000D01*
X1658750Y585750D02*
X1662000Y589000D01*
X1658750Y558750D02*
Y585750D01*
X1676750Y497000D02*
Y540750D01*
X1662000Y482250D02*
X1676750Y497000D01*
X1658750Y558750D02*
X1676750Y540750D01*
X1458210Y536034D02*
Y765636D01*
X1415596Y808250D02*
X1458210Y765636D01*
X1313680Y804040D02*
X1317890Y808250D01*
X1415596D01*
X1460284Y533960D02*
X1465290D01*
X1469750Y529500D01*
X1458210Y536034D02*
X1460284Y533960D01*
X1410489Y860040D02*
X1489290Y781239D01*
X1321680Y860040D02*
X1410489D01*
X1485750Y537500D02*
X1489290Y541040D01*
Y781239D01*
X1680000Y492500D02*
Y563250D01*
X1662500Y475000D02*
X1680000Y492500D01*
X1662250Y581000D02*
X1680000Y563250D01*
X1410149Y825000D02*
X1465500Y769649D01*
X1310640Y825000D02*
X1410149D01*
X1309750Y824110D02*
X1310640Y825000D01*
X1309750Y808110D02*
Y824110D01*
X1305680Y804040D02*
X1309750Y808110D01*
X1465500Y541000D02*
Y769649D01*
X1462000Y537500D02*
X1465500Y541000D01*
X1461750Y537500D02*
X1462000D01*
X1513500Y533250D02*
Y815250D01*
X1444890Y883860D02*
X1513500Y815250D01*
X1321500Y883860D02*
X1444890D01*
X1509750Y529500D02*
X1513500Y533250D01*
X1509000Y452000D02*
X1631750D01*
X1502500Y458500D02*
X1509000Y452000D01*
X1502500Y458500D02*
Y473500D01*
X1482250Y471250D02*
Y492250D01*
X1504750Y448750D02*
X1642250D01*
X1499125Y454375D02*
X1504750Y448750D01*
X1482250Y471250D02*
X1483750Y469750D01*
X1496250D01*
X1499125Y466875D01*
Y454375D02*
Y466875D01*
X1486000Y473250D02*
X1490250Y477500D01*
X1498500D01*
X1502500Y473500D01*
X1489500Y461250D02*
X1493750Y465500D01*
X1489500Y448000D02*
Y461250D01*
Y448000D02*
X1493500Y444000D01*
X1725000D01*
X1748750Y467750D01*
X1469750Y457500D02*
X1490750Y436500D01*
X1742500D01*
X1749750Y443750D01*
X1472000Y481500D02*
X1477750D01*
X1465500Y475000D02*
X1472000Y481500D01*
X1465500Y451000D02*
Y475000D01*
Y451000D02*
X1484500Y432000D01*
X1754000D01*
X1760750Y438750D01*
Y634750D01*
X1748750Y646750D02*
X1760750Y634750D01*
D34*
X1721400Y134000D02*
D03*
X1533760Y1203960D02*
D03*
X924160D02*
D03*
X974960D02*
D03*
X1025760D02*
D03*
X1076560D02*
D03*
X1127360D02*
D03*
X1178160D02*
D03*
X1228960D02*
D03*
X1279760D02*
D03*
Y1229360D02*
D03*
X1305160D02*
D03*
X1330560Y1203960D02*
D03*
X1381360D02*
D03*
X1432160D02*
D03*
X1482960D02*
D03*
X1748760Y646760D02*
D03*
Y443560D02*
D03*
Y468960D02*
D03*
X748760Y519760D02*
D03*
Y545160D02*
D03*
Y570560D02*
D03*
Y595960D02*
D03*
Y621360D02*
D03*
Y672160D02*
D03*
Y722960D02*
D03*
Y773760D02*
D03*
Y824560D02*
D03*
Y875360D02*
D03*
Y926160D02*
D03*
Y976960D02*
D03*
Y1027760D02*
D03*
Y1078560D02*
D03*
X624840Y1203960D02*
D03*
Y1178560D02*
D03*
Y1153160D02*
D03*
D35*
Y1229360D02*
D03*
D45*
X1509500Y947250D02*
D03*
M02*
