%FSLAX44Y44*%
%MOMM*%
G71*
G01*
G75*
G04 Layer_Physical_Order=4*
G04 Layer_Color=36540*
%ADD10R,2.0000X4.0000*%
%ADD11R,0.4500X2.0000*%
%ADD12R,1.1000X1.7000*%
%ADD13C,0.4000*%
%ADD14R,1.7000X1.1000*%
%ADD15R,2.6000X1.1000*%
%ADD16R,1.5000X1.5000*%
%ADD17C,0.3600*%
%ADD18C,0.3000*%
%ADD19R,1.1000X2.6000*%
%ADD20R,0.6000X1.1500*%
%ADD21R,1.1500X0.7500*%
%ADD22R,2.0000X2.0000*%
%ADD23C,2.0000*%
%ADD24C,0.2540*%
%ADD25C,0.3048*%
%ADD26C,0.1000*%
%ADD27C,1.0000*%
%ADD28C,0.4000*%
%ADD29C,2.0000*%
%ADD30C,0.5080*%
%ADD31C,0.2000*%
%ADD32C,0.5000*%
%ADD33C,1.5240*%
%ADD34C,1.5000*%
%ADD35R,1.5000X1.5000*%
%ADD36C,3.8000*%
%ADD37C,1.6000*%
%ADD38R,1.6000X1.6000*%
%ADD39R,1.8500X1.8500*%
%ADD40C,1.8500*%
%ADD41R,1.3500X1.3500*%
%ADD42C,1.3500*%
%ADD43R,1.3500X1.3500*%
%ADD44C,1.7780*%
%ADD45C,1.0000*%
%ADD46C,1.2700*%
%ADD47C,7.0000*%
%ADD48C,1.0160*%
%ADD49C,1.1620*%
%ADD50C,1.3000*%
%ADD51C,2.7000*%
%ADD52C,1.3200*%
%ADD53C,1.2000*%
%ADD54C,1.6700*%
%ADD55C,0.9000*%
%ADD56C,0.6500*%
%ADD57C,5.4000*%
%ADD58C,0.3000*%
D13*
X1560250Y630000D02*
D03*
Y636500D02*
D03*
X1608750Y573500D02*
D03*
X1477750Y457500D02*
D03*
X1321680Y772040D02*
D03*
X1477750Y465500D02*
D03*
X1321680Y780040D02*
D03*
X1461750Y489500D02*
D03*
Y497500D02*
D03*
X1297680Y772040D02*
D03*
X1485750Y473500D02*
D03*
X1321680Y788040D02*
D03*
X1469750Y497500D02*
D03*
X1305680Y772040D02*
D03*
X1662000Y527250D02*
D03*
X1265680Y780040D02*
D03*
X1241680Y772040D02*
D03*
X1265680Y764040D02*
D03*
Y756040D02*
D03*
X1257680D02*
D03*
X1233680Y764040D02*
D03*
X1321680Y852040D02*
D03*
X1305680Y844040D02*
D03*
X1321220Y812500D02*
D03*
X1193680Y860040D02*
D03*
X1185680Y852040D02*
D03*
Y844040D02*
D03*
X1193680Y836040D02*
D03*
X1185680Y812040D02*
D03*
Y884040D02*
D03*
Y820040D02*
D03*
X1193680Y876040D02*
D03*
X1185680Y868040D02*
D03*
X1193680Y804040D02*
D03*
X1185680Y796040D02*
D03*
X1193680Y788040D02*
D03*
X1185680Y780040D02*
D03*
X1313680Y876040D02*
D03*
X1289680Y892040D02*
D03*
X1305680Y868040D02*
D03*
X1217680Y884040D02*
D03*
X1305680Y860040D02*
D03*
X1265680Y884040D02*
D03*
X1233680D02*
D03*
X1241680D02*
D03*
X1257680Y876040D02*
D03*
X1225680Y868040D02*
D03*
X1265680D02*
D03*
X1257680D02*
D03*
X1265680Y852040D02*
D03*
X1493750Y457500D02*
D03*
X1461750Y465500D02*
D03*
X1313680Y884040D02*
D03*
X1461750Y457500D02*
D03*
X1257680Y892040D02*
D03*
X1281680Y868040D02*
D03*
X1233680Y756040D02*
D03*
X1257680Y764040D02*
D03*
X1265680Y772040D02*
D03*
X1257680Y772038D02*
D03*
X1241680Y756040D02*
D03*
X1209680D02*
D03*
X1217680Y764040D02*
D03*
Y756500D02*
D03*
X1268000Y564000D02*
D03*
X1260000Y556000D02*
D03*
X1276000D02*
D03*
X1212000Y572000D02*
D03*
X1228000Y564000D02*
D03*
X1236000Y556000D02*
D03*
X1284000Y572000D02*
D03*
X1268000D02*
D03*
X1236000D02*
D03*
X1228000Y532000D02*
D03*
X1220000D02*
D03*
X1236000D02*
D03*
X1212000Y552000D02*
D03*
X1275750Y579750D02*
D03*
X1533750Y537500D02*
D03*
X1297680Y804040D02*
D03*
X1533750Y545500D02*
D03*
X1321680Y820040D02*
D03*
X1541750Y529500D02*
D03*
X1281680Y820040D02*
D03*
X1549750Y521500D02*
D03*
X1617000Y519750D02*
D03*
X1305680Y820040D02*
D03*
X1533750Y521500D02*
D03*
X1281680Y812040D02*
D03*
X1533750Y529500D02*
D03*
X1617250Y618500D02*
D03*
X1617000Y512250D02*
D03*
X1624750Y618500D02*
D03*
X1624500Y512250D02*
D03*
X1485750Y513500D02*
D03*
X1305680Y780040D02*
D03*
X1273680Y836040D02*
D03*
X1541750Y521500D02*
D03*
X1654750Y618500D02*
D03*
X1654500Y512250D02*
D03*
X1624750Y611000D02*
D03*
X1624500Y504750D02*
D03*
X1654750Y611000D02*
D03*
X1654500Y504750D02*
D03*
X1624750Y596000D02*
D03*
X1624500Y489750D02*
D03*
X1321680Y836040D02*
D03*
X1541750Y513500D02*
D03*
X1617250Y588500D02*
D03*
X1617000Y482250D02*
D03*
X1624750Y588500D02*
D03*
X1624500Y482250D02*
D03*
X1321680Y844040D02*
D03*
X1533750Y513500D02*
D03*
X1549750Y489500D02*
D03*
X1321680Y804040D02*
D03*
X1617250Y581000D02*
D03*
X1617000Y474750D02*
D03*
X1289680Y796040D02*
D03*
X1541750Y489500D02*
D03*
X1321680Y796040D02*
D03*
X1525750Y473500D02*
D03*
X1662250Y581000D02*
D03*
X1517750Y473500D02*
D03*
X1281680Y796040D02*
D03*
X1654500Y467250D02*
D03*
X1509750Y529500D02*
D03*
X1549750Y473500D02*
D03*
D24*
X913750Y499500D02*
Y638250D01*
X900500Y486250D02*
X913750Y499500D01*
X782270Y486250D02*
X900500D01*
X922250Y840000D02*
X1120500D01*
X827250Y745000D02*
X922250Y840000D01*
X827250Y708250D02*
Y745000D01*
X938000Y887500D02*
X1138250D01*
X823140Y1002360D02*
X938000Y887500D01*
X904750Y880250D02*
X1127750D01*
X833440Y951560D02*
X904750Y880250D01*
X774160Y951560D02*
X833440D01*
X1118250Y748500D02*
Y758000D01*
X972750Y603000D02*
X1118250Y748500D01*
X972750Y419750D02*
Y603000D01*
X1546750Y1152250D02*
Y1213000D01*
X1391250Y996750D02*
X1546750Y1152250D01*
X1391250Y995000D02*
Y996750D01*
X1394250Y1117000D02*
Y1217500D01*
X1271750Y994500D02*
X1394250Y1117000D01*
X1271750Y913750D02*
Y994500D01*
X1394250Y1217500D02*
X1405750Y1229000D01*
X945760Y392760D02*
X972750Y419750D01*
X774160Y392760D02*
X945760D01*
X774160Y494360D02*
X782270Y486250D01*
X955750Y462250D02*
Y657500D01*
X937060Y443560D02*
X955750Y462250D01*
X774160Y443560D02*
X937060D01*
X955750Y657500D02*
X1092500Y794250D01*
X1384911Y920500D02*
X1597500D01*
X1346015Y881604D02*
X1384911Y920500D01*
X1416348Y975000D02*
X1576000D01*
X1340847Y899500D02*
X1416348Y975000D01*
X1597500Y920500D02*
X1730160Y1053160D01*
X1748760D01*
X1703810Y1078560D02*
X1748760D01*
X1703250Y1102250D02*
X1751000D01*
X1576000Y975000D02*
X1703250Y1102250D01*
X774160Y1002360D02*
X823140D01*
X774160Y900760D02*
X853740D01*
X882750Y871750D01*
X1126500D01*
X866500Y863750D02*
X1124000D01*
X852710Y849960D02*
X866500Y863750D01*
X774160Y849960D02*
X852710D01*
X774160Y799160D02*
X831410D01*
X888000Y855750D01*
X1125000D01*
X911500Y850000D02*
X1120750D01*
X809860Y748360D02*
X911500Y850000D01*
X774160Y748360D02*
X809860D01*
X776000Y696250D02*
X815250D01*
X827250Y708250D01*
X950500Y826500D02*
X1118750D01*
X849500Y725500D02*
X950500Y826500D01*
X849500Y657000D02*
Y725500D01*
X839260Y646760D02*
X849500Y657000D01*
X774160Y646760D02*
X839260D01*
X774160Y595960D02*
X847210D01*
X865500Y614250D01*
Y710000D01*
X972000Y816500D01*
X1120000D01*
X1020750Y807250D02*
X1119250D01*
X890500Y677000D02*
X1020750Y807250D01*
X890500Y555000D02*
Y677000D01*
X880660Y545160D02*
X890500Y555000D01*
X774160Y545160D02*
X880660D01*
X913750Y638250D02*
X1075500Y800000D01*
X1119250D01*
X1092500Y794250D02*
X1118000D01*
X1494750Y1214750D02*
X1508250Y1228250D01*
X1446000Y1215750D02*
X1459500Y1229250D01*
X1344000Y1217750D02*
X1356000Y1229750D01*
X1546750Y1213000D02*
X1561000Y1227250D01*
X1262000Y924750D02*
X1264500Y927250D01*
X1202500Y1228250D02*
X1215750Y1215000D01*
X1152760Y1229360D02*
X1165500Y1216620D01*
X1237500Y908000D02*
Y942250D01*
X1230000Y907750D02*
Y931750D01*
X1001750Y1230250D02*
X1012750Y1219250D01*
X1051750Y1228500D02*
X1064500Y1215750D01*
X950500Y1228500D02*
X962250Y1216750D01*
Y1089250D02*
Y1216750D01*
X1012750Y1092250D02*
Y1219250D01*
X1134500Y1027250D02*
X1230000Y931750D01*
X1012750Y1092250D02*
X1077750Y1027250D01*
X1134500D01*
X1138000Y1041750D02*
X1237500Y942250D01*
X1064500Y1088000D02*
Y1215750D01*
Y1088000D02*
X1110750Y1041750D01*
X1138000D01*
X1243250Y910250D02*
Y958500D01*
X1115728Y1086022D02*
X1243250Y958500D01*
X1115728Y1086022D02*
Y1215592D01*
X1101960Y1229360D02*
X1115728Y1215592D01*
X1215750Y1089250D02*
Y1215000D01*
Y1089250D02*
X1256500Y1048500D01*
Y916500D02*
Y1048500D01*
X1165500Y1089500D02*
Y1216620D01*
Y1089500D02*
X1250000Y1005000D01*
Y923500D02*
Y1005000D01*
X1446000Y1088500D02*
Y1215750D01*
X1264500Y927250D02*
Y1012000D01*
X1344000Y1091500D01*
Y1217750D01*
X1307250Y911000D02*
X1391250Y995000D01*
X1281500Y915768D02*
Y924000D01*
X1446000Y1088500D01*
X962250Y1089250D02*
X1031500Y1020000D01*
X1124750D01*
X1222000Y922750D01*
X1748760Y1026510D02*
Y1027760D01*
X1611000Y888750D02*
X1748760Y1026510D01*
X1655200Y858000D02*
X1748760Y951560D01*
X1377250Y858000D02*
X1655200D01*
X1374000Y872000D02*
X1643800D01*
X1748760Y976960D01*
X1350000Y872500D02*
X1357500D01*
X1373750Y888750D01*
X1611000D01*
X1388250Y1010000D02*
X1388500D01*
X1494750Y1116250D01*
Y1214750D01*
X1414155Y961000D02*
X1551684D01*
X1552184Y960500D01*
X1585750D01*
X1703810Y1078560D01*
X1748760Y672160D02*
X1761750Y685150D01*
Y726250D01*
X1672250Y792500D02*
X1682750D01*
X1738750Y736500D01*
X1751500D01*
X1761750Y726250D01*
D26*
X1196750Y626250D02*
G03*
X1196750Y630250I0J2000D01*
G01*
Y594250D02*
G03*
X1196750Y598250I0J2000D01*
G01*
Y618250D02*
G03*
X1196750Y622250I0J2000D01*
G01*
Y618250D02*
G03*
X1196750Y614250I0J-2000D01*
G01*
Y610250D02*
G03*
X1196750Y614250I0J2000D01*
G01*
Y626250D02*
G03*
X1196750Y622250I0J-2000D01*
G01*
Y586250D02*
G03*
X1196750Y590250I0J2000D01*
G01*
Y602250D02*
G03*
X1196750Y606250I0J2000D01*
G01*
Y610250D02*
G03*
X1196750Y606250I0J-2000D01*
G01*
Y634250D02*
G03*
X1196750Y630250I0J-2000D01*
G01*
Y594250D02*
G03*
X1196750Y590250I0J-2000D01*
G01*
Y602250D02*
G03*
X1196750Y598250I0J-2000D01*
G01*
Y570250D02*
G03*
X1196750Y574250I0J2000D01*
G01*
Y578250D02*
G03*
X1196750Y582250I0J2000D01*
G01*
Y562250D02*
G03*
X1196750Y566250I0J2000D01*
G01*
Y578250D02*
G03*
X1196750Y574250I0J-2000D01*
G01*
Y586250D02*
G03*
X1196750Y582250I0J-2000D01*
G01*
Y562250D02*
G03*
X1196750Y558250I0J-2000D01*
G01*
Y570250D02*
G03*
X1196750Y566250I0J-2000D01*
G01*
X1206500Y560500D02*
G03*
X1206500Y564500I0J2000D01*
G01*
Y568500D02*
G03*
X1206500Y572500I-339J2000D01*
G01*
Y640500D02*
G03*
X1206500Y636500I0J-2000D01*
G01*
X1206500Y568500D02*
G03*
X1206500Y564500I0J-2000D01*
G01*
Y576500D02*
G03*
X1206500Y572500I0J-2000D01*
G01*
X1206500Y560500D02*
G03*
X1206500Y556500I0J-2000D01*
G01*
X1185250Y583000D02*
G03*
X1185250Y587000I0J2000D01*
G01*
Y599000D02*
G03*
X1185250Y603000I0J2000D01*
G01*
Y607000D02*
G03*
X1185250Y611000I0J2000D01*
G01*
Y591000D02*
G03*
X1185250Y595000I0J2000D01*
G01*
Y591000D02*
G03*
X1185250Y587000I0J-2000D01*
G01*
Y607000D02*
G03*
X1185250Y603000I0J-2000D01*
G01*
Y615000D02*
G03*
X1185250Y611000I0J-2000D01*
G01*
Y599000D02*
G03*
X1185250Y595000I0J-2000D01*
G01*
Y567000D02*
G03*
X1185250Y571000I0J2000D01*
G01*
Y575000D02*
G03*
X1185250Y579000I0J2000D01*
G01*
Y559000D02*
G03*
X1185250Y563000I0J2000D01*
G01*
Y575000D02*
G03*
X1185250Y571000I0J-2000D01*
G01*
Y583000D02*
G03*
X1185250Y579000I0J-2000D01*
G01*
Y567000D02*
G03*
X1185250Y563000I0J-2000D01*
G01*
X1273100Y726000D02*
G03*
X1273100Y730000I0J2000D01*
G01*
Y734000D02*
G03*
X1273100Y738000I0J2000D01*
G01*
Y710000D02*
G03*
X1273100Y714000I0J2000D01*
G01*
Y718000D02*
G03*
X1273100Y722000I0J2000D01*
G01*
Y750000D02*
G03*
X1273100Y746000I0J-2000D01*
G01*
Y742000D02*
G03*
X1273100Y746000I0J2000D01*
G01*
Y702000D02*
G03*
X1273100Y706000I0J2000D01*
G01*
Y710000D02*
G03*
X1273100Y706000I0J-2000D01*
G01*
Y718000D02*
G03*
X1273100Y714000I0J-2000D01*
G01*
Y734000D02*
G03*
X1273100Y730000I0J-2000D01*
G01*
Y742000D02*
G03*
X1273100Y738000I0J-2000D01*
G01*
Y726000D02*
G03*
X1273100Y722000I0J-2000D01*
G01*
X1206500Y576500D02*
G03*
X1206500Y580500I-583J2000D01*
G01*
Y584500D02*
G03*
X1206500Y580500I0J-2000D01*
G01*
Y584500D02*
G03*
X1206500Y588500I-583J2000D01*
G01*
Y592500D02*
G03*
X1206500Y588500I0J-2000D01*
G01*
Y592500D02*
G03*
X1206500Y596500I-583J2000D01*
G01*
Y600500D02*
G03*
X1206500Y596500I0J-2000D01*
G01*
Y600500D02*
G03*
X1206500Y604500I-583J2000D01*
G01*
Y608500D02*
G03*
X1206500Y604500I0J-2000D01*
G01*
Y608500D02*
G03*
X1206500Y612500I-583J2000D01*
G01*
Y616500D02*
G03*
X1206500Y612500I0J-2000D01*
G01*
Y616500D02*
G03*
X1206500Y620500I-583J2000D01*
G01*
Y624500D02*
G03*
X1206500Y620500I0J-2000D01*
G01*
Y624500D02*
G03*
X1206500Y628500I-583J2000D01*
G01*
Y632500D02*
G03*
X1206500Y628500I0J-2000D01*
G01*
Y632500D02*
G03*
X1206500Y636500I-583J2000D01*
G01*
X1217680Y763750D02*
X1217750D01*
X1216750D02*
X1217680D01*
X1196750Y634250D02*
Y735250D01*
Y550000D02*
Y558250D01*
X1206500Y640500D02*
Y736000D01*
Y548000D02*
Y556500D01*
X1185250Y615000D02*
Y730500D01*
Y552500D02*
Y559000D01*
X1273100Y750000D02*
Y756100D01*
Y589500D02*
Y702000D01*
X1565750Y630000D02*
X1573750Y622000D01*
X1560250Y630000D02*
X1565750D01*
X1560500Y636250D02*
X1566500D01*
X1573000Y629750D01*
X1636000D01*
X1643750Y622000D01*
X1656750D01*
X1658500Y620250D01*
X1651750Y614500D02*
X1655000Y611250D01*
X1642750Y614500D02*
X1651750D01*
X1635250Y622000D02*
X1642750Y614500D01*
X1573750Y622000D02*
X1635250D01*
X1662000Y528000D02*
X1667250Y522750D01*
Y510500D02*
Y522750D01*
X1665500Y508750D02*
X1667250Y510500D01*
X1661000Y508750D02*
X1665500D01*
X1658500Y506250D02*
X1661000Y508750D01*
X1658500Y463250D02*
Y506250D01*
X1650250Y455000D02*
X1658500Y463250D01*
X1597750Y455000D02*
X1650250D01*
X1591000Y461750D02*
X1597750Y455000D01*
X1473250Y461750D02*
X1591000D01*
X1470250Y464750D02*
X1473250Y461750D01*
X1470250Y464750D02*
Y466750D01*
X1465000Y472000D02*
X1470250Y466750D01*
X1465000Y472000D02*
Y477750D01*
X1469750Y482500D01*
Y497500D01*
X1473250Y452250D02*
X1478250Y457250D01*
X1468500Y452250D02*
X1473250D01*
X1465750Y455000D02*
X1468500Y452250D01*
X1465750Y455000D02*
Y466750D01*
X1461750Y470750D02*
X1465750Y466750D01*
X1461750Y470750D02*
Y479250D01*
X1465750Y483250D02*
Y500250D01*
X1461750Y479250D02*
X1465750Y483250D01*
X1660500Y614750D02*
X1666250D01*
X1658500Y616750D02*
X1660500Y614750D01*
X1658500Y616750D02*
Y620250D01*
X1658250Y516000D02*
Y612500D01*
X1654750Y616000D02*
X1658250Y612500D01*
X1654750Y616000D02*
Y618750D01*
X1662750Y581500D02*
X1666750Y585500D01*
Y614250D01*
X1666250Y614750D02*
X1666750Y614250D01*
X1613500Y566000D02*
Y578500D01*
X1605500Y586500D02*
X1613500Y578500D01*
Y566000D02*
X1621000Y558500D01*
Y517750D02*
Y558500D01*
X1605500Y586500D02*
Y602500D01*
X1608750Y528000D02*
X1617000Y519750D01*
X1608750Y528000D02*
Y573500D01*
X1375170Y771580D02*
X1442063D01*
X1374710Y772040D02*
X1375170Y771580D01*
X1442063D02*
X1455040Y758603D01*
X1321680Y772040D02*
X1374710D01*
X1457250Y508750D02*
Y611143D01*
X1455040Y613353D02*
X1457250Y611143D01*
Y508750D02*
X1465750Y500250D01*
X1455040Y613353D02*
Y758603D01*
X1473750Y469500D02*
Y604656D01*
Y469500D02*
X1477750Y465500D01*
X1444996Y778660D02*
X1462120Y761536D01*
X1383210Y780040D02*
X1384590Y778660D01*
X1444996D01*
X1321680Y780040D02*
X1383210D01*
X1462120Y616286D02*
Y761536D01*
Y616286D02*
X1473750Y604656D01*
X1460750Y489500D02*
X1461750D01*
X1301680Y768040D02*
X1440597D01*
X1297680Y772040D02*
X1301680Y768040D01*
X1440597D02*
X1451500Y757137D01*
Y507750D02*
X1461750Y497500D01*
X1451500Y507750D02*
Y757137D01*
X1481250Y500000D02*
X1490250Y509000D01*
Y598168D01*
X1469200Y619218D02*
Y764468D01*
X1481250Y478000D02*
Y500000D01*
Y478000D02*
X1485750Y473500D01*
X1394010Y785740D02*
X1447928D01*
X1469200Y764468D01*
X1391710Y788040D02*
X1394010Y785740D01*
X1321680Y788040D02*
X1391710D01*
X1469200Y619218D02*
X1490250Y598168D01*
X1465250Y509000D02*
X1469750Y504500D01*
X1465250Y509000D02*
Y608149D01*
X1469750Y497500D02*
Y504500D01*
X1379000Y775750D02*
X1379630Y775120D01*
X1309390Y775750D02*
X1379000D01*
X1443529Y775120D02*
X1458580Y760069D01*
X1379630Y775120D02*
X1443529D01*
X1305680Y772040D02*
X1309390Y775750D01*
X1458580Y614819D02*
X1465250Y608149D01*
X1458580Y614819D02*
Y760069D01*
X1138250Y887500D02*
X1138750Y888000D01*
X1353790Y852040D02*
X1373750Y872000D01*
X1367750Y848500D02*
X1377250Y858000D01*
X1310140Y848500D02*
X1367750D01*
X1305680Y844040D02*
X1310140Y848500D01*
X1309640Y872000D02*
X1336411D01*
X1310140Y864500D02*
X1342000D01*
X1321680Y852040D02*
X1353790D01*
X1329348Y888000D02*
X1340847Y899500D01*
X1305680Y860040D02*
X1310140Y864500D01*
X1336411Y872000D02*
X1346015Y881604D01*
X1305680Y868040D02*
X1309640Y872000D01*
X1122750Y848000D02*
X1167500D01*
X1120750Y850000D02*
X1122750Y848000D01*
X1126500Y871750D02*
X1181970D01*
X1124250Y864000D02*
X1164250D01*
X1124000Y863750D02*
X1124250Y864000D01*
X1179220Y826500D02*
X1181720Y824000D01*
X1118750Y826500D02*
X1179220D01*
X1165750Y807250D02*
X1166250Y807750D01*
X1119250Y807250D02*
X1165750D01*
X1164750Y794250D02*
X1167000Y792000D01*
X1118000Y794250D02*
X1164750D01*
X1118250Y758000D02*
X1144000Y783750D01*
X1120500Y840000D02*
X1189720D01*
X1181970Y855750D02*
X1185680Y852040D01*
X1167500Y848000D02*
X1181720D01*
X1125000Y855750D02*
X1181970D01*
X1181720Y848000D02*
X1185680Y844040D01*
X1189720Y840000D02*
X1193680Y836040D01*
X1162750Y864000D02*
X1189500D01*
X1181970Y871750D02*
X1185680Y868040D01*
X1127750Y880250D02*
X1188250D01*
X1181720Y888000D02*
X1185680Y884040D01*
X1138750Y888000D02*
X1181720D01*
X1166250Y807750D02*
X1189970D01*
X1144000Y783750D02*
X1181970D01*
X1167000Y792000D02*
X1189720D01*
X1188250Y880250D02*
X1192460Y876040D01*
X1193680D01*
X1189500Y864000D02*
X1193460Y860040D01*
X1193680D01*
X1181720Y824000D02*
X1185680Y820040D01*
X1120000Y816500D02*
X1181220D01*
X1185680Y812040D01*
X1189970Y807750D02*
X1193680Y804040D01*
X1181720Y800000D02*
X1185680Y796040D01*
X1119250Y800000D02*
X1181720D01*
X1189720Y792000D02*
X1193680Y788040D01*
X1181970Y783750D02*
X1185680Y780040D01*
X1256500Y911000D02*
Y916500D01*
X1253750Y908250D02*
X1256500Y911000D01*
X1253750Y895970D02*
Y908250D01*
Y895970D02*
X1257680Y892040D01*
X1249750Y875970D02*
Y924500D01*
Y875970D02*
X1257680Y868040D01*
X1262000Y880250D02*
Y924750D01*
X1257750Y876000D02*
X1262000Y880250D01*
X1243250Y910250D02*
X1246000Y907500D01*
X1250250Y856250D02*
X1261470D01*
X1265680Y852040D01*
X1213500Y888220D02*
X1217680Y884040D01*
X1213500Y888220D02*
Y918500D01*
X1222000Y871720D02*
X1225680Y868040D01*
X1230000Y887720D02*
X1233680Y884040D01*
X1230000Y887720D02*
Y907750D01*
X1237500Y888220D02*
X1241680Y884040D01*
X1237500Y888220D02*
Y908000D01*
X1271750Y913250D02*
Y913750D01*
X1269750Y911250D02*
X1271750Y913250D01*
X1265680Y884040D02*
X1269500Y887860D01*
Y911000D01*
X1265680Y868040D02*
X1269750Y872110D01*
Y879500D01*
X1270500Y880250D01*
X1276500D01*
X1278000Y881750D01*
X1285500Y896220D02*
X1289680Y892040D01*
X1285500Y896220D02*
Y907250D01*
X1281680Y868040D02*
X1285640Y872000D01*
X1291750D01*
X1293500Y873750D01*
Y878500D01*
X1295000Y880000D01*
X1300000D01*
X1301750Y881750D01*
Y905500D01*
X1307250Y911000D01*
X1222000Y871720D02*
Y922750D01*
X1285500Y907250D02*
X1388250Y1010000D01*
X1278000Y881750D02*
Y912268D01*
X1281500Y915768D01*
X1313680Y884040D02*
X1317640Y888000D01*
X1329348D01*
X1313680Y876040D02*
X1317890Y880250D01*
X1333405D01*
X1342000Y864500D02*
X1350000Y872500D01*
X1246000Y860500D02*
Y907500D01*
Y860500D02*
X1250250Y856250D01*
X1265680Y780040D02*
X1267460D01*
X1271600Y775900D01*
X1274900D01*
X1277800Y773000D01*
Y761400D02*
Y773000D01*
X1263500Y570300D02*
Y748400D01*
X1272000Y560000D02*
X1276000Y556000D01*
X1212000Y572000D02*
Y714900D01*
X1261600Y759960D02*
X1265680Y764040D01*
X1261600Y752600D02*
Y759960D01*
X1263500Y748400D02*
X1265700Y750600D01*
Y755100D01*
X1265680Y772040D02*
X1270100Y767620D01*
X1232000Y560000D02*
X1236000Y556000D01*
X1232000Y560000D02*
Y704100D01*
X1246000Y760358D02*
X1257680Y772038D01*
X1258000Y749000D02*
X1261600Y752600D01*
X1232000Y704000D02*
X1242000Y714000D01*
Y713630D02*
Y755250D01*
X1241680Y756040D02*
X1242000Y755720D01*
X1212000Y714900D02*
X1229250Y732150D01*
Y759750D01*
X1233500Y764000D01*
Y725500D02*
Y755860D01*
X1237000Y717000D02*
X1237500Y717500D01*
X1237600Y717250D02*
Y767610D01*
X1237500Y767860D02*
X1241680Y772040D01*
X1236950Y716750D02*
Y716950D01*
X1263500Y570300D02*
X1265700Y568100D01*
X1270100Y759100D02*
Y767620D01*
Y759100D02*
X1273100Y756100D01*
X1263900Y564000D02*
X1268000D01*
X1258000Y569900D02*
Y749000D01*
Y569900D02*
X1263900Y564000D01*
X1246000Y630000D02*
Y760358D01*
X1250000Y756360D02*
X1257680Y764040D01*
X1244000Y620000D02*
X1250000Y626000D01*
Y756360D01*
X1244000Y563000D02*
Y620000D01*
Y563000D02*
X1251000Y556000D01*
X1260000D01*
X1253000Y560000D02*
X1272000D01*
X1254000Y616375D02*
Y752500D01*
X1257500Y756000D01*
X1250000Y563000D02*
X1253000Y560000D01*
X1250000Y563000D02*
Y612375D01*
X1254000Y616375D01*
X1236000Y532000D02*
Y533000D01*
X1232000Y537000D02*
X1236000Y533000D01*
X1232000Y537000D02*
Y541500D01*
X1229250Y544250D02*
X1232000Y541500D01*
X1222000Y544250D02*
X1229250D01*
X1227250Y532000D02*
X1228000D01*
X1220000Y539250D02*
X1227250Y532000D01*
X1207500Y539250D02*
X1220000D01*
X1209500Y754750D02*
Y756000D01*
X1236000Y572000D02*
X1239500Y575500D01*
Y623500D01*
X1246000Y630000D01*
X1223750Y568250D02*
X1228000Y564000D01*
X1223750Y568250D02*
Y703550D01*
X1236950Y716750D01*
X1219500Y563500D02*
Y711500D01*
X1233500Y725500D01*
X1218250Y548000D02*
X1222000Y544250D01*
X1206500Y548000D02*
X1218250D01*
X1216000Y560000D02*
X1219500Y563500D01*
X1216000Y556000D02*
Y560000D01*
X1212000Y552000D02*
X1216000Y556000D01*
X1206500Y736000D02*
X1217750Y747250D01*
Y756430D01*
X1217680Y756500D02*
X1217750Y756430D01*
X1213500Y752000D02*
Y760500D01*
X1216750Y763750D01*
X1205750Y532000D02*
X1220000D01*
X1185250Y552500D02*
X1205750Y532000D01*
X1185250Y730500D02*
X1209500Y754750D01*
X1196750Y550000D02*
X1207500Y539250D01*
X1196750Y735250D02*
X1213500Y752000D01*
X1277800Y761400D02*
X1280250Y758950D01*
X1273100Y589500D02*
X1275750Y586850D01*
Y579750D02*
Y586850D01*
X1265700Y568000D02*
X1277250D01*
X1281250Y572000D01*
X1284000D01*
X1268000D02*
X1274750D01*
X1280250Y577500D01*
Y758950D01*
X1533750Y537500D02*
Y539250D01*
X1302140Y808500D02*
X1410500D01*
X1415560Y803440D02*
X1455260D01*
X1410500Y808500D02*
X1415560Y803440D01*
X1297680Y804040D02*
X1302140Y808500D01*
X1529250Y543750D02*
X1533750Y539250D01*
X1486900Y626550D02*
Y771800D01*
X1455260Y803440D02*
X1486900Y771800D01*
X1529250Y543750D02*
Y584200D01*
X1486900Y626550D02*
X1529250Y584200D01*
X1411506Y812500D02*
X1417026Y806980D01*
X1321220Y812500D02*
X1411506D01*
X1456726Y806980D02*
X1490440Y773266D01*
X1417026Y806980D02*
X1456726D01*
X1490440Y628016D02*
X1533750Y584706D01*
X1490440Y628016D02*
Y773266D01*
X1533750Y545500D02*
Y584706D01*
X1421440Y814060D02*
X1459659D01*
X1497520Y776199D01*
X1415460Y820040D02*
X1421440Y814060D01*
X1497520Y630949D02*
X1546000Y582468D01*
X1497520Y630949D02*
Y776199D01*
X1321680Y820040D02*
X1415460D01*
X1546000Y533750D02*
Y582468D01*
X1541750Y529500D02*
X1546000Y533750D01*
X1559250Y526500D02*
Y579231D01*
X1422750Y828250D02*
X1429860Y821140D01*
X1462591D02*
X1504600Y779131D01*
X1289890Y828250D02*
X1422750D01*
X1504600Y633881D02*
Y779131D01*
X1429860Y821140D02*
X1462591D01*
X1281680Y820040D02*
X1289890Y828250D01*
X1554250Y521500D02*
X1559250Y526500D01*
X1504600Y633881D02*
X1559250Y579231D01*
X1549750Y521500D02*
X1554250D01*
X1555500Y529500D02*
Y577975D01*
X1551750Y525750D02*
X1555500Y529500D01*
X1538000Y525750D02*
X1551750D01*
X1420750Y824250D02*
X1427400Y817600D01*
X1461125D02*
X1501060Y777665D01*
X1309890Y824250D02*
X1420750D01*
X1501060Y632415D02*
Y777665D01*
X1427400Y817600D02*
X1461125D01*
X1305680Y820040D02*
X1309890Y824250D01*
X1533750Y521500D02*
X1538000Y525750D01*
X1501060Y632415D02*
X1555500Y577975D01*
X1538000Y533750D02*
Y585462D01*
X1413960Y816040D02*
X1419480Y810520D01*
X1458192D02*
X1493980Y774732D01*
X1285680Y816040D02*
X1413960D01*
X1493980Y629482D02*
Y774732D01*
X1419480Y810520D02*
X1458192D01*
X1281680Y812040D02*
X1285680Y816040D01*
X1493980Y629482D02*
X1538000Y585462D01*
X1533750Y529500D02*
X1538000Y533750D01*
X1533750Y529500D02*
X1533750D01*
X1606000Y618750D02*
X1617500D01*
X1599750Y612500D02*
X1606000Y618750D01*
X1608000Y512250D02*
X1617000D01*
X1599750Y520500D02*
Y612500D01*
Y520500D02*
X1608000Y512250D01*
X1624750Y619000D02*
X1628500Y615250D01*
Y608000D02*
Y615250D01*
X1626750Y606250D02*
X1628500Y608000D01*
X1609250Y606250D02*
X1626750D01*
X1624500Y512250D02*
Y514250D01*
X1621000Y517750D02*
X1624500Y514250D01*
X1605500Y602500D02*
X1609250Y606250D01*
X1481500Y517750D02*
Y601912D01*
X1386750Y784250D02*
X1388800Y782200D01*
X1446462D02*
X1465660Y763002D01*
X1309890Y784250D02*
X1386750D01*
X1465660Y617752D02*
Y763002D01*
X1388800Y782200D02*
X1446462D01*
X1305680Y780040D02*
X1309890Y784250D01*
X1481500Y517750D02*
X1485750Y513500D01*
X1465660Y617752D02*
X1481500Y601912D01*
X1565000Y525500D02*
Y578487D01*
X1557250Y517750D02*
X1565000Y525500D01*
X1424086Y831920D02*
X1431326Y824680D01*
X1464057D02*
X1508140Y780598D01*
X1277800Y831920D02*
X1424086D01*
X1508140Y635347D02*
Y780598D01*
Y635347D02*
X1565000Y578487D01*
X1431326Y824680D02*
X1464057D01*
X1273680Y836040D02*
X1277800Y831920D01*
X1541750Y521500D02*
X1545500Y517750D01*
X1557250D01*
X1654500Y512250D02*
X1658250Y516000D01*
X1621250Y615000D02*
X1624750Y611500D01*
X1611000Y615000D02*
X1621250D01*
X1624750Y611000D02*
Y611500D01*
X1603500Y523500D02*
X1611000Y516000D01*
X1621000Y507750D02*
X1624500Y504250D01*
X1618250Y516000D02*
X1621000Y513250D01*
X1611000Y516000D02*
X1618250D01*
X1621000Y507750D02*
Y513250D01*
X1603500Y607500D02*
X1611000Y615000D01*
X1603500Y523500D02*
Y607500D01*
X1651000Y607250D02*
X1654500Y610750D01*
X1651000Y508250D02*
X1654500Y504750D01*
X1654500D01*
X1651000Y508250D02*
Y607250D01*
X1621000Y567875D02*
X1628250Y560625D01*
X1621000Y567875D02*
Y592750D01*
X1624500Y596250D01*
X1628250Y493500D02*
Y560625D01*
X1624500Y489750D02*
X1628250Y493500D01*
X1569750Y525000D02*
Y578744D01*
X1554500Y509750D02*
X1569750Y525000D01*
X1545500Y509750D02*
X1554500D01*
X1322260Y835460D02*
X1425553D01*
X1432793Y828220D01*
X1465524D02*
X1511680Y782064D01*
X1432793Y828220D02*
X1465524D01*
X1321680Y836040D02*
X1322260Y835460D01*
X1511680Y636814D02*
X1569750Y578744D01*
X1541750Y513500D02*
X1545500Y509750D01*
X1511680Y636814D02*
Y782064D01*
X1635250Y600000D02*
X1640250Y595000D01*
X1615500Y600000D02*
X1635250D01*
X1612250Y593500D02*
Y596750D01*
Y593500D02*
X1617250Y588500D01*
X1612250Y596750D02*
X1615500Y600000D01*
X1640250Y484500D02*
Y595000D01*
X1634500Y478750D02*
X1640250Y484500D01*
X1620750Y478750D02*
X1634500D01*
X1617250Y482250D02*
X1620750Y478750D01*
X1625500Y588250D02*
X1629250Y584500D01*
X1635250D02*
X1637000Y582750D01*
X1629250Y584500D02*
X1635250D01*
X1637000Y487750D02*
Y582750D01*
X1635000Y485750D02*
X1637000Y487750D01*
X1628000Y485750D02*
X1635000D01*
X1624500Y482250D02*
X1628000Y485750D01*
X1574250Y520750D02*
Y579250D01*
X1559500Y506000D02*
X1574250Y520750D01*
X1427019Y839000D02*
X1434259Y831760D01*
X1466990D02*
X1515220Y783530D01*
X1326720Y839000D02*
X1427019D01*
X1515220Y638280D02*
Y783530D01*
Y638280D02*
X1574250Y579250D01*
X1434259Y831760D02*
X1466990D01*
X1321680Y844040D02*
X1326720Y839000D01*
X1539500Y506000D02*
X1559500D01*
X1533750Y511750D02*
X1539500Y506000D01*
X1533750Y511750D02*
Y513500D01*
X1411350Y799900D02*
X1453793D01*
X1483360Y770333D01*
X1407210Y804040D02*
X1411350Y799900D01*
X1483360Y625083D02*
X1521750Y586693D01*
X1483360Y625083D02*
Y770333D01*
X1321680Y804040D02*
X1407210D01*
X1545000Y494250D02*
Y499750D01*
X1543250Y501500D02*
X1545000Y499750D01*
Y494250D02*
X1549750Y489500D01*
X1521750Y506750D02*
X1527000Y501500D01*
X1521750Y506750D02*
Y586693D01*
X1527000Y501500D02*
X1543250D01*
X1636500Y602250D02*
X1642500Y596250D01*
X1612500Y602250D02*
X1636500D01*
X1609000Y589000D02*
Y598750D01*
X1612500Y602250D01*
X1617000Y581000D02*
X1617500D01*
X1609000Y589000D02*
X1617000Y581000D01*
X1642500Y478250D02*
Y596250D01*
X1635000Y470750D02*
X1642500Y478250D01*
X1621000Y470750D02*
X1635000D01*
X1617000Y474750D02*
X1621000Y470750D01*
X1403710Y800040D02*
X1407390Y796360D01*
X1452327D02*
X1479820Y768867D01*
X1293680Y800040D02*
X1403710D01*
X1479820Y623617D02*
Y768867D01*
X1407390Y796360D02*
X1452327D01*
X1289680Y796040D02*
X1293680Y800040D01*
X1524250Y493250D02*
X1538000D01*
X1541750Y489500D01*
X1514250Y503250D02*
Y589187D01*
Y503250D02*
X1524250Y493250D01*
X1479820Y623617D02*
X1514250Y589187D01*
X1402180Y792820D02*
X1450861D01*
X1476280Y767401D01*
X1398960Y796040D02*
X1402180Y792820D01*
X1476280Y622151D02*
X1501750Y596681D01*
X1476280Y622151D02*
Y767401D01*
X1321680Y796040D02*
X1398960D01*
X1521250Y478000D02*
X1525750Y473500D01*
X1521250Y478000D02*
Y483000D01*
X1501750Y497750D02*
Y596681D01*
X1396750Y792000D02*
X1399470Y789280D01*
X1449394D02*
X1472740Y765935D01*
X1285720Y792000D02*
X1396750D01*
X1472740Y620685D02*
Y765935D01*
Y620685D02*
X1497750Y595675D01*
X1399470Y789280D02*
X1449394D01*
X1281680Y796040D02*
X1285720Y792000D01*
X1513250Y478000D02*
X1517750Y473500D01*
X1497750Y486000D02*
X1505750Y478000D01*
X1513250D01*
X1497750Y486000D02*
Y595675D01*
X1654250Y467000D02*
Y467250D01*
X1645500Y458250D02*
X1654250Y467000D01*
X1604500Y458250D02*
X1645500D01*
X1577500Y485250D02*
X1604500Y458250D01*
X1509250Y529500D02*
X1510000D01*
X1504500Y524750D02*
X1509250Y529500D01*
X1504500Y505000D02*
Y524750D01*
X1524250Y485250D02*
X1577500D01*
X1511625Y487875D02*
X1516375D01*
X1521250Y483000D01*
X1501750Y497750D02*
X1511625Y487875D01*
X1504500Y505000D02*
X1509438Y500062D01*
X1513687D01*
X1518000Y491500D02*
X1524250Y485250D01*
X1518000Y491500D02*
Y495750D01*
X1513687Y500062D02*
X1518000Y495750D01*
X1333405Y880250D02*
X1414155Y961000D01*
X1549750Y473500D02*
X1550500Y472750D01*
X1453500Y457250D02*
X1461750Y465500D01*
X1453500Y444000D02*
Y457250D01*
X1461750Y450500D02*
Y457500D01*
Y450500D02*
X1475750Y436500D01*
X1493750Y457500D02*
X1507000Y444250D01*
X1724750D01*
X1736750Y456250D01*
X1760500D01*
X1773000Y468750D01*
X1475750Y436500D02*
X1722750D01*
X1730250Y429000D01*
X1761500D01*
X1774000Y416500D01*
X1453500Y444000D02*
X1477750Y419750D01*
X1746750D01*
X1749250Y417250D01*
X1531000Y836500D02*
X1561250Y806250D01*
X1677000D01*
X1682250Y811500D01*
X1706500D01*
X1733000Y785000D01*
X1778750D01*
X1790500Y773250D01*
Y711750D02*
Y773250D01*
X1776250Y697500D02*
X1790500Y711750D01*
X1774250Y697500D02*
X1776250D01*
X1570750Y792500D02*
X1579000Y800750D01*
X1704500D01*
X1732750Y772500D01*
Y762000D02*
Y772500D01*
Y762000D02*
X1734750Y760000D01*
X1756250D01*
X1762500Y753750D01*
Y734250D02*
Y753750D01*
Y734250D02*
X1774000Y722750D01*
D28*
X899500Y1229250D02*
X911500Y1217250D01*
Y1086000D02*
Y1217250D01*
Y1086000D02*
X985000Y1012500D01*
X1119500D01*
X1213500Y918500D01*
D31*
X1639250Y792750D02*
X1650250Y781750D01*
Y743000D02*
Y781750D01*
Y743000D02*
X1697000Y696250D01*
X1748500D01*
D34*
X1559160Y1229360D02*
D03*
X898760D02*
D03*
X949560D02*
D03*
X1000360D02*
D03*
X1051160D02*
D03*
X1101960D02*
D03*
X1152760D02*
D03*
X1203560D02*
D03*
X1355960D02*
D03*
X1406760D02*
D03*
X1457560D02*
D03*
X1508360D02*
D03*
X1748760Y672160D02*
D03*
X1774160Y697560D02*
D03*
X1748760D02*
D03*
X1774160Y722960D02*
D03*
X1748760Y951560D02*
D03*
Y976960D02*
D03*
Y1027760D02*
D03*
Y1053160D02*
D03*
Y1078560D02*
D03*
X1774160Y418160D02*
D03*
X1748760D02*
D03*
X1774160Y468960D02*
D03*
X774160Y494360D02*
D03*
Y545160D02*
D03*
Y595960D02*
D03*
Y646760D02*
D03*
Y697560D02*
D03*
Y748360D02*
D03*
Y799160D02*
D03*
Y849960D02*
D03*
Y900760D02*
D03*
Y951560D02*
D03*
Y1002360D02*
D03*
Y392760D02*
D03*
Y443560D02*
D03*
D35*
X1748760Y1103960D02*
D03*
D45*
X1570750Y792500D02*
D03*
X1639250Y792750D02*
D03*
X1672000Y792500D02*
D03*
X1531000Y836500D02*
D03*
M02*
