%FSLAX44Y44*%
%MOMM*%
G71*
G01*
G75*
G04 Layer_Color=65535*
%ADD10R,2.0000X4.0000*%
%ADD11R,0.4500X2.0000*%
%ADD12R,1.1000X1.7000*%
%ADD13C,0.4000*%
%ADD14R,1.7000X1.1000*%
%ADD15R,2.6000X1.1000*%
%ADD16R,1.5000X1.5000*%
%ADD17C,0.3600*%
%ADD18C,0.3000*%
%ADD19R,1.1000X2.6000*%
%ADD20R,0.6000X1.1500*%
%ADD21R,1.1500X0.7500*%
%ADD22R,2.0000X2.0000*%
%ADD23C,2.0000*%
%ADD24C,0.2540*%
%ADD25C,0.3048*%
%ADD26C,0.1000*%
%ADD27C,1.0000*%
%ADD28C,0.4000*%
%ADD29C,2.0000*%
%ADD30C,0.5080*%
%ADD31C,0.2000*%
%ADD32C,0.5000*%
%ADD33C,1.5240*%
%ADD34C,1.5000*%
%ADD35R,1.5000X1.5000*%
%ADD36C,3.8000*%
%ADD37C,1.6000*%
%ADD38R,1.6000X1.6000*%
%ADD39R,1.8500X1.8500*%
%ADD40C,1.8500*%
%ADD41R,1.3500X1.3500*%
%ADD42C,1.3500*%
%ADD43R,1.3500X1.3500*%
%ADD44C,1.7780*%
%ADD45C,1.0000*%
%ADD46C,1.2700*%
%ADD47C,7.0000*%
%ADD48C,1.0160*%
%ADD49C,1.1620*%
%ADD50C,1.3000*%
%ADD51C,2.7000*%
%ADD52C,1.3200*%
%ADD53C,1.2000*%
%ADD54C,1.6700*%
%ADD55C,0.9000*%
%ADD56C,0.6500*%
%ADD57C,5.4000*%
%ADD58C,0.3000*%
%ADD59C,0.0025*%
G04:AMPARAMS|DCode=60|XSize=1.7mm|YSize=1.1mm|CornerRadius=0mm|HoleSize=0mm|Usage=FLASHONLY|Rotation=225.000|XOffset=0mm|YOffset=0mm|HoleType=Round|Shape=Rectangle|*
%AMROTATEDRECTD60*
4,1,4,0.2121,0.9900,0.9900,0.2121,-0.2121,-0.9900,-0.9900,-0.2121,0.2121,0.9900,0.0*
%
%ADD60ROTATEDRECTD60*%

%ADD61C,3.0000*%
%ADD62C,0.2500*%
%ADD63C,0.1270*%
%ADD64C,0.1524*%
%ADD65C,0.2032*%
G36*
X658750Y527500D02*
X558750D01*
Y857500D01*
X658750D01*
Y527500D01*
D02*
G37*
G36*
Y425000D02*
X558750D01*
Y525000D01*
X658750D01*
Y425000D01*
D02*
G37*
G36*
X658750Y860096D02*
X558750D01*
Y1110250D01*
X658750D01*
Y860096D01*
D02*
G37*
G36*
Y409250D02*
X558750D01*
Y422500D01*
X658750D01*
Y409250D01*
D02*
G37*
G36*
X1680000Y449500D02*
X1670000D01*
X1680000Y459500D01*
Y449500D01*
D02*
G37*
G36*
X1180478Y753040D02*
X1174680D01*
Y758838D01*
X1180478Y753040D01*
D02*
G37*
G36*
X1208000Y576485D02*
Y586000D01*
X1217515D01*
X1208000Y576485D01*
D02*
G37*
G36*
X1455750Y541500D02*
Y551500D01*
X1465750D01*
X1455750Y541500D01*
D02*
G37*
G36*
X1680250Y555750D02*
X1670250D01*
X1680250Y565750D01*
Y555750D01*
D02*
G37*
%LPC*%
G36*
X624631Y980343D02*
X591533D01*
Y957972D01*
X597832D01*
Y972059D01*
X606230D01*
Y959079D01*
X612529D01*
Y972059D01*
X618332D01*
Y957972D01*
X624631D01*
Y980343D01*
D02*
G37*
G36*
Y952322D02*
X591533D01*
Y944725D01*
X614591D01*
X591533Y931974D01*
Y923957D01*
X624631D01*
Y931554D01*
X605658D01*
X624631Y942129D01*
Y952322D01*
D02*
G37*
G36*
X591533Y1074371D02*
Y1066049D01*
X598252Y1063988D01*
Y1053489D01*
X591533Y1051428D01*
Y1042876D01*
X624631Y1054100D01*
Y1063186D01*
X591533Y1074371D01*
D02*
G37*
G36*
X601344Y1041387D02*
X593441D01*
X593060Y1040471D01*
X592716Y1039517D01*
X592411Y1038639D01*
X592143Y1037799D01*
X592029Y1037455D01*
X591953Y1037112D01*
X591838Y1036806D01*
X591762Y1036577D01*
X591723Y1036348D01*
X591685Y1036195D01*
X591647Y1036119D01*
Y1036081D01*
X591418Y1034974D01*
X591227Y1033828D01*
X591113Y1032683D01*
X590998Y1031652D01*
Y1031194D01*
X590960Y1030736D01*
Y1030354D01*
X590922Y1030049D01*
Y1029782D01*
Y1029553D01*
Y1029438D01*
Y1029400D01*
X590960Y1028178D01*
X591036Y1027033D01*
X591189Y1025964D01*
X591380Y1024971D01*
X591609Y1024055D01*
X591876Y1023177D01*
X592143Y1022375D01*
X592411Y1021688D01*
X592678Y1021039D01*
X592945Y1020467D01*
X593212Y1020008D01*
X593441Y1019627D01*
X593632Y1019321D01*
X593785Y1019092D01*
X593861Y1018940D01*
X593899Y1018901D01*
X594472Y1018214D01*
X595121Y1017603D01*
X595770Y1017107D01*
X596419Y1016649D01*
X597068Y1016267D01*
X597755Y1015962D01*
X598366Y1015695D01*
X599015Y1015504D01*
X599588Y1015351D01*
X600122Y1015198D01*
X600619Y1015122D01*
X601038Y1015084D01*
X601382Y1015046D01*
X601611Y1015007D01*
X602451D01*
X603062Y1015084D01*
X604169Y1015275D01*
X605085Y1015542D01*
X605505Y1015695D01*
X605887Y1015847D01*
X606230Y1016000D01*
X606536Y1016153D01*
X606803Y1016305D01*
X606994Y1016420D01*
X607147Y1016535D01*
X607261Y1016611D01*
X607337Y1016649D01*
X607376Y1016687D01*
X607757Y1017031D01*
X608139Y1017374D01*
X608788Y1018176D01*
X609361Y1019054D01*
X609857Y1019856D01*
X610239Y1020619D01*
X610392Y1020963D01*
X610506Y1021230D01*
X610621Y1021459D01*
X610697Y1021650D01*
X610735Y1021765D01*
Y1021803D01*
X610964Y1022452D01*
X611155Y1023063D01*
X611346Y1023635D01*
X611460Y1024132D01*
X611575Y1024551D01*
X611651Y1024857D01*
X611728Y1025048D01*
Y1025124D01*
X611995Y1026269D01*
X612109Y1026804D01*
X612224Y1027300D01*
X612300Y1027720D01*
X612377Y1028026D01*
X612453Y1028255D01*
Y1028293D01*
Y1028331D01*
X612568Y1028789D01*
X612682Y1029209D01*
X612911Y1029934D01*
X613140Y1030545D01*
X613369Y1031041D01*
X613522Y1031385D01*
X613675Y1031614D01*
X613751Y1031767D01*
X613789Y1031805D01*
X614095Y1032110D01*
X614438Y1032301D01*
X614782Y1032454D01*
X615087Y1032569D01*
X615393Y1032645D01*
X615622Y1032683D01*
X615813D01*
X616118Y1032645D01*
X616423Y1032607D01*
X616691Y1032530D01*
X616920Y1032416D01*
X617111Y1032301D01*
X617263Y1032225D01*
X617340Y1032187D01*
X617378Y1032149D01*
X617836Y1031690D01*
X618180Y1031232D01*
X618294Y1031041D01*
X618370Y1030889D01*
X618447Y1030812D01*
Y1030774D01*
X618714Y1030087D01*
X618829Y1029782D01*
X618905Y1029514D01*
X618943Y1029285D01*
X618981Y1029133D01*
X619019Y1029018D01*
Y1028980D01*
X619134Y1028293D01*
X619172Y1027949D01*
Y1027644D01*
X619210Y1027376D01*
Y1027186D01*
Y1027033D01*
Y1026995D01*
X619172Y1025964D01*
X619058Y1024971D01*
X618867Y1024055D01*
X618676Y1023253D01*
X618561Y1022872D01*
X618447Y1022566D01*
X618370Y1022261D01*
X618294Y1022032D01*
X618218Y1021841D01*
X618141Y1021688D01*
X618103Y1021612D01*
Y1021574D01*
X617683Y1020619D01*
X617225Y1019741D01*
X616805Y1018978D01*
X616385Y1018329D01*
X616003Y1017794D01*
X615736Y1017412D01*
X615622Y1017260D01*
X615545Y1017145D01*
X615469Y1017107D01*
Y1017069D01*
Y1016305D01*
X622990D01*
X623372Y1017184D01*
X623677Y1018100D01*
X623982Y1018978D01*
X624211Y1019818D01*
X624402Y1020505D01*
X624440Y1020810D01*
X624517Y1021077D01*
X624555Y1021268D01*
X624593Y1021459D01*
X624631Y1021536D01*
Y1021574D01*
X624822Y1022643D01*
X624975Y1023712D01*
X625089Y1024704D01*
X625166Y1025582D01*
X625204Y1026002D01*
Y1026346D01*
X625242Y1026689D01*
Y1026957D01*
Y1027148D01*
Y1027300D01*
Y1027415D01*
Y1027453D01*
X625204Y1028522D01*
X625128Y1029553D01*
X624975Y1030545D01*
X624784Y1031461D01*
X624555Y1032339D01*
X624326Y1033141D01*
X624059Y1033867D01*
X623791Y1034554D01*
X623524Y1035164D01*
X623257Y1035699D01*
X623028Y1036157D01*
X622799Y1036539D01*
X622608Y1036844D01*
X622455Y1037073D01*
X622379Y1037226D01*
X622341Y1037264D01*
X621768Y1037951D01*
X621195Y1038562D01*
X620585Y1039097D01*
X619974Y1039555D01*
X619325Y1039898D01*
X618714Y1040242D01*
X618103Y1040509D01*
X617492Y1040700D01*
X616958Y1040853D01*
X616462Y1041005D01*
X616003Y1041082D01*
X615584Y1041120D01*
X615278Y1041158D01*
X615011Y1041196D01*
X614820D01*
X614209Y1041158D01*
X613598Y1041120D01*
X612491Y1040929D01*
X611499Y1040662D01*
X611079Y1040509D01*
X610659Y1040356D01*
X610315Y1040204D01*
X610010Y1040089D01*
X609743Y1039937D01*
X609514Y1039822D01*
X609323Y1039707D01*
X609208Y1039631D01*
X609132Y1039555D01*
X609094D01*
X608674Y1039211D01*
X608292Y1038829D01*
X607567Y1037990D01*
X606918Y1037073D01*
X606421Y1036157D01*
X606001Y1035355D01*
X605810Y1035012D01*
X605696Y1034668D01*
X605581Y1034401D01*
X605505Y1034210D01*
X605429Y1034096D01*
Y1034057D01*
X605047Y1032798D01*
X604856Y1032187D01*
X604703Y1031614D01*
X604589Y1031156D01*
X604512Y1030774D01*
X604474Y1030660D01*
Y1030545D01*
X604436Y1030507D01*
Y1030469D01*
X604283Y1029743D01*
X604131Y1029094D01*
X604016Y1028446D01*
X603863Y1027911D01*
X603749Y1027491D01*
X603673Y1027148D01*
X603634Y1026918D01*
X603596Y1026842D01*
X603443Y1026346D01*
X603291Y1025926D01*
X603100Y1025506D01*
X602909Y1025162D01*
X602718Y1024895D01*
X602565Y1024704D01*
X602489Y1024551D01*
X602451Y1024513D01*
X602146Y1024170D01*
X601802Y1023941D01*
X601458Y1023750D01*
X601153Y1023635D01*
X600886Y1023559D01*
X600657Y1023521D01*
X600428D01*
X600046Y1023559D01*
X599664Y1023597D01*
X599359Y1023712D01*
X599130Y1023826D01*
X598901Y1023941D01*
X598748Y1024017D01*
X598671Y1024093D01*
X598633Y1024132D01*
X598175Y1024628D01*
X597832Y1025086D01*
X597717Y1025315D01*
X597641Y1025468D01*
X597564Y1025582D01*
Y1025620D01*
X597450Y1025888D01*
X597374Y1026193D01*
X597221Y1026804D01*
X597183Y1027071D01*
X597144Y1027300D01*
X597106Y1027453D01*
Y1027491D01*
X597068Y1027911D01*
X597030Y1028255D01*
X596992Y1028598D01*
Y1028865D01*
X596954Y1029056D01*
Y1029247D01*
Y1029324D01*
Y1029362D01*
X596992Y1030431D01*
X597144Y1031461D01*
X597297Y1032454D01*
X597526Y1033332D01*
X597603Y1033752D01*
X597717Y1034096D01*
X597793Y1034401D01*
X597908Y1034668D01*
X597946Y1034897D01*
X598022Y1035050D01*
X598061Y1035164D01*
Y1035203D01*
X598519Y1036310D01*
X599053Y1037302D01*
X599588Y1038219D01*
X600122Y1039059D01*
X600389Y1039402D01*
X600619Y1039707D01*
X600809Y1040013D01*
X601000Y1040242D01*
X601153Y1040395D01*
X601268Y1040547D01*
X601306Y1040624D01*
X601344Y1040662D01*
Y1041387D01*
D02*
G37*
G36*
X608406Y1012679D02*
X608063D01*
X606574Y1012641D01*
X605162Y1012488D01*
X603863Y1012259D01*
X602642Y1011992D01*
X601497Y1011686D01*
X600466Y1011304D01*
X599511Y1010923D01*
X598671Y1010503D01*
X597908Y1010083D01*
X597259Y1009701D01*
X596686Y1009319D01*
X596228Y1009014D01*
X595846Y1008708D01*
X595617Y1008518D01*
X595426Y1008365D01*
X595388Y1008327D01*
X594587Y1007487D01*
X593899Y1006571D01*
X593289Y1005616D01*
X592792Y1004623D01*
X592334Y1003631D01*
X591991Y1002638D01*
X591685Y1001684D01*
X591456Y1000768D01*
X591265Y999890D01*
X591113Y999088D01*
X591036Y998363D01*
X590960Y997714D01*
X590922Y997217D01*
X590884Y996836D01*
Y996683D01*
Y996568D01*
Y996530D01*
Y996492D01*
Y995652D01*
X590922Y994889D01*
X590960Y994240D01*
X591036Y993705D01*
X591074Y993285D01*
X591113Y992980D01*
X591151Y992827D01*
Y992751D01*
X591342Y991720D01*
X591456Y991224D01*
X591571Y990766D01*
X591685Y990422D01*
X591762Y990117D01*
X591838Y989926D01*
Y989849D01*
X592105Y988895D01*
X592258Y988475D01*
X592411Y988131D01*
X592525Y987826D01*
X592640Y987559D01*
X592678Y987406D01*
X592716Y987368D01*
X592907Y986910D01*
X593098Y986528D01*
X593289Y986146D01*
X593441Y985841D01*
X593556Y985574D01*
X593632Y985383D01*
X593709Y985268D01*
Y985230D01*
X601497D01*
Y985993D01*
X601077Y986490D01*
X600657Y986986D01*
X600504Y987177D01*
X600351Y987330D01*
X600275Y987444D01*
X600237Y987482D01*
X599740Y988131D01*
X599511Y988475D01*
X599282Y988780D01*
X599130Y989048D01*
X598977Y989239D01*
X598901Y989391D01*
X598862Y989429D01*
X598633Y989849D01*
X598404Y990269D01*
X598213Y990689D01*
X598022Y991071D01*
X597870Y991415D01*
X597755Y991682D01*
X597717Y991873D01*
X597679Y991949D01*
X597488Y992522D01*
X597374Y993056D01*
X597259Y993591D01*
X597221Y994087D01*
X597183Y994469D01*
X597144Y994812D01*
Y995003D01*
Y995041D01*
Y995079D01*
X597183Y995652D01*
X597221Y996225D01*
X597297Y996759D01*
X597412Y997255D01*
X597526Y997675D01*
X597603Y997981D01*
X597641Y998172D01*
X597679Y998248D01*
X597908Y998821D01*
X598213Y999355D01*
X598481Y999852D01*
X598786Y1000271D01*
X599053Y1000615D01*
X599282Y1000882D01*
X599435Y1001035D01*
X599473Y1001111D01*
X600008Y1001569D01*
X600542Y1002028D01*
X601115Y1002371D01*
X601649Y1002715D01*
X602107Y1002944D01*
X602489Y1003135D01*
X602642Y1003211D01*
X602756Y1003249D01*
X602794Y1003287D01*
X602833D01*
X603673Y1003555D01*
X604512Y1003745D01*
X605391Y1003898D01*
X606230Y1003975D01*
X606956Y1004051D01*
X607261D01*
X607528Y1004089D01*
X608025D01*
X609094Y1004051D01*
X610048Y1003975D01*
X610926Y1003860D01*
X611651Y1003707D01*
X611995Y1003631D01*
X612262Y1003555D01*
X612529Y1003516D01*
X612720Y1003440D01*
X612873Y1003402D01*
X612988Y1003364D01*
X613064Y1003326D01*
X613102D01*
X613866Y1003020D01*
X614553Y1002676D01*
X615125Y1002333D01*
X615622Y1002028D01*
X616003Y1001722D01*
X616271Y1001493D01*
X616462Y1001340D01*
X616500Y1001302D01*
X616996Y1000768D01*
X617416Y1000271D01*
X617760Y999775D01*
X618027Y999355D01*
X618218Y998973D01*
X618370Y998706D01*
X618447Y998515D01*
X618485Y998439D01*
X618676Y997866D01*
X618829Y997255D01*
X618905Y996721D01*
X618981Y996187D01*
X619019Y995767D01*
X619058Y995423D01*
Y995194D01*
Y995156D01*
Y995118D01*
X619019Y994583D01*
X618981Y994049D01*
X618905Y993552D01*
X618829Y993132D01*
X618714Y992751D01*
X618638Y992484D01*
X618600Y992331D01*
X618561Y992254D01*
X618370Y991720D01*
X618180Y991262D01*
X617951Y990804D01*
X617760Y990422D01*
X617607Y990117D01*
X617454Y989849D01*
X617378Y989697D01*
X617340Y989658D01*
X616843Y988857D01*
X616576Y988513D01*
X616347Y988208D01*
X616156Y987941D01*
X616003Y987750D01*
X615927Y987635D01*
X615889Y987597D01*
X615393Y986986D01*
X615202Y986719D01*
X615011Y986490D01*
X614858Y986337D01*
X614744Y986223D01*
X614706Y986146D01*
X614667Y986108D01*
Y985230D01*
X622532D01*
X622684Y985574D01*
X622875Y985917D01*
X623028Y986299D01*
X623181Y986643D01*
X623333Y986948D01*
X623448Y987177D01*
X623486Y987330D01*
X623524Y987406D01*
X623753Y987902D01*
X623944Y988361D01*
X624097Y988780D01*
X624211Y989162D01*
X624326Y989468D01*
X624402Y989697D01*
X624440Y989849D01*
Y989887D01*
X624708Y990956D01*
X624822Y991491D01*
X624937Y991949D01*
X625013Y992331D01*
X625051Y992636D01*
X625089Y992827D01*
Y992903D01*
X625166Y993514D01*
X625242Y994125D01*
X625280Y994698D01*
Y995270D01*
X625318Y995729D01*
Y996110D01*
Y996263D01*
Y996377D01*
Y996416D01*
Y996454D01*
X625280Y997828D01*
X625128Y999088D01*
X624898Y1000310D01*
X624593Y1001455D01*
X624250Y1002486D01*
X623830Y1003478D01*
X623410Y1004356D01*
X622990Y1005158D01*
X622532Y1005883D01*
X622112Y1006494D01*
X621730Y1007029D01*
X621348Y1007487D01*
X621043Y1007830D01*
X620814Y1008098D01*
X620661Y1008250D01*
X620623Y1008288D01*
X619707Y1009052D01*
X618752Y1009739D01*
X617721Y1010312D01*
X616691Y1010808D01*
X615622Y1011266D01*
X614591Y1011610D01*
X613560Y1011915D01*
X612568Y1012144D01*
X611651Y1012297D01*
X610812Y1012450D01*
X610048Y1012526D01*
X609361Y1012602D01*
X608826Y1012641D01*
X608406Y1012679D01*
D02*
G37*
G36*
X601934Y421852D02*
X601809D01*
X601282Y421838D01*
X600783Y421783D01*
X600325Y421700D01*
X599881Y421589D01*
X599479Y421464D01*
X599104Y421325D01*
X598772Y421173D01*
X598467Y421020D01*
X598189Y420854D01*
X597953Y420701D01*
X597759Y420563D01*
X597593Y420438D01*
X597454Y420327D01*
X597371Y420243D01*
X597302Y420188D01*
X597288Y420174D01*
X596996Y419841D01*
X596747Y419495D01*
X596539Y419134D01*
X596345Y418760D01*
X596192Y418371D01*
X596067Y417997D01*
X595956Y417622D01*
X595873Y417262D01*
X595804Y416929D01*
X595748Y416610D01*
X595721Y416333D01*
X595693Y416083D01*
X595679Y415889D01*
X595665Y415806D01*
Y415736D01*
Y415681D01*
Y415639D01*
Y415625D01*
Y415611D01*
X595679Y415084D01*
X595734Y414599D01*
X595818Y414128D01*
X595915Y413698D01*
X596040Y413296D01*
X596178Y412921D01*
X596331Y412574D01*
X596483Y412269D01*
X596622Y411992D01*
X596775Y411756D01*
X596913Y411548D01*
X597038Y411382D01*
X597135Y411257D01*
X597218Y411160D01*
X597274Y411090D01*
X597288Y411077D01*
X597607Y410785D01*
X597953Y410522D01*
X598314Y410300D01*
X598689Y410106D01*
X599063Y409939D01*
X599437Y409814D01*
X599812Y409703D01*
X600159Y409607D01*
X600505Y409537D01*
X600810Y409482D01*
X601088Y409454D01*
X601337Y409426D01*
X601531Y409412D01*
X601615Y409398D01*
X601809D01*
X602336Y409412D01*
X602835Y409468D01*
X603293Y409551D01*
X603737Y409662D01*
X604139Y409787D01*
X604513Y409925D01*
X604846Y410078D01*
X605151Y410244D01*
X605429Y410397D01*
X605664Y410550D01*
X605858Y410688D01*
X606025Y410813D01*
X606163Y410924D01*
X606261Y411007D01*
X606316Y411063D01*
X606330Y411077D01*
X606621Y411409D01*
X606871Y411756D01*
X607093Y412117D01*
X607273Y412491D01*
X607439Y412865D01*
X607564Y413254D01*
X607675Y413614D01*
X607758Y413975D01*
X607828Y414308D01*
X607883Y414613D01*
X607911Y414904D01*
X607939Y415140D01*
X607953Y415334D01*
X607966Y415487D01*
Y415542D01*
Y415584D01*
Y415598D01*
Y415611D01*
X607953Y416138D01*
X607897Y416638D01*
X607814Y417109D01*
X607703Y417539D01*
X607578Y417955D01*
X607439Y418330D01*
X607301Y418662D01*
X607148Y418982D01*
X606982Y419245D01*
X606843Y419495D01*
X606704Y419703D01*
X606580Y419869D01*
X606469Y419994D01*
X606385Y420091D01*
X606330Y420160D01*
X606316Y420174D01*
X605997Y420465D01*
X605650Y420729D01*
X605290Y420951D01*
X604915Y421145D01*
X604541Y421311D01*
X604166Y421436D01*
X603806Y421547D01*
X603445Y421644D01*
X603112Y421714D01*
X602807Y421769D01*
X602530Y421797D01*
X602280Y421824D01*
X602086Y421838D01*
X601934Y421852D01*
D02*
G37*
G36*
X624860Y504835D02*
X591953D01*
Y481051D01*
X598328D01*
Y496360D01*
X606459D01*
Y482158D01*
X612835D01*
Y496360D01*
X618485D01*
Y481051D01*
X624860D01*
Y504835D01*
D02*
G37*
G36*
Y474408D02*
X603825D01*
X602718Y474370D01*
X601687Y474255D01*
X600695Y474065D01*
X599817Y473836D01*
X598977Y473568D01*
X598213Y473263D01*
X597526Y472919D01*
X596877Y472576D01*
X596343Y472232D01*
X595846Y471889D01*
X595465Y471583D01*
X595121Y471316D01*
X594854Y471087D01*
X594663Y470896D01*
X594548Y470782D01*
X594510Y470743D01*
X593938Y470018D01*
X593441Y469216D01*
X593021Y468376D01*
X592640Y467460D01*
X592334Y466582D01*
X592067Y465666D01*
X591838Y464750D01*
X591685Y463910D01*
X591533Y463070D01*
X591456Y462306D01*
X591380Y461619D01*
X591303Y461008D01*
Y460512D01*
X591265Y460130D01*
Y460016D01*
Y459901D01*
Y459863D01*
Y459825D01*
X591303Y458527D01*
X591418Y457267D01*
X591571Y456122D01*
X591762Y455091D01*
X592029Y454099D01*
X592296Y453182D01*
X592602Y452381D01*
X592907Y451655D01*
X593174Y451006D01*
X593479Y450472D01*
X593747Y449976D01*
X594014Y449594D01*
X594205Y449288D01*
X594358Y449097D01*
X594472Y448945D01*
X594510Y448907D01*
X595159Y448257D01*
X595846Y447685D01*
X596572Y447189D01*
X597335Y446730D01*
X598137Y446387D01*
X598901Y446082D01*
X599664Y445814D01*
X600389Y445623D01*
X601115Y445471D01*
X601764Y445356D01*
X602336Y445280D01*
X602871Y445204D01*
X603291D01*
X603596Y445165D01*
X624860D01*
Y453640D01*
X603634D01*
X603062Y453717D01*
X602489Y453793D01*
X601993Y453870D01*
X601535Y453984D01*
X601077Y454099D01*
X600733Y454251D01*
X600389Y454366D01*
X600084Y454518D01*
X599817Y454671D01*
X599626Y454786D01*
X599435Y454900D01*
X599320Y454977D01*
X599206Y455053D01*
X599168Y455129D01*
X599130D01*
X598862Y455435D01*
X598595Y455740D01*
X598213Y456504D01*
X597908Y457267D01*
X597717Y458031D01*
X597603Y458718D01*
X597564Y459023D01*
Y459291D01*
X597526Y459520D01*
Y459672D01*
Y459787D01*
Y459825D01*
X597564Y460398D01*
X597603Y460970D01*
X597679Y461466D01*
X597793Y461925D01*
X597908Y462345D01*
X598061Y462726D01*
X598213Y463070D01*
X598366Y463375D01*
X598671Y463872D01*
X598939Y464253D01*
X599130Y464444D01*
X599206Y464521D01*
X599550Y464750D01*
X599893Y464979D01*
X600695Y465322D01*
X601535Y465589D01*
X602375Y465742D01*
X603138Y465857D01*
X603443Y465895D01*
X603711D01*
X603978Y465933D01*
X624860D01*
Y474408D01*
D02*
G37*
G36*
X608406Y919185D02*
X608063D01*
X606574Y919147D01*
X605162Y918994D01*
X603863Y918765D01*
X602642Y918498D01*
X601497Y918193D01*
X600466Y917811D01*
X599511Y917429D01*
X598671Y917009D01*
X597908Y916589D01*
X597259Y916207D01*
X596686Y915826D01*
X596228Y915520D01*
X595846Y915215D01*
X595617Y915024D01*
X595426Y914871D01*
X595388Y914833D01*
X594587Y913993D01*
X593899Y913077D01*
X593289Y912123D01*
X592792Y911130D01*
X592334Y910137D01*
X591991Y909145D01*
X591685Y908190D01*
X591456Y907274D01*
X591265Y906396D01*
X591113Y905594D01*
X591036Y904869D01*
X590960Y904220D01*
X590922Y903724D01*
X590884Y903342D01*
Y903189D01*
Y903075D01*
Y903037D01*
Y902999D01*
Y902159D01*
X590922Y901395D01*
X590960Y900746D01*
X591036Y900212D01*
X591074Y899792D01*
X591113Y899486D01*
X591151Y899334D01*
Y899257D01*
X591342Y898226D01*
X591456Y897730D01*
X591571Y897272D01*
X591685Y896928D01*
X591762Y896623D01*
X591838Y896432D01*
Y896356D01*
X592105Y895401D01*
X592258Y894982D01*
X592411Y894638D01*
X592525Y894333D01*
X592640Y894065D01*
X592678Y893913D01*
X592716Y893874D01*
X592907Y893416D01*
X593098Y893035D01*
X593289Y892653D01*
X593441Y892347D01*
X593556Y892080D01*
X593632Y891889D01*
X593709Y891775D01*
Y891737D01*
X601497D01*
Y892500D01*
X601077Y892996D01*
X600657Y893493D01*
X600504Y893683D01*
X600351Y893836D01*
X600275Y893951D01*
X600237Y893989D01*
X599740Y894638D01*
X599511Y894982D01*
X599282Y895287D01*
X599130Y895554D01*
X598977Y895745D01*
X598901Y895898D01*
X598862Y895936D01*
X598633Y896356D01*
X598404Y896776D01*
X598213Y897196D01*
X598022Y897578D01*
X597870Y897921D01*
X597755Y898188D01*
X597717Y898379D01*
X597679Y898456D01*
X597488Y899028D01*
X597374Y899563D01*
X597259Y900097D01*
X597221Y900593D01*
X597183Y900975D01*
X597144Y901319D01*
Y901510D01*
Y901548D01*
Y901586D01*
X597183Y902159D01*
X597221Y902731D01*
X597297Y903266D01*
X597412Y903762D01*
X597526Y904182D01*
X597603Y904487D01*
X597641Y904678D01*
X597679Y904755D01*
X597908Y905327D01*
X598213Y905862D01*
X598481Y906358D01*
X598786Y906778D01*
X599053Y907122D01*
X599282Y907389D01*
X599435Y907541D01*
X599473Y907618D01*
X600008Y908076D01*
X600542Y908534D01*
X601115Y908878D01*
X601649Y909221D01*
X602107Y909450D01*
X602489Y909641D01*
X602642Y909717D01*
X602756Y909756D01*
X602794Y909794D01*
X602833D01*
X603673Y910061D01*
X604512Y910252D01*
X605391Y910405D01*
X606230Y910481D01*
X606956Y910557D01*
X607261D01*
X607528Y910595D01*
X608025D01*
X609094Y910557D01*
X610048Y910481D01*
X610926Y910367D01*
X611651Y910214D01*
X611995Y910137D01*
X612262Y910061D01*
X612529Y910023D01*
X612720Y909947D01*
X612873Y909908D01*
X612988Y909870D01*
X613064Y909832D01*
X613102D01*
X613866Y909527D01*
X614553Y909183D01*
X615125Y908839D01*
X615622Y908534D01*
X616003Y908229D01*
X616271Y908000D01*
X616462Y907847D01*
X616500Y907809D01*
X616996Y907274D01*
X617416Y906778D01*
X617760Y906282D01*
X618027Y905862D01*
X618218Y905480D01*
X618370Y905213D01*
X618447Y905022D01*
X618485Y904946D01*
X618676Y904373D01*
X618829Y903762D01*
X618905Y903227D01*
X618981Y902693D01*
X619019Y902273D01*
X619058Y901929D01*
Y901701D01*
Y901662D01*
Y901624D01*
X619019Y901090D01*
X618981Y900555D01*
X618905Y900059D01*
X618829Y899639D01*
X618714Y899257D01*
X618638Y898990D01*
X618600Y898837D01*
X618561Y898761D01*
X618370Y898226D01*
X618180Y897768D01*
X617951Y897310D01*
X617760Y896928D01*
X617607Y896623D01*
X617454Y896356D01*
X617378Y896203D01*
X617340Y896165D01*
X616843Y895363D01*
X616576Y895020D01*
X616347Y894714D01*
X616156Y894447D01*
X616003Y894256D01*
X615927Y894142D01*
X615889Y894103D01*
X615393Y893493D01*
X615202Y893225D01*
X615011Y892996D01*
X614858Y892844D01*
X614744Y892729D01*
X614706Y892653D01*
X614667Y892615D01*
Y891737D01*
X622532D01*
X622684Y892080D01*
X622875Y892424D01*
X623028Y892805D01*
X623181Y893149D01*
X623333Y893454D01*
X623448Y893683D01*
X623486Y893836D01*
X623524Y893913D01*
X623753Y894409D01*
X623944Y894867D01*
X624097Y895287D01*
X624211Y895669D01*
X624326Y895974D01*
X624402Y896203D01*
X624440Y896356D01*
Y896394D01*
X624708Y897463D01*
X624822Y897997D01*
X624937Y898456D01*
X625013Y898837D01*
X625051Y899143D01*
X625089Y899334D01*
Y899410D01*
X625166Y900021D01*
X625242Y900631D01*
X625280Y901204D01*
Y901777D01*
X625318Y902235D01*
Y902617D01*
Y902769D01*
Y902884D01*
Y902922D01*
Y902960D01*
X625280Y904335D01*
X625128Y905594D01*
X624898Y906816D01*
X624593Y907961D01*
X624250Y908992D01*
X623830Y909985D01*
X623410Y910863D01*
X622990Y911665D01*
X622532Y912390D01*
X622112Y913001D01*
X621730Y913535D01*
X621348Y913993D01*
X621043Y914337D01*
X620814Y914604D01*
X620661Y914757D01*
X620623Y914795D01*
X619707Y915558D01*
X618752Y916246D01*
X617721Y916818D01*
X616691Y917315D01*
X615622Y917773D01*
X614591Y918116D01*
X613560Y918422D01*
X612568Y918651D01*
X611651Y918803D01*
X610812Y918956D01*
X610048Y919033D01*
X609361Y919109D01*
X608826Y919147D01*
X608406Y919185D01*
D02*
G37*
G36*
X624631Y886850D02*
X591533D01*
Y864479D01*
X597832D01*
Y878566D01*
X606230D01*
Y865586D01*
X612529D01*
Y878566D01*
X618332D01*
Y864479D01*
X624631D01*
Y886850D01*
D02*
G37*
G36*
X615858Y421603D02*
X610324D01*
Y409648D01*
X613403D01*
Y414030D01*
X614817D01*
X618063Y409648D01*
X621835D01*
X617841Y414766D01*
X618243Y414987D01*
X618590Y415223D01*
X618895Y415445D01*
X619144Y415667D01*
X619338Y415861D01*
X619477Y416014D01*
X619519Y416069D01*
X619560Y416111D01*
X619588Y416138D01*
Y416152D01*
X619699Y416319D01*
X619796Y416485D01*
X619949Y416846D01*
X620060Y417206D01*
X620129Y417553D01*
X620157Y417706D01*
X620185Y417844D01*
X620198Y417983D01*
Y418094D01*
X620212Y418191D01*
Y418260D01*
Y418302D01*
Y418316D01*
X620198Y418662D01*
X620157Y418968D01*
X620087Y419245D01*
X620018Y419467D01*
X619935Y419661D01*
X619879Y419800D01*
X619852Y419841D01*
X619824Y419883D01*
X619810Y419897D01*
Y419911D01*
X619644Y420133D01*
X619477Y420341D01*
X619297Y420521D01*
X619131Y420673D01*
X618978Y420784D01*
X618853Y420882D01*
X618770Y420937D01*
X618756Y420951D01*
X618742D01*
X618493Y421090D01*
X618243Y421200D01*
X617993Y421297D01*
X617785Y421367D01*
X617591Y421422D01*
X617439Y421450D01*
X617383Y421464D01*
X617341Y421478D01*
X617314D01*
X617023Y421519D01*
X616703Y421547D01*
X616398Y421575D01*
X616107Y421589D01*
X615858Y421603D01*
D02*
G37*
G36*
X624631Y1105867D02*
X591533D01*
Y1098270D01*
X614591D01*
X591533Y1085519D01*
Y1077502D01*
X624631D01*
Y1085099D01*
X605658D01*
X624631Y1095674D01*
Y1105867D01*
D02*
G37*
G36*
X625547Y718174D02*
X591189D01*
Y710538D01*
X592411Y710195D01*
X592105Y709660D01*
X591876Y709126D01*
X591647Y708629D01*
X591456Y708171D01*
X591342Y707790D01*
X591227Y707484D01*
X591189Y707293D01*
X591151Y707217D01*
X590998Y706606D01*
X590883Y705995D01*
X590807Y705385D01*
X590769Y704812D01*
X590731Y704315D01*
X590693Y703896D01*
Y703743D01*
Y703628D01*
Y703590D01*
Y703552D01*
X590731Y702674D01*
X590845Y701796D01*
X591036Y700994D01*
X591265Y700231D01*
X591533Y699544D01*
X591838Y698856D01*
X592182Y698245D01*
X592525Y697673D01*
X592869Y697177D01*
X593212Y696757D01*
X593518Y696375D01*
X593785Y696031D01*
X594014Y695802D01*
X594205Y695611D01*
X594319Y695497D01*
X594358Y695459D01*
X595083Y694886D01*
X595846Y694390D01*
X596610Y693970D01*
X597412Y693588D01*
X598213Y693283D01*
X599015Y693015D01*
X599779Y692786D01*
X600504Y692634D01*
X601229Y692481D01*
X601878Y692366D01*
X602451Y692328D01*
X602947Y692252D01*
X603329D01*
X603634Y692214D01*
X603902D01*
X605009Y692252D01*
X606040Y692328D01*
X606994Y692443D01*
X607910Y692595D01*
X608750Y692824D01*
X609514Y693015D01*
X610201Y693244D01*
X610850Y693474D01*
X611422Y693741D01*
X611919Y693970D01*
X612339Y694161D01*
X612682Y694352D01*
X612949Y694542D01*
X613140Y694657D01*
X613255Y694733D01*
X613293Y694771D01*
X613904Y695268D01*
X614400Y695802D01*
X614858Y696375D01*
X615240Y696986D01*
X615583Y697597D01*
X615851Y698207D01*
X616080Y698780D01*
X616271Y699353D01*
X616423Y699887D01*
X616500Y700422D01*
X616576Y700842D01*
X616652Y701261D01*
Y701567D01*
X616691Y701834D01*
Y701987D01*
Y702025D01*
X616652Y702941D01*
X616538Y703781D01*
X616385Y704545D01*
X616232Y705194D01*
X616080Y705728D01*
X615927Y706110D01*
X615851Y706263D01*
X615813Y706377D01*
X615774Y706415D01*
Y706453D01*
X615393Y707179D01*
X615011Y707828D01*
X614629Y708477D01*
X614247Y709049D01*
X613904Y709508D01*
X613637Y709889D01*
X613484Y710118D01*
X613408Y710156D01*
Y710195D01*
X625547D01*
Y718174D01*
D02*
G37*
G36*
X603825Y688320D02*
X603558D01*
X602451Y688281D01*
X601382Y688167D01*
X600389Y687976D01*
X599473Y687747D01*
X598633Y687480D01*
X597832Y687213D01*
X597106Y686869D01*
X596457Y686525D01*
X595885Y686220D01*
X595388Y685876D01*
X594930Y685609D01*
X594587Y685304D01*
X594319Y685113D01*
X594090Y684922D01*
X593976Y684808D01*
X593938Y684769D01*
X593327Y684082D01*
X592792Y683319D01*
X592296Y682517D01*
X591914Y681715D01*
X591571Y680875D01*
X591265Y680035D01*
X591036Y679196D01*
X590883Y678432D01*
X590731Y677669D01*
X590616Y676981D01*
X590540Y676332D01*
X590464Y675798D01*
Y675340D01*
X590425Y674996D01*
Y674805D01*
Y674729D01*
X590464Y673546D01*
X590578Y672438D01*
X590769Y671408D01*
X590960Y670453D01*
X591227Y669537D01*
X591533Y668735D01*
X591838Y667972D01*
X592182Y667323D01*
X592525Y666712D01*
X592831Y666178D01*
X593136Y665758D01*
X593403Y665376D01*
X593632Y665109D01*
X593785Y664880D01*
X593899Y664765D01*
X593938Y664727D01*
X594625Y664078D01*
X595350Y663543D01*
X596114Y663047D01*
X596915Y662665D01*
X597717Y662322D01*
X598519Y662016D01*
X599320Y661787D01*
X600084Y661596D01*
X600771Y661444D01*
X601458Y661329D01*
X602031Y661253D01*
X602565Y661176D01*
X602985D01*
X603291Y661138D01*
X603558D01*
X604665Y661176D01*
X605734Y661291D01*
X606727Y661482D01*
X607643Y661673D01*
X608521Y661978D01*
X609285Y662245D01*
X610010Y662589D01*
X610697Y662894D01*
X611270Y663238D01*
X611766Y663581D01*
X612224Y663849D01*
X612568Y664116D01*
X612835Y664345D01*
X613064Y664536D01*
X613178Y664650D01*
X613217Y664689D01*
X613827Y665376D01*
X614400Y666139D01*
X614858Y666941D01*
X615278Y667743D01*
X615622Y668583D01*
X615889Y669423D01*
X616118Y670262D01*
X616309Y671026D01*
X616462Y671789D01*
X616576Y672477D01*
X616652Y673126D01*
X616729Y673660D01*
Y674118D01*
X616767Y674424D01*
Y674653D01*
Y674729D01*
X616729Y675912D01*
X616614Y676981D01*
X616462Y678050D01*
X616232Y679005D01*
X615965Y679883D01*
X615660Y680723D01*
X615354Y681448D01*
X615011Y682135D01*
X614667Y682746D01*
X614362Y683242D01*
X614057Y683700D01*
X613789Y684082D01*
X613598Y684349D01*
X613408Y684578D01*
X613293Y684693D01*
X613255Y684731D01*
X612568Y685380D01*
X611842Y685915D01*
X611041Y686411D01*
X610277Y686793D01*
X609437Y687136D01*
X608635Y687442D01*
X607872Y687671D01*
X607108Y687862D01*
X606383Y688014D01*
X605696Y688129D01*
X605085Y688205D01*
X604589Y688243D01*
X604169Y688281D01*
X603825Y688320D01*
D02*
G37*
G36*
X603711Y807697D02*
X603443D01*
X602298Y807658D01*
X601229Y807506D01*
X600237Y807315D01*
X599320Y807086D01*
X598481Y806780D01*
X597679Y806437D01*
X596954Y806093D01*
X596305Y805712D01*
X595732Y805330D01*
X595236Y804986D01*
X594816Y804643D01*
X594472Y804337D01*
X594205Y804108D01*
X594014Y803879D01*
X593899Y803764D01*
X593861Y803726D01*
X593289Y802925D01*
X592754Y802085D01*
X592334Y801207D01*
X591953Y800252D01*
X591609Y799336D01*
X591342Y798382D01*
X591151Y797427D01*
X590960Y796511D01*
X590807Y795671D01*
X590731Y794870D01*
X590654Y794144D01*
X590578Y793533D01*
Y793037D01*
X590540Y792655D01*
Y792503D01*
Y792388D01*
Y792350D01*
Y792312D01*
X590578Y791243D01*
X590616Y790250D01*
X590693Y789372D01*
X590807Y788570D01*
X590845Y788265D01*
X590883Y787960D01*
X590922Y787692D01*
X590960Y787463D01*
X590998Y787272D01*
Y787158D01*
X591036Y787082D01*
Y787043D01*
X591227Y786127D01*
X591456Y785211D01*
X591723Y784371D01*
X591991Y783569D01*
X592220Y782920D01*
X592296Y782615D01*
X592372Y782386D01*
X592449Y782195D01*
X592525Y782042D01*
X592563Y781966D01*
Y781928D01*
X598977D01*
Y782844D01*
X598595Y783378D01*
X598213Y783989D01*
X597870Y784600D01*
X597603Y785211D01*
X597335Y785745D01*
X597144Y786165D01*
X597068Y786318D01*
X597030Y786432D01*
X596992Y786509D01*
Y786547D01*
X596686Y787425D01*
X596457Y788303D01*
X596305Y789143D01*
X596190Y789868D01*
X596114Y790517D01*
Y790785D01*
X596076Y791014D01*
Y791166D01*
Y791319D01*
Y791395D01*
Y791434D01*
Y792159D01*
X596152Y792846D01*
X596228Y793457D01*
X596305Y794068D01*
X596419Y794602D01*
X596572Y795098D01*
X596686Y795518D01*
X596839Y795938D01*
X596992Y796282D01*
X597106Y796587D01*
X597259Y796855D01*
X597374Y797084D01*
X597450Y797236D01*
X597526Y797351D01*
X597603Y797427D01*
Y797466D01*
X597908Y797809D01*
X598251Y798153D01*
X598595Y798420D01*
X598977Y798649D01*
X599740Y799031D01*
X600466Y799298D01*
X601115Y799489D01*
X601420Y799527D01*
X601649Y799603D01*
X601878D01*
X602031Y799641D01*
X602146D01*
Y781470D01*
X604894D01*
X605925Y781508D01*
X606917Y781584D01*
X607834Y781737D01*
X608674Y781928D01*
X609475Y782195D01*
X610201Y782424D01*
X610850Y782729D01*
X611422Y782997D01*
X611957Y783264D01*
X612415Y783569D01*
X612797Y783798D01*
X613102Y784027D01*
X613369Y784257D01*
X613522Y784409D01*
X613637Y784486D01*
X613675Y784524D01*
X614209Y785135D01*
X614706Y785783D01*
X615125Y786509D01*
X615469Y787234D01*
X615774Y787998D01*
X616003Y788761D01*
X616232Y789487D01*
X616385Y790212D01*
X616500Y790937D01*
X616614Y791548D01*
X616691Y792159D01*
X616729Y792655D01*
Y793075D01*
X616767Y793381D01*
Y793571D01*
Y793648D01*
X616729Y794831D01*
X616614Y795977D01*
X616423Y797007D01*
X616194Y798000D01*
X615927Y798916D01*
X615622Y799794D01*
X615316Y800558D01*
X614973Y801245D01*
X614629Y801856D01*
X614324Y802428D01*
X614018Y802887D01*
X613751Y803268D01*
X613522Y803574D01*
X613331Y803764D01*
X613217Y803917D01*
X613178Y803955D01*
X612491Y804604D01*
X611728Y805177D01*
X610964Y805673D01*
X610163Y806132D01*
X609323Y806475D01*
X608521Y806780D01*
X607719Y807048D01*
X606956Y807239D01*
X606230Y807391D01*
X605581Y807506D01*
X604971Y807582D01*
X604474Y807620D01*
X604054Y807658D01*
X603711Y807697D01*
D02*
G37*
G36*
X603825Y751043D02*
X603558D01*
X602451Y751005D01*
X601382Y750891D01*
X600389Y750700D01*
X599473Y750471D01*
X598633Y750203D01*
X597832Y749936D01*
X597106Y749593D01*
X596457Y749249D01*
X595885Y748943D01*
X595388Y748600D01*
X594930Y748333D01*
X594587Y748027D01*
X594319Y747836D01*
X594090Y747645D01*
X593976Y747531D01*
X593938Y747493D01*
X593327Y746806D01*
X592792Y746042D01*
X592296Y745240D01*
X591914Y744439D01*
X591571Y743599D01*
X591265Y742759D01*
X591036Y741919D01*
X590883Y741156D01*
X590731Y740392D01*
X590616Y739705D01*
X590540Y739056D01*
X590464Y738521D01*
Y738063D01*
X590425Y737720D01*
Y737529D01*
Y737452D01*
X590464Y736269D01*
X590578Y735162D01*
X590769Y734131D01*
X590960Y733177D01*
X591227Y732261D01*
X591533Y731459D01*
X591838Y730695D01*
X592182Y730046D01*
X592525Y729436D01*
X592831Y728901D01*
X593136Y728481D01*
X593403Y728099D01*
X593632Y727832D01*
X593785Y727603D01*
X593899Y727488D01*
X593938Y727450D01*
X594625Y726801D01*
X595350Y726267D01*
X596114Y725771D01*
X596915Y725389D01*
X597717Y725045D01*
X598519Y724740D01*
X599320Y724511D01*
X600084Y724320D01*
X600771Y724167D01*
X601458Y724053D01*
X602031Y723976D01*
X602565Y723900D01*
X602985D01*
X603291Y723862D01*
X603558D01*
X604665Y723900D01*
X605734Y724015D01*
X606727Y724205D01*
X607643Y724396D01*
X608521Y724702D01*
X609285Y724969D01*
X610010Y725312D01*
X610697Y725618D01*
X611270Y725961D01*
X611766Y726305D01*
X612224Y726572D01*
X612568Y726840D01*
X612835Y727068D01*
X613064Y727259D01*
X613178Y727374D01*
X613217Y727412D01*
X613827Y728099D01*
X614400Y728863D01*
X614858Y729665D01*
X615278Y730466D01*
X615622Y731306D01*
X615889Y732146D01*
X616118Y732986D01*
X616309Y733749D01*
X616462Y734513D01*
X616576Y735200D01*
X616652Y735849D01*
X616729Y736384D01*
Y736842D01*
X616767Y737147D01*
Y737376D01*
Y737452D01*
X616729Y738636D01*
X616614Y739705D01*
X616462Y740774D01*
X616232Y741728D01*
X615965Y742606D01*
X615660Y743446D01*
X615354Y744172D01*
X615011Y744859D01*
X614667Y745470D01*
X614362Y745966D01*
X614057Y746424D01*
X613789Y746806D01*
X613598Y747073D01*
X613408Y747302D01*
X613293Y747417D01*
X613255Y747455D01*
X612568Y748104D01*
X611842Y748638D01*
X611041Y749134D01*
X610277Y749516D01*
X609437Y749860D01*
X608635Y750165D01*
X607872Y750394D01*
X607108Y750585D01*
X606383Y750738D01*
X605696Y750852D01*
X605085Y750929D01*
X604589Y750967D01*
X604169Y751005D01*
X603825Y751043D01*
D02*
G37*
G36*
Y777652D02*
X603482D01*
X602298Y777614D01*
X601191Y777499D01*
X600199Y777308D01*
X599779Y777232D01*
X599359Y777117D01*
X599015Y777003D01*
X598671Y776927D01*
X598404Y776812D01*
X598175Y776736D01*
X597984Y776698D01*
X597832Y776621D01*
X597755Y776583D01*
X597717D01*
X596839Y776125D01*
X596037Y775667D01*
X595350Y775132D01*
X594777Y774636D01*
X594319Y774216D01*
X593976Y773873D01*
X593747Y773605D01*
X593709Y773567D01*
X593670Y773529D01*
X593098Y772766D01*
X592640Y771964D01*
X592220Y771200D01*
X591876Y770437D01*
X591647Y769826D01*
X591533Y769559D01*
X591456Y769330D01*
X591380Y769139D01*
X591342Y768986D01*
X591303Y768910D01*
Y768872D01*
X591036Y767841D01*
X590845Y766810D01*
X590731Y765817D01*
X590654Y764901D01*
X590616Y764481D01*
X590578Y764138D01*
Y763794D01*
X590540Y763489D01*
Y763260D01*
Y763107D01*
Y762992D01*
Y762954D01*
X590578Y762038D01*
X590616Y761198D01*
X590693Y760434D01*
X590807Y759786D01*
X590922Y759213D01*
X590960Y758984D01*
X590998Y758793D01*
X591036Y758640D01*
Y758526D01*
X591074Y758488D01*
Y758449D01*
X591265Y757686D01*
X591494Y756961D01*
X591723Y756273D01*
X591953Y755701D01*
X592143Y755204D01*
X592296Y754823D01*
X592372Y754670D01*
X592411Y754555D01*
X592449Y754517D01*
Y754479D01*
X599244D01*
Y755624D01*
X598862Y756006D01*
X598557Y756350D01*
X598442Y756502D01*
X598328Y756579D01*
X598290Y756655D01*
X598251Y756693D01*
X597908Y757151D01*
X597641Y757571D01*
X597488Y757724D01*
X597412Y757877D01*
X597374Y757953D01*
X597335Y757991D01*
X597183Y758297D01*
X597030Y758640D01*
X596763Y759289D01*
X596686Y759595D01*
X596610Y759824D01*
X596534Y759976D01*
Y760015D01*
X596343Y760931D01*
X596305Y761389D01*
X596266Y761809D01*
X596228Y762152D01*
Y762420D01*
Y762611D01*
Y762687D01*
X596266Y763260D01*
X596305Y763832D01*
X596534Y764825D01*
X596801Y765703D01*
X597144Y766390D01*
X597335Y766695D01*
X597488Y766963D01*
X597641Y767192D01*
X597793Y767344D01*
X597908Y767497D01*
X597984Y767612D01*
X598022Y767650D01*
X598061Y767688D01*
X598442Y767993D01*
X598824Y768261D01*
X599702Y768681D01*
X600580Y768986D01*
X601458Y769177D01*
X602260Y769330D01*
X602604Y769368D01*
X602909D01*
X603138Y769406D01*
X603482D01*
X604131Y769368D01*
X604703Y769330D01*
X605810Y769139D01*
X606307Y769024D01*
X606765Y768872D01*
X607147Y768719D01*
X607528Y768566D01*
X607872Y768413D01*
X608139Y768261D01*
X608406Y768108D01*
X608597Y767993D01*
X608788Y767879D01*
X608903Y767803D01*
X608941Y767726D01*
X608979D01*
X609323Y767383D01*
X609666Y767039D01*
X609934Y766619D01*
X610163Y766237D01*
X610506Y765436D01*
X610735Y764634D01*
X610888Y763947D01*
X610926Y763641D01*
X610964Y763374D01*
X611002Y763145D01*
Y762992D01*
Y762878D01*
Y762840D01*
Y762305D01*
X610964Y761847D01*
X610888Y761389D01*
X610850Y761045D01*
X610773Y760740D01*
X610697Y760511D01*
X610659Y760358D01*
Y760320D01*
X610392Y759557D01*
X610277Y759213D01*
X610163Y758907D01*
X610048Y758678D01*
X609934Y758488D01*
X609895Y758373D01*
X609857Y758335D01*
X609475Y757686D01*
X609323Y757419D01*
X609170Y757190D01*
X609017Y756999D01*
X608903Y756846D01*
X608865Y756770D01*
X608826Y756731D01*
X608445Y756273D01*
X608177Y755930D01*
X607986Y755701D01*
X607910Y755663D01*
Y755624D01*
Y754479D01*
X614667D01*
X615011Y755204D01*
X615278Y755892D01*
X615545Y756579D01*
X615736Y757190D01*
X615889Y757724D01*
X616003Y758106D01*
X616080Y758259D01*
Y758373D01*
X616118Y758449D01*
Y758488D01*
X616309Y759289D01*
X616462Y760129D01*
X616538Y760893D01*
X616614Y761618D01*
X616652Y762267D01*
X616691Y762534D01*
Y762763D01*
Y762916D01*
Y763069D01*
Y763145D01*
Y763183D01*
X616652Y764214D01*
X616576Y765245D01*
X616462Y766161D01*
X616309Y766963D01*
X616232Y767344D01*
X616156Y767650D01*
X616118Y767955D01*
X616042Y768184D01*
X616003Y768375D01*
X615965Y768528D01*
X615927Y768604D01*
Y768642D01*
X615622Y769597D01*
X615278Y770475D01*
X614896Y771277D01*
X614515Y771926D01*
X614171Y772498D01*
X614018Y772727D01*
X613904Y772918D01*
X613789Y773071D01*
X613713Y773185D01*
X613637Y773224D01*
Y773262D01*
X612988Y773987D01*
X612300Y774636D01*
X611613Y775209D01*
X610926Y775667D01*
X610353Y776049D01*
X610124Y776163D01*
X609895Y776278D01*
X609704Y776392D01*
X609590Y776469D01*
X609514Y776507D01*
X609475D01*
X608483Y776889D01*
X607490Y777156D01*
X606459Y777385D01*
X605543Y777499D01*
X605123Y777538D01*
X604703Y777576D01*
X604360Y777614D01*
X604054D01*
X603825Y777652D01*
D02*
G37*
G36*
X599855Y578143D02*
X591189D01*
Y569897D01*
X599855D01*
Y578143D01*
D02*
G37*
G36*
X599740Y562224D02*
X592449D01*
X592182Y561536D01*
X591953Y560811D01*
X591723Y560048D01*
X591533Y559361D01*
X591380Y558750D01*
X591303Y558482D01*
X591265Y558253D01*
X591227Y558063D01*
X591189Y557910D01*
X591151Y557834D01*
Y557795D01*
X590960Y556726D01*
X590807Y555619D01*
X590693Y554474D01*
X590616Y553443D01*
X590578Y552947D01*
X590540Y552527D01*
Y552107D01*
X590502Y551763D01*
Y551496D01*
Y551305D01*
Y551153D01*
Y551114D01*
X590540Y549893D01*
X590616Y548747D01*
X590769Y547755D01*
X590845Y547297D01*
X590922Y546839D01*
X590960Y546457D01*
X591036Y546113D01*
X591113Y545846D01*
X591189Y545579D01*
X591227Y545388D01*
X591265Y545235D01*
X591303Y545159D01*
Y545121D01*
X591647Y544166D01*
X592029Y543288D01*
X592449Y542487D01*
X592831Y541799D01*
X593212Y541227D01*
X593365Y540998D01*
X593518Y540807D01*
X593632Y540654D01*
X593709Y540540D01*
X593785Y540502D01*
Y540463D01*
X594396Y539814D01*
X595045Y539242D01*
X595656Y538783D01*
X596228Y538364D01*
X596763Y538058D01*
X597144Y537867D01*
X597335Y537791D01*
X597450Y537715D01*
X597488Y537676D01*
X597526D01*
X598366Y537333D01*
X599206Y537104D01*
X600008Y536913D01*
X600733Y536798D01*
X601382Y536722D01*
X601649D01*
X601878Y536684D01*
X602298D01*
X603367Y536722D01*
X604360Y536875D01*
X605200Y537027D01*
X605925Y537257D01*
X606498Y537447D01*
X606765Y537562D01*
X606956Y537638D01*
X607108Y537715D01*
X607223Y537791D01*
X607261Y537829D01*
X607299D01*
X608025Y538287D01*
X608674Y538783D01*
X609208Y539318D01*
X609666Y539814D01*
X610048Y540272D01*
X610315Y540616D01*
X610430Y540769D01*
X610506Y540883D01*
X610544Y540921D01*
Y540960D01*
X610888Y541570D01*
X611155Y542181D01*
X611422Y542792D01*
X611613Y543365D01*
X611766Y543861D01*
X611880Y544281D01*
X611957Y544434D01*
Y544510D01*
X611995Y544586D01*
Y544624D01*
X612186Y545464D01*
X612300Y546266D01*
X612415Y547106D01*
X612453Y547831D01*
X612491Y548518D01*
X612529Y548786D01*
Y549015D01*
Y549206D01*
Y549358D01*
Y549435D01*
Y549473D01*
Y550084D01*
Y550695D01*
X612491Y550962D01*
Y551153D01*
Y551305D01*
Y551343D01*
Y551725D01*
X612453Y552031D01*
Y552336D01*
Y552565D01*
X612415Y552756D01*
Y552909D01*
Y552985D01*
Y553023D01*
X617798D01*
Y537638D01*
X624097D01*
Y561002D01*
X605505D01*
Y560048D01*
X605620Y559513D01*
X605734Y558979D01*
X605849Y558444D01*
X605963Y557948D01*
X606040Y557528D01*
X606116Y557184D01*
X606154Y556955D01*
Y556917D01*
Y556879D01*
X606383Y555505D01*
X606459Y554856D01*
X606498Y554245D01*
X606536Y553749D01*
Y553367D01*
Y553214D01*
Y553100D01*
Y553061D01*
Y553023D01*
X606498Y551954D01*
X606459Y551458D01*
X606421Y550962D01*
X606345Y550580D01*
X606307Y550236D01*
X606269Y550046D01*
Y549969D01*
X606154Y549358D01*
X606040Y548824D01*
X605849Y548328D01*
X605696Y547908D01*
X605543Y547564D01*
X605429Y547297D01*
X605352Y547144D01*
X605314Y547106D01*
X604894Y546572D01*
X604474Y546152D01*
X604283Y545999D01*
X604131Y545846D01*
X604016Y545808D01*
X603978Y545770D01*
X603673Y545579D01*
X603329Y545464D01*
X602718Y545312D01*
X602451Y545274D01*
X602222Y545235D01*
X601497D01*
X601077Y545312D01*
X600695Y545350D01*
X600351Y545426D01*
X600122Y545503D01*
X599969Y545579D01*
X599855Y545617D01*
X599817Y545655D01*
X599320Y545999D01*
X598862Y546342D01*
X598710Y546495D01*
X598557Y546648D01*
X598481Y546724D01*
X598442Y546762D01*
X598137Y547144D01*
X597908Y547564D01*
X597717Y547984D01*
X597564Y548404D01*
X597450Y548786D01*
X597374Y549091D01*
X597297Y549282D01*
Y549320D01*
Y549358D01*
X597183Y549931D01*
X597106Y550504D01*
X597068Y551000D01*
X597030Y551458D01*
X596992Y551840D01*
Y552145D01*
Y552298D01*
Y552374D01*
X597030Y553214D01*
X597106Y554054D01*
X597221Y554856D01*
X597374Y555543D01*
X597526Y556154D01*
X597564Y556383D01*
X597641Y556574D01*
X597679Y556764D01*
X597717Y556879D01*
X597755Y556955D01*
Y556994D01*
X598061Y557834D01*
X598404Y558635D01*
X598748Y559399D01*
X599053Y560009D01*
X599320Y560544D01*
X599549Y560964D01*
X599626Y561117D01*
X599702Y561231D01*
X599740Y561269D01*
Y561307D01*
Y562224D01*
D02*
G37*
G36*
X624097Y848316D02*
X591189D01*
Y840337D01*
X613217D01*
X598939Y834267D01*
Y828426D01*
X613217Y822318D01*
X591189D01*
Y813843D01*
X624097D01*
Y823731D01*
X607566Y831099D01*
X624097Y838505D01*
Y848316D01*
D02*
G37*
G36*
X616003Y643081D02*
X591189Y633575D01*
Y624566D01*
X616003Y614983D01*
Y623229D01*
X598862Y628956D01*
X616003Y634720D01*
Y643081D01*
D02*
G37*
G36*
X599817Y611242D02*
X592563D01*
X592258Y610517D01*
X591991Y609753D01*
X591762Y608951D01*
X591571Y608188D01*
X591380Y607539D01*
X591303Y607234D01*
X591265Y607004D01*
X591227Y606775D01*
X591189Y606623D01*
X591151Y606546D01*
Y606508D01*
X590922Y605363D01*
X590769Y604179D01*
X590654Y602996D01*
X590578Y601889D01*
X590540Y601393D01*
Y600934D01*
Y600514D01*
X590502Y600171D01*
Y599865D01*
Y599675D01*
Y599522D01*
Y599484D01*
X590540Y598186D01*
X590616Y597040D01*
X590731Y596010D01*
X590807Y595551D01*
X590883Y595132D01*
X590922Y594750D01*
X590998Y594406D01*
X591074Y594139D01*
X591113Y593910D01*
X591151Y593719D01*
X591189Y593566D01*
X591227Y593490D01*
Y593452D01*
X591533Y592536D01*
X591876Y591696D01*
X592220Y590970D01*
X592563Y590321D01*
X592869Y589787D01*
X593136Y589405D01*
X593212Y589253D01*
X593289Y589138D01*
X593365Y589100D01*
Y589062D01*
X593938Y588374D01*
X594510Y587802D01*
X595083Y587344D01*
X595617Y586924D01*
X596076Y586618D01*
X596457Y586389D01*
X596610Y586351D01*
X596725Y586275D01*
X596763Y586236D01*
X596801D01*
X597564Y585931D01*
X598328Y585702D01*
X599053Y585549D01*
X599740Y585435D01*
X600313Y585359D01*
X600542D01*
X600771Y585320D01*
X601153D01*
X601878Y585359D01*
X602527Y585435D01*
X603062Y585511D01*
X603520Y585626D01*
X603902Y585778D01*
X604169Y585855D01*
X604360Y585931D01*
X604398Y585969D01*
X604856Y586236D01*
X605276Y586504D01*
X605658Y586809D01*
X605963Y587076D01*
X606230Y587305D01*
X606459Y587496D01*
X606574Y587649D01*
X606612Y587687D01*
X606917Y588069D01*
X607185Y588489D01*
X607414Y588871D01*
X607605Y589214D01*
X607757Y589520D01*
X607872Y589749D01*
X607910Y589902D01*
X607948Y589978D01*
X608254Y590894D01*
X608330Y591276D01*
X608445Y591658D01*
X608483Y591963D01*
X608521Y592192D01*
X608559Y592345D01*
Y592383D01*
X608865D01*
X609170Y591390D01*
X609552Y590512D01*
X610010Y589749D01*
X610468Y589100D01*
X610888Y588604D01*
X611270Y588222D01*
X611422Y588107D01*
X611537Y587993D01*
X611575Y587916D01*
X611613D01*
X612033Y587611D01*
X612453Y587344D01*
X613293Y586924D01*
X614133Y586618D01*
X614896Y586427D01*
X615545Y586275D01*
X615851Y586236D01*
X616080D01*
X616271Y586198D01*
X616538D01*
X617301Y586236D01*
X617989Y586351D01*
X618599Y586504D01*
X619096Y586656D01*
X619554Y586809D01*
X619859Y586962D01*
X620050Y587076D01*
X620126Y587115D01*
X620699Y587496D01*
X621195Y587916D01*
X621654Y588336D01*
X622035Y588794D01*
X622341Y589176D01*
X622570Y589482D01*
X622723Y589711D01*
X622761Y589749D01*
Y589787D01*
X623104Y590398D01*
X623372Y591047D01*
X623639Y591696D01*
X623830Y592268D01*
X623982Y592841D01*
X624097Y593261D01*
X624173Y593414D01*
Y593528D01*
X624211Y593605D01*
Y593643D01*
X624402Y594559D01*
X624555Y595475D01*
X624631Y596391D01*
X624708Y597231D01*
X624746Y597651D01*
Y597995D01*
X624784Y598300D01*
Y598568D01*
Y598797D01*
Y598949D01*
Y599064D01*
Y599102D01*
X624746Y600285D01*
X624669Y601431D01*
X624555Y602500D01*
X624440Y603454D01*
X624364Y603874D01*
X624326Y604256D01*
X624249Y604561D01*
X624211Y604866D01*
X624173Y605096D01*
X624135Y605248D01*
X624097Y605363D01*
Y605401D01*
X623830Y606508D01*
X623601Y607463D01*
X623333Y608302D01*
X623142Y608990D01*
X622952Y609562D01*
X622875Y609791D01*
X622799Y609944D01*
X622761Y610097D01*
X622723Y610211D01*
X622684Y610249D01*
Y610288D01*
X615583D01*
Y609486D01*
X616042Y608646D01*
X616462Y607806D01*
X616767Y607004D01*
X617072Y606279D01*
X617301Y605668D01*
X617378Y605439D01*
X617454Y605210D01*
X617492Y605019D01*
X617531Y604905D01*
X617569Y604828D01*
Y604790D01*
X617798Y603912D01*
X617989Y603072D01*
X618103Y602309D01*
X618218Y601622D01*
X618256Y601049D01*
Y600820D01*
X618294Y600629D01*
Y600476D01*
Y600362D01*
Y600324D01*
Y600285D01*
X618256Y599636D01*
Y599293D01*
X618218Y598987D01*
X618180Y598720D01*
Y598491D01*
X618141Y598338D01*
Y598300D01*
X618103Y597880D01*
X618027Y597460D01*
X617912Y597117D01*
X617836Y596811D01*
X617760Y596582D01*
X617683Y596391D01*
X617645Y596277D01*
X617607Y596239D01*
X617301Y595704D01*
X616996Y595322D01*
X616881Y595170D01*
X616767Y595055D01*
X616691Y595017D01*
X616652Y594979D01*
X616423Y594788D01*
X616156Y594674D01*
X615660Y594521D01*
X615431Y594483D01*
X615240Y594444D01*
X615087D01*
X614629Y594483D01*
X614209Y594521D01*
X613866Y594597D01*
X613560Y594674D01*
X613331Y594788D01*
X613178Y594864D01*
X613064Y594902D01*
X613026Y594941D01*
X612797Y595132D01*
X612568Y595361D01*
X612224Y595857D01*
X612109Y596048D01*
X612033Y596239D01*
X611957Y596353D01*
Y596391D01*
X611690Y597155D01*
X611613Y597537D01*
X611537Y597880D01*
X611499Y598224D01*
X611460Y598453D01*
X611422Y598606D01*
Y598682D01*
X611384Y599178D01*
Y599713D01*
Y600209D01*
X611346Y600667D01*
Y601087D01*
Y601393D01*
Y601622D01*
Y601660D01*
Y601698D01*
Y603568D01*
X605467D01*
Y601774D01*
Y600782D01*
Y600324D01*
Y599904D01*
X605429Y599522D01*
Y599255D01*
Y599064D01*
Y598987D01*
X605391Y598453D01*
X605352Y597919D01*
X605276Y597499D01*
X605238Y597079D01*
X605161Y596773D01*
X605085Y596544D01*
X605047Y596391D01*
Y596353D01*
X604894Y595971D01*
X604742Y595628D01*
X604551Y595322D01*
X604360Y595093D01*
X604169Y594902D01*
X604016Y594750D01*
X603940Y594674D01*
X603902Y594635D01*
X603596Y594406D01*
X603253Y594254D01*
X602871Y594101D01*
X602527Y594025D01*
X602184Y593986D01*
X601916Y593948D01*
X601687D01*
X601153Y593986D01*
X600695Y594025D01*
X600313Y594101D01*
X599969Y594177D01*
X599740Y594292D01*
X599549Y594368D01*
X599435Y594406D01*
X599397Y594444D01*
X598862Y594864D01*
X598481Y595284D01*
X598328Y595475D01*
X598213Y595590D01*
X598137Y595704D01*
X598099Y595742D01*
X597870Y596162D01*
X597641Y596582D01*
X597488Y597002D01*
X597374Y597422D01*
X597297Y597766D01*
X597221Y598033D01*
X597183Y598224D01*
Y598300D01*
X597106Y598835D01*
X597068Y599369D01*
X597030Y599827D01*
Y600247D01*
X596992Y600553D01*
Y600820D01*
Y600973D01*
Y601049D01*
X597030Y601889D01*
X597106Y602729D01*
X597259Y603530D01*
X597412Y604256D01*
X597526Y604905D01*
X597603Y605172D01*
X597679Y605401D01*
X597717Y605592D01*
X597755Y605745D01*
X597793Y605821D01*
Y605859D01*
X598137Y606814D01*
X598481Y607692D01*
X598786Y608455D01*
X599130Y609104D01*
X599397Y609677D01*
X599626Y610059D01*
X599702Y610211D01*
X599779Y610326D01*
X599817Y610364D01*
Y610402D01*
Y611242D01*
D02*
G37*
%LPD*%
G36*
X604360Y742759D02*
X605085Y742721D01*
X605734Y742644D01*
X606269Y742568D01*
X606727Y742492D01*
X607032Y742454D01*
X607223Y742377D01*
X607299D01*
X607834Y742225D01*
X608292Y742034D01*
X608712Y741843D01*
X609055Y741652D01*
X609323Y741499D01*
X609514Y741346D01*
X609628Y741270D01*
X609666Y741232D01*
X609972Y740927D01*
X610239Y740621D01*
X610468Y740316D01*
X610621Y740049D01*
X610735Y739819D01*
X610812Y739667D01*
X610888Y739552D01*
Y739514D01*
X611079Y738827D01*
X611155Y738483D01*
X611193Y738140D01*
X611231Y737872D01*
Y737643D01*
Y737491D01*
Y737452D01*
X611155Y736651D01*
X611117Y736269D01*
X611041Y735964D01*
X610964Y735696D01*
X610926Y735467D01*
X610850Y735353D01*
Y735315D01*
X610697Y734971D01*
X610506Y734627D01*
X610277Y734360D01*
X610048Y734093D01*
X609857Y733902D01*
X609704Y733749D01*
X609590Y733673D01*
X609552Y733635D01*
X609208Y733368D01*
X608826Y733139D01*
X608406Y732948D01*
X608025Y732795D01*
X607719Y732680D01*
X607414Y732604D01*
X607261Y732528D01*
X607185D01*
X606612Y732375D01*
X606001Y732299D01*
X605391Y732222D01*
X604780Y732146D01*
X604283D01*
X603902Y732108D01*
X602680D01*
X601955Y732184D01*
X601306Y732222D01*
X600771Y732299D01*
X600351Y732375D01*
X600046Y732451D01*
X599893Y732490D01*
X599817Y732528D01*
X599320Y732680D01*
X598900Y732871D01*
X598519Y733062D01*
X598175Y733253D01*
X597908Y733406D01*
X597679Y733559D01*
X597564Y733635D01*
X597526Y733673D01*
X597221Y733940D01*
X596992Y734208D01*
X596763Y734513D01*
X596610Y734780D01*
X596457Y735009D01*
X596381Y735200D01*
X596343Y735315D01*
X596305Y735353D01*
X596114Y736078D01*
X596037Y736422D01*
X595999Y736727D01*
Y736994D01*
X595961Y737223D01*
Y737376D01*
Y737414D01*
Y737872D01*
X596037Y738292D01*
X596076Y738674D01*
X596152Y739018D01*
X596228Y739285D01*
X596266Y739476D01*
X596343Y739629D01*
Y739667D01*
X596495Y740010D01*
X596686Y740316D01*
X596915Y740621D01*
X597106Y740850D01*
X597297Y741079D01*
X597450Y741232D01*
X597564Y741308D01*
X597603Y741346D01*
X597984Y741614D01*
X598366Y741843D01*
X598786Y741995D01*
X599168Y742186D01*
X599473Y742301D01*
X599779Y742377D01*
X599931Y742454D01*
X600008D01*
X600580Y742568D01*
X601191Y742644D01*
X601764Y742721D01*
X602336Y742759D01*
X602794D01*
X603176Y742797D01*
X603520D01*
X604360Y742759D01*
D02*
G37*
G36*
X607719Y799565D02*
X608483Y799336D01*
X609132Y799069D01*
X609666Y798802D01*
X610086Y798496D01*
X610353Y798267D01*
X610544Y798114D01*
X610582Y798038D01*
X611002Y797466D01*
X611308Y796816D01*
X611499Y796206D01*
X611651Y795595D01*
X611728Y795060D01*
X611804Y794640D01*
Y794488D01*
Y794373D01*
Y794297D01*
Y794259D01*
X611766Y793381D01*
X611613Y792655D01*
X611422Y792006D01*
X611193Y791510D01*
X610926Y791128D01*
X610735Y790861D01*
X610582Y790670D01*
X610544Y790632D01*
X610010Y790250D01*
X609437Y789945D01*
X608826Y789716D01*
X608215Y789563D01*
X607643Y789448D01*
X607223Y789410D01*
X607032Y789372D01*
X606803D01*
Y799680D01*
X607719Y799565D01*
D02*
G37*
G36*
X604360Y680035D02*
X605085Y679997D01*
X605734Y679921D01*
X606269Y679845D01*
X606727Y679768D01*
X607032Y679730D01*
X607223Y679654D01*
X607299D01*
X607834Y679501D01*
X608292Y679310D01*
X608712Y679119D01*
X609055Y678928D01*
X609323Y678776D01*
X609514Y678623D01*
X609628Y678547D01*
X609666Y678508D01*
X609972Y678203D01*
X610239Y677898D01*
X610468Y677592D01*
X610621Y677325D01*
X610735Y677096D01*
X610812Y676943D01*
X610888Y676829D01*
Y676790D01*
X611079Y676103D01*
X611155Y675760D01*
X611193Y675416D01*
X611231Y675149D01*
Y674920D01*
Y674767D01*
Y674729D01*
X611155Y673927D01*
X611117Y673546D01*
X611041Y673240D01*
X610964Y672973D01*
X610926Y672744D01*
X610850Y672629D01*
Y672591D01*
X610697Y672247D01*
X610506Y671904D01*
X610277Y671637D01*
X610048Y671369D01*
X609857Y671179D01*
X609704Y671026D01*
X609590Y670949D01*
X609552Y670911D01*
X609208Y670644D01*
X608826Y670415D01*
X608406Y670224D01*
X608025Y670071D01*
X607719Y669957D01*
X607414Y669881D01*
X607261Y669804D01*
X607185D01*
X606612Y669651D01*
X606001Y669575D01*
X605391Y669499D01*
X604780Y669423D01*
X604283D01*
X603902Y669384D01*
X602680D01*
X601955Y669461D01*
X601306Y669499D01*
X600771Y669575D01*
X600351Y669651D01*
X600046Y669728D01*
X599893Y669766D01*
X599817Y669804D01*
X599320Y669957D01*
X598900Y670148D01*
X598519Y670339D01*
X598175Y670530D01*
X597908Y670682D01*
X597679Y670835D01*
X597564Y670911D01*
X597526Y670949D01*
X597221Y671217D01*
X596992Y671484D01*
X596763Y671789D01*
X596610Y672057D01*
X596457Y672286D01*
X596381Y672477D01*
X596343Y672591D01*
X596305Y672629D01*
X596114Y673355D01*
X596037Y673698D01*
X595999Y674004D01*
Y674271D01*
X595961Y674500D01*
Y674653D01*
Y674691D01*
Y675149D01*
X596037Y675569D01*
X596076Y675951D01*
X596152Y676294D01*
X596228Y676561D01*
X596266Y676752D01*
X596343Y676905D01*
Y676943D01*
X596495Y677287D01*
X596686Y677592D01*
X596915Y677898D01*
X597106Y678127D01*
X597297Y678356D01*
X597450Y678508D01*
X597564Y678585D01*
X597603Y678623D01*
X597984Y678890D01*
X598366Y679119D01*
X598786Y679272D01*
X599168Y679463D01*
X599473Y679577D01*
X599779Y679654D01*
X599931Y679730D01*
X600008D01*
X600580Y679845D01*
X601191Y679921D01*
X601764Y679997D01*
X602336Y680035D01*
X602794D01*
X603176Y680074D01*
X603520D01*
X604360Y680035D01*
D02*
G37*
G36*
X615240Y1058757D02*
X604283Y1055322D01*
Y1062155D01*
X615240Y1058757D01*
D02*
G37*
G36*
X609743Y709393D02*
X609934Y709011D01*
X610048Y708668D01*
X610163Y708362D01*
X610239Y708133D01*
X610315Y707980D01*
Y707942D01*
X610506Y707064D01*
X610582Y706683D01*
X610621Y706339D01*
X610659Y706033D01*
Y705804D01*
Y705652D01*
Y705613D01*
Y705079D01*
X610582Y704621D01*
X610506Y704163D01*
X610392Y703743D01*
X610086Y703056D01*
X609781Y702521D01*
X609437Y702101D01*
X609132Y701834D01*
X608941Y701643D01*
X608903Y701605D01*
X608865D01*
X608139Y701223D01*
X607299Y700956D01*
X606459Y700727D01*
X605620Y700612D01*
X604894Y700536D01*
X604589Y700498D01*
X604283Y700460D01*
X603062D01*
X602451Y700536D01*
X601878Y700612D01*
X601306Y700689D01*
X600809Y700803D01*
X600351Y700956D01*
X599931Y701109D01*
X599588Y701223D01*
X599244Y701376D01*
X598977Y701529D01*
X598710Y701643D01*
X598519Y701796D01*
X598366Y701872D01*
X598251Y701949D01*
X598213Y702025D01*
X598175D01*
X597870Y702330D01*
X597564Y702674D01*
X597106Y703399D01*
X596801Y704163D01*
X596572Y704926D01*
X596457Y705652D01*
X596381Y705919D01*
Y706186D01*
X596343Y706415D01*
Y706568D01*
Y706683D01*
Y706721D01*
Y707446D01*
X596381Y707790D01*
Y708057D01*
Y708286D01*
X596419Y708439D01*
Y708553D01*
Y708591D01*
X596534Y709164D01*
X596686Y709660D01*
X596725Y709889D01*
X596801Y710042D01*
X596839Y710156D01*
Y710195D01*
X609323D01*
X609743Y709393D01*
D02*
G37*
G36*
X602031Y419578D02*
X602225Y419564D01*
X602419Y419522D01*
X602585Y419481D01*
X602724Y419439D01*
X602821Y419411D01*
X602891Y419384D01*
X602918Y419370D01*
X603112Y419273D01*
X603293Y419162D01*
X603459Y419051D01*
X603598Y418940D01*
X603709Y418843D01*
X603792Y418760D01*
X603848Y418704D01*
X603861Y418676D01*
X604000Y418482D01*
X604139Y418288D01*
X604250Y418080D01*
X604333Y417886D01*
X604416Y417706D01*
X604472Y417567D01*
X604486Y417511D01*
X604499Y417470D01*
X604513Y417456D01*
Y417442D01*
X604596Y417151D01*
X604652Y416846D01*
X604707Y416541D01*
X604735Y416249D01*
X604749Y416000D01*
Y415903D01*
X604763Y415806D01*
Y415722D01*
Y415667D01*
Y415639D01*
Y415625D01*
X604749Y415265D01*
X604735Y414932D01*
X604693Y414641D01*
X604652Y414377D01*
X604610Y414169D01*
X604596Y414086D01*
X604582Y414017D01*
X604569Y413947D01*
X604555Y413906D01*
X604541Y413892D01*
Y413878D01*
X604444Y413614D01*
X604347Y413365D01*
X604236Y413143D01*
X604125Y412963D01*
X604028Y412796D01*
X603945Y412685D01*
X603889Y412616D01*
X603875Y412588D01*
X603723Y412422D01*
X603556Y412269D01*
X603404Y412158D01*
X603251Y412047D01*
X603126Y411978D01*
X603029Y411922D01*
X602960Y411895D01*
X602932Y411881D01*
X602738Y411811D01*
X602530Y411756D01*
X602350Y411715D01*
X602169Y411687D01*
X602031Y411673D01*
X601906Y411659D01*
X601809D01*
X601587Y411673D01*
X601393Y411701D01*
X601199Y411728D01*
X601032Y411770D01*
X600894Y411811D01*
X600783Y411853D01*
X600713Y411867D01*
X600686Y411881D01*
X600491Y411978D01*
X600311Y412089D01*
X600159Y412200D01*
X600020Y412311D01*
X599909Y412408D01*
X599826Y412491D01*
X599770Y412560D01*
X599756Y412574D01*
X599618Y412769D01*
X599479Y412963D01*
X599368Y413171D01*
X599285Y413365D01*
X599202Y413531D01*
X599146Y413670D01*
X599132Y413725D01*
X599118Y413767D01*
X599104Y413781D01*
Y413795D01*
X599021Y414086D01*
X598966Y414391D01*
X598924Y414696D01*
X598896Y414987D01*
X598883Y415237D01*
Y415348D01*
X598869Y415431D01*
Y415514D01*
Y415570D01*
Y415598D01*
Y415611D01*
X598883Y415986D01*
X598910Y416333D01*
X598952Y416652D01*
X598994Y416915D01*
X599035Y417137D01*
X599063Y417234D01*
X599077Y417303D01*
X599091Y417359D01*
X599104Y417401D01*
X599118Y417428D01*
Y417442D01*
X599216Y417719D01*
X599326Y417969D01*
X599437Y418191D01*
X599534Y418357D01*
X599632Y418510D01*
X599701Y418607D01*
X599756Y418676D01*
X599770Y418690D01*
X599937Y418857D01*
X600103Y418995D01*
X600256Y419106D01*
X600408Y419203D01*
X600533Y419273D01*
X600630Y419328D01*
X600686Y419356D01*
X600713Y419370D01*
X600907Y419439D01*
X601102Y419495D01*
X601282Y419536D01*
X601448Y419564D01*
X601601Y419578D01*
X601712Y419592D01*
X601809D01*
X602031Y419578D01*
D02*
G37*
G36*
X615053Y419384D02*
X615192D01*
X615303Y419370D01*
X615400D01*
X615455Y419356D01*
X615469D01*
X615622Y419342D01*
X615760Y419314D01*
X615885Y419300D01*
X615982Y419273D01*
X616066Y419245D01*
X616135Y419217D01*
X616176Y419203D01*
X616190D01*
X616343Y419134D01*
X616482Y419051D01*
X616579Y418968D01*
X616676Y418884D01*
X616731Y418815D01*
X616787Y418760D01*
X616801Y418718D01*
X616814Y418704D01*
X616884Y418579D01*
X616925Y418455D01*
X616967Y418330D01*
X616981Y418205D01*
X616995Y418094D01*
X617009Y418011D01*
Y417955D01*
Y417941D01*
Y417761D01*
X616981Y417595D01*
X616967Y417456D01*
X616939Y417345D01*
X616912Y417248D01*
X616884Y417179D01*
X616870Y417137D01*
X616856Y417123D01*
X616787Y417012D01*
X616717Y416915D01*
X616565Y416749D01*
X616496Y416679D01*
X616440Y416624D01*
X616398Y416596D01*
X616385Y416582D01*
X616260Y416499D01*
X616121Y416430D01*
X615982Y416374D01*
X615844Y416333D01*
X615733Y416305D01*
X615636Y416277D01*
X615580Y416263D01*
X615552D01*
X615358Y416236D01*
X615164Y416222D01*
X614956Y416208D01*
X614762D01*
X614595Y416194D01*
X613403D01*
Y419398D01*
X614887D01*
X615053Y419384D01*
D02*
G37*
D24*
X753755Y1306460D02*
Y1320000D01*
X1753755Y1306460D02*
Y1322250D01*
X753755Y1309000D02*
X1203730D01*
X1295651D02*
X1753755D01*
X753755D02*
X768995Y1303920D01*
X753755Y1309000D02*
X768995Y1314080D01*
X1738515D02*
X1753755Y1309000D01*
X1738515Y1303920D02*
X1753755Y1309000D01*
X1968250Y90750D02*
X1968750Y91250D01*
X1693000Y660000D02*
X1820500D01*
X1467112Y385739D02*
X1477269Y370504D01*
Y385739D02*
X1467112Y370504D01*
X1482347Y385739D02*
X1492504D01*
X1487425D01*
Y370504D01*
X1497582D02*
Y380661D01*
X1502661Y385739D01*
X1507739Y380661D01*
Y370504D01*
Y378121D01*
X1497582D01*
X1512817Y385739D02*
Y370504D01*
X1522974D01*
X1655907Y670446D02*
X1653367Y672985D01*
X1648289D01*
X1645750Y670446D01*
Y667907D01*
X1648289Y665368D01*
X1653367D01*
X1655907Y662828D01*
Y660289D01*
X1653367Y657750D01*
X1648289D01*
X1645750Y660289D01*
X1660985Y657750D02*
Y672985D01*
X1668603D01*
X1671142Y670446D01*
Y665368D01*
X1668603Y662828D01*
X1660985D01*
X1666063D02*
X1671142Y657750D01*
X1676220D02*
X1681299D01*
X1678759D01*
Y672985D01*
X1676220Y670446D01*
X1648907Y440446D02*
X1646367Y442985D01*
X1641289D01*
X1638750Y440446D01*
Y437907D01*
X1641289Y435368D01*
X1646367D01*
X1648907Y432828D01*
Y430289D01*
X1646367Y427750D01*
X1641289D01*
X1638750Y430289D01*
X1653985Y427750D02*
Y442985D01*
X1661603D01*
X1664142Y440446D01*
Y435368D01*
X1661603Y432828D01*
X1653985D01*
X1659063D02*
X1664142Y427750D01*
X1679377D02*
X1669220D01*
X1679377Y437907D01*
Y440446D01*
X1676838Y442985D01*
X1671759D01*
X1669220Y440446D01*
X1201646Y614155D02*
Y598920D01*
X1209264D01*
X1211803Y601459D01*
Y611616D01*
X1209264Y614155D01*
X1201646D01*
X1216881D02*
Y598920D01*
X1224499D01*
X1227038Y601459D01*
Y611616D01*
X1224499Y614155D01*
X1216881D01*
X1232116Y598920D02*
Y614155D01*
X1239734D01*
X1242273Y611616D01*
Y606538D01*
X1239734Y603998D01*
X1232116D01*
X1237195D02*
X1242273Y598920D01*
X1455804Y622657D02*
X1453265Y620117D01*
Y615039D01*
X1455804Y612500D01*
X1465961D01*
X1468500Y615039D01*
Y620117D01*
X1465961Y622657D01*
X1453265Y637892D02*
Y627735D01*
X1460883D01*
X1458343Y632813D01*
Y635353D01*
X1460883Y637892D01*
X1465961D01*
X1468500Y635353D01*
Y630274D01*
X1465961Y627735D01*
X1468500Y642970D02*
Y648048D01*
Y645509D01*
X1453265D01*
X1455804Y642970D01*
X1499804Y620657D02*
X1497265Y618117D01*
Y613039D01*
X1499804Y610500D01*
X1509961D01*
X1512500Y613039D01*
Y618117D01*
X1509961Y620657D01*
X1497265Y635892D02*
Y625735D01*
X1504883D01*
X1502343Y630813D01*
Y633353D01*
X1504883Y635892D01*
X1509961D01*
X1512500Y633353D01*
Y628274D01*
X1509961Y625735D01*
X1499804Y640970D02*
X1497265Y643509D01*
Y648588D01*
X1499804Y651127D01*
X1509961D01*
X1512500Y648588D01*
Y643509D01*
X1509961Y640970D01*
X1499804D01*
X1541554Y620407D02*
X1539015Y617868D01*
Y612789D01*
X1541554Y610250D01*
X1551711D01*
X1554250Y612789D01*
Y617868D01*
X1551711Y620407D01*
X1554250Y633103D02*
X1539015D01*
X1546633Y625485D01*
Y635642D01*
X1551711Y640720D02*
X1554250Y643259D01*
Y648338D01*
X1551711Y650877D01*
X1541554D01*
X1539015Y648338D01*
Y643259D01*
X1541554Y640720D01*
X1544093D01*
X1546633Y643259D01*
Y650877D01*
X1359907Y454446D02*
X1357368Y456985D01*
X1352289D01*
X1349750Y454446D01*
Y444289D01*
X1352289Y441750D01*
X1357368D01*
X1359907Y444289D01*
X1372603Y441750D02*
Y456985D01*
X1364985Y449367D01*
X1375142D01*
X1390377Y456985D02*
X1385298Y454446D01*
X1380220Y449367D01*
Y444289D01*
X1382759Y441750D01*
X1387838D01*
X1390377Y444289D01*
Y446828D01*
X1387838Y449367D01*
X1380220D01*
X1360907Y485446D02*
X1358367Y487985D01*
X1353289D01*
X1350750Y485446D01*
Y475289D01*
X1353289Y472750D01*
X1358367D01*
X1360907Y475289D01*
X1373603Y472750D02*
Y487985D01*
X1365985Y480368D01*
X1376142D01*
X1391377Y487985D02*
X1381220D01*
Y480368D01*
X1386299Y482907D01*
X1388838D01*
X1391377Y480368D01*
Y475289D01*
X1388838Y472750D01*
X1383759D01*
X1381220Y475289D01*
X1363657Y519196D02*
X1361118Y521735D01*
X1356039D01*
X1353500Y519196D01*
Y509039D01*
X1356039Y506500D01*
X1361118D01*
X1363657Y509039D01*
X1376353Y506500D02*
Y521735D01*
X1368735Y514118D01*
X1378892D01*
X1391588Y506500D02*
Y521735D01*
X1383970Y514118D01*
X1394127D01*
X1357657Y547696D02*
X1355117Y550235D01*
X1350039D01*
X1347500Y547696D01*
Y537539D01*
X1350039Y535000D01*
X1355117D01*
X1357657Y537539D01*
X1370353Y535000D02*
Y550235D01*
X1362735Y542617D01*
X1372892D01*
X1377970Y547696D02*
X1380509Y550235D01*
X1385588D01*
X1388127Y547696D01*
Y545157D01*
X1385588Y542617D01*
X1383049D01*
X1385588D01*
X1388127Y540078D01*
Y537539D01*
X1385588Y535000D01*
X1380509D01*
X1377970Y537539D01*
X1544158Y196039D02*
Y183343D01*
X1546697Y180804D01*
X1551776D01*
X1554315Y183343D01*
Y196039D01*
X1569550Y193500D02*
X1567011Y196039D01*
X1561932D01*
X1559393Y193500D01*
Y183343D01*
X1561932Y180804D01*
X1567011D01*
X1569550Y183343D01*
X1574628Y196039D02*
Y180804D01*
X1582246D01*
X1584785Y183343D01*
Y193500D01*
X1582246Y196039D01*
X1574628D01*
X1589863D02*
Y180804D01*
X1597481D01*
X1600020Y183343D01*
Y185882D01*
X1597481Y188421D01*
X1589863D01*
X1597481D01*
X1600020Y190961D01*
Y193500D01*
X1597481Y196039D01*
X1589863D01*
X1615255Y193500D02*
X1612716Y196039D01*
X1607637D01*
X1605098Y193500D01*
Y183343D01*
X1607637Y180804D01*
X1612716D01*
X1615255Y183343D01*
Y188421D01*
X1610177D01*
X1332946Y1023720D02*
X1335485Y1026259D01*
Y1031338D01*
X1332946Y1033877D01*
X1322789D01*
X1320250Y1031338D01*
Y1026259D01*
X1322789Y1023720D01*
X1332946Y1018642D02*
X1335485Y1016103D01*
Y1011024D01*
X1332946Y1008485D01*
X1330407D01*
X1327867Y1011024D01*
Y1013564D01*
Y1011024D01*
X1325328Y1008485D01*
X1322789D01*
X1320250Y1011024D01*
Y1016103D01*
X1322789Y1018642D01*
X1335485Y1003407D02*
Y993250D01*
X1332946D01*
X1322789Y1003407D01*
X1320250D01*
X1271579Y1003407D02*
X1269040Y1000867D01*
Y995789D01*
X1271579Y993250D01*
X1281736D01*
X1284275Y995789D01*
Y1000867D01*
X1281736Y1003407D01*
X1271579Y1008485D02*
X1269040Y1011024D01*
Y1016103D01*
X1271579Y1018642D01*
X1274118D01*
X1276657Y1016103D01*
Y1013563D01*
Y1016103D01*
X1279197Y1018642D01*
X1281736D01*
X1284275Y1016103D01*
Y1011024D01*
X1281736Y1008485D01*
X1269040Y1033877D02*
X1271579Y1028799D01*
X1276657Y1023720D01*
X1281736D01*
X1284275Y1026259D01*
Y1031338D01*
X1281736Y1033877D01*
X1279197D01*
X1276657Y1031338D01*
Y1023720D01*
X1220369Y1003407D02*
X1217830Y1000867D01*
Y995789D01*
X1220369Y993250D01*
X1230526D01*
X1233065Y995789D01*
Y1000867D01*
X1230526Y1003407D01*
X1220369Y1008485D02*
X1217830Y1011024D01*
Y1016103D01*
X1220369Y1018642D01*
X1222908D01*
X1225447Y1016103D01*
Y1013563D01*
Y1016103D01*
X1227987Y1018642D01*
X1230526D01*
X1233065Y1016103D01*
Y1011024D01*
X1230526Y1008485D01*
X1217830Y1033877D02*
Y1023720D01*
X1225447D01*
X1222908Y1028799D01*
Y1031338D01*
X1225447Y1033877D01*
X1230526D01*
X1233065Y1031338D01*
Y1026259D01*
X1230526Y1023720D01*
X1418657Y895446D02*
X1416118Y897985D01*
X1411039D01*
X1408500Y895446D01*
Y885289D01*
X1411039Y882750D01*
X1416118D01*
X1418657Y885289D01*
X1423735Y895446D02*
X1426274Y897985D01*
X1431353D01*
X1433892Y895446D01*
Y892907D01*
X1431353Y890368D01*
X1428813D01*
X1431353D01*
X1433892Y887828D01*
Y885289D01*
X1431353Y882750D01*
X1426274D01*
X1423735Y885289D01*
X1446588Y882750D02*
Y897985D01*
X1438970Y890368D01*
X1449127D01*
X1418657Y849320D02*
X1416118Y851860D01*
X1411039D01*
X1408500Y849320D01*
Y839164D01*
X1411039Y836624D01*
X1416118D01*
X1418657Y839164D01*
X1423735Y849320D02*
X1426274Y851860D01*
X1431353D01*
X1433892Y849320D01*
Y846781D01*
X1431353Y844242D01*
X1428813D01*
X1431353D01*
X1433892Y841703D01*
Y839164D01*
X1431353Y836624D01*
X1426274D01*
X1423735Y839164D01*
X1438970Y849320D02*
X1441509Y851860D01*
X1446588D01*
X1449127Y849320D01*
Y846781D01*
X1446588Y844242D01*
X1444048D01*
X1446588D01*
X1449127Y841703D01*
Y839164D01*
X1446588Y836624D01*
X1441509D01*
X1438970Y839164D01*
X1418657Y776196D02*
X1416118Y778735D01*
X1411039D01*
X1408500Y776196D01*
Y766039D01*
X1411039Y763500D01*
X1416118D01*
X1418657Y766039D01*
X1423735Y776196D02*
X1426274Y778735D01*
X1431353D01*
X1433892Y776196D01*
Y773657D01*
X1431353Y771117D01*
X1428813D01*
X1431353D01*
X1433892Y768578D01*
Y766039D01*
X1431353Y763500D01*
X1426274D01*
X1423735Y766039D01*
X1449127Y763500D02*
X1438970D01*
X1449127Y773657D01*
Y776196D01*
X1446588Y778735D01*
X1441509D01*
X1438970Y776196D01*
X1169159Y1003407D02*
X1166620Y1000867D01*
Y995789D01*
X1169159Y993250D01*
X1179316D01*
X1181855Y995789D01*
Y1000867D01*
X1179316Y1003407D01*
X1169159Y1008485D02*
X1166620Y1011024D01*
Y1016103D01*
X1169159Y1018642D01*
X1171698D01*
X1174238Y1016103D01*
Y1013563D01*
Y1016103D01*
X1176777Y1018642D01*
X1179316D01*
X1181855Y1016103D01*
Y1011024D01*
X1179316Y1008485D01*
X1181855Y1023720D02*
Y1028799D01*
Y1026259D01*
X1166620D01*
X1169159Y1023720D01*
X1033391Y885868D02*
X1030852Y888407D01*
X1025773D01*
X1023234Y885868D01*
Y875711D01*
X1025773Y873172D01*
X1030852D01*
X1033391Y875711D01*
X1038469Y885868D02*
X1041008Y888407D01*
X1046087D01*
X1048626Y885868D01*
Y883329D01*
X1046087Y880790D01*
X1043547D01*
X1046087D01*
X1048626Y878250D01*
Y875711D01*
X1046087Y873172D01*
X1041008D01*
X1038469Y875711D01*
X1053704Y885868D02*
X1056243Y888407D01*
X1061322D01*
X1063861Y885868D01*
Y875711D01*
X1061322Y873172D01*
X1056243D01*
X1053704Y875711D01*
Y885868D01*
X1033391Y816221D02*
X1030852Y818760D01*
X1025773D01*
X1023234Y816221D01*
Y806064D01*
X1025773Y803525D01*
X1030852D01*
X1033391Y806064D01*
X1048626Y803525D02*
X1038469D01*
X1048626Y813682D01*
Y816221D01*
X1046087Y818760D01*
X1041008D01*
X1038469Y816221D01*
X1053704Y806064D02*
X1056243Y803525D01*
X1061322D01*
X1063861Y806064D01*
Y816221D01*
X1061322Y818760D01*
X1056243D01*
X1053704Y816221D01*
Y813682D01*
X1056243Y811143D01*
X1063861D01*
X1033391Y769790D02*
X1030852Y772329D01*
X1025773D01*
X1023234Y769790D01*
Y759633D01*
X1025773Y757094D01*
X1030852D01*
X1033391Y759633D01*
X1048626Y757094D02*
X1038469D01*
X1048626Y767251D01*
Y769790D01*
X1046087Y772329D01*
X1041008D01*
X1038469Y769790D01*
X1053704D02*
X1056243Y772329D01*
X1061322D01*
X1063861Y769790D01*
Y767251D01*
X1061322Y764712D01*
X1063861Y762172D01*
Y759633D01*
X1061322Y757094D01*
X1056243D01*
X1053704Y759633D01*
Y762172D01*
X1056243Y764712D01*
X1053704Y767251D01*
Y769790D01*
X1056243Y764712D02*
X1061322D01*
X1313054Y379868D02*
X1310515Y377328D01*
Y372250D01*
X1313054Y369711D01*
X1323211D01*
X1325750Y372250D01*
Y377328D01*
X1323211Y379868D01*
X1325750Y395103D02*
Y384946D01*
X1315593Y395103D01*
X1313054D01*
X1310515Y392563D01*
Y387485D01*
X1313054Y384946D01*
X1310515Y410338D02*
Y400181D01*
X1318132D01*
X1315593Y405259D01*
Y407799D01*
X1318132Y410338D01*
X1323211D01*
X1325750Y407799D01*
Y402720D01*
X1323211Y400181D01*
X1284304Y384946D02*
X1281765Y382407D01*
Y377328D01*
X1284304Y374789D01*
X1294461D01*
X1297000Y377328D01*
Y382407D01*
X1294461Y384946D01*
X1297000Y400181D02*
Y390024D01*
X1286843Y400181D01*
X1284304D01*
X1281765Y397642D01*
Y392563D01*
X1284304Y390024D01*
X1297000Y412877D02*
X1281765D01*
X1289382Y405259D01*
Y415416D01*
X1255554Y379868D02*
X1253015Y377328D01*
Y372250D01*
X1255554Y369711D01*
X1265711D01*
X1268250Y372250D01*
Y377328D01*
X1265711Y379868D01*
X1268250Y395103D02*
Y384946D01*
X1258093Y395103D01*
X1255554D01*
X1253015Y392563D01*
Y387485D01*
X1255554Y384946D01*
Y400181D02*
X1253015Y402720D01*
Y407799D01*
X1255554Y410338D01*
X1258093D01*
X1260632Y407799D01*
Y405259D01*
Y407799D01*
X1263172Y410338D01*
X1265711D01*
X1268250Y407799D01*
Y402720D01*
X1265711Y400181D01*
X1226804Y382407D02*
X1224265Y379868D01*
Y374789D01*
X1226804Y372250D01*
X1236961D01*
X1239500Y374789D01*
Y379868D01*
X1236961Y382407D01*
X1239500Y397642D02*
Y387485D01*
X1229343Y397642D01*
X1226804D01*
X1224265Y395103D01*
Y390024D01*
X1226804Y387485D01*
X1239500Y412877D02*
Y402720D01*
X1229343Y412877D01*
X1226804D01*
X1224265Y410338D01*
Y405259D01*
X1226804Y402720D01*
X1198054Y382407D02*
X1195515Y379868D01*
Y374789D01*
X1198054Y372250D01*
X1208211D01*
X1210750Y374789D01*
Y379868D01*
X1208211Y382407D01*
X1210750Y397642D02*
Y387485D01*
X1200593Y397642D01*
X1198054D01*
X1195515Y395103D01*
Y390024D01*
X1198054Y387485D01*
X1210750Y402720D02*
Y407799D01*
Y405259D01*
X1195515D01*
X1198054Y402720D01*
X1169304Y382407D02*
X1166765Y379868D01*
Y374789D01*
X1169304Y372250D01*
X1179461D01*
X1182000Y374789D01*
Y379868D01*
X1179461Y382407D01*
X1182000Y397642D02*
Y387485D01*
X1171843Y397642D01*
X1169304D01*
X1166765Y395103D01*
Y390024D01*
X1169304Y387485D01*
Y402720D02*
X1166765Y405259D01*
Y410338D01*
X1169304Y412877D01*
X1179461D01*
X1182000Y410338D01*
Y405259D01*
X1179461Y402720D01*
X1169304D01*
X1314554Y521157D02*
X1312015Y518618D01*
Y513539D01*
X1314554Y511000D01*
X1324711D01*
X1327250Y513539D01*
Y518618D01*
X1324711Y521157D01*
X1327250Y526235D02*
Y531313D01*
Y528774D01*
X1312015D01*
X1314554Y526235D01*
X1324711Y538931D02*
X1327250Y541470D01*
Y546549D01*
X1324711Y549088D01*
X1314554D01*
X1312015Y546549D01*
Y541470D01*
X1314554Y538931D01*
X1317093D01*
X1319633Y541470D01*
Y549088D01*
X1167804Y520407D02*
X1165265Y517868D01*
Y512789D01*
X1167804Y510250D01*
X1177961D01*
X1180500Y512789D01*
Y517868D01*
X1177961Y520407D01*
X1180500Y525485D02*
Y530563D01*
Y528024D01*
X1165265D01*
X1167804Y525485D01*
Y538181D02*
X1165265Y540720D01*
Y545798D01*
X1167804Y548338D01*
X1170343D01*
X1172883Y545798D01*
X1175422Y548338D01*
X1177961D01*
X1180500Y545798D01*
Y540720D01*
X1177961Y538181D01*
X1175422D01*
X1172883Y540720D01*
X1170343Y538181D01*
X1167804D01*
X1172883Y540720D02*
Y545798D01*
X1595750Y791500D02*
Y806735D01*
X1603367D01*
X1605907Y804196D01*
Y799118D01*
X1603367Y796578D01*
X1595750D01*
X1600828D02*
X1605907Y791500D01*
X1621142Y806735D02*
X1616063Y804196D01*
X1610985Y799118D01*
Y794039D01*
X1613524Y791500D01*
X1618603D01*
X1621142Y794039D01*
Y796578D01*
X1618603Y799118D01*
X1610985D01*
X1681000Y716000D02*
X1665765D01*
Y723617D01*
X1668304Y726157D01*
X1673382D01*
X1675921Y723617D01*
Y716000D01*
Y721078D02*
X1681000Y726157D01*
X1665765Y731235D02*
Y741392D01*
X1668304D01*
X1678461Y731235D01*
X1681000D01*
X707422Y297496D02*
Y312731D01*
X715040D01*
X717579Y310192D01*
Y305114D01*
X715040Y302574D01*
X707422D01*
X712500D02*
X717579Y297496D01*
X732814D02*
X722657D01*
X732814Y307653D01*
Y310192D01*
X730275Y312731D01*
X725196D01*
X722657Y310192D01*
X1040524Y297624D02*
Y312859D01*
X1048141D01*
X1050681Y310320D01*
Y305242D01*
X1048141Y302702D01*
X1040524D01*
X1045602D02*
X1050681Y297624D01*
X1055759D02*
X1060837D01*
X1058298D01*
Y312859D01*
X1055759Y310320D01*
X756250Y234000D02*
X741015D01*
Y241618D01*
X743554Y244157D01*
X748633D01*
X751172Y241618D01*
Y234000D01*
X743554Y259392D02*
X741015Y256853D01*
Y251774D01*
X743554Y249235D01*
X746093D01*
X748633Y251774D01*
Y256853D01*
X751172Y259392D01*
X753711D01*
X756250Y256853D01*
Y251774D01*
X753711Y249235D01*
X741015Y264470D02*
X753711D01*
X756250Y267009D01*
Y272088D01*
X753711Y274627D01*
X741015D01*
X756250Y289862D02*
Y279705D01*
X746093Y289862D01*
X743554D01*
X741015Y287323D01*
Y282244D01*
X743554Y279705D01*
X1090750Y234500D02*
X1075515D01*
Y242118D01*
X1078054Y244657D01*
X1083132D01*
X1085672Y242118D01*
Y234500D01*
X1078054Y259892D02*
X1075515Y257353D01*
Y252274D01*
X1078054Y249735D01*
X1080593D01*
X1083132Y252274D01*
Y257353D01*
X1085672Y259892D01*
X1088211D01*
X1090750Y257353D01*
Y252274D01*
X1088211Y249735D01*
X1075515Y264970D02*
X1088211D01*
X1090750Y267509D01*
Y272588D01*
X1088211Y275127D01*
X1075515D01*
X1090750Y280205D02*
Y285284D01*
Y282744D01*
X1075515D01*
X1078054Y280205D01*
X920000Y229500D02*
X904765D01*
X909843Y234578D01*
X904765Y239657D01*
X920000D01*
X904765Y244735D02*
Y249813D01*
Y247274D01*
X920000D01*
Y244735D01*
Y249813D01*
X907304Y267588D02*
X904765Y265049D01*
Y259970D01*
X907304Y257431D01*
X917461D01*
X920000Y259970D01*
Y265049D01*
X917461Y267588D01*
X920000Y272666D02*
Y277744D01*
Y275205D01*
X904765D01*
X907304Y272666D01*
X880025Y243830D02*
X877486Y246369D01*
X872407D01*
X869868Y243830D01*
Y233673D01*
X872407Y231134D01*
X877486D01*
X880025Y233673D01*
X885103Y246369D02*
X895260D01*
Y243830D01*
X885103Y233673D01*
Y231134D01*
X1153696Y186343D02*
X1156235Y188883D01*
Y193961D01*
X1153696Y196500D01*
X1143539D01*
X1141000Y193961D01*
Y188883D01*
X1143539Y186343D01*
X1141000Y181265D02*
Y176187D01*
Y178726D01*
X1156235D01*
X1153696Y181265D01*
X1123091Y310222D02*
X1120552Y312761D01*
X1115473D01*
X1112934Y310222D01*
Y300065D01*
X1115473Y297526D01*
X1120552D01*
X1123091Y300065D01*
X1128169Y310222D02*
X1130708Y312761D01*
X1135787D01*
X1138326Y310222D01*
Y307683D01*
X1135787Y305144D01*
X1133247D01*
X1135787D01*
X1138326Y302604D01*
Y300065D01*
X1135787Y297526D01*
X1130708D01*
X1128169Y300065D01*
X714407Y242946D02*
X711868Y245485D01*
X706789D01*
X704250Y242946D01*
Y232789D01*
X706789Y230250D01*
X711868D01*
X714407Y232789D01*
X729642Y245485D02*
X719485D01*
Y237868D01*
X724563Y240407D01*
X727103D01*
X729642Y237868D01*
Y232789D01*
X727103Y230250D01*
X722024D01*
X719485Y232789D01*
X1045157Y242946D02*
X1042617Y245485D01*
X1037539D01*
X1035000Y242946D01*
Y232789D01*
X1037539Y230250D01*
X1042617D01*
X1045157Y232789D01*
X1060392Y230250D02*
X1050235D01*
X1060392Y240407D01*
Y242946D01*
X1057853Y245485D01*
X1052774D01*
X1050235Y242946D01*
X1465515Y217750D02*
X1480750Y227907D01*
X1465515D02*
X1480750Y217750D01*
X1468054Y243142D02*
X1465515Y240603D01*
Y235524D01*
X1468054Y232985D01*
X1478211D01*
X1480750Y235524D01*
Y240603D01*
X1478211Y243142D01*
X1480750Y258377D02*
Y248220D01*
X1470593Y258377D01*
X1468054D01*
X1465515Y255838D01*
Y250759D01*
X1468054Y248220D01*
X1527515Y222578D02*
X1542750Y232735D01*
X1527515D02*
X1542750Y222578D01*
X1530054Y247970D02*
X1527515Y245431D01*
Y240353D01*
X1530054Y237813D01*
X1540211D01*
X1542750Y240353D01*
Y245431D01*
X1540211Y247970D01*
X1542750Y253048D02*
Y258127D01*
Y255588D01*
X1527515D01*
X1530054Y253048D01*
X1383015Y239000D02*
X1395711D01*
X1398250Y241539D01*
Y246618D01*
X1395711Y249157D01*
X1383015D01*
X1400789Y254235D02*
Y264392D01*
X1398250Y269470D02*
X1383015D01*
Y277088D01*
X1385554Y279627D01*
X1390632D01*
X1393172Y277088D01*
Y269470D01*
Y274548D02*
X1398250Y279627D01*
X1383015Y294862D02*
Y284705D01*
X1398250D01*
Y294862D01*
X1390632Y284705D02*
Y289784D01*
X1385554Y310097D02*
X1383015Y307558D01*
Y302479D01*
X1385554Y299940D01*
X1388093D01*
X1390632Y302479D01*
Y307558D01*
X1393172Y310097D01*
X1395711D01*
X1398250Y307558D01*
Y302479D01*
X1395711Y299940D01*
X1383015Y325332D02*
Y315175D01*
X1398250D01*
Y325332D01*
X1390632Y315175D02*
Y320254D01*
X1383015Y330410D02*
Y340567D01*
Y335489D01*
X1398250D01*
X1580500Y339485D02*
Y326789D01*
X1583039Y324250D01*
X1588118D01*
X1590657Y326789D01*
Y339485D01*
X1595735D02*
Y324250D01*
X1603353D01*
X1605892Y326789D01*
Y336946D01*
X1603353Y339485D01*
X1595735D01*
X1729172Y194815D02*
Y204972D01*
X1724093Y210050D01*
X1719015Y204972D01*
Y194815D01*
X1713937D02*
X1708858D01*
X1711397D01*
Y210050D01*
X1713937D01*
X1708858D01*
X1842500Y418485D02*
Y405789D01*
X1845039Y403250D01*
X1850117D01*
X1852657Y405789D01*
Y418485D01*
X1857735Y415946D02*
X1860274Y418485D01*
X1865353D01*
X1867892Y415946D01*
Y413407D01*
X1865353Y410868D01*
X1862813D01*
X1865353D01*
X1867892Y408328D01*
Y405789D01*
X1865353Y403250D01*
X1860274D01*
X1857735Y405789D01*
X1842500Y450985D02*
Y438289D01*
X1845039Y435750D01*
X1850117D01*
X1852657Y438289D01*
Y450985D01*
X1867892Y435750D02*
X1857735D01*
X1867892Y445907D01*
Y448446D01*
X1865353Y450985D01*
X1860274D01*
X1857735Y448446D01*
X1847328Y479735D02*
Y467039D01*
X1849868Y464500D01*
X1854946D01*
X1857485Y467039D01*
Y479735D01*
X1862563Y464500D02*
X1867642D01*
X1865103D01*
Y479735D01*
X1862563Y477196D01*
X1842420Y510735D02*
Y498039D01*
X1844959Y495500D01*
X1850038D01*
X1852577Y498039D01*
Y510735D01*
X1857655Y508196D02*
X1860194Y510735D01*
X1865273D01*
X1867812Y508196D01*
Y498039D01*
X1865273Y495500D01*
X1860194D01*
X1857655Y498039D01*
Y508196D01*
X1631250Y327235D02*
Y312000D01*
X1641407D01*
X1646485Y324696D02*
X1649024Y327235D01*
X1654103D01*
X1656642Y324696D01*
Y314539D01*
X1654103Y312000D01*
X1649024D01*
X1646485Y314539D01*
Y324696D01*
X1852657Y587735D02*
X1842500D01*
Y580117D01*
X1847578D01*
X1842500D01*
Y572500D01*
X1857735Y585196D02*
X1860274Y587735D01*
X1865353D01*
X1867892Y585196D01*
Y582657D01*
X1865353Y580117D01*
X1862813D01*
X1865353D01*
X1867892Y577578D01*
Y575039D01*
X1865353Y572500D01*
X1860274D01*
X1857735Y575039D01*
X1852657Y652735D02*
X1842500D01*
Y645117D01*
X1847578D01*
X1842500D01*
Y637500D01*
X1867892D02*
X1857735D01*
X1867892Y647657D01*
Y650196D01*
X1865353Y652735D01*
X1860274D01*
X1857735Y650196D01*
X1857735Y622735D02*
X1847578D01*
Y615117D01*
X1852657D01*
X1847578D01*
Y607500D01*
X1862813D02*
X1867892D01*
X1865353D01*
Y622735D01*
X1862813Y620196D01*
X1852657Y682735D02*
X1842500D01*
Y675117D01*
X1847578D01*
X1842500D01*
Y667500D01*
X1857735Y680196D02*
X1860274Y682735D01*
X1865353D01*
X1867892Y680196D01*
Y670039D01*
X1865353Y667500D01*
X1860274D01*
X1857735Y670039D01*
Y680196D01*
X1176779Y936493D02*
X1166622D01*
Y928876D01*
X1171700D01*
X1166622D01*
Y921258D01*
X1181857D02*
Y936493D01*
X1189475D01*
X1192014Y933954D01*
Y928876D01*
X1189475Y926336D01*
X1181857D01*
X1207249Y933954D02*
X1204710Y936493D01*
X1199631D01*
X1197092Y933954D01*
Y923797D01*
X1199631Y921258D01*
X1204710D01*
X1207249Y923797D01*
Y928876D01*
X1202170D01*
X1212327Y921258D02*
Y931415D01*
X1217406Y936493D01*
X1222484Y931415D01*
Y921258D01*
Y928876D01*
X1212327D01*
X846765Y1180000D02*
X862000D01*
X854382D01*
Y1190157D01*
X846765D01*
X862000D01*
Y1195235D02*
X846765D01*
X862000Y1205392D01*
X846765D01*
X862000Y1213009D02*
Y1218088D01*
X859461Y1220627D01*
X854382D01*
X851843Y1218088D01*
Y1213009D01*
X854382Y1210470D01*
X859461D01*
X862000Y1213009D01*
X851843Y1225705D02*
X862000D01*
X856922D01*
X854382Y1228244D01*
X851843Y1230784D01*
Y1233323D01*
X849304Y1243480D02*
X851843D01*
Y1240940D01*
Y1246019D01*
Y1243480D01*
X859461D01*
X862000Y1246019D01*
X846765Y1253636D02*
X862000D01*
X854382D01*
X851843Y1256175D01*
Y1261254D01*
X854382Y1263793D01*
X862000D01*
X1478000Y572485D02*
Y559789D01*
X1480539Y557250D01*
X1485618D01*
X1488157Y559789D01*
Y572485D01*
X1857735Y1112500D02*
X1842500D01*
X1850117D01*
Y1102343D01*
X1857735D01*
X1842500D01*
X1857735Y1087108D02*
Y1097265D01*
X1842500D01*
Y1087108D01*
X1850117Y1097265D02*
Y1092187D01*
X1852657Y1079491D02*
Y1074412D01*
X1850117Y1071873D01*
X1842500D01*
Y1079491D01*
X1845039Y1082030D01*
X1847578Y1079491D01*
Y1071873D01*
X1842500Y1066795D02*
Y1059177D01*
X1845039Y1056638D01*
X1847578Y1059177D01*
Y1064256D01*
X1850117Y1066795D01*
X1852657Y1064256D01*
Y1056638D01*
X1855196Y1049020D02*
X1852657D01*
Y1051560D01*
Y1046481D01*
Y1049020D01*
X1845039D01*
X1842500Y1046481D01*
X681235Y1109000D02*
X666000D01*
X673617D01*
Y1098843D01*
X681235D01*
X666000D01*
X681235Y1093765D02*
X666000D01*
X671078Y1088687D01*
X666000Y1083608D01*
X681235D01*
X666000Y1070912D02*
Y1075991D01*
X668539Y1078530D01*
X673617D01*
X676157Y1075991D01*
Y1070912D01*
X673617Y1068373D01*
X671078D01*
Y1078530D01*
X666000Y1063295D02*
Y1055677D01*
X668539Y1053138D01*
X671078Y1055677D01*
Y1060756D01*
X673617Y1063295D01*
X676157Y1060756D01*
Y1053138D01*
X678696Y1045520D02*
X676157D01*
Y1048060D01*
Y1042981D01*
Y1045520D01*
X668539D01*
X666000Y1042981D01*
X605407Y1266985D02*
X595250D01*
Y1259368D01*
X600328D01*
X595250D01*
Y1251750D01*
X620642Y1266985D02*
X615563D01*
X618103D01*
Y1254289D01*
X615563Y1251750D01*
X613024D01*
X610485Y1254289D01*
X625720Y1266985D02*
X635877D01*
X630798D01*
Y1251750D01*
X640955D02*
Y1261907D01*
X646034Y1266985D01*
X651112Y1261907D01*
Y1251750D01*
Y1259368D01*
X640955D01*
X666347Y1264446D02*
X663808Y1266985D01*
X658729D01*
X656190Y1264446D01*
Y1254289D01*
X658729Y1251750D01*
X663808D01*
X666347Y1254289D01*
Y1259368D01*
X661269D01*
X1632250Y278200D02*
Y293435D01*
X1639868D01*
X1642407Y290896D01*
Y285817D01*
X1639868Y283278D01*
X1632250D01*
X1637328D02*
X1642407Y278200D01*
X1647485Y290896D02*
X1650024Y293435D01*
X1655103D01*
X1657642Y290896D01*
Y288357D01*
X1655103Y285817D01*
X1652563D01*
X1655103D01*
X1657642Y283278D01*
Y280739D01*
X1655103Y278200D01*
X1650024D01*
X1647485Y280739D01*
X1633000Y246250D02*
Y261485D01*
X1640618D01*
X1643157Y258946D01*
Y253867D01*
X1640618Y251328D01*
X1633000D01*
X1638078D02*
X1643157Y246250D01*
X1655853D02*
Y261485D01*
X1648235Y253867D01*
X1658392D01*
X1734250Y218265D02*
Y228422D01*
X1729172Y233500D01*
X1724093Y228422D01*
Y218265D01*
X1711397D02*
X1716476D01*
X1719015Y220804D01*
Y230961D01*
X1716476Y233500D01*
X1711397D01*
X1708858Y230961D01*
Y220804D01*
X1711397Y218265D01*
X1637328Y355485D02*
Y340250D01*
X1647485D01*
X1652563D02*
X1657642D01*
X1655103D01*
Y355485D01*
X1652563Y352946D01*
X1748510Y226250D02*
X1773502D01*
X1778500Y231248D01*
Y241245D01*
X1773502Y246243D01*
X1748510D01*
X1753508Y276234D02*
X1748510Y271235D01*
Y261239D01*
X1753508Y256240D01*
X1758506D01*
X1763505Y261239D01*
Y271235D01*
X1768503Y276234D01*
X1773502D01*
X1778500Y271235D01*
Y261239D01*
X1773502Y256240D01*
X1748510Y286231D02*
X1778500D01*
Y301226D01*
X1773502Y306224D01*
X1768503D01*
X1763505Y301226D01*
Y286231D01*
Y301226D01*
X1758506Y306224D01*
X1753508D01*
X1748510Y301226D01*
Y286231D01*
X1613750Y716000D02*
X1598515D01*
Y723617D01*
X1601054Y726157D01*
X1606132D01*
X1608672Y723617D01*
Y716000D01*
Y721078D02*
X1613750Y726157D01*
X1598515Y741392D02*
Y731235D01*
X1606132D01*
X1603593Y736313D01*
Y738853D01*
X1606132Y741392D01*
X1611211D01*
X1613750Y738853D01*
Y733774D01*
X1611211Y731235D01*
X1658735Y950383D02*
Y955461D01*
X1656196Y958000D01*
X1646039D01*
X1643500Y955461D01*
Y950383D01*
X1646039Y947843D01*
X1656196D01*
X1658735Y950383D01*
X1656196Y932608D02*
X1658735Y935147D01*
Y940226D01*
X1656196Y942765D01*
X1653657D01*
X1651118Y940226D01*
Y935147D01*
X1648578Y932608D01*
X1646039D01*
X1643500Y935147D01*
Y940226D01*
X1646039Y942765D01*
X1656196Y917373D02*
X1658735Y919912D01*
Y924991D01*
X1656196Y927530D01*
X1646039D01*
X1643500Y924991D01*
Y919912D01*
X1646039Y917373D01*
X1647250Y716000D02*
X1632015D01*
Y723617D01*
X1634554Y726157D01*
X1639632D01*
X1642171Y723617D01*
Y716000D01*
Y721078D02*
X1647250Y726157D01*
X1634554Y731235D02*
X1632015Y733774D01*
Y738853D01*
X1634554Y741392D01*
X1637093D01*
X1639632Y738853D01*
X1642171Y741392D01*
X1644711D01*
X1647250Y738853D01*
Y733774D01*
X1644711Y731235D01*
X1642171D01*
X1639632Y733774D01*
X1637093Y731235D01*
X1634554D01*
X1639632Y733774D02*
Y738853D01*
X1540250Y716000D02*
X1525015D01*
Y723617D01*
X1527554Y726157D01*
X1532632D01*
X1535172Y723617D01*
Y716000D01*
Y721078D02*
X1540250Y726157D01*
X1537711Y731235D02*
X1540250Y733774D01*
Y738853D01*
X1537711Y741392D01*
X1527554D01*
X1525015Y738853D01*
Y733774D01*
X1527554Y731235D01*
X1530093D01*
X1532632Y733774D01*
Y741392D01*
X1578750Y703304D02*
X1563515D01*
Y710922D01*
X1566054Y713461D01*
X1571132D01*
X1573672Y710922D01*
Y703304D01*
Y708382D02*
X1578750Y713461D01*
Y718539D02*
Y723617D01*
Y721078D01*
X1563515D01*
X1566054Y718539D01*
Y731235D02*
X1563515Y733774D01*
Y738853D01*
X1566054Y741392D01*
X1576211D01*
X1578750Y738853D01*
Y733774D01*
X1576211Y731235D01*
X1566054D01*
X780657Y242446D02*
X778118Y244985D01*
X773039D01*
X770500Y242446D01*
Y232289D01*
X773039Y229750D01*
X778118D01*
X780657Y232289D01*
X793353Y229750D02*
Y244985D01*
X785735Y237367D01*
X795892D01*
X781907Y306946D02*
X779368Y309485D01*
X774289D01*
X771750Y306946D01*
Y296789D01*
X774289Y294250D01*
X779368D01*
X781907Y296789D01*
X797142Y309485D02*
X792063Y306946D01*
X786985Y301868D01*
Y296789D01*
X789524Y294250D01*
X794603D01*
X797142Y296789D01*
Y299328D01*
X794603Y301868D01*
X786985D01*
X1102382Y493744D02*
X1104921Y496283D01*
X1109999D01*
X1112539Y493744D01*
Y483587D01*
X1109999Y481048D01*
X1104921D01*
X1102382Y483587D01*
Y493744D01*
X1117617Y496283D02*
Y486126D01*
X1122695Y481048D01*
X1127774Y486126D01*
Y496283D01*
X1132852Y483587D02*
X1135391Y481048D01*
X1140470D01*
X1143009Y483587D01*
Y493744D01*
X1140470Y496283D01*
X1135391D01*
X1132852Y493744D01*
Y491205D01*
X1135391Y488666D01*
X1143009D01*
X1359157Y574196D02*
X1356617Y576735D01*
X1351539D01*
X1349000Y574196D01*
Y564039D01*
X1351539Y561500D01*
X1356617D01*
X1359157Y564039D01*
X1374392Y561500D02*
X1364235D01*
X1374392Y571657D01*
Y574196D01*
X1371853Y576735D01*
X1366774D01*
X1364235Y574196D01*
X1389627Y576735D02*
X1384548Y574196D01*
X1379470Y569118D01*
Y564039D01*
X1382009Y561500D01*
X1387088D01*
X1389627Y564039D01*
Y566578D01*
X1387088Y569118D01*
X1379470D01*
X1360407Y597446D02*
X1357867Y599985D01*
X1352789D01*
X1350250Y597446D01*
Y587289D01*
X1352789Y584750D01*
X1357867D01*
X1360407Y587289D01*
X1375642Y584750D02*
X1365485D01*
X1375642Y594907D01*
Y597446D01*
X1373103Y599985D01*
X1368024D01*
X1365485Y597446D01*
X1380720Y599985D02*
X1390877D01*
Y597446D01*
X1380720Y587289D01*
Y584750D01*
X1069071Y368502D02*
X1066532Y371041D01*
X1061453D01*
X1058914Y368502D01*
Y358345D01*
X1061453Y355806D01*
X1066532D01*
X1069071Y358345D01*
X1074149Y368502D02*
X1076688Y371041D01*
X1081767D01*
X1084306Y368502D01*
Y365963D01*
X1081767Y363424D01*
X1079227D01*
X1081767D01*
X1084306Y360884D01*
Y358345D01*
X1081767Y355806D01*
X1076688D01*
X1074149Y358345D01*
X1089384Y368502D02*
X1091923Y371041D01*
X1097002D01*
X1099541Y368502D01*
Y365963D01*
X1097002Y363424D01*
X1099541Y360884D01*
Y358345D01*
X1097002Y355806D01*
X1091923D01*
X1089384Y358345D01*
Y360884D01*
X1091923Y363424D01*
X1089384Y365963D01*
Y368502D01*
X1091923Y363424D02*
X1097002D01*
X895054Y123407D02*
X892515Y120868D01*
Y115789D01*
X895054Y113250D01*
X905211D01*
X907750Y115789D01*
Y120868D01*
X905211Y123407D01*
X895054Y128485D02*
X892515Y131024D01*
Y136103D01*
X895054Y138642D01*
X897593D01*
X900133Y136103D01*
Y133563D01*
Y136103D01*
X902672Y138642D01*
X905211D01*
X907750Y136103D01*
Y131024D01*
X905211Y128485D01*
Y143720D02*
X907750Y146259D01*
Y151338D01*
X905211Y153877D01*
X895054D01*
X892515Y151338D01*
Y146259D01*
X895054Y143720D01*
X897593D01*
X900133Y146259D01*
Y153877D01*
X824227Y303018D02*
X821687Y305557D01*
X816609D01*
X814070Y303018D01*
Y292861D01*
X816609Y290322D01*
X821687D01*
X824227Y292861D01*
X836923Y290322D02*
Y305557D01*
X829305Y297939D01*
X839462D01*
X844540Y303018D02*
X847079Y305557D01*
X852158D01*
X854697Y303018D01*
Y292861D01*
X852158Y290322D01*
X847079D01*
X844540Y292861D01*
Y303018D01*
X959871Y306764D02*
X957331Y309303D01*
X952253D01*
X949714Y306764D01*
Y296607D01*
X952253Y294068D01*
X957331D01*
X959871Y296607D01*
X972567Y294068D02*
Y309303D01*
X964949Y301686D01*
X975106D01*
X980184Y294068D02*
X985263D01*
X982723D01*
Y309303D01*
X980184Y306764D01*
X550316Y405561D02*
Y390326D01*
X557934D01*
X560473Y392865D01*
Y403022D01*
X557934Y405561D01*
X550316D01*
X565551Y390326D02*
X570629D01*
X568090D01*
Y405561D01*
X565551Y403022D01*
X665604Y164867D02*
Y149632D01*
X673222D01*
X675761Y152171D01*
Y162328D01*
X673222Y164867D01*
X665604D01*
X690996D02*
X680839D01*
Y157249D01*
X685917Y159789D01*
X688457D01*
X690996Y157249D01*
Y152171D01*
X688457Y149632D01*
X683378D01*
X680839Y152171D01*
X1082054Y124157D02*
X1079515Y121617D01*
Y116539D01*
X1082054Y114000D01*
X1092211D01*
X1094750Y116539D01*
Y121617D01*
X1092211Y124157D01*
X1094750Y136853D02*
X1079515D01*
X1087132Y129235D01*
Y139392D01*
X1094750Y154627D02*
Y144470D01*
X1084593Y154627D01*
X1082054D01*
X1079515Y152088D01*
Y147009D01*
X1082054Y144470D01*
X1194764Y1003407D02*
X1192225Y1000867D01*
Y995789D01*
X1194764Y993250D01*
X1204921D01*
X1207460Y995789D01*
Y1000867D01*
X1204921Y1003407D01*
X1192225Y1018642D02*
Y1008485D01*
X1199843D01*
X1197303Y1013563D01*
Y1016103D01*
X1199843Y1018642D01*
X1204921D01*
X1207460Y1016103D01*
Y1011024D01*
X1204921Y1008485D01*
X1194764Y1023720D02*
X1192225Y1026259D01*
Y1031338D01*
X1194764Y1033877D01*
X1197303D01*
X1199843Y1031338D01*
Y1028799D01*
Y1031338D01*
X1202382Y1033877D01*
X1204921D01*
X1207460Y1031338D01*
Y1026259D01*
X1204921Y1023720D01*
X1245974Y1003407D02*
X1243435Y1000867D01*
Y995789D01*
X1245974Y993250D01*
X1256131D01*
X1258670Y995789D01*
Y1000867D01*
X1256131Y1003407D01*
X1243435Y1018642D02*
Y1008485D01*
X1251052D01*
X1248513Y1013563D01*
Y1016103D01*
X1251052Y1018642D01*
X1256131D01*
X1258670Y1016103D01*
Y1011024D01*
X1256131Y1008485D01*
X1258670Y1031338D02*
X1243435D01*
X1251052Y1023720D01*
Y1033877D01*
X1297184Y1003407D02*
X1294645Y1000867D01*
Y995789D01*
X1297184Y993250D01*
X1307341D01*
X1309880Y995789D01*
Y1000867D01*
X1307341Y1003407D01*
X1294645Y1018642D02*
Y1008485D01*
X1302263D01*
X1299723Y1013563D01*
Y1016103D01*
X1302263Y1018642D01*
X1307341D01*
X1309880Y1016103D01*
Y1011024D01*
X1307341Y1008485D01*
X1294645Y1033877D02*
Y1023720D01*
X1302263D01*
X1299723Y1028799D01*
Y1031338D01*
X1302263Y1033877D01*
X1307341D01*
X1309880Y1031338D01*
Y1026259D01*
X1307341Y1023720D01*
X1418657Y872447D02*
X1416118Y874986D01*
X1411039D01*
X1408500Y872447D01*
Y862290D01*
X1411039Y859751D01*
X1416118D01*
X1418657Y862290D01*
X1433892Y874986D02*
X1423735D01*
Y867369D01*
X1428813Y869908D01*
X1431353D01*
X1433892Y867369D01*
Y862290D01*
X1431353Y859751D01*
X1426274D01*
X1423735Y862290D01*
X1449127Y874986D02*
X1444048Y872447D01*
X1438970Y867369D01*
Y862290D01*
X1441509Y859751D01*
X1446588D01*
X1449127Y862290D01*
Y864829D01*
X1446588Y867369D01*
X1438970D01*
X1418657Y825449D02*
X1416118Y827989D01*
X1411039D01*
X1408500Y825449D01*
Y815293D01*
X1411039Y812754D01*
X1416118D01*
X1418657Y815293D01*
X1433892Y827989D02*
X1423735D01*
Y820371D01*
X1428813Y822910D01*
X1431353D01*
X1433892Y820371D01*
Y815293D01*
X1431353Y812754D01*
X1426274D01*
X1423735Y815293D01*
X1438970Y827989D02*
X1449127D01*
Y825449D01*
X1438970Y815293D01*
Y812754D01*
X1418657Y800201D02*
X1416118Y802740D01*
X1411039D01*
X1408500Y800201D01*
Y790044D01*
X1411039Y787505D01*
X1416118D01*
X1418657Y790044D01*
X1433892Y802740D02*
X1423735D01*
Y795122D01*
X1428813Y797661D01*
X1431353D01*
X1433892Y795122D01*
Y790044D01*
X1431353Y787505D01*
X1426274D01*
X1423735Y790044D01*
X1438970Y800201D02*
X1441509Y802740D01*
X1446588D01*
X1449127Y800201D01*
Y797661D01*
X1446588Y795122D01*
X1449127Y792583D01*
Y790044D01*
X1446588Y787505D01*
X1441509D01*
X1438970Y790044D01*
Y792583D01*
X1441509Y795122D01*
X1438970Y797661D01*
Y800201D01*
X1441509Y795122D02*
X1446588D01*
X1033407Y864696D02*
X1030867Y867235D01*
X1025789D01*
X1023250Y864696D01*
Y854539D01*
X1025789Y852000D01*
X1030867D01*
X1033407Y854539D01*
X1048642Y867235D02*
X1038485D01*
Y859617D01*
X1043563Y862157D01*
X1046103D01*
X1048642Y859617D01*
Y854539D01*
X1046103Y852000D01*
X1041024D01*
X1038485Y854539D01*
X1053720D02*
X1056259Y852000D01*
X1061338D01*
X1063877Y854539D01*
Y864696D01*
X1061338Y867235D01*
X1056259D01*
X1053720Y864696D01*
Y862157D01*
X1056259Y859617D01*
X1063877D01*
X1034407Y793946D02*
X1031868Y796485D01*
X1026789D01*
X1024250Y793946D01*
Y783789D01*
X1026789Y781250D01*
X1031868D01*
X1034407Y783789D01*
X1049642Y796485D02*
X1044563Y793946D01*
X1039485Y788867D01*
Y783789D01*
X1042024Y781250D01*
X1047103D01*
X1049642Y783789D01*
Y786328D01*
X1047103Y788867D01*
X1039485D01*
X1054720Y793946D02*
X1057259Y796485D01*
X1062338D01*
X1064877Y793946D01*
Y783789D01*
X1062338Y781250D01*
X1057259D01*
X1054720Y783789D01*
Y793946D01*
X1037407Y843196D02*
X1034867Y845735D01*
X1029789D01*
X1027250Y843196D01*
Y833039D01*
X1029789Y830500D01*
X1034867D01*
X1037407Y833039D01*
X1052642Y845735D02*
X1047563Y843196D01*
X1042485Y838118D01*
Y833039D01*
X1045024Y830500D01*
X1050103D01*
X1052642Y833039D01*
Y835578D01*
X1050103Y838118D01*
X1042485D01*
X1057720Y830500D02*
X1062798D01*
X1060259D01*
Y845735D01*
X1057720Y843196D01*
X1143554Y1003407D02*
X1141015Y1000867D01*
Y995789D01*
X1143554Y993250D01*
X1153711D01*
X1156250Y995789D01*
Y1000867D01*
X1153711Y1003407D01*
X1141015Y1018642D02*
X1143554Y1013563D01*
X1148632Y1008485D01*
X1153711D01*
X1156250Y1011024D01*
Y1016103D01*
X1153711Y1018642D01*
X1151172D01*
X1148632Y1016103D01*
Y1008485D01*
X1156250Y1033877D02*
Y1023720D01*
X1146093Y1033877D01*
X1143554D01*
X1141015Y1031338D01*
Y1026259D01*
X1143554Y1023720D01*
X537500Y242750D02*
Y257985D01*
X545117D01*
X547657Y255446D01*
Y250368D01*
X545117Y247828D01*
X537500D01*
X560353Y257985D02*
X555274D01*
X552735Y255446D01*
Y245289D01*
X555274Y242750D01*
X560353D01*
X562892Y245289D01*
Y255446D01*
X560353Y257985D01*
X567970D02*
Y242750D01*
X573049Y247828D01*
X578127Y242750D01*
Y257985D01*
X593362D02*
X583205D01*
Y250368D01*
X588284Y252907D01*
X590823D01*
X593362Y250368D01*
Y245289D01*
X590823Y242750D01*
X585744D01*
X583205Y245289D01*
X598440Y257985D02*
Y247828D01*
X603519Y242750D01*
X608597Y247828D01*
Y257985D01*
X535250Y188000D02*
Y203235D01*
X542868D01*
X545407Y200696D01*
Y195618D01*
X542868Y193078D01*
X535250D01*
X558103Y203235D02*
X553024D01*
X550485Y200696D01*
Y190539D01*
X553024Y188000D01*
X558103D01*
X560642Y190539D01*
Y200696D01*
X558103Y203235D01*
X565720D02*
Y188000D01*
X570798Y193078D01*
X575877Y188000D01*
Y203235D01*
X591112Y200696D02*
X588573Y203235D01*
X583494D01*
X580955Y200696D01*
Y190539D01*
X583494Y188000D01*
X588573D01*
X591112Y190539D01*
Y195618D01*
X586034D01*
X596190Y188000D02*
Y203235D01*
X606347Y188000D01*
Y203235D01*
X611425D02*
Y188000D01*
X619043D01*
X621582Y190539D01*
Y200696D01*
X619043Y203235D01*
X611425D01*
X1797000Y962735D02*
Y950039D01*
X1799539Y947500D01*
X1804617D01*
X1807157Y950039D01*
Y962735D01*
X1812235Y947500D02*
X1817313D01*
X1814774D01*
Y962735D01*
X1812235Y960196D01*
X1824931D02*
X1827470Y962735D01*
X1832549D01*
X1835088Y960196D01*
Y950039D01*
X1832549Y947500D01*
X1827470D01*
X1824931Y950039D01*
Y960196D01*
X687657Y422696D02*
X685117Y425235D01*
X680039D01*
X677500Y422696D01*
Y412539D01*
X680039Y410000D01*
X685117D01*
X687657Y412539D01*
Y417617D01*
X682578D01*
X692735Y410000D02*
Y425235D01*
X702892Y410000D01*
Y425235D01*
X707970D02*
Y410000D01*
X715588D01*
X718127Y412539D01*
Y422696D01*
X715588Y425235D01*
X707970D01*
X687657Y447696D02*
X685117Y450235D01*
X680039D01*
X677500Y447696D01*
Y437539D01*
X680039Y435000D01*
X685117D01*
X687657Y437539D01*
Y442617D01*
X682578D01*
X692735Y435000D02*
Y450235D01*
X702892Y435000D01*
Y450235D01*
X707970D02*
Y435000D01*
X715588D01*
X718127Y437539D01*
Y447696D01*
X715588Y450235D01*
X707970D01*
X677500Y472696D02*
X680039Y475235D01*
X685117D01*
X687657Y472696D01*
Y470157D01*
X685117Y467617D01*
X682578D01*
X685117D01*
X687657Y465078D01*
Y462539D01*
X685117Y460000D01*
X680039D01*
X677500Y462539D01*
X692735Y475235D02*
Y465078D01*
X697813Y460000D01*
X702892Y465078D01*
Y475235D01*
X707970Y472696D02*
X710509Y475235D01*
X715588D01*
X718127Y472696D01*
Y470157D01*
X715588Y467617D01*
X713048D01*
X715588D01*
X718127Y465078D01*
Y462539D01*
X715588Y460000D01*
X710509D01*
X707970Y462539D01*
X677500Y497696D02*
X680039Y500235D01*
X685117D01*
X687657Y497696D01*
Y495157D01*
X685117Y492617D01*
X682578D01*
X685117D01*
X687657Y490078D01*
Y487539D01*
X685117Y485000D01*
X680039D01*
X677500Y487539D01*
X692735Y500235D02*
Y490078D01*
X697813Y485000D01*
X702892Y490078D01*
Y500235D01*
X707970Y497696D02*
X710509Y500235D01*
X715588D01*
X718127Y497696D01*
Y495157D01*
X715588Y492617D01*
X713048D01*
X715588D01*
X718127Y490078D01*
Y487539D01*
X715588Y485000D01*
X710509D01*
X707970Y487539D01*
X1579804Y1254500D02*
X1577265Y1257039D01*
Y1262117D01*
X1579804Y1264657D01*
X1582343D01*
X1584883Y1262117D01*
Y1259578D01*
Y1262117D01*
X1587422Y1264657D01*
X1589961D01*
X1592500Y1262117D01*
Y1257039D01*
X1589961Y1254500D01*
X1577265Y1269735D02*
X1587422D01*
X1592500Y1274813D01*
X1587422Y1279892D01*
X1577265D01*
X1579804Y1284970D02*
X1577265Y1287509D01*
Y1292588D01*
X1579804Y1295127D01*
X1582343D01*
X1584883Y1292588D01*
Y1290049D01*
Y1292588D01*
X1587422Y1295127D01*
X1589961D01*
X1592500Y1292588D01*
Y1287509D01*
X1589961Y1284970D01*
X1604804Y1254500D02*
X1602265Y1257039D01*
Y1262117D01*
X1604804Y1264657D01*
X1607343D01*
X1609883Y1262117D01*
Y1259578D01*
Y1262117D01*
X1612422Y1264657D01*
X1614961D01*
X1617500Y1262117D01*
Y1257039D01*
X1614961Y1254500D01*
X1602265Y1269735D02*
X1612422D01*
X1617500Y1274813D01*
X1612422Y1279892D01*
X1602265D01*
X1604804Y1284970D02*
X1602265Y1287509D01*
Y1292588D01*
X1604804Y1295127D01*
X1607343D01*
X1609883Y1292588D01*
Y1290049D01*
Y1292588D01*
X1612422Y1295127D01*
X1614961D01*
X1617500Y1292588D01*
Y1287509D01*
X1614961Y1284970D01*
X1629804Y1152907D02*
X1627265Y1150368D01*
Y1145289D01*
X1629804Y1142750D01*
X1639961D01*
X1642500Y1145289D01*
Y1150368D01*
X1639961Y1152907D01*
X1634883D01*
Y1147828D01*
X1642500Y1157985D02*
X1627265D01*
X1642500Y1168142D01*
X1627265D01*
Y1173220D02*
X1642500D01*
Y1180838D01*
X1639961Y1183377D01*
X1629804D01*
X1627265Y1180838D01*
Y1173220D01*
X1629804Y1264657D02*
X1627265Y1262117D01*
Y1257039D01*
X1629804Y1254500D01*
X1639961D01*
X1642500Y1257039D01*
Y1262117D01*
X1639961Y1264657D01*
X1634883D01*
Y1259578D01*
X1642500Y1269735D02*
X1627265D01*
X1642500Y1279892D01*
X1627265D01*
Y1284970D02*
X1642500D01*
Y1292588D01*
X1639961Y1295127D01*
X1629804D01*
X1627265Y1292588D01*
Y1284970D01*
X1692500Y776946D02*
X1695039Y779485D01*
X1700117D01*
X1702657Y776946D01*
Y774407D01*
X1700117Y771868D01*
X1697578D01*
X1700117D01*
X1702657Y769328D01*
Y766789D01*
X1700117Y764250D01*
X1695039D01*
X1692500Y766789D01*
X1707735Y779485D02*
Y769328D01*
X1712813Y764250D01*
X1717892Y769328D01*
Y779485D01*
X1722970Y776946D02*
X1725509Y779485D01*
X1730588D01*
X1733127Y776946D01*
Y774407D01*
X1730588Y771868D01*
X1728049D01*
X1730588D01*
X1733127Y769328D01*
Y766789D01*
X1730588Y764250D01*
X1725509D01*
X1722970Y766789D01*
X1685750Y804446D02*
X1688289Y806985D01*
X1693367D01*
X1695907Y804446D01*
Y801907D01*
X1693367Y799368D01*
X1690828D01*
X1693367D01*
X1695907Y796828D01*
Y794289D01*
X1693367Y791750D01*
X1688289D01*
X1685750Y794289D01*
X1700985Y806985D02*
Y796828D01*
X1706063Y791750D01*
X1711142Y796828D01*
Y806985D01*
X1716220Y804446D02*
X1718759Y806985D01*
X1723838D01*
X1726377Y804446D01*
Y801907D01*
X1723838Y799368D01*
X1721299D01*
X1723838D01*
X1726377Y796828D01*
Y794289D01*
X1723838Y791750D01*
X1718759D01*
X1716220Y794289D01*
X1685750Y829446D02*
X1688289Y831985D01*
X1693367D01*
X1695907Y829446D01*
Y826907D01*
X1693367Y824368D01*
X1690828D01*
X1693367D01*
X1695907Y821828D01*
Y819289D01*
X1693367Y816750D01*
X1688289D01*
X1685750Y819289D01*
X1700985Y831985D02*
Y821828D01*
X1706063Y816750D01*
X1711142Y821828D01*
Y831985D01*
X1716220Y829446D02*
X1718759Y831985D01*
X1723838D01*
X1726377Y829446D01*
Y826907D01*
X1723838Y824368D01*
X1721299D01*
X1723838D01*
X1726377Y821828D01*
Y819289D01*
X1723838Y816750D01*
X1718759D01*
X1716220Y819289D01*
X1792500Y452962D02*
Y437727D01*
Y445345D01*
X1802657D01*
Y452962D01*
Y437727D01*
X1807735Y450423D02*
X1810274Y452962D01*
X1815353D01*
X1817892Y450423D01*
Y447884D01*
X1815353Y445345D01*
X1817892Y442806D01*
Y440266D01*
X1815353Y437727D01*
X1810274D01*
X1807735Y440266D01*
Y442806D01*
X1810274Y445345D01*
X1807735Y447884D01*
Y450423D01*
X1810274Y445345D02*
X1815353D01*
X1707000Y448235D02*
Y433000D01*
X1717157D01*
X1732392D02*
X1722235D01*
X1732392Y443157D01*
Y445696D01*
X1729853Y448235D01*
X1724774D01*
X1722235Y445696D01*
X1704907Y551735D02*
X1699828D01*
X1702368D01*
Y539039D01*
X1699828Y536500D01*
X1697289D01*
X1694750Y539039D01*
X1709985Y536500D02*
X1715063D01*
X1712524D01*
Y551735D01*
X1709985Y549196D01*
X1722681D02*
X1725220Y551735D01*
X1730298D01*
X1732838Y549196D01*
Y539039D01*
X1730298Y536500D01*
X1725220D01*
X1722681Y539039D01*
Y549196D01*
X1802657Y579099D02*
X1797578D01*
X1800117D01*
Y566403D01*
X1797578Y563863D01*
X1795039D01*
X1792500Y566403D01*
X1807735Y563863D02*
X1812813D01*
X1810274D01*
Y579099D01*
X1807735Y576559D01*
X1820431Y563863D02*
X1825509D01*
X1822970D01*
Y579099D01*
X1820431Y576559D01*
X1691250Y602235D02*
Y587000D01*
Y594618D01*
X1701407D01*
Y602235D01*
Y587000D01*
X1706485D02*
X1711563D01*
X1709024D01*
Y602235D01*
X1706485Y599696D01*
X1719181D02*
X1721720Y602235D01*
X1726799D01*
X1729338Y599696D01*
Y589539D01*
X1726799Y587000D01*
X1721720D01*
X1719181Y589539D01*
Y599696D01*
X1792500Y604326D02*
Y589091D01*
Y596708D01*
X1802657D01*
Y604326D01*
Y589091D01*
X1807735D02*
X1812813D01*
X1810274D01*
Y604326D01*
X1807735Y601787D01*
X1820431Y589091D02*
X1825509D01*
X1822970D01*
Y604326D01*
X1820431Y601787D01*
X1792500Y629553D02*
Y614318D01*
Y621936D01*
X1802657D01*
Y629553D01*
Y614318D01*
X1807735Y616857D02*
X1810274Y614318D01*
X1815353D01*
X1817892Y616857D01*
Y627014D01*
X1815353Y629553D01*
X1810274D01*
X1807735Y627014D01*
Y624475D01*
X1810274Y621936D01*
X1817892D01*
X1704500Y653735D02*
Y638500D01*
Y646117D01*
X1714657D01*
Y653735D01*
Y638500D01*
X1719735Y651196D02*
X1722274Y653735D01*
X1727353D01*
X1729892Y651196D01*
Y648657D01*
X1727353Y646117D01*
X1724813D01*
X1727353D01*
X1729892Y643578D01*
Y641039D01*
X1727353Y638500D01*
X1722274D01*
X1719735Y641039D01*
X1705000Y474985D02*
Y459750D01*
Y464828D01*
X1715157Y474985D01*
X1707539Y467368D01*
X1715157Y459750D01*
X1730392Y474985D02*
X1720235D01*
Y467368D01*
X1725313Y469907D01*
X1727853D01*
X1730392Y467368D01*
Y462289D01*
X1727853Y459750D01*
X1722774D01*
X1720235Y462289D01*
X1802657Y478190D02*
X1797578D01*
X1800117D01*
Y465494D01*
X1797578Y462954D01*
X1795039D01*
X1792500Y465494D01*
X1817892Y478190D02*
X1812813Y475650D01*
X1807735Y470572D01*
Y465494D01*
X1810274Y462954D01*
X1815353D01*
X1817892Y465494D01*
Y468033D01*
X1815353Y470572D01*
X1807735D01*
X1711395Y425235D02*
Y410000D01*
Y415078D01*
X1721552Y425235D01*
X1713934Y417617D01*
X1721552Y410000D01*
X1726630D02*
X1731708D01*
X1729169D01*
Y425235D01*
X1726630Y422696D01*
X1792500Y427735D02*
Y412500D01*
X1802657D01*
X1807735D02*
X1812813D01*
X1810274D01*
Y427735D01*
X1807735Y425196D01*
X1797500Y1097500D02*
Y1112735D01*
X1802578Y1107657D01*
X1807657Y1112735D01*
Y1097500D01*
X1812735D02*
X1817813D01*
X1815274D01*
Y1112735D01*
X1812735Y1110196D01*
X1825431Y1097500D02*
X1830509D01*
X1827970D01*
Y1112735D01*
X1825431Y1110196D01*
X1797500Y1072500D02*
Y1087735D01*
X1805117D01*
X1807657Y1085196D01*
Y1080117D01*
X1805117Y1077578D01*
X1797500D01*
X1812735Y1072500D02*
X1817813D01*
X1815274D01*
Y1087735D01*
X1812735Y1085196D01*
X1835588Y1072500D02*
X1825431D01*
X1835588Y1082657D01*
Y1085196D01*
X1833049Y1087735D01*
X1827970D01*
X1825431Y1085196D01*
X1797500Y1047500D02*
Y1062735D01*
X1807657Y1047500D01*
Y1062735D01*
X1812735Y1047500D02*
X1817813D01*
X1815274D01*
Y1062735D01*
X1812735Y1060196D01*
X1825431Y1047500D02*
X1830509D01*
X1827970D01*
Y1062735D01*
X1825431Y1060196D01*
X1797500Y1022500D02*
Y1037735D01*
X1807657Y1022500D01*
Y1037735D01*
X1812735Y1022500D02*
X1817813D01*
X1815274D01*
Y1037735D01*
X1812735Y1035196D01*
X1825431D02*
X1827970Y1037735D01*
X1833049D01*
X1835588Y1035196D01*
Y1025039D01*
X1833049Y1022500D01*
X1827970D01*
X1825431Y1025039D01*
Y1035196D01*
X1797500Y997500D02*
Y1012735D01*
X1805117D01*
X1807657Y1010196D01*
Y1005117D01*
X1805117Y1002578D01*
X1797500D01*
X1812735Y997500D02*
X1817813D01*
X1815274D01*
Y1012735D01*
X1812735Y1010196D01*
X1825431Y997500D02*
X1830509D01*
X1827970D01*
Y1012735D01*
X1825431Y1010196D01*
X1797500Y972500D02*
Y987735D01*
X1805117D01*
X1807657Y985196D01*
Y980117D01*
X1805117Y977578D01*
X1797500D01*
X1812735Y985196D02*
X1815274Y987735D01*
X1820353D01*
X1822892Y985196D01*
Y982657D01*
X1820353Y980117D01*
X1822892Y977578D01*
Y975039D01*
X1820353Y972500D01*
X1815274D01*
X1812735Y975039D01*
Y977578D01*
X1815274Y980117D01*
X1812735Y982657D01*
Y985196D01*
X1815274Y980117D02*
X1820353D01*
X1797500Y920000D02*
Y935235D01*
X1805117D01*
X1807657Y932696D01*
Y927617D01*
X1805117Y925078D01*
X1797500D01*
X1822892Y920000D02*
X1812735D01*
X1822892Y930157D01*
Y932696D01*
X1820353Y935235D01*
X1815274D01*
X1812735Y932696D01*
X1797500Y910235D02*
Y897539D01*
X1800039Y895000D01*
X1805117D01*
X1807657Y897539D01*
Y910235D01*
X1822892Y895000D02*
X1812735D01*
X1822892Y905157D01*
Y907696D01*
X1820353Y910235D01*
X1815274D01*
X1812735Y907696D01*
X1797500Y882735D02*
X1807657D01*
X1802578D01*
Y867500D01*
X1812735D02*
X1817813D01*
X1815274D01*
Y882735D01*
X1812735Y880196D01*
X1705750Y841750D02*
Y856985D01*
X1713367D01*
X1715907Y854446D01*
Y849368D01*
X1713367Y846828D01*
X1705750D01*
X1720985Y841750D02*
X1726063D01*
X1723524D01*
Y856985D01*
X1720985Y854446D01*
X1705750Y881985D02*
Y869289D01*
X1708289Y866750D01*
X1713367D01*
X1715907Y869289D01*
Y881985D01*
X1720985Y866750D02*
X1726063D01*
X1723524D01*
Y881985D01*
X1720985Y879446D01*
X1698500Y907985D02*
X1708657D01*
X1703578D01*
Y892750D01*
X1723892D02*
X1713735D01*
X1723892Y902907D01*
Y905446D01*
X1721353Y907985D01*
X1716274D01*
X1713735Y905446D01*
X1698500Y920250D02*
Y935485D01*
X1706118D01*
X1708657Y932946D01*
Y927868D01*
X1706118Y925328D01*
X1698500D01*
X1713735Y932946D02*
X1716274Y935485D01*
X1721353D01*
X1723892Y932946D01*
Y930407D01*
X1721353Y927868D01*
X1718813D01*
X1721353D01*
X1723892Y925328D01*
Y922789D01*
X1721353Y920250D01*
X1716274D01*
X1713735Y922789D01*
X1690000Y960235D02*
X1700157D01*
X1695078D01*
Y945000D01*
X1705235D02*
X1710313D01*
X1707774D01*
Y960235D01*
X1705235Y957696D01*
X1717931Y945000D02*
X1723009D01*
X1720470D01*
Y960235D01*
X1717931Y957696D01*
X1690000Y985235D02*
Y975078D01*
X1695078Y970000D01*
X1700157Y975078D01*
Y985235D01*
X1705235Y970000D02*
X1710313D01*
X1707774D01*
Y985235D01*
X1705235Y982696D01*
X1728088Y970000D02*
X1717931D01*
X1728088Y980157D01*
Y982696D01*
X1725549Y985235D01*
X1720470D01*
X1717931Y982696D01*
X1690000Y1007735D02*
Y992500D01*
X1700157D01*
X1705235D02*
X1710313D01*
X1707774D01*
Y1007735D01*
X1705235Y1005196D01*
X1728088Y1007735D02*
X1723009Y1005196D01*
X1717931Y1000117D01*
Y995039D01*
X1720470Y992500D01*
X1725549D01*
X1728088Y995039D01*
Y997578D01*
X1725549Y1000117D01*
X1717931D01*
X1690000Y1032735D02*
X1700157D01*
X1695078D01*
Y1017500D01*
X1705235D02*
X1710313D01*
X1707774D01*
Y1032735D01*
X1705235Y1030196D01*
X1717931D02*
X1720470Y1032735D01*
X1725549D01*
X1728088Y1030196D01*
Y1027657D01*
X1725549Y1025117D01*
X1723009D01*
X1725549D01*
X1728088Y1022578D01*
Y1020039D01*
X1725549Y1017500D01*
X1720470D01*
X1717931Y1020039D01*
X1690000Y1057735D02*
X1700157D01*
X1695078D01*
Y1042500D01*
X1705235D02*
X1710313D01*
X1707774D01*
Y1057735D01*
X1705235Y1055196D01*
X1725549Y1042500D02*
Y1057735D01*
X1717931Y1050117D01*
X1728088D01*
X1690000Y1085235D02*
Y1072539D01*
X1692539Y1070000D01*
X1697617D01*
X1700157Y1072539D01*
Y1085235D01*
X1705235Y1070000D02*
X1710313D01*
X1707774D01*
Y1085235D01*
X1705235Y1082696D01*
X1728088Y1085235D02*
X1717931D01*
Y1077617D01*
X1723009Y1080157D01*
X1725549D01*
X1728088Y1077617D01*
Y1072539D01*
X1725549Y1070000D01*
X1720470D01*
X1717931Y1072539D01*
X1690000Y1110235D02*
Y1097539D01*
X1692539Y1095000D01*
X1697617D01*
X1700157Y1097539D01*
Y1110235D01*
X1705235Y1095000D02*
X1710313D01*
X1707774D01*
Y1110235D01*
X1705235Y1107696D01*
X1728088Y1110235D02*
X1723009Y1107696D01*
X1717931Y1102617D01*
Y1097539D01*
X1720470Y1095000D01*
X1725549D01*
X1728088Y1097539D01*
Y1100078D01*
X1725549Y1102617D01*
X1717931D01*
X692500Y1112735D02*
Y1097500D01*
X700117D01*
X702657Y1100039D01*
Y1110196D01*
X700117Y1112735D01*
X692500D01*
X707735Y1097500D02*
X712813D01*
X710274D01*
Y1112735D01*
X707735Y1110196D01*
X728048Y1097500D02*
Y1112735D01*
X720431Y1105117D01*
X730588D01*
X702657Y1084619D02*
X700117Y1087158D01*
X695039D01*
X692500Y1084619D01*
Y1074462D01*
X695039Y1071923D01*
X700117D01*
X702657Y1074462D01*
X707735Y1071923D02*
X712813D01*
X710274D01*
Y1087158D01*
X707735Y1084619D01*
X728048Y1071923D02*
Y1087158D01*
X720431Y1079540D01*
X730588D01*
X702657Y1061581D02*
X692500D01*
Y1053964D01*
X697578D01*
X692500D01*
Y1046346D01*
X707735D02*
X712813D01*
X710274D01*
Y1061581D01*
X707735Y1059042D01*
X720431D02*
X722970Y1061581D01*
X728048D01*
X730588Y1059042D01*
Y1056503D01*
X728048Y1053964D01*
X725509D01*
X728048D01*
X730588Y1051424D01*
Y1048885D01*
X728048Y1046346D01*
X722970D01*
X720431Y1048885D01*
X702657Y1036004D02*
X692500D01*
Y1020769D01*
X702657D01*
X692500Y1028387D02*
X697578D01*
X707735Y1020769D02*
X712813D01*
X710274D01*
Y1036004D01*
X707735Y1033465D01*
X720431D02*
X722970Y1036004D01*
X728048D01*
X730588Y1033465D01*
Y1030926D01*
X728048Y1028387D01*
X725509D01*
X728048D01*
X730588Y1025847D01*
Y1023308D01*
X728048Y1020769D01*
X722970D01*
X720431Y1023308D01*
X702657Y1010427D02*
X692500D01*
Y1002810D01*
X697578D01*
X692500D01*
Y995192D01*
X707735D02*
X712813D01*
X710274D01*
Y1010427D01*
X707735Y1007888D01*
X730588Y995192D02*
X720431D01*
X730588Y1005349D01*
Y1007888D01*
X728048Y1010427D01*
X722970D01*
X720431Y1007888D01*
X692500Y984850D02*
Y969615D01*
X700117D01*
X702657Y972154D01*
Y982311D01*
X700117Y984850D01*
X692500D01*
X707735Y969615D02*
X712813D01*
X710274D01*
Y984850D01*
X707735Y982311D01*
X730588Y969615D02*
X720431D01*
X730588Y979772D01*
Y982311D01*
X728048Y984850D01*
X722970D01*
X720431Y982311D01*
X692500Y959273D02*
Y944038D01*
X700117D01*
X702657Y946578D01*
Y956734D01*
X700117Y959273D01*
X692500D01*
X707735Y944038D02*
X712813D01*
X710274D01*
Y959273D01*
X707735Y956734D01*
X720431Y944038D02*
X725509D01*
X722970D01*
Y959273D01*
X720431Y956734D01*
X702657Y931157D02*
X700117Y933697D01*
X695039D01*
X692500Y931157D01*
Y921001D01*
X695039Y918462D01*
X700117D01*
X702657Y921001D01*
X707735Y918462D02*
X712813D01*
X710274D01*
Y933697D01*
X707735Y931157D01*
X720431Y918462D02*
X725509D01*
X722970D01*
Y933697D01*
X720431Y931157D01*
X702657Y908120D02*
X692500D01*
Y900502D01*
X697578D01*
X692500D01*
Y892885D01*
X707735D02*
X712813D01*
X710274D01*
Y908120D01*
X707735Y905580D01*
X720431Y892885D02*
X725509D01*
X722970D01*
Y908120D01*
X720431Y905580D01*
X702657Y882543D02*
X692500D01*
Y867308D01*
X702657D01*
X692500Y874925D02*
X697578D01*
X707735Y867308D02*
X712813D01*
X710274D01*
Y882543D01*
X707735Y880004D01*
X720431Y867308D02*
X725509D01*
X722970D01*
Y882543D01*
X720431Y880004D01*
X702657Y882543D02*
X692500D01*
Y867308D01*
X702657D01*
X692500Y874925D02*
X697578D01*
X707735Y867308D02*
X712813D01*
X710274D01*
Y882543D01*
X707735Y880004D01*
X720431Y867308D02*
X725509D01*
X722970D01*
Y882543D01*
X720431Y880004D01*
X702657Y854427D02*
X700117Y856966D01*
X695039D01*
X692500Y854427D01*
Y844270D01*
X695039Y841731D01*
X700117D01*
X702657Y844270D01*
Y849348D01*
X697578D01*
X707735Y841731D02*
X712813D01*
X710274D01*
Y856966D01*
X707735Y854427D01*
X720431Y841731D02*
X725509D01*
X722970D01*
Y856966D01*
X720431Y854427D01*
X702657Y831389D02*
X692500D01*
Y823771D01*
X697578D01*
X692500D01*
Y816154D01*
X707735D02*
X712813D01*
X710274D01*
Y831389D01*
X707735Y828850D01*
X720431D02*
X722970Y831389D01*
X728048D01*
X730588Y828850D01*
Y818693D01*
X728048Y816154D01*
X722970D01*
X720431Y818693D01*
Y828850D01*
X692500Y805812D02*
Y790577D01*
X700117D01*
X702657Y793116D01*
Y803273D01*
X700117Y805812D01*
X692500D01*
X707735Y793116D02*
X710274Y790577D01*
X715353D01*
X717892Y793116D01*
Y803273D01*
X715353Y805812D01*
X710274D01*
X707735Y803273D01*
Y800734D01*
X710274Y798194D01*
X717892D01*
X702657Y780235D02*
X692500D01*
Y772617D01*
X697578D01*
X692500D01*
Y765000D01*
X707735Y767539D02*
X710274Y765000D01*
X715353D01*
X717892Y767539D01*
Y777696D01*
X715353Y780235D01*
X710274D01*
X707735Y777696D01*
Y775157D01*
X710274Y772617D01*
X717892D01*
X702657Y727696D02*
X700117Y730235D01*
X695039D01*
X692500Y727696D01*
Y717539D01*
X695039Y715000D01*
X700117D01*
X702657Y717539D01*
X707735D02*
X710274Y715000D01*
X715353D01*
X717892Y717539D01*
Y727696D01*
X715353Y730235D01*
X710274D01*
X707735Y727696D01*
Y725157D01*
X710274Y722617D01*
X717892D01*
X702657Y702071D02*
X700117Y704610D01*
X695039D01*
X692500Y702071D01*
Y691914D01*
X695039Y689375D01*
X700117D01*
X702657Y691914D01*
Y696992D01*
X697578D01*
X707735Y691914D02*
X710274Y689375D01*
X715353D01*
X717892Y691914D01*
Y702071D01*
X715353Y704610D01*
X710274D01*
X707735Y702071D01*
Y699532D01*
X710274Y696992D01*
X717892D01*
X692500Y678985D02*
Y663750D01*
X700117D01*
X702657Y666289D01*
Y676446D01*
X700117Y678985D01*
X692500D01*
X707735Y676446D02*
X710274Y678985D01*
X715353D01*
X717892Y676446D01*
Y673907D01*
X715353Y671367D01*
X717892Y668828D01*
Y666289D01*
X715353Y663750D01*
X710274D01*
X707735Y666289D01*
Y668828D01*
X710274Y671367D01*
X707735Y673907D01*
Y676446D01*
X710274Y671367D02*
X715353D01*
X702657Y650821D02*
X700117Y653360D01*
X695039D01*
X692500Y650821D01*
Y640664D01*
X695039Y638125D01*
X700117D01*
X702657Y640664D01*
X707735Y650821D02*
X710274Y653360D01*
X715353D01*
X717892Y650821D01*
Y648282D01*
X715353Y645742D01*
X717892Y643203D01*
Y640664D01*
X715353Y638125D01*
X710274D01*
X707735Y640664D01*
Y643203D01*
X710274Y645742D01*
X707735Y648282D01*
Y650821D01*
X710274Y645742D02*
X715353D01*
X702657Y625196D02*
X700117Y627735D01*
X695039D01*
X692500Y625196D01*
Y615039D01*
X695039Y612500D01*
X700117D01*
X702657Y615039D01*
X717892Y627735D02*
X712813Y625196D01*
X707735Y620117D01*
Y615039D01*
X710274Y612500D01*
X715353D01*
X717892Y615039D01*
Y617578D01*
X715353Y620117D01*
X707735D01*
X692500Y602110D02*
Y586875D01*
X700117D01*
X702657Y589414D01*
Y599571D01*
X700117Y602110D01*
X692500D01*
X717892D02*
X712813Y599571D01*
X707735Y594492D01*
Y589414D01*
X710274Y586875D01*
X715353D01*
X717892Y589414D01*
Y591953D01*
X715353Y594492D01*
X707735D01*
X702657Y573946D02*
X700117Y576485D01*
X695039D01*
X692500Y573946D01*
Y563789D01*
X695039Y561250D01*
X700117D01*
X702657Y563789D01*
X715353Y561250D02*
Y576485D01*
X707735Y568867D01*
X717892D01*
X692500Y550860D02*
Y535625D01*
X700117D01*
X702657Y538164D01*
Y540703D01*
X700117Y543242D01*
X692500D01*
X700117D01*
X702657Y545782D01*
Y548321D01*
X700117Y550860D01*
X692500D01*
X707735Y548321D02*
X710274Y550860D01*
X715353D01*
X717892Y548321D01*
Y545782D01*
X715353Y543242D01*
X712813D01*
X715353D01*
X717892Y540703D01*
Y538164D01*
X715353Y535625D01*
X710274D01*
X707735Y538164D01*
X692500Y525235D02*
Y510000D01*
X700117D01*
X702657Y512539D01*
Y515078D01*
X700117Y517617D01*
X692500D01*
X700117D01*
X702657Y520157D01*
Y522696D01*
X700117Y525235D01*
X692500D01*
X717892Y510000D02*
X707735D01*
X717892Y520157D01*
Y522696D01*
X715353Y525235D01*
X710274D01*
X707735Y522696D01*
X797500Y362500D02*
Y372657D01*
X802578Y377735D01*
X807657Y372657D01*
Y362500D01*
Y370117D01*
X797500D01*
X822892Y362500D02*
X812735D01*
X822892Y372657D01*
Y375196D01*
X820353Y377735D01*
X815274D01*
X812735Y375196D01*
X797500Y403166D02*
Y387931D01*
X805117D01*
X807657Y390470D01*
Y393009D01*
X805117Y395549D01*
X797500D01*
X805117D01*
X807657Y398088D01*
Y400627D01*
X805117Y403166D01*
X797500D01*
X820353Y387931D02*
Y403166D01*
X812735Y395549D01*
X822892D01*
X797500Y413362D02*
Y423519D01*
X802578Y428597D01*
X807657Y423519D01*
Y413362D01*
Y420980D01*
X797500D01*
X812735Y426058D02*
X815274Y428597D01*
X820353D01*
X822892Y426058D01*
Y423519D01*
X820353Y420980D01*
X817813D01*
X820353D01*
X822892Y418440D01*
Y415901D01*
X820353Y413362D01*
X815274D01*
X812735Y415901D01*
X807657Y451489D02*
X805117Y454028D01*
X800039D01*
X797500Y451489D01*
Y441332D01*
X800039Y438793D01*
X805117D01*
X807657Y441332D01*
X822892Y454028D02*
X812735D01*
Y446411D01*
X817813Y448950D01*
X820353D01*
X822892Y446411D01*
Y441332D01*
X820353Y438793D01*
X815274D01*
X812735Y441332D01*
X797500Y464224D02*
Y474381D01*
X802578Y479459D01*
X807657Y474381D01*
Y464224D01*
Y471842D01*
X797500D01*
X820353Y464224D02*
Y479459D01*
X812735Y471842D01*
X822892D01*
X797500Y504890D02*
Y489655D01*
X805117D01*
X807657Y492194D01*
Y494733D01*
X805117Y497273D01*
X797500D01*
X805117D01*
X807657Y499812D01*
Y502351D01*
X805117Y504890D01*
X797500D01*
X822892D02*
X817813Y502351D01*
X812735Y497273D01*
Y492194D01*
X815274Y489655D01*
X820353D01*
X822892Y492194D01*
Y494733D01*
X820353Y497273D01*
X812735D01*
X797500Y515086D02*
Y525243D01*
X802578Y530321D01*
X807657Y525243D01*
Y515086D01*
Y522704D01*
X797500D01*
X822892Y530321D02*
X812735D01*
Y522704D01*
X817813Y525243D01*
X820353D01*
X822892Y522704D01*
Y517625D01*
X820353Y515086D01*
X815274D01*
X812735Y517625D01*
X807657Y553213D02*
X805117Y555752D01*
X800039D01*
X797500Y553213D01*
Y543056D01*
X800039Y540517D01*
X805117D01*
X807657Y543056D01*
X812735Y555752D02*
X822892D01*
Y553213D01*
X812735Y543056D01*
Y540517D01*
X797500Y565948D02*
Y576105D01*
X802578Y581183D01*
X807657Y576105D01*
Y565948D01*
Y573566D01*
X797500D01*
X822892Y581183D02*
X817813Y578644D01*
X812735Y573566D01*
Y568487D01*
X815274Y565948D01*
X820353D01*
X822892Y568487D01*
Y571026D01*
X820353Y573566D01*
X812735D01*
X797500Y606614D02*
Y591379D01*
X805117D01*
X807657Y593918D01*
Y596457D01*
X805117Y598997D01*
X797500D01*
X805117D01*
X807657Y601536D01*
Y604075D01*
X805117Y606614D01*
X797500D01*
X812735Y604075D02*
X815274Y606614D01*
X820353D01*
X822892Y604075D01*
Y601536D01*
X820353Y598997D01*
X822892Y596457D01*
Y593918D01*
X820353Y591379D01*
X815274D01*
X812735Y593918D01*
Y596457D01*
X815274Y598997D01*
X812735Y601536D01*
Y604075D01*
X815274Y598997D02*
X820353D01*
X797500Y616810D02*
Y626967D01*
X802578Y632045D01*
X807657Y626967D01*
Y616810D01*
Y624428D01*
X797500D01*
X812735Y632045D02*
X822892D01*
Y629506D01*
X812735Y619349D01*
Y616810D01*
X797500Y657476D02*
Y642241D01*
X805117D01*
X807657Y644780D01*
Y647319D01*
X805117Y649859D01*
X797500D01*
X805117D01*
X807657Y652398D01*
Y654937D01*
X805117Y657476D01*
X797500D01*
X812735Y644780D02*
X815274Y642241D01*
X820353D01*
X822892Y644780D01*
Y654937D01*
X820353Y657476D01*
X815274D01*
X812735Y654937D01*
Y652398D01*
X815274Y649859D01*
X822892D01*
X797500Y667672D02*
Y677829D01*
X802578Y682907D01*
X807657Y677829D01*
Y667672D01*
Y675290D01*
X797500D01*
X812735Y680368D02*
X815274Y682907D01*
X820353D01*
X822892Y680368D01*
Y677829D01*
X820353Y675290D01*
X822892Y672750D01*
Y670211D01*
X820353Y667672D01*
X815274D01*
X812735Y670211D01*
Y672750D01*
X815274Y675290D01*
X812735Y677829D01*
Y680368D01*
X815274Y675290D02*
X820353D01*
X807657Y705799D02*
X805117Y708338D01*
X800039D01*
X797500Y705799D01*
Y695642D01*
X800039Y693103D01*
X805117D01*
X807657Y695642D01*
X812735Y693103D02*
X817813D01*
X815274D01*
Y708338D01*
X812735Y705799D01*
X825431D02*
X827970Y708338D01*
X833048D01*
X835588Y705799D01*
Y695642D01*
X833048Y693103D01*
X827970D01*
X825431Y695642D01*
Y705799D01*
X797500Y718534D02*
Y728691D01*
X802578Y733769D01*
X807657Y728691D01*
Y718534D01*
Y726152D01*
X797500D01*
X812735Y721073D02*
X815274Y718534D01*
X820353D01*
X822892Y721073D01*
Y731230D01*
X820353Y733769D01*
X815274D01*
X812735Y731230D01*
Y728691D01*
X815274Y726152D01*
X822892D01*
X797500Y759200D02*
Y743965D01*
X805117D01*
X807657Y746504D01*
Y749044D01*
X805117Y751583D01*
X797500D01*
X805117D01*
X807657Y754122D01*
Y756661D01*
X805117Y759200D01*
X797500D01*
X812735Y743965D02*
X817813D01*
X815274D01*
Y759200D01*
X812735Y756661D01*
X825431Y743965D02*
X830509D01*
X827970D01*
Y759200D01*
X825431Y756661D01*
X797500Y769396D02*
Y779553D01*
X802578Y784631D01*
X807657Y779553D01*
Y769396D01*
Y777014D01*
X797500D01*
X812735Y769396D02*
X817813D01*
X815274D01*
Y784631D01*
X812735Y782092D01*
X825431D02*
X827970Y784631D01*
X833048D01*
X835588Y782092D01*
Y771935D01*
X833048Y769396D01*
X827970D01*
X825431Y771935D01*
Y782092D01*
X797500Y810062D02*
Y794827D01*
X805117D01*
X807657Y797366D01*
Y799906D01*
X805117Y802445D01*
X797500D01*
X805117D01*
X807657Y804984D01*
Y807523D01*
X805117Y810062D01*
X797500D01*
X812735Y794827D02*
X817813D01*
X815274D01*
Y810062D01*
X812735Y807523D01*
X835588Y794827D02*
X825431D01*
X835588Y804984D01*
Y807523D01*
X833048Y810062D01*
X827970D01*
X825431Y807523D01*
X797500Y820258D02*
Y830415D01*
X802578Y835493D01*
X807657Y830415D01*
Y820258D01*
Y827876D01*
X797500D01*
X812735Y820258D02*
X817813D01*
X815274D01*
Y835493D01*
X812735Y832954D01*
X825431Y820258D02*
X830509D01*
X827970D01*
Y835493D01*
X825431Y832954D01*
X807657Y858385D02*
X805117Y860924D01*
X800039D01*
X797500Y858385D01*
Y848229D01*
X800039Y845689D01*
X805117D01*
X807657Y848229D01*
X812735Y845689D02*
X817813D01*
X815274D01*
Y860924D01*
X812735Y858385D01*
X825431D02*
X827970Y860924D01*
X833048D01*
X835588Y858385D01*
Y855846D01*
X833048Y853307D01*
X830509D01*
X833048D01*
X835588Y850768D01*
Y848229D01*
X833048Y845689D01*
X827970D01*
X825431Y848229D01*
X807657Y883816D02*
X805117Y886355D01*
X800039D01*
X797500Y883816D01*
Y873660D01*
X800039Y871120D01*
X805117D01*
X807657Y873660D01*
X812735Y871120D02*
X817813D01*
X815274D01*
Y886355D01*
X812735Y883816D01*
X835588Y871120D02*
X825431D01*
X835588Y881277D01*
Y883816D01*
X833048Y886355D01*
X827970D01*
X825431Y883816D01*
X797500Y911786D02*
Y896551D01*
X805117D01*
X807657Y899090D01*
Y901630D01*
X805117Y904169D01*
X797500D01*
X805117D01*
X807657Y906708D01*
Y909247D01*
X805117Y911786D01*
X797500D01*
X812735Y896551D02*
X817813D01*
X815274D01*
Y911786D01*
X812735Y909247D01*
X833048Y896551D02*
Y911786D01*
X825431Y904169D01*
X835588D01*
X797500Y921982D02*
Y932139D01*
X802578Y937217D01*
X807657Y932139D01*
Y921982D01*
Y929600D01*
X797500D01*
X812735Y921982D02*
X817813D01*
X815274D01*
Y937217D01*
X812735Y934678D01*
X835588Y921982D02*
X825431D01*
X835588Y932139D01*
Y934678D01*
X833048Y937217D01*
X827970D01*
X825431Y934678D01*
X807657Y960109D02*
X805117Y962648D01*
X800039D01*
X797500Y960109D01*
Y949952D01*
X800039Y947413D01*
X805117D01*
X807657Y949952D01*
X812735Y947413D02*
X817813D01*
X815274D01*
Y962648D01*
X812735Y960109D01*
X835588Y962648D02*
X825431D01*
Y955031D01*
X830509Y957570D01*
X833048D01*
X835588Y955031D01*
Y949952D01*
X833048Y947413D01*
X827970D01*
X825431Y949952D01*
X807657Y988079D02*
X797500D01*
Y972844D01*
X807657D01*
X797500Y980462D02*
X802578D01*
X812735Y972844D02*
X817813D01*
X815274D01*
Y988079D01*
X812735Y985540D01*
X835588Y972844D02*
X825431D01*
X835588Y983001D01*
Y985540D01*
X833048Y988079D01*
X827970D01*
X825431Y985540D01*
X797500Y1013510D02*
Y998275D01*
X805117D01*
X807657Y1000815D01*
Y1003354D01*
X805117Y1005893D01*
X797500D01*
X805117D01*
X807657Y1008432D01*
Y1010971D01*
X805117Y1013510D01*
X797500D01*
X812735Y998275D02*
X817813D01*
X815274D01*
Y1013510D01*
X812735Y1010971D01*
X835588Y1013510D02*
X830509Y1010971D01*
X825431Y1005893D01*
Y1000815D01*
X827970Y998275D01*
X833048D01*
X835588Y1000815D01*
Y1003354D01*
X833048Y1005893D01*
X825431D01*
X797500Y1023706D02*
Y1033863D01*
X802578Y1038941D01*
X807657Y1033863D01*
Y1023706D01*
Y1031324D01*
X797500D01*
X812735Y1023706D02*
X817813D01*
X815274D01*
Y1038941D01*
X812735Y1036402D01*
X825431D02*
X827970Y1038941D01*
X833048D01*
X835588Y1036402D01*
Y1033863D01*
X833048Y1031324D01*
X830509D01*
X833048D01*
X835588Y1028785D01*
Y1026245D01*
X833048Y1023706D01*
X827970D01*
X825431Y1026245D01*
X797500Y1049137D02*
Y1059294D01*
X802578Y1064372D01*
X807657Y1059294D01*
Y1049137D01*
Y1056755D01*
X797500D01*
X812735Y1049137D02*
X817813D01*
X815274D01*
Y1064372D01*
X812735Y1061833D01*
X833048Y1049137D02*
Y1064372D01*
X825431Y1056755D01*
X835588D01*
X797500Y1074568D02*
Y1084725D01*
X802578Y1089803D01*
X807657Y1084725D01*
Y1074568D01*
Y1082186D01*
X797500D01*
X812735Y1074568D02*
X817813D01*
X815274D01*
Y1089803D01*
X812735Y1087264D01*
X835588Y1089803D02*
X825431D01*
Y1082186D01*
X830509Y1084725D01*
X833048D01*
X835588Y1082186D01*
Y1077108D01*
X833048Y1074568D01*
X827970D01*
X825431Y1077108D01*
X797500Y1099999D02*
Y1110156D01*
X802578Y1115235D01*
X807657Y1110156D01*
Y1099999D01*
Y1107617D01*
X797500D01*
X812735Y1099999D02*
X817813D01*
X815274D01*
Y1115235D01*
X812735Y1112695D01*
X835588Y1115235D02*
X830509Y1112695D01*
X825431Y1107617D01*
Y1102539D01*
X827970Y1099999D01*
X833048D01*
X835588Y1102539D01*
Y1105078D01*
X833048Y1107617D01*
X825431D01*
X1567499Y1255000D02*
X1552264D01*
X1567499Y1265157D01*
X1552264D01*
X1567499Y1270235D02*
Y1275313D01*
Y1272774D01*
X1552264D01*
X1554803Y1270235D01*
X1567499Y1290549D02*
X1552264D01*
X1559882Y1282931D01*
Y1293088D01*
X1542019Y1255000D02*
X1526784D01*
Y1262617D01*
X1529323Y1265157D01*
X1534401D01*
X1536940Y1262617D01*
Y1255000D01*
X1542019Y1270235D02*
Y1275313D01*
Y1272774D01*
X1526784D01*
X1529323Y1270235D01*
X1526784Y1293088D02*
X1529323Y1288009D01*
X1534401Y1282931D01*
X1539480D01*
X1542019Y1285470D01*
Y1290549D01*
X1539480Y1293088D01*
X1536940D01*
X1534401Y1290549D01*
Y1282931D01*
X1516538Y1255000D02*
X1501303D01*
Y1262617D01*
X1503842Y1265157D01*
X1508920D01*
X1511460Y1262617D01*
Y1255000D01*
X1516538Y1270235D02*
Y1275313D01*
Y1272774D01*
X1501303D01*
X1503842Y1270235D01*
X1501303Y1282931D02*
Y1293088D01*
X1503842D01*
X1513999Y1282931D01*
X1516538D01*
X1491057Y1255000D02*
X1475822D01*
X1480900Y1260078D01*
X1475822Y1265157D01*
X1491057D01*
Y1270235D02*
Y1275313D01*
Y1272774D01*
X1475822D01*
X1478361Y1270235D01*
X1491057Y1290549D02*
X1475822D01*
X1483440Y1282931D01*
Y1293088D01*
X1450341Y1255000D02*
X1465576D01*
Y1265157D01*
Y1270235D02*
Y1275313D01*
Y1272774D01*
X1450341D01*
X1452881Y1270235D01*
X1465576Y1290549D02*
X1450341D01*
X1457959Y1282931D01*
Y1293088D01*
X1440096Y1255000D02*
X1424861D01*
X1429939Y1260078D01*
X1424861Y1265157D01*
X1440096D01*
Y1270235D02*
Y1275313D01*
Y1272774D01*
X1424861D01*
X1427400Y1270235D01*
X1424861Y1293088D02*
X1427400Y1288009D01*
X1432478Y1282931D01*
X1437556D01*
X1440096Y1285470D01*
Y1290549D01*
X1437556Y1293088D01*
X1435017D01*
X1432478Y1290549D01*
Y1282931D01*
X1399380Y1255000D02*
X1414615D01*
Y1265157D01*
Y1270235D02*
Y1275313D01*
Y1272774D01*
X1399380D01*
X1401919Y1270235D01*
X1399380Y1293088D02*
X1401919Y1288009D01*
X1406997Y1282931D01*
X1412076D01*
X1414615Y1285470D01*
Y1290549D01*
X1412076Y1293088D01*
X1409537D01*
X1406997Y1290549D01*
Y1282931D01*
X1373899Y1255000D02*
X1389134D01*
Y1265157D01*
Y1270235D02*
Y1275313D01*
Y1272774D01*
X1373899D01*
X1376438Y1270235D01*
X1373899Y1282931D02*
Y1293088D01*
X1376438D01*
X1386595Y1282931D01*
X1389134D01*
X1348418Y1255000D02*
X1363653D01*
X1358575D01*
X1348418Y1265157D01*
X1356036Y1257539D01*
X1363653Y1265157D01*
Y1270235D02*
Y1275313D01*
Y1272774D01*
X1348418D01*
X1350957Y1270235D01*
X1348418Y1293088D02*
Y1282931D01*
X1356036D01*
X1353497Y1288009D01*
Y1290549D01*
X1356036Y1293088D01*
X1361114D01*
X1363653Y1290549D01*
Y1285470D01*
X1361114Y1282931D01*
X1322938Y1255000D02*
X1338173D01*
Y1265157D01*
Y1270235D02*
Y1275313D01*
Y1272774D01*
X1322938D01*
X1325477Y1270235D01*
X1322938Y1293088D02*
Y1282931D01*
X1330555D01*
X1328016Y1288009D01*
Y1290549D01*
X1330555Y1293088D01*
X1335634D01*
X1338173Y1290549D01*
Y1285470D01*
X1335634Y1282931D01*
X1297457Y1255000D02*
X1312692D01*
Y1265157D01*
Y1270235D02*
Y1275313D01*
Y1272774D01*
X1297457D01*
X1299996Y1270235D01*
Y1282931D02*
X1297457Y1285470D01*
Y1290549D01*
X1299996Y1293088D01*
X1302535D01*
X1305074Y1290549D01*
X1307614Y1293088D01*
X1310153D01*
X1312692Y1290549D01*
Y1285470D01*
X1310153Y1282931D01*
X1307614D01*
X1305074Y1285470D01*
X1302535Y1282931D01*
X1299996D01*
X1305074Y1285470D02*
Y1290549D01*
X1271976Y1255000D02*
X1287211D01*
Y1265157D01*
Y1270235D02*
Y1275313D01*
Y1272774D01*
X1271976D01*
X1274515Y1270235D01*
Y1282931D02*
X1271976Y1285470D01*
Y1290549D01*
X1274515Y1293088D01*
X1277055D01*
X1279594Y1290549D01*
Y1288009D01*
Y1290549D01*
X1282133Y1293088D01*
X1284672D01*
X1287211Y1290549D01*
Y1285470D01*
X1284672Y1282931D01*
X1246495Y1255000D02*
X1261730D01*
X1254113D01*
Y1265157D01*
X1246495D01*
X1261730D01*
Y1270235D02*
Y1275313D01*
Y1272774D01*
X1246495D01*
X1249035Y1270235D01*
X1261730Y1293088D02*
Y1282931D01*
X1251574Y1293088D01*
X1249035D01*
X1246495Y1290549D01*
Y1285470D01*
X1249035Y1282931D01*
X1221015Y1255000D02*
X1236250D01*
X1231171D01*
X1221015Y1265157D01*
X1228632Y1257539D01*
X1236250Y1265157D01*
Y1270235D02*
Y1275313D01*
Y1272774D01*
X1221015D01*
X1223554Y1270235D01*
X1221015Y1293088D02*
X1223554Y1288009D01*
X1228632Y1282931D01*
X1233710D01*
X1236250Y1285470D01*
Y1290549D01*
X1233710Y1293088D01*
X1231171D01*
X1228632Y1290549D01*
Y1282931D01*
X1195534Y1255000D02*
X1210769D01*
X1205691D01*
X1195534Y1265157D01*
X1203151Y1257539D01*
X1210769Y1265157D01*
Y1270235D02*
Y1275313D01*
Y1272774D01*
X1195534D01*
X1198073Y1270235D01*
X1195534Y1282931D02*
Y1293088D01*
X1198073D01*
X1208230Y1282931D01*
X1210769D01*
X1170053Y1255000D02*
X1185288D01*
X1180210D01*
X1170053Y1265157D01*
X1177671Y1257539D01*
X1185288Y1265157D01*
Y1270235D02*
Y1275313D01*
Y1272774D01*
X1170053D01*
X1172592Y1270235D01*
X1185288Y1293088D02*
Y1282931D01*
X1175132Y1293088D01*
X1172592D01*
X1170053Y1290549D01*
Y1285470D01*
X1172592Y1282931D01*
X1144572Y1255000D02*
X1159808D01*
X1154729D01*
X1144572Y1265157D01*
X1152190Y1257539D01*
X1159808Y1265157D01*
Y1270235D02*
Y1275313D01*
Y1272774D01*
X1144572D01*
X1147112Y1270235D01*
X1159808Y1290549D02*
X1144572D01*
X1152190Y1282931D01*
Y1293088D01*
X1119092Y1255000D02*
X1134327D01*
X1126709D01*
Y1265157D01*
X1119092D01*
X1134327D01*
Y1270235D02*
Y1275313D01*
Y1272774D01*
X1119092D01*
X1121631Y1270235D01*
X1134327Y1290549D02*
X1119092D01*
X1126709Y1282931D01*
Y1293088D01*
X1093611Y1255000D02*
X1108846D01*
Y1265157D01*
Y1270235D02*
Y1275313D01*
Y1272774D01*
X1093611D01*
X1096150Y1270235D01*
X1108846Y1293088D02*
Y1282931D01*
X1098689Y1293088D01*
X1096150D01*
X1093611Y1290549D01*
Y1285470D01*
X1096150Y1282931D01*
X1068130Y1255000D02*
X1083365D01*
X1075748D01*
Y1265157D01*
X1068130D01*
X1083365D01*
Y1270235D02*
Y1275313D01*
Y1272774D01*
X1068130D01*
X1070669Y1270235D01*
X1068130Y1293088D02*
Y1282931D01*
X1075748D01*
X1073208Y1288009D01*
Y1290549D01*
X1075748Y1293088D01*
X1080826D01*
X1083365Y1290549D01*
Y1285470D01*
X1080826Y1282931D01*
X1042649Y1265157D02*
Y1260078D01*
Y1262617D01*
X1055345D01*
X1057885Y1260078D01*
Y1257539D01*
X1055345Y1255000D01*
X1057885Y1270235D02*
Y1275313D01*
Y1272774D01*
X1042649D01*
X1045189Y1270235D01*
X1042649Y1293088D02*
X1045189Y1288009D01*
X1050267Y1282931D01*
X1055345D01*
X1057885Y1285470D01*
Y1290549D01*
X1055345Y1293088D01*
X1052806D01*
X1050267Y1290549D01*
Y1282931D01*
X1017169Y1255000D02*
X1032404D01*
X1024786D01*
Y1265157D01*
X1017169D01*
X1032404D01*
Y1270235D02*
Y1275313D01*
Y1272774D01*
X1017169D01*
X1019708Y1270235D01*
X1017169Y1282931D02*
Y1293088D01*
X1019708D01*
X1029865Y1282931D01*
X1032404D01*
X991688Y1255000D02*
X1006923D01*
X999305D01*
Y1265157D01*
X991688D01*
X1006923D01*
Y1270235D02*
Y1275313D01*
Y1272774D01*
X991688D01*
X994227Y1270235D01*
X991688Y1293088D02*
X994227Y1288009D01*
X999305Y1282931D01*
X1004384D01*
X1006923Y1285470D01*
Y1290549D01*
X1004384Y1293088D01*
X1001845D01*
X999305Y1290549D01*
Y1282931D01*
X968746Y1265157D02*
X966207Y1262617D01*
Y1257539D01*
X968746Y1255000D01*
X978903D01*
X981442Y1257539D01*
Y1262617D01*
X978903Y1265157D01*
X973825D01*
Y1260078D01*
X981442Y1270235D02*
Y1275313D01*
Y1272774D01*
X966207D01*
X968746Y1270235D01*
X966207Y1293088D02*
X968746Y1288009D01*
X973825Y1282931D01*
X978903D01*
X981442Y1285470D01*
Y1290549D01*
X978903Y1293088D01*
X976364D01*
X973825Y1290549D01*
Y1282931D01*
X943266Y1265157D02*
X940726Y1262617D01*
Y1257539D01*
X943266Y1255000D01*
X953422D01*
X955962Y1257539D01*
Y1262617D01*
X953422Y1265157D01*
X948344D01*
Y1260078D01*
X955962Y1270235D02*
Y1275313D01*
Y1272774D01*
X940726D01*
X943266Y1270235D01*
X955962Y1290549D02*
X940726D01*
X948344Y1282931D01*
Y1293088D01*
X915246Y1265157D02*
Y1255000D01*
X922863D01*
Y1260078D01*
Y1255000D01*
X930481D01*
Y1270235D02*
Y1275313D01*
Y1272774D01*
X915246D01*
X917785Y1270235D01*
X915246Y1282931D02*
Y1293088D01*
X917785D01*
X927942Y1282931D01*
X930481D01*
X889765Y1265157D02*
Y1255000D01*
X897383D01*
Y1260078D01*
Y1255000D01*
X905000D01*
Y1270235D02*
Y1275313D01*
Y1272774D01*
X889765D01*
X892304Y1270235D01*
X889765Y1293088D02*
X892304Y1288009D01*
X897383Y1282931D01*
X902461D01*
X905000Y1285470D01*
Y1290549D01*
X902461Y1293088D01*
X899922D01*
X897383Y1290549D01*
Y1282931D01*
X1602264Y1145000D02*
X1614960D01*
X1617500Y1147539D01*
Y1152617D01*
X1614960Y1155157D01*
X1602264D01*
X1617500Y1160235D02*
Y1165313D01*
Y1162774D01*
X1602264D01*
X1604804Y1160235D01*
X1602264Y1172931D02*
Y1183088D01*
X1604804D01*
X1614960Y1172931D01*
X1617500D01*
X1576907Y1145000D02*
Y1155157D01*
Y1150078D01*
X1592142D01*
Y1160235D02*
Y1165313D01*
Y1162774D01*
X1576907D01*
X1579447Y1160235D01*
X1576907Y1172931D02*
Y1183088D01*
X1579447D01*
X1589603Y1172931D01*
X1592142D01*
X1566785Y1145000D02*
X1551550D01*
Y1152617D01*
X1554089Y1155157D01*
X1559168D01*
X1561707Y1152617D01*
Y1145000D01*
X1566785Y1160235D02*
Y1165313D01*
Y1162774D01*
X1551550D01*
X1554089Y1160235D01*
X1551550Y1183088D02*
Y1172931D01*
X1559168D01*
X1556629Y1178009D01*
Y1180548D01*
X1559168Y1183088D01*
X1564246D01*
X1566785Y1180548D01*
Y1175470D01*
X1564246Y1172931D01*
X1526193Y1145000D02*
X1538889D01*
X1541428Y1147539D01*
Y1152617D01*
X1538889Y1155157D01*
X1526193D01*
X1541428Y1160235D02*
Y1165313D01*
Y1162774D01*
X1526193D01*
X1528732Y1160235D01*
Y1172931D02*
X1526193Y1175470D01*
Y1180548D01*
X1528732Y1183088D01*
X1531271D01*
X1533811Y1180548D01*
X1536350Y1183088D01*
X1538889D01*
X1541428Y1180548D01*
Y1175470D01*
X1538889Y1172931D01*
X1536350D01*
X1533811Y1175470D01*
X1531271Y1172931D01*
X1528732D01*
X1533811Y1175470D02*
Y1180548D01*
X1500836Y1145000D02*
Y1155157D01*
Y1150078D01*
X1516071D01*
Y1160235D02*
Y1165313D01*
Y1162774D01*
X1500836D01*
X1503375Y1160235D01*
Y1172931D02*
X1500836Y1175470D01*
Y1180548D01*
X1503375Y1183088D01*
X1505914D01*
X1508453Y1180548D01*
X1510993Y1183088D01*
X1513532D01*
X1516071Y1180548D01*
Y1175470D01*
X1513532Y1172931D01*
X1510993D01*
X1508453Y1175470D01*
X1505914Y1172931D01*
X1503375D01*
X1508453Y1175470D02*
Y1180548D01*
X1490714Y1145000D02*
X1475479D01*
X1490714Y1155157D01*
X1475479D01*
X1490714Y1160235D02*
Y1165313D01*
Y1162774D01*
X1475479D01*
X1478018Y1160235D01*
X1475479Y1183088D02*
X1478018Y1178009D01*
X1483096Y1172931D01*
X1488175D01*
X1490714Y1175470D01*
Y1180548D01*
X1488175Y1183088D01*
X1485636D01*
X1483096Y1180548D01*
Y1172931D01*
X1465357Y1145000D02*
X1450122D01*
Y1152617D01*
X1452661Y1155157D01*
X1457739D01*
X1460278Y1152617D01*
Y1145000D01*
X1465357Y1160235D02*
Y1165313D01*
Y1162774D01*
X1450122D01*
X1452661Y1160235D01*
Y1172931D02*
X1450122Y1175470D01*
Y1180548D01*
X1452661Y1183088D01*
X1455200D01*
X1457739Y1180548D01*
X1460278Y1183088D01*
X1462818D01*
X1465357Y1180548D01*
Y1175470D01*
X1462818Y1172931D01*
X1460278D01*
X1457739Y1175470D01*
X1455200Y1172931D01*
X1452661D01*
X1457739Y1175470D02*
Y1180548D01*
X1440000Y1145000D02*
X1424765D01*
X1440000Y1155157D01*
X1424765D01*
X1440000Y1160235D02*
Y1165313D01*
Y1162774D01*
X1424765D01*
X1427304Y1160235D01*
X1424765Y1172931D02*
Y1183088D01*
X1427304D01*
X1437460Y1172931D01*
X1440000D01*
X1414642Y1145000D02*
X1399407D01*
X1414642Y1155157D01*
X1399407D01*
X1414642Y1160235D02*
Y1165313D01*
Y1162774D01*
X1399407D01*
X1401947Y1160235D01*
Y1172931D02*
X1399407Y1175470D01*
Y1180548D01*
X1401947Y1183088D01*
X1404486D01*
X1407025Y1180548D01*
X1409564Y1183088D01*
X1412103D01*
X1414642Y1180548D01*
Y1175470D01*
X1412103Y1172931D01*
X1409564D01*
X1407025Y1175470D01*
X1404486Y1172931D01*
X1401947D01*
X1407025Y1175470D02*
Y1180548D01*
X1389285Y1145000D02*
X1374050D01*
X1389285Y1155157D01*
X1374050D01*
X1389285Y1160235D02*
Y1165313D01*
Y1162774D01*
X1374050D01*
X1376590Y1160235D01*
X1374050Y1183088D02*
Y1172931D01*
X1381668D01*
X1379129Y1178009D01*
Y1180548D01*
X1381668Y1183088D01*
X1386746D01*
X1389285Y1180548D01*
Y1175470D01*
X1386746Y1172931D01*
X1363928Y1145000D02*
X1348693D01*
X1353772Y1150078D01*
X1348693Y1155157D01*
X1363928D01*
Y1160235D02*
Y1165313D01*
Y1162774D01*
X1348693D01*
X1351232Y1160235D01*
Y1172931D02*
X1348693Y1175470D01*
Y1180548D01*
X1351232Y1183088D01*
X1353772D01*
X1356311Y1180548D01*
X1358850Y1183088D01*
X1361389D01*
X1363928Y1180548D01*
Y1175470D01*
X1361389Y1172931D01*
X1358850D01*
X1356311Y1175470D01*
X1353772Y1172931D01*
X1351232D01*
X1356311Y1175470D02*
Y1180548D01*
X1338571Y1145000D02*
X1323336D01*
X1328414Y1150078D01*
X1323336Y1155157D01*
X1338571D01*
Y1160235D02*
Y1165313D01*
Y1162774D01*
X1323336D01*
X1325875Y1160235D01*
Y1172931D02*
X1323336Y1175470D01*
Y1180548D01*
X1325875Y1183088D01*
X1328414D01*
X1330954Y1180548D01*
Y1178009D01*
Y1180548D01*
X1333493Y1183088D01*
X1336032D01*
X1338571Y1180548D01*
Y1175470D01*
X1336032Y1172931D01*
X1297979Y1145000D02*
X1313214D01*
X1308136D01*
X1297979Y1155157D01*
X1305596Y1147539D01*
X1313214Y1155157D01*
Y1160235D02*
Y1165313D01*
Y1162774D01*
X1297979D01*
X1300518Y1160235D01*
Y1172931D02*
X1297979Y1175470D01*
Y1180548D01*
X1300518Y1183088D01*
X1303057D01*
X1305596Y1180548D01*
X1308136Y1183088D01*
X1310675D01*
X1313214Y1180548D01*
Y1175470D01*
X1310675Y1172931D01*
X1308136D01*
X1305596Y1175470D01*
X1303057Y1172931D01*
X1300518D01*
X1305596Y1175470D02*
Y1180548D01*
X1272622Y1145000D02*
X1287857D01*
X1282778D01*
X1272622Y1155157D01*
X1280239Y1147539D01*
X1287857Y1155157D01*
Y1160235D02*
Y1165313D01*
Y1162774D01*
X1272622D01*
X1275161Y1160235D01*
Y1172931D02*
X1272622Y1175470D01*
Y1180548D01*
X1275161Y1183088D01*
X1277700D01*
X1280239Y1180548D01*
Y1178009D01*
Y1180548D01*
X1282778Y1183088D01*
X1285318D01*
X1287857Y1180548D01*
Y1175470D01*
X1285318Y1172931D01*
X1247265Y1155157D02*
Y1150078D01*
Y1152617D01*
X1259960D01*
X1262500Y1150078D01*
Y1147539D01*
X1259960Y1145000D01*
X1262500Y1160235D02*
Y1165313D01*
Y1162774D01*
X1247265D01*
X1249804Y1160235D01*
Y1172931D02*
X1247265Y1175470D01*
Y1180548D01*
X1249804Y1183088D01*
X1252343D01*
X1254882Y1180548D01*
Y1178009D01*
Y1180548D01*
X1257421Y1183088D01*
X1259960D01*
X1262500Y1180548D01*
Y1175470D01*
X1259960Y1172931D01*
X1221908Y1155157D02*
Y1150078D01*
Y1152617D01*
X1234603D01*
X1237143Y1150078D01*
Y1147539D01*
X1234603Y1145000D01*
X1237143Y1160235D02*
Y1165313D01*
Y1162774D01*
X1221908D01*
X1224447Y1160235D01*
Y1172931D02*
X1221908Y1175470D01*
Y1180548D01*
X1224447Y1183088D01*
X1226986D01*
X1229525Y1180548D01*
X1232064Y1183088D01*
X1234603D01*
X1237143Y1180548D01*
Y1175470D01*
X1234603Y1172931D01*
X1232064D01*
X1229525Y1175470D01*
X1226986Y1172931D01*
X1224447D01*
X1229525Y1175470D02*
Y1180548D01*
X1196550Y1145000D02*
X1211786D01*
X1204168D01*
Y1155157D01*
X1196550D01*
X1211786D01*
Y1160235D02*
Y1165313D01*
Y1162774D01*
X1196550D01*
X1199090Y1160235D01*
Y1172931D02*
X1196550Y1175470D01*
Y1180548D01*
X1199090Y1183088D01*
X1201629D01*
X1204168Y1180548D01*
Y1178009D01*
Y1180548D01*
X1206707Y1183088D01*
X1209246D01*
X1211786Y1180548D01*
Y1175470D01*
X1209246Y1172931D01*
X1171193Y1145000D02*
X1186428D01*
X1178811D01*
Y1155157D01*
X1171193D01*
X1186428D01*
Y1160235D02*
Y1165313D01*
Y1162774D01*
X1171193D01*
X1173733Y1160235D01*
Y1172931D02*
X1171193Y1175470D01*
Y1180548D01*
X1173733Y1183088D01*
X1176272D01*
X1178811Y1180548D01*
X1181350Y1183088D01*
X1183889D01*
X1186428Y1180548D01*
Y1175470D01*
X1183889Y1172931D01*
X1181350D01*
X1178811Y1175470D01*
X1176272Y1172931D01*
X1173733D01*
X1178811Y1175470D02*
Y1180548D01*
X1148375Y1155157D02*
X1145836Y1152617D01*
Y1147539D01*
X1148375Y1145000D01*
X1158532D01*
X1161071Y1147539D01*
Y1152617D01*
X1158532Y1155157D01*
X1153454D01*
Y1150078D01*
X1161071Y1160235D02*
Y1165313D01*
Y1162774D01*
X1145836D01*
X1148375Y1160235D01*
Y1172931D02*
X1145836Y1175470D01*
Y1180548D01*
X1148375Y1183088D01*
X1150915D01*
X1153454Y1180548D01*
Y1178009D01*
Y1180548D01*
X1155993Y1183088D01*
X1158532D01*
X1161071Y1180548D01*
Y1175470D01*
X1158532Y1172931D01*
X1123018Y1155157D02*
X1120479Y1152617D01*
Y1147539D01*
X1123018Y1145000D01*
X1133175D01*
X1135714Y1147539D01*
Y1152617D01*
X1133175Y1155157D01*
X1128097D01*
Y1150078D01*
X1135714Y1160235D02*
Y1165313D01*
Y1162774D01*
X1120479D01*
X1123018Y1160235D01*
Y1172931D02*
X1120479Y1175470D01*
Y1180548D01*
X1123018Y1183088D01*
X1125557D01*
X1128097Y1180548D01*
X1130636Y1183088D01*
X1133175D01*
X1135714Y1180548D01*
Y1175470D01*
X1133175Y1172931D01*
X1130636D01*
X1128097Y1175470D01*
X1125557Y1172931D01*
X1123018D01*
X1128097Y1175470D02*
Y1180548D01*
X1095122Y1155157D02*
Y1145000D01*
X1102739D01*
Y1150078D01*
Y1145000D01*
X1110357D01*
Y1160235D02*
Y1165313D01*
Y1162774D01*
X1095122D01*
X1097661Y1160235D01*
X1110357Y1180548D02*
X1095122D01*
X1102739Y1172931D01*
Y1183088D01*
X1069765Y1155157D02*
Y1145000D01*
X1077382D01*
Y1150078D01*
Y1145000D01*
X1085000D01*
Y1160235D02*
Y1165313D01*
Y1162774D01*
X1069765D01*
X1072304Y1160235D01*
Y1172931D02*
X1069765Y1175470D01*
Y1180548D01*
X1072304Y1183088D01*
X1074843D01*
X1077382Y1180548D01*
X1079921Y1183088D01*
X1082461D01*
X1085000Y1180548D01*
Y1175470D01*
X1082461Y1172931D01*
X1079921D01*
X1077382Y1175470D01*
X1074843Y1172931D01*
X1072304D01*
X1077382Y1175470D02*
Y1180548D01*
X1044408Y1155157D02*
Y1145000D01*
X1052025D01*
Y1150078D01*
Y1145000D01*
X1059643D01*
Y1160235D02*
Y1165313D01*
Y1162774D01*
X1044408D01*
X1046947Y1160235D01*
X1044408Y1183088D02*
Y1172931D01*
X1052025D01*
X1049486Y1178009D01*
Y1180548D01*
X1052025Y1183088D01*
X1057104D01*
X1059643Y1180548D01*
Y1175470D01*
X1057104Y1172931D01*
X1019051Y1155157D02*
Y1145000D01*
X1034286D01*
Y1155157D01*
X1026668Y1145000D02*
Y1150078D01*
X1034286Y1160235D02*
Y1165313D01*
Y1162774D01*
X1019051D01*
X1021590Y1160235D01*
Y1172931D02*
X1019051Y1175470D01*
Y1180548D01*
X1021590Y1183088D01*
X1024129D01*
X1026668Y1180548D01*
X1029207Y1183088D01*
X1031746D01*
X1034286Y1180548D01*
Y1175470D01*
X1031746Y1172931D01*
X1029207D01*
X1026668Y1175470D01*
X1024129Y1172931D01*
X1021590D01*
X1026668Y1175470D02*
Y1180548D01*
X993693Y1155157D02*
Y1145000D01*
X1008929D01*
Y1155157D01*
X1001311Y1145000D02*
Y1150078D01*
X1008929Y1160235D02*
Y1165313D01*
Y1162774D01*
X993693D01*
X996233Y1160235D01*
X993693Y1183088D02*
X996233Y1178009D01*
X1001311Y1172931D01*
X1006389D01*
X1008929Y1175470D01*
Y1180548D01*
X1006389Y1183088D01*
X1003850D01*
X1001311Y1180548D01*
Y1172931D01*
X968336Y1145000D02*
X983571D01*
Y1152617D01*
X981032Y1155157D01*
X970875D01*
X968336Y1152617D01*
Y1145000D01*
X983571Y1160235D02*
Y1165313D01*
Y1162774D01*
X968336D01*
X970875Y1160235D01*
Y1172931D02*
X968336Y1175470D01*
Y1180548D01*
X970875Y1183088D01*
X973415D01*
X975954Y1180548D01*
X978493Y1183088D01*
X981032D01*
X983571Y1180548D01*
Y1175470D01*
X981032Y1172931D01*
X978493D01*
X975954Y1175470D01*
X973415Y1172931D01*
X970875D01*
X975954Y1175470D02*
Y1180548D01*
X942979Y1145500D02*
X958214D01*
Y1153118D01*
X955675Y1155657D01*
X945518D01*
X942979Y1153118D01*
Y1145500D01*
X958214Y1160735D02*
Y1165813D01*
Y1163274D01*
X942979D01*
X945518Y1160735D01*
X942979Y1173431D02*
Y1183588D01*
X945518D01*
X955675Y1173431D01*
X958214D01*
X920161Y1157657D02*
X917622Y1155117D01*
Y1150039D01*
X920161Y1147500D01*
X930318D01*
X932857Y1150039D01*
Y1155117D01*
X930318Y1157657D01*
X932857Y1162735D02*
Y1167813D01*
Y1165274D01*
X917622D01*
X920161Y1162735D01*
Y1175431D02*
X917622Y1177970D01*
Y1183048D01*
X920161Y1185588D01*
X922700D01*
X925240Y1183048D01*
X927779Y1185588D01*
X930318D01*
X932857Y1183048D01*
Y1177970D01*
X930318Y1175431D01*
X927779D01*
X925240Y1177970D01*
X922700Y1175431D01*
X920161D01*
X925240Y1177970D02*
Y1183048D01*
X894804Y1157907D02*
X892265Y1155368D01*
Y1150289D01*
X894804Y1147750D01*
X904961D01*
X907500Y1150289D01*
Y1155368D01*
X904961Y1157907D01*
X907500Y1162985D02*
Y1168063D01*
Y1165524D01*
X892265D01*
X894804Y1162985D01*
X892265Y1175681D02*
Y1185838D01*
X894804D01*
X904961Y1175681D01*
X907500D01*
X1806157Y777696D02*
X1803618Y780235D01*
X1798539D01*
X1796000Y777696D01*
Y767539D01*
X1798539Y765000D01*
X1803618D01*
X1806157Y767539D01*
Y772617D01*
X1801078D01*
X1811235Y765000D02*
Y780235D01*
X1821392Y765000D01*
Y780235D01*
X1826470D02*
Y765000D01*
X1834088D01*
X1836627Y767539D01*
Y777696D01*
X1834088Y780235D01*
X1826470D01*
X1806157Y802696D02*
X1803618Y805235D01*
X1798539D01*
X1796000Y802696D01*
Y792539D01*
X1798539Y790000D01*
X1803618D01*
X1806157Y792539D01*
Y797617D01*
X1801078D01*
X1811235Y790000D02*
Y805235D01*
X1821392Y790000D01*
Y805235D01*
X1826470D02*
Y790000D01*
X1834088D01*
X1836627Y792539D01*
Y802696D01*
X1834088Y805235D01*
X1826470D01*
X1806157Y830196D02*
X1803618Y832735D01*
X1798539D01*
X1796000Y830196D01*
Y820039D01*
X1798539Y817500D01*
X1803618D01*
X1806157Y820039D01*
Y825118D01*
X1801078D01*
X1811235Y817500D02*
Y832735D01*
X1821392Y817500D01*
Y832735D01*
X1826470D02*
Y817500D01*
X1834088D01*
X1836627Y820039D01*
Y830196D01*
X1834088Y832735D01*
X1826470D01*
X1203250Y195250D02*
X1208328D01*
X1205789D01*
Y210485D01*
X1203250Y207946D01*
X1215946Y210485D02*
Y200328D01*
X1221024Y195250D01*
X1226103Y200328D01*
Y210485D01*
X1241338Y195250D02*
X1231181D01*
X1241338Y205407D01*
Y207946D01*
X1238799Y210485D01*
X1233720D01*
X1231181Y207946D01*
X1203250Y154446D02*
X1205789Y156985D01*
X1210867D01*
X1213407Y154446D01*
Y151907D01*
X1210867Y149368D01*
X1208328D01*
X1210867D01*
X1213407Y146828D01*
Y144289D01*
X1210867Y141750D01*
X1205789D01*
X1203250Y144289D01*
X1218485Y156985D02*
Y146828D01*
X1223563Y141750D01*
X1228642Y146828D01*
Y156985D01*
X1233720Y154446D02*
X1236259Y156985D01*
X1241338D01*
X1243877Y154446D01*
Y151907D01*
X1241338Y149368D01*
X1238799D01*
X1241338D01*
X1243877Y146828D01*
Y144289D01*
X1241338Y141750D01*
X1236259D01*
X1233720Y144289D01*
X1203250Y168500D02*
X1208328D01*
X1205789D01*
Y183735D01*
X1203250Y181196D01*
X1215946Y183735D02*
Y173578D01*
X1221024Y168500D01*
X1226103Y173578D01*
Y183735D01*
X1231181Y181196D02*
X1233720Y183735D01*
X1238799D01*
X1241338Y181196D01*
Y178657D01*
X1238799Y176117D01*
X1241338Y173578D01*
Y171039D01*
X1238799Y168500D01*
X1233720D01*
X1231181Y171039D01*
Y173578D01*
X1233720Y176117D01*
X1231181Y178657D01*
Y181196D01*
X1233720Y176117D02*
X1238799D01*
X1213407Y127696D02*
X1210867Y130235D01*
X1205789D01*
X1203250Y127696D01*
Y117539D01*
X1205789Y115000D01*
X1210867D01*
X1213407Y117539D01*
Y122618D01*
X1208328D01*
X1218485Y115000D02*
Y130235D01*
X1228642Y115000D01*
Y130235D01*
X1233720D02*
Y115000D01*
X1241338D01*
X1243877Y117539D01*
Y127696D01*
X1241338Y130235D01*
X1233720D01*
X1706000Y399985D02*
Y389828D01*
X1711078Y384750D01*
X1716157Y389828D01*
Y399985D01*
X1721235D02*
Y384750D01*
X1728853D01*
X1731392Y387289D01*
Y389828D01*
X1728853Y392368D01*
X1721235D01*
X1728853D01*
X1731392Y394907D01*
Y397446D01*
X1728853Y399985D01*
X1721235D01*
X1706500Y374735D02*
Y359500D01*
X1714117D01*
X1716657Y362039D01*
Y372196D01*
X1714117Y374735D01*
X1706500D01*
X1721735Y359500D02*
Y374735D01*
X1726813Y369657D01*
X1731892Y374735D01*
Y359500D01*
X1791250Y401735D02*
Y386500D01*
X1798867D01*
X1801407Y389039D01*
Y399196D01*
X1798867Y401735D01*
X1791250D01*
X1806485Y386500D02*
Y401735D01*
X1814103D01*
X1816642Y399196D01*
Y394118D01*
X1814103Y391578D01*
X1806485D01*
X1654250Y388735D02*
Y376039D01*
X1656789Y373500D01*
X1661868D01*
X1664407Y376039D01*
Y388735D01*
X1679642Y386196D02*
X1677103Y388735D01*
X1672024D01*
X1669485Y386196D01*
Y383657D01*
X1672024Y381118D01*
X1677103D01*
X1679642Y378578D01*
Y376039D01*
X1677103Y373500D01*
X1672024D01*
X1669485Y376039D01*
X1684720Y388735D02*
Y373500D01*
X1692338D01*
X1694877Y376039D01*
Y378578D01*
X1692338Y381118D01*
X1684720D01*
X1692338D01*
X1694877Y383657D01*
Y386196D01*
X1692338Y388735D01*
X1684720D01*
X1692250Y729735D02*
Y714500D01*
X1699868D01*
X1702407Y717039D01*
Y727196D01*
X1699868Y729735D01*
X1692250D01*
X1715103D02*
X1710024D01*
X1707485Y727196D01*
Y717039D01*
X1710024Y714500D01*
X1715103D01*
X1717642Y717039D01*
Y727196D01*
X1715103Y729735D01*
X1722720Y714500D02*
Y729735D01*
X1732877Y714500D01*
Y729735D01*
X1693500Y704985D02*
X1698578D01*
X1696039D01*
Y689750D01*
X1693500D01*
X1698578D01*
X1706196D02*
Y704985D01*
X1716353Y689750D01*
Y704985D01*
X1721431D02*
Y689750D01*
X1729048D01*
X1731588Y692289D01*
Y694828D01*
X1729048Y697367D01*
X1721431D01*
X1729048D01*
X1731588Y699907D01*
Y702446D01*
X1729048Y704985D01*
X1721431D01*
X1792000Y704735D02*
Y689500D01*
X1799617D01*
X1802157Y692039D01*
Y702196D01*
X1799617Y704735D01*
X1792000D01*
X1807235D02*
X1812313D01*
X1809774D01*
Y689500D01*
X1807235D01*
X1812313D01*
X1819931D02*
Y704735D01*
X1830088Y689500D01*
Y704735D01*
X1802157Y727696D02*
X1799617Y730235D01*
X1794539D01*
X1792000Y727696D01*
Y717539D01*
X1794539Y715000D01*
X1799617D01*
X1802157Y717539D01*
X1807235Y730235D02*
Y715000D01*
X1817392D01*
X1822470Y730235D02*
Y715000D01*
Y720078D01*
X1832627Y730235D01*
X1825009Y722617D01*
X1832627Y715000D01*
X1692000Y664500D02*
Y679735D01*
X1699617D01*
X1702157Y677196D01*
Y672117D01*
X1699617Y669578D01*
X1692000D01*
X1707235Y664500D02*
Y679735D01*
X1714853D01*
X1717392Y677196D01*
Y672117D01*
X1714853Y669578D01*
X1707235D01*
X1712313D02*
X1717392Y664500D01*
X1722470Y679735D02*
Y664500D01*
X1730088D01*
X1732627Y667039D01*
Y669578D01*
X1730088Y672117D01*
X1722470D01*
X1730088D01*
X1732627Y674657D01*
Y677196D01*
X1730088Y679735D01*
X1722470D01*
D31*
X963135Y254750D02*
G03*
X998189Y257183I16865J10750D01*
G01*
Y273817D02*
G03*
X963135Y276250I-18189J-8317D01*
G01*
X843250Y233135D02*
G03*
X840817Y268189I-10750J16865D01*
G01*
X824183D02*
G03*
X821750Y233135I8317J-18189D01*
G01*
X1106115Y338000D02*
G03*
X1071061Y335567I-16865J-10750D01*
G01*
Y318933D02*
G03*
X1106115Y316500I18189J8317D01*
G01*
X883885Y123000D02*
G03*
X918939Y125433I16865J10750D01*
G01*
Y142067D02*
G03*
X883885Y144500I-18189J-8317D01*
G01*
X1069385Y123000D02*
G03*
X1104439Y125433I16865J10750D01*
G01*
Y142067D02*
G03*
X1069385Y144500I-18189J-8317D01*
G01*
X1572150Y959500D02*
G03*
X1593150Y959500I10500J0D01*
G01*
X1549250Y333000D02*
Y361000D01*
X1461750D02*
X1549250D01*
X1461750Y312500D02*
Y361000D01*
Y312500D02*
X1549250D01*
Y333000D01*
X1069250Y202500D02*
X1099250D01*
X1069250Y204000D02*
X1099250D01*
X1069250Y202500D02*
Y204000D01*
X1099250Y202500D02*
Y204000D01*
X763750Y202500D02*
Y204000D01*
X733750Y202500D02*
Y204000D01*
X763750D01*
X733750Y202500D02*
X763750D01*
X1092250Y867000D02*
X1100250D01*
X1092250Y852000D02*
X1100250D01*
X1092500Y800750D02*
X1100500D01*
X1092500Y785750D02*
X1100500D01*
X1091500Y845750D02*
X1099500D01*
X1091500Y830750D02*
X1099500D01*
X1208000Y486000D02*
X1288000D01*
X1208000Y586000D02*
X1288000D01*
Y486000D02*
Y586000D01*
X1208000Y486000D02*
Y586000D01*
Y576485D02*
X1217515Y586000D01*
X1553000Y580250D02*
Y588250D01*
X1538000Y580250D02*
Y588250D01*
X1510875Y580250D02*
Y588250D01*
X1495875Y580250D02*
Y588250D01*
X1468750Y580250D02*
Y588250D01*
X1453750Y580250D02*
Y588250D01*
X1413750Y456750D02*
X1421750D01*
X1413750Y441750D02*
X1421750D01*
X1413750Y488250D02*
X1421750D01*
X1413750Y473250D02*
X1421750D01*
X1413750Y551250D02*
X1421750D01*
X1413750Y536250D02*
X1421750D01*
X1413750Y519750D02*
X1421750D01*
X1413750Y504750D02*
X1421750D01*
X1810300Y121300D02*
Y172100D01*
X1556300Y121300D02*
X1575350D01*
X1556300D02*
Y172100D01*
X1575350D01*
X1810300D01*
X1575350Y121300D02*
X1810300D01*
X1040500Y201250D02*
Y209250D01*
X1055500Y201250D02*
Y209250D01*
X1131000Y201250D02*
Y209250D01*
X1116000Y201250D02*
Y209250D01*
X1684000Y762000D02*
Y770000D01*
X1660000Y762000D02*
Y770000D01*
X707266Y265500D02*
Y273500D01*
X731266Y265500D02*
Y273500D01*
X1040500Y265500D02*
Y273500D01*
X1064500Y265500D02*
Y273500D01*
X1113000Y265500D02*
Y273500D01*
X1128000Y265500D02*
Y273500D01*
X884750Y199000D02*
Y207000D01*
X869750Y199000D02*
Y207000D01*
X1467250Y281750D02*
Y289750D01*
X1482250Y281750D02*
Y289750D01*
X1527500Y281500D02*
Y289500D01*
X1542500Y281500D02*
Y289500D01*
X1916170Y423970D02*
X1933170D01*
X1933170Y400970D02*
X1938170Y404970D01*
X1933170Y423970D02*
X1938170Y419970D01*
X1916170Y400970D02*
X1933170D01*
X1938170Y404970D02*
Y419970D01*
X1877170Y400970D02*
Y423970D01*
X1896170D01*
X1877170Y400970D02*
X1896170D01*
X1916000Y483750D02*
X1933000D01*
X1933000Y460750D02*
X1938000Y464750D01*
X1933000Y483750D02*
X1938000Y479750D01*
X1916000Y460750D02*
X1933000D01*
X1938000Y464750D02*
Y479750D01*
X1877000Y460750D02*
Y483750D01*
X1896000D01*
X1877000Y460750D02*
X1896000D01*
X1916170Y514000D02*
X1933170D01*
X1933170Y491000D02*
X1938170Y495000D01*
X1933170Y514000D02*
X1938170Y510000D01*
X1916170Y491000D02*
X1933170D01*
X1938170Y495000D02*
Y510000D01*
X1877170Y491000D02*
Y514000D01*
X1896170D01*
X1877170Y491000D02*
X1896170D01*
X1916170Y453210D02*
X1933170D01*
X1933170Y430210D02*
X1938170Y434210D01*
X1933170Y453210D02*
X1938170Y449210D01*
X1916170Y430210D02*
X1933170D01*
X1938170Y434210D02*
Y449210D01*
X1877170Y430210D02*
Y453210D01*
X1896170D01*
X1877170Y430210D02*
X1896170D01*
X1917500Y656750D02*
X1934500D01*
X1934500Y633750D02*
X1939500Y637750D01*
X1934500Y656750D02*
X1939500Y652750D01*
X1917500Y633750D02*
X1934500D01*
X1939500Y637750D02*
Y652750D01*
X1878500Y633750D02*
Y656750D01*
X1897500D01*
X1878500Y633750D02*
X1897500D01*
X1916750Y687750D02*
X1933750D01*
X1933750Y664750D02*
X1938750Y668750D01*
X1933750Y687750D02*
X1938750Y683750D01*
X1916750Y664750D02*
X1933750D01*
X1938750Y668750D02*
Y683750D01*
X1877750Y664750D02*
Y687750D01*
X1896750D01*
X1877750Y664750D02*
X1896750D01*
X1917500Y626250D02*
X1934500D01*
X1934500Y603250D02*
X1939500Y607250D01*
X1934500Y626250D02*
X1939500Y622250D01*
X1917500Y603250D02*
X1934500D01*
X1939500Y607250D02*
Y622250D01*
X1878500Y603250D02*
Y626250D01*
X1897500D01*
X1878500Y603250D02*
X1897500D01*
X1917000Y593500D02*
X1934000D01*
X1934000Y570500D02*
X1939000Y574500D01*
X1934000Y593500D02*
X1939000Y589500D01*
X1917000Y570500D02*
X1934000D01*
X1939000Y574500D02*
Y589500D01*
X1878000Y570500D02*
Y593500D01*
X1897000D01*
X1878000Y570500D02*
X1897000D01*
X1324680Y753040D02*
Y903040D01*
X1174680Y753040D02*
Y903040D01*
X1324680D01*
X1174680Y753040D02*
X1324680D01*
X1174680Y758838D02*
X1180478Y753040D01*
X1649360Y1191260D02*
Y1242060D01*
X886060Y1191260D02*
Y1242060D01*
X1649360D01*
X886060Y1191260D02*
X1649360D01*
X1736060Y353360D02*
Y1116660D01*
X1786860Y353360D02*
Y1116660D01*
X1736060D02*
X1786860D01*
X1736060Y353360D02*
X1786860D01*
X736060D02*
Y1116660D01*
X786860Y353360D02*
Y1116660D01*
X736060D02*
X786860D01*
X736060Y353360D02*
X786860D01*
X1455750Y451500D02*
X1555750D01*
X1455750Y551500D02*
X1555750D01*
Y451500D02*
Y551500D01*
X1455750Y451500D02*
Y551500D01*
Y541500D02*
X1465750Y551500D01*
X612140Y1140460D02*
X637540D01*
X612140D02*
Y1242060D01*
X637540Y1140460D02*
Y1242060D01*
X612140D02*
X637540D01*
X1587500Y345750D02*
X1595500D01*
X1587500Y360750D02*
X1595500D01*
X1794150Y328950D02*
X1832350D01*
X1794150Y208550D02*
Y328950D01*
Y208550D02*
X1832350D01*
X1878350D02*
X1958150D01*
Y208550D02*
Y328950D01*
X1878350D02*
X1958150D01*
X1679250Y232750D02*
X1687250D01*
X1679250Y217750D02*
X1687250D01*
X1679250Y195250D02*
X1687250D01*
X1679250Y210250D02*
X1687250D01*
X1678750Y360750D02*
X1686750D01*
X1678750Y336750D02*
X1686750D01*
X1678750Y305500D02*
X1686750D01*
X1678750Y329500D02*
X1686750D01*
X1430700Y244450D02*
Y330050D01*
X1405300Y244450D02*
X1430700D01*
X1405300D02*
Y330050D01*
X1430700D01*
X775500Y265500D02*
Y273500D01*
X790500Y265500D02*
Y273500D01*
X707750Y201250D02*
Y209250D01*
X722750Y201250D02*
Y209250D01*
X790500Y201250D02*
Y209250D01*
X775500Y201250D02*
Y209250D01*
X896000Y201250D02*
Y205250D01*
X926000Y201250D02*
Y205250D01*
X896000Y201250D02*
X926000D01*
X896000Y205250D02*
X926000D01*
X1124500Y437250D02*
Y444500D01*
X1118500Y437250D02*
X1124500D01*
Y460000D02*
Y467250D01*
X1118500D02*
X1124500D01*
X1167500Y434750D02*
Y442750D01*
X1182500Y434750D02*
Y442750D01*
X1211300Y434750D02*
Y442750D01*
X1196300Y434750D02*
Y442750D01*
X1240100Y434750D02*
Y442750D01*
X1225100Y434750D02*
Y442750D01*
X1268900Y434750D02*
Y442750D01*
X1253900Y434750D02*
Y442750D01*
X1297700Y434750D02*
Y442750D01*
X1282700Y434750D02*
Y442750D01*
X1326500Y434750D02*
Y442750D01*
X1311500Y434750D02*
Y442750D01*
X1327000Y481250D02*
Y489250D01*
X1312000Y481250D02*
Y489250D01*
X1182000Y481250D02*
Y489250D01*
X1167000Y481250D02*
Y489250D01*
X1092500Y758750D02*
X1100500D01*
X1092500Y773750D02*
X1100500D01*
X1092250Y808750D02*
X1100250D01*
X1092250Y823750D02*
X1100250D01*
X1092500Y874750D02*
X1100500D01*
X1092500Y889750D02*
X1100500D01*
X1166500Y962500D02*
Y970500D01*
X1181500Y962500D02*
Y970500D01*
X1217334Y962500D02*
Y970500D01*
X1232334Y962500D02*
Y970500D01*
X1268169Y962500D02*
Y970500D01*
X1283169Y962500D02*
Y970500D01*
X1319003Y962500D02*
Y970500D01*
X1334003Y962500D02*
Y970500D01*
X1318500Y562500D02*
X1326500D01*
X1318500Y577500D02*
X1326500D01*
X1318750Y586000D02*
X1326750D01*
X1318750Y601000D02*
X1326750D01*
X1617750Y761750D02*
Y769750D01*
X1593750Y761750D02*
Y769750D01*
X1583000Y761250D02*
Y769250D01*
X1559000Y761250D02*
Y769250D01*
X1547000Y761750D02*
Y769750D01*
X1523000Y761750D02*
Y769750D01*
X1531850Y959500D02*
X1572150D01*
X1593150D02*
X1633450D01*
Y875500D02*
Y959500D01*
X1531850Y875500D02*
X1633450D01*
X1531850D02*
Y959500D01*
X1651250Y761500D02*
Y769500D01*
X1627250Y761500D02*
Y769500D01*
X1678750Y241500D02*
X1686750D01*
X1678750Y265500D02*
X1686750D01*
X1678750Y273700D02*
X1686750D01*
X1678750Y297700D02*
X1686750D01*
X1379250Y779006D02*
X1387250D01*
X1379250Y764006D02*
X1387250D01*
X1379250Y788005D02*
X1387250D01*
X1379250Y803005D02*
X1387250D01*
X1379250Y812003D02*
X1387250D01*
X1379250Y827003D02*
X1387250D01*
X1379250Y851002D02*
X1387250D01*
X1379250Y836002D02*
X1387250D01*
X1379250Y860001D02*
X1387250D01*
X1379250Y875001D02*
X1387250D01*
X1379250Y899000D02*
X1387250D01*
X1379250Y884000D02*
X1387250D01*
X608450Y265300D02*
Y290700D01*
X532250Y265300D02*
X608450D01*
X532250D02*
Y290700D01*
X608450D01*
X610700Y208800D02*
Y234200D01*
X534500Y208800D02*
X610700D01*
X534500D02*
Y234200D01*
X610700D01*
X1173300Y112600D02*
X1198700D01*
X1173300D02*
Y214200D01*
X1198700Y112600D02*
Y214200D01*
X1173300D02*
X1198700D01*
X1158750Y962500D02*
Y970500D01*
X1143750Y962500D02*
Y970500D01*
X1194500Y962750D02*
Y970750D01*
X1209500Y962750D02*
Y970750D01*
X1259000Y962000D02*
Y970000D01*
X1244000Y962000D02*
Y970000D01*
X1309250Y962250D02*
Y970250D01*
X1294250Y962250D02*
Y970250D01*
X1619500Y829500D02*
Y837500D01*
X1595500Y829500D02*
Y837500D01*
X1600000Y544500D02*
X1680000D01*
X1600000Y449500D02*
X1680000D01*
X1600000D02*
Y544500D01*
X1680000Y449500D02*
Y544500D01*
X1670000Y449500D02*
X1680000Y459500D01*
X1670250Y555750D02*
X1680250Y565750D01*
Y555750D02*
Y650750D01*
X1600250Y555750D02*
Y650750D01*
Y555750D02*
X1680250D01*
X1600250Y650750D02*
X1680250D01*
D59*
X522500Y95000D02*
Y1385000D01*
Y95000D02*
X1965000D01*
Y1385000D01*
X522500D02*
X1965000D01*
D62*
X1202750Y584500D02*
G03*
X1202750Y584500I-1250J0D01*
G01*
X1177430Y746540D02*
G03*
X1177430Y746540I-1250J0D01*
G01*
X1450500Y550000D02*
G03*
X1450500Y550000I-1250J0D01*
G01*
X1788900Y281250D02*
G03*
X1788900Y281250I-1250J0D01*
G01*
X1419240Y334860D02*
G03*
X1419240Y334860I-1250J0D01*
G01*
X894250Y191500D02*
G03*
X894250Y191500I-1250J0D01*
G01*
X1110000Y471000D02*
G03*
X1110000Y471000I-1250J0D01*
G01*
X1687750Y451000D02*
G03*
X1687750Y451000I-1250J0D01*
G01*
X1688000Y557250D02*
G03*
X1688000Y557250I-1250J0D01*
G01*
D63*
X572530Y375630D02*
G03*
X572530Y327370I0J-24130D01*
G01*
X688100Y321020D02*
Y332450D01*
X662700D02*
X688100D01*
X662700D02*
Y370550D01*
X688100D01*
Y381980D01*
X572530Y327370D02*
X597930D01*
X572530Y375630D02*
X597930D01*
Y321020D02*
X688100D01*
X597930D02*
Y381980D01*
X688100D01*
D64*
X1207794Y1297319D02*
X1212873D01*
X1210334D01*
Y1312554D01*
X1207794Y1310015D01*
X1220490D02*
X1223029Y1312554D01*
X1228108D01*
X1230647Y1310015D01*
Y1299859D01*
X1228108Y1297319D01*
X1223029D01*
X1220490Y1299859D01*
Y1310015D01*
X1235725D02*
X1238265Y1312554D01*
X1243343D01*
X1245882Y1310015D01*
Y1299859D01*
X1243343Y1297319D01*
X1238265D01*
X1235725Y1299859D01*
Y1310015D01*
X1253500Y1294780D02*
X1256039Y1297319D01*
Y1299859D01*
X1253500D01*
Y1297319D01*
X1256039D01*
X1253500Y1294780D01*
X1250960Y1292241D01*
X1266196Y1310015D02*
X1268735Y1312554D01*
X1273813D01*
X1276352Y1310015D01*
Y1299859D01*
X1273813Y1297319D01*
X1268735D01*
X1266196Y1299859D01*
Y1310015D01*
X1281431D02*
X1283970Y1312554D01*
X1289048D01*
X1291587Y1310015D01*
Y1299859D01*
X1289048Y1297319D01*
X1283970D01*
X1281431Y1299859D01*
Y1310015D01*
D65*
X1821304Y154320D02*
X1812840D01*
X1821304Y162784D01*
Y164900D01*
X1819188Y167016D01*
X1814956D01*
X1812840Y164900D01*
X1825536D02*
X1827652Y167016D01*
X1831884D01*
X1834000Y164900D01*
Y156436D01*
X1831884Y154320D01*
X1827652D01*
X1825536Y156436D01*
Y164900D01*
X1812840Y128920D02*
X1817072D01*
X1814956D01*
Y141616D01*
X1812840Y139500D01*
X1823420Y131036D02*
X1825536Y128920D01*
X1829768D01*
X1831884Y131036D01*
Y139500D01*
X1829768Y141616D01*
X1825536D01*
X1823420Y139500D01*
Y137384D01*
X1825536Y135268D01*
X1831884D01*
X1543600Y128920D02*
X1547832D01*
X1545716D01*
Y141616D01*
X1543600Y139500D01*
X1552064Y154320D02*
X1543600D01*
X1552064Y162784D01*
Y164900D01*
X1549948Y167016D01*
X1545716D01*
X1543600Y164900D01*
X881824Y1224280D02*
X873360D01*
X881824Y1232744D01*
Y1234860D01*
X879708Y1236976D01*
X875476D01*
X873360Y1234860D01*
Y1198880D02*
X877592D01*
X875476D01*
Y1211576D01*
X873360Y1209460D01*
X1664144Y1211576D02*
X1655680D01*
Y1205228D01*
X1659912Y1207344D01*
X1662028D01*
X1664144Y1205228D01*
Y1200996D01*
X1662028Y1198880D01*
X1657796D01*
X1655680Y1200996D01*
X1668376D02*
X1670492Y1198880D01*
X1674724D01*
X1676840Y1200996D01*
Y1209460D01*
X1674724Y1211576D01*
X1670492D01*
X1668376Y1209460D01*
Y1207344D01*
X1670492Y1205228D01*
X1676840D01*
X1664144Y1236976D02*
X1659912Y1234860D01*
X1655680Y1230628D01*
Y1226396D01*
X1657796Y1224280D01*
X1662028D01*
X1664144Y1226396D01*
Y1228512D01*
X1662028Y1230628D01*
X1655680D01*
X1668376Y1234860D02*
X1670492Y1236976D01*
X1674724D01*
X1676840Y1234860D01*
Y1226396D01*
X1674724Y1224280D01*
X1670492D01*
X1668376Y1226396D01*
Y1234860D01*
X1781776Y338576D02*
X1779660Y342808D01*
X1775428Y347040D01*
X1771196D01*
X1769080Y344924D01*
Y340692D01*
X1771196Y338576D01*
X1773312D01*
X1775428Y340692D01*
Y347040D01*
X1779660Y334344D02*
X1781776Y332228D01*
Y327996D01*
X1779660Y325880D01*
X1771196D01*
X1769080Y327996D01*
Y332228D01*
X1771196Y334344D01*
X1779660D01*
X1756376Y338576D02*
Y347040D01*
X1750028D01*
X1752144Y342808D01*
Y340692D01*
X1750028Y338576D01*
X1745796D01*
X1743680Y340692D01*
Y344924D01*
X1745796Y347040D01*
Y334344D02*
X1743680Y332228D01*
Y327996D01*
X1745796Y325880D01*
X1754260D01*
X1756376Y327996D01*
Y332228D01*
X1754260Y334344D01*
X1752144D01*
X1750028Y332228D01*
Y325880D01*
X1743680Y1129360D02*
Y1125128D01*
Y1127244D01*
X1756376D01*
X1754260Y1129360D01*
X1769080Y1120896D02*
Y1129360D01*
X1777544Y1120896D01*
X1779660D01*
X1781776Y1123012D01*
Y1127244D01*
X1779660Y1129360D01*
X781776Y338576D02*
X779660Y342808D01*
X775428Y347040D01*
X771196D01*
X769080Y344924D01*
Y340692D01*
X771196Y338576D01*
X773312D01*
X775428Y340692D01*
Y347040D01*
X779660Y334344D02*
X781776Y332228D01*
Y327996D01*
X779660Y325880D01*
X771196D01*
X769080Y327996D01*
Y332228D01*
X771196Y334344D01*
X779660D01*
X756376Y338576D02*
Y347040D01*
X750028D01*
X752144Y342808D01*
Y340692D01*
X750028Y338576D01*
X745796D01*
X743680Y340692D01*
Y344924D01*
X745796Y347040D01*
Y334344D02*
X743680Y332228D01*
Y327996D01*
X745796Y325880D01*
X754260D01*
X756376Y327996D01*
Y332228D01*
X754260Y334344D01*
X752144D01*
X750028Y332228D01*
Y325880D01*
X743680Y1129360D02*
Y1125128D01*
Y1127244D01*
X756376D01*
X754260Y1129360D01*
X769080Y1120896D02*
Y1129360D01*
X777544Y1120896D01*
X779660D01*
X781776Y1123012D01*
Y1127244D01*
X779660Y1129360D01*
M02*
