%FSLAX44Y44*%
%MOMM*%
G71*
G01*
G75*
G04 Layer_Color=16711935*
%ADD10R,2.0000X4.0000*%
%ADD11R,0.4500X2.0000*%
%ADD12R,1.1000X1.7000*%
%ADD13C,0.4000*%
%ADD14R,1.7000X1.1000*%
%ADD15R,2.6000X1.1000*%
%ADD16R,1.5000X1.5000*%
%ADD17C,0.3600*%
%ADD18C,0.3000*%
%ADD19R,1.1000X2.6000*%
%ADD20R,0.6000X1.1500*%
%ADD21R,1.1500X0.7500*%
%ADD22R,2.0000X2.0000*%
%ADD23C,2.0000*%
%ADD24C,0.2540*%
%ADD25C,0.3048*%
%ADD26C,0.1000*%
%ADD27C,1.0000*%
%ADD28C,0.4000*%
%ADD29C,2.0000*%
%ADD30C,0.5080*%
%ADD31C,0.2000*%
%ADD32C,0.5000*%
%ADD33C,1.5240*%
%ADD34C,1.5000*%
%ADD35R,1.5000X1.5000*%
%ADD36C,3.8000*%
%ADD37C,1.6000*%
%ADD38R,1.6000X1.6000*%
%ADD39R,1.8500X1.8500*%
%ADD40C,1.8500*%
%ADD41R,1.3500X1.3500*%
%ADD42C,1.3500*%
%ADD43R,1.3500X1.3500*%
%ADD44C,1.7780*%
%ADD45C,1.0000*%
%ADD46C,1.2700*%
%ADD47C,7.0000*%
%ADD48C,1.0160*%
%ADD49C,1.1620*%
%ADD50C,1.3000*%
%ADD51C,2.7000*%
%ADD52C,1.3200*%
%ADD53C,1.2000*%
%ADD54C,1.6700*%
%ADD55C,0.9000*%
%ADD56C,0.6500*%
%ADD57C,5.4000*%
%ADD58C,0.3000*%
%ADD59C,0.0025*%
G04:AMPARAMS|DCode=60|XSize=1.7mm|YSize=1.1mm|CornerRadius=0mm|HoleSize=0mm|Usage=FLASHONLY|Rotation=225.000|XOffset=0mm|YOffset=0mm|HoleType=Round|Shape=Rectangle|*
%AMROTATEDRECTD60*
4,1,4,0.2121,0.9900,0.9900,0.2121,-0.2121,-0.9900,-0.9900,-0.2121,0.2121,0.9900,0.0*
%
%ADD60ROTATEDRECTD60*%

%ADD61C,3.0000*%
%ADD62C,0.2500*%
%ADD63C,0.1270*%
%ADD64C,0.1524*%
%ADD65C,0.2032*%
%ADD66R,2.2032X4.2032*%
%ADD67R,0.6532X2.2032*%
%ADD68R,1.3032X1.9032*%
%ADD69C,0.6032*%
%ADD70R,1.9032X1.3032*%
%ADD71R,2.8032X1.3032*%
%ADD72R,1.7032X1.7032*%
%ADD73C,0.4800*%
%ADD74C,0.5032*%
%ADD75R,1.3032X2.8032*%
%ADD76R,0.8032X1.3532*%
%ADD77R,1.3532X0.9532*%
%ADD78R,2.2032X2.2032*%
%ADD79C,2.2032*%
%ADD80C,0.4200*%
%ADD81C,1.7272*%
%ADD82C,1.7032*%
%ADD83R,1.7032X1.7032*%
%ADD84C,4.0032*%
%ADD85C,1.8032*%
%ADD86R,1.8032X1.8032*%
%ADD87R,2.0532X2.0532*%
%ADD88C,2.0532*%
%ADD89R,1.5532X1.5532*%
%ADD90C,1.5532*%
%ADD91R,1.5532X1.5532*%
%ADD92C,1.9812*%
%ADD93C,1.2032*%
%ADD94C,1.4732*%
%ADD95C,7.2032*%
G04:AMPARAMS|DCode=96|XSize=1.9032mm|YSize=1.3032mm|CornerRadius=0mm|HoleSize=0mm|Usage=FLASHONLY|Rotation=225.000|XOffset=0mm|YOffset=0mm|HoleType=Round|Shape=Rectangle|*
%AMROTATEDRECTD96*
4,1,4,0.2121,1.1336,1.1336,0.2121,-0.2121,-1.1336,-1.1336,-0.2121,0.2121,1.1336,0.0*
%
%ADD96ROTATEDRECTD96*%

D24*
X517750Y1389500D02*
X1968750D01*
Y91250D02*
Y1389500D01*
X517750Y90750D02*
X1968250D01*
X517750D02*
Y1389250D01*
D26*
X1906170Y410470D02*
Y414470D01*
X1904170Y412470D02*
X1908170D01*
X1906000Y470250D02*
Y474250D01*
X1904000Y472250D02*
X1908000D01*
X1906170Y500500D02*
Y504500D01*
X1904170Y502500D02*
X1908170D01*
X1906170Y439710D02*
Y443710D01*
X1904170Y441710D02*
X1908170D01*
X1907500Y643250D02*
Y647250D01*
X1905500Y645250D02*
X1909500D01*
X1906750Y674250D02*
Y678250D01*
X1904750Y676250D02*
X1908750D01*
X1907500Y612750D02*
Y616750D01*
X1905500Y614750D02*
X1909500D01*
X1907000Y580000D02*
Y584000D01*
X1905000Y582000D02*
X1909000D01*
M02*
