%FSLAX44Y44*%
%MOMM*%
G71*
G01*
G75*
G04 Layer_Physical_Order=3*
G04 Layer_Color=16440176*
%ADD10R,2.0000X4.0000*%
%ADD11R,0.4500X2.0000*%
%ADD12R,1.1000X1.7000*%
%ADD13C,0.4000*%
%ADD14R,1.7000X1.1000*%
%ADD15R,2.6000X1.1000*%
%ADD16R,1.5000X1.5000*%
%ADD17C,0.3600*%
%ADD18C,0.3000*%
%ADD19R,1.1000X2.6000*%
%ADD20R,0.6000X1.1500*%
%ADD21R,1.1500X0.7500*%
%ADD22R,2.0000X2.0000*%
%ADD23C,2.0000*%
%ADD24C,0.2540*%
%ADD25C,0.3048*%
%ADD26C,0.1000*%
%ADD27C,1.0000*%
%ADD28C,0.4000*%
%ADD29C,2.0000*%
%ADD30C,0.5080*%
%ADD31C,0.2000*%
%ADD32C,0.5000*%
%ADD33C,1.5240*%
%ADD34C,1.5000*%
%ADD35R,1.5000X1.5000*%
%ADD36C,3.8000*%
%ADD37C,1.6000*%
%ADD38R,1.6000X1.6000*%
%ADD39R,1.8500X1.8500*%
%ADD40C,1.8500*%
%ADD41R,1.3500X1.3500*%
%ADD42C,1.3500*%
%ADD43R,1.3500X1.3500*%
%ADD44C,1.7780*%
%ADD45C,1.0000*%
%ADD46C,1.2700*%
%ADD47C,7.0000*%
%ADD48C,1.0160*%
%ADD49C,1.1620*%
%ADD50C,1.3000*%
%ADD51C,2.7000*%
%ADD52C,1.3200*%
%ADD53C,1.2000*%
%ADD54C,1.6700*%
%ADD55C,0.9000*%
%ADD56C,0.6500*%
%ADD57C,5.4000*%
%ADD58C,0.3000*%
D13*
X1560250Y636500D02*
D03*
X1647250Y596000D02*
D03*
X1461750Y497500D02*
D03*
X1647250Y573500D02*
D03*
X1485750Y473500D02*
D03*
X1662250Y633500D02*
D03*
X1469750Y497500D02*
D03*
X1281680Y780040D02*
D03*
X1225680Y772040D02*
D03*
X1233680Y804040D02*
D03*
X1265680Y788040D02*
D03*
X1193680Y852040D02*
D03*
X1177680Y860040D02*
D03*
Y852040D02*
D03*
Y844040D02*
D03*
Y836040D02*
D03*
X1209680Y852040D02*
D03*
X1177680Y804040D02*
D03*
Y796040D02*
D03*
Y788040D02*
D03*
Y780040D02*
D03*
Y772040D02*
D03*
Y812040D02*
D03*
Y764040D02*
D03*
Y820040D02*
D03*
Y876040D02*
D03*
Y868040D02*
D03*
Y884040D02*
D03*
X1281680Y836040D02*
D03*
Y764040D02*
D03*
X1289680Y900040D02*
D03*
X1225680Y860040D02*
D03*
X1217680Y868040D02*
D03*
Y876040D02*
D03*
X1193680Y892040D02*
D03*
X1209680Y884040D02*
D03*
X1305680Y900040D02*
D03*
X1289680Y852040D02*
D03*
X1233680Y860040D02*
D03*
X1281680Y844040D02*
D03*
X1233680Y852040D02*
D03*
X1273680Y844040D02*
D03*
X1525750Y513500D02*
D03*
Y521500D02*
D03*
X1265680Y796040D02*
D03*
X1313680Y772040D02*
D03*
X1281680Y900040D02*
D03*
X1257680D02*
D03*
X1273680D02*
D03*
X1201680Y892040D02*
D03*
X1321680Y764040D02*
D03*
X1273680Y772040D02*
D03*
X1241680Y860040D02*
D03*
X1225680Y756040D02*
D03*
X1209680Y772040D02*
D03*
X1257680Y788040D02*
D03*
Y796040D02*
D03*
X1228000Y540000D02*
D03*
X1236000D02*
D03*
X1260000Y532000D02*
D03*
Y540000D02*
D03*
X1268000D02*
D03*
Y548000D02*
D03*
X1276000Y540000D02*
D03*
X1654500Y474750D02*
D03*
X1617250Y626000D02*
D03*
X1461750Y545500D02*
D03*
X1533750Y521500D02*
D03*
X1662250Y626000D02*
D03*
X1461750Y513500D02*
D03*
X1617250Y618500D02*
D03*
X1469750Y537500D02*
D03*
X1624750Y618500D02*
D03*
X1469750Y545500D02*
D03*
X1647250Y618500D02*
D03*
X1654750D02*
D03*
X1477750Y513500D02*
D03*
X1662250Y618500D02*
D03*
X1469750Y513500D02*
D03*
X1624750Y611000D02*
D03*
X1477750Y545500D02*
D03*
X1624750Y596000D02*
D03*
X1477750Y537500D02*
D03*
X1654750Y596000D02*
D03*
X1469750Y521500D02*
D03*
X1617250Y588500D02*
D03*
X1477750Y529500D02*
D03*
X1624750Y588500D02*
D03*
X1485750Y545500D02*
D03*
X1617250Y581000D02*
D03*
X1485750Y537500D02*
D03*
X1461750D02*
D03*
X1654750Y573500D02*
D03*
X1509750Y529500D02*
D03*
X1513500Y492750D02*
D03*
X1533750Y481500D02*
D03*
X1549750D02*
D03*
X1541750D02*
D03*
X1549750Y473500D02*
D03*
X1541750D02*
D03*
X1525750Y481500D02*
D03*
D16*
X898760Y1203960D02*
D03*
D24*
X962000Y952500D02*
X1081000D01*
X861000Y1053500D02*
X962000Y952500D01*
X774160Y1053500D02*
X861000D01*
X1060710Y793960D02*
Y796040D01*
X901223Y634473D02*
X1060710Y793960D01*
X901223Y623722D02*
Y634473D01*
X1305680Y915680D02*
X1509000Y1119000D01*
X1305680Y906180D02*
Y915680D01*
X1509000Y1119000D02*
Y1204000D01*
X1410000Y1124750D02*
Y1201000D01*
X1335000Y1049750D02*
X1410000Y1124750D01*
X1335000Y964064D02*
Y1049750D01*
X774160Y367360D02*
X791550Y384750D01*
X849750Y1077500D02*
X967000Y960250D01*
X774750Y1077500D02*
X849750D01*
X1169460Y884040D02*
X1172000D01*
X1077500Y976000D02*
X1169460Y884040D01*
X1083000Y960250D02*
X1167210Y876040D01*
X967000Y960250D02*
X1083000D01*
X774160Y824560D02*
X776470Y822250D01*
X1278500Y1202750D02*
X1280750D01*
X1287854Y941670D02*
X1288000Y941816D01*
X1078000Y720000D02*
X1089250Y731250D01*
X898500Y1203250D02*
X900000Y1201750D01*
X1100000Y1201250D02*
X1102500Y1203750D01*
X1150000Y1201000D02*
X1153000Y1204000D01*
X1200000Y1199500D02*
X1203750Y1203250D01*
X1080875Y982875D02*
X1146500Y917250D01*
X949750Y1130250D02*
Y1203250D01*
Y1130250D02*
X1150250Y929750D01*
X900000Y1130000D02*
Y1201750D01*
Y1130000D02*
X1047125Y982875D01*
X1080875D01*
X1000360Y1129640D02*
Y1203960D01*
Y1129640D02*
X1176250Y953750D01*
X1050250Y1129750D02*
Y1203250D01*
Y1129750D02*
X1180000Y1000000D01*
X1150000Y1130000D02*
Y1201000D01*
X1100000Y1130000D02*
Y1201250D01*
X1200000Y1130000D02*
Y1199500D01*
X1288000Y941816D02*
Y1108000D01*
X1310000Y1130000D01*
Y1200250D01*
X1306000Y1204250D02*
X1310000Y1200250D01*
X1355750Y1205000D02*
X1360000Y1200750D01*
X1308750Y950250D02*
Y1068750D01*
X1360000Y1120000D01*
Y1200750D01*
X1406500Y1204500D02*
X1410000Y1201000D01*
X1353000Y970750D02*
Y1013000D01*
X1459250Y1119250D01*
Y1203250D01*
X1150000Y1130000D02*
X1229750Y1050250D01*
Y917000D02*
Y1050250D01*
X1150250Y929750D02*
X1180250D01*
X1256750Y1228000D02*
X1266750Y1218000D01*
Y931500D02*
Y1218000D01*
X1248470Y922220D02*
Y1197220D01*
X1255250Y1204000D01*
X1237500Y989620D02*
Y1092500D01*
X1200000Y1130000D02*
X1237500Y1092500D01*
X774160Y1103960D02*
X775620Y1102500D01*
X850000D01*
X976500Y976000D01*
X1077500D01*
X774160Y1027760D02*
X849740D01*
X930750Y946750D01*
X1066500D01*
X774160Y976960D02*
X848540D01*
X913000Y912500D01*
X1087500D01*
X774160Y926160D02*
X848840D01*
X883750Y891250D01*
X1086250D01*
X774160Y875360D02*
X1070390D01*
X1080500Y865250D01*
X776470Y822250D02*
X849750D01*
X871540Y844040D01*
X1067790D01*
X774160Y773760D02*
X848760D01*
X911040Y836040D01*
X1078040D01*
X774160Y722960D02*
X848210D01*
X945290Y820040D01*
X1055290D01*
X774160Y672160D02*
X849660D01*
X989540Y812040D01*
X774160Y621360D02*
X847760D01*
X1030440Y804040D01*
X1068210D01*
X774160Y468960D02*
X846460D01*
X774160Y570560D02*
X848060D01*
X901223Y623722D01*
X1050000Y727000D02*
X1065500Y742500D01*
X1015000Y722500D02*
X1080540Y788040D01*
X846460Y468960D02*
X1030000Y652500D01*
Y727500D01*
X774160Y418160D02*
X848160D01*
X774160Y519760D02*
X849760D01*
X1015000Y685000D01*
Y722500D01*
X791550Y384750D02*
X848690D01*
X898620Y468620D02*
Y483620D01*
X848160Y418160D02*
X898620Y468620D01*
Y483620D02*
X1050000Y635000D01*
Y727000D01*
X906018Y442077D02*
Y458517D01*
X848690Y384750D02*
X906018Y442077D01*
Y458517D02*
X1078000Y630500D01*
Y720000D01*
X1100000Y1130000D02*
X1221750Y1008250D01*
Y905500D02*
Y1008250D01*
X1330686Y959750D02*
X1335000Y964064D01*
X1762500Y1090000D02*
X1775000Y1102500D01*
X1350000Y864500D02*
X1350500Y865000D01*
X1350000Y840500D02*
X1471500D01*
X1349000Y848000D02*
X1350080Y849080D01*
X1471500Y840500D02*
X1490000Y859000D01*
X1350080Y849080D02*
X1472896D01*
X1665666Y1041850D01*
X1762850D02*
X1774160Y1053160D01*
X1763000Y1067000D02*
X1775000Y1079000D01*
X1665666Y1041850D02*
X1762850D01*
X1764000Y1016000D02*
X1776000Y1028000D01*
X1732360Y1002360D02*
X1748760D01*
X1348000Y800000D02*
X1530000D01*
X1732360Y1002360D01*
X1490000Y859000D02*
X1515250D01*
X1672250Y1016000D01*
X1764000D01*
X1726800Y114000D02*
X1746800Y134000D01*
X1560250Y114000D02*
X1726800D01*
X1541500Y132750D02*
X1560250Y114000D01*
X1363000Y793500D02*
X1549000D01*
X1625500Y779000D02*
X1639250Y792750D01*
X1328750Y779000D02*
X1625500D01*
X1653000Y773500D02*
X1672000Y792500D01*
X1321680Y764040D02*
X1336790D01*
X1346250Y773500D02*
X1653000D01*
X1336790Y764040D02*
X1346250Y773500D01*
X1868000Y647000D02*
X1870000Y645000D01*
X1350500Y865000D02*
X1464500D01*
X1689500Y1090000D01*
X1762500D01*
X1350000Y856500D02*
X1468750D01*
X1679250Y1067000D01*
X1763000D01*
X1419250Y300500D02*
Y312500D01*
Y300500D02*
X1541500Y178250D01*
Y132750D02*
Y178250D01*
D26*
X1263500Y630250D02*
G03*
X1263500Y634250I-583J2000D01*
G01*
Y614250D02*
G03*
X1263500Y610250I0J-2000D01*
G01*
X1231750Y642500D02*
G03*
X1231750Y646500I0J2000D01*
G01*
Y634500D02*
G03*
X1231750Y638500I0J2000D01*
G01*
Y618500D02*
G03*
X1231750Y622500I0J2000D01*
G01*
Y610500D02*
G03*
X1231750Y614500I0J2000D01*
G01*
Y626500D02*
G03*
X1231750Y630500I0J2000D01*
G01*
Y642500D02*
G03*
X1231750Y638500I0J-2000D01*
G01*
Y634500D02*
G03*
X1231750Y630500I0J-2000D01*
G01*
Y618500D02*
G03*
X1231750Y614500I0J-2000D01*
G01*
Y626500D02*
G03*
X1231750Y622500I0J-2000D01*
G01*
Y594500D02*
G03*
X1231750Y598500I0J2000D01*
G01*
Y586500D02*
G03*
X1231750Y590500I0J2000D01*
G01*
Y602500D02*
G03*
X1231750Y606500I0J2000D01*
G01*
Y602500D02*
G03*
X1231750Y598500I0J-2000D01*
G01*
Y594500D02*
G03*
X1231750Y590500I0J-2000D01*
G01*
Y610500D02*
G03*
X1231750Y606500I0J-2000D01*
G01*
Y586500D02*
G03*
X1231750Y582500I0J-2000D01*
G01*
X1213750Y718250D02*
G03*
X1213750Y722250I0J2000D01*
G01*
Y710250D02*
G03*
X1213750Y714250I0J2000D01*
G01*
Y726250D02*
G03*
X1213750Y730250I0J2000D01*
G01*
Y734250D02*
G03*
X1213750Y730250I0J-2000D01*
G01*
Y718250D02*
G03*
X1213750Y714250I0J-2000D01*
G01*
Y726250D02*
G03*
X1213750Y722250I0J-2000D01*
G01*
Y694250D02*
G03*
X1213750Y698250I0J2000D01*
G01*
Y686250D02*
G03*
X1213750Y690250I0J2000D01*
G01*
Y702250D02*
G03*
X1213750Y706250I0J2000D01*
G01*
Y678250D02*
G03*
X1213750Y682250I0J2000D01*
G01*
Y702250D02*
G03*
X1213750Y698250I0J-2000D01*
G01*
Y694250D02*
G03*
X1213750Y690250I0J-2000D01*
G01*
Y710250D02*
G03*
X1213750Y706250I0J-2000D01*
G01*
Y686250D02*
G03*
X1213750Y682250I0J-2000D01*
G01*
X1263500Y630250D02*
G03*
X1263500Y626250I0J-2000D01*
G01*
Y622250D02*
G03*
X1263500Y626250I-583J2000D01*
G01*
Y622250D02*
G03*
X1263500Y618250I0J-2000D01*
G01*
Y614250D02*
G03*
X1263500Y618250I-583J2000D01*
G01*
Y634250D02*
Y638750D01*
Y544500D02*
Y610250D01*
X1231750Y646500D02*
Y653000D01*
Y544250D02*
Y582500D01*
X1213750Y734250D02*
Y768000D01*
Y671000D02*
Y678250D01*
X1559000Y635250D02*
X1560250Y636500D01*
X1545250Y635250D02*
X1559000D01*
X1457750Y547750D02*
X1545250Y635250D01*
X1621500Y622000D02*
X1624750Y618750D01*
X1543250Y622000D02*
X1621500D01*
X1469750Y548500D02*
X1543250Y622000D01*
X1617250Y626000D02*
X1617250Y626000D01*
X1542250Y626000D02*
X1617250D01*
X1461500Y545250D02*
X1542250Y626000D01*
X1633250Y640250D02*
X1643750Y629750D01*
X1545000Y640250D02*
X1633250D01*
X1454750Y550000D02*
X1545000Y640250D01*
X1651000Y642250D02*
X1658750Y634500D01*
X1543250Y642250D02*
X1651000D01*
X1452750Y551750D02*
X1543250Y642250D01*
X1652000Y644250D02*
X1662500Y633750D01*
X1541750Y644250D02*
X1652000D01*
X1450500Y553000D02*
X1541750Y644250D01*
X1617000Y618250D02*
X1617250Y618500D01*
X1543000Y618250D02*
X1617000D01*
X1473750Y549000D02*
X1543000Y618250D01*
X1621000Y614750D02*
X1624750Y611000D01*
X1544000Y614750D02*
X1621000D01*
X1477750Y548500D02*
X1544000Y614750D01*
X1610250Y610500D02*
X1624750Y596000D01*
X1545250Y610500D02*
X1610250D01*
X1481500Y546750D02*
X1545250Y610500D01*
X1661000Y629500D02*
X1664000D01*
X1658750Y631750D02*
X1661000Y629500D01*
X1658750Y631750D02*
Y634500D01*
X1660500Y625750D02*
X1662250D01*
X1656500Y629750D02*
X1660500Y625750D01*
X1643750Y629750D02*
X1656500D01*
X1467000Y497500D02*
X1469750D01*
X1450500Y514000D02*
X1467000Y497500D01*
X1450500Y514000D02*
Y553000D01*
X1459750Y509500D02*
X1469750D01*
X1452750Y516500D02*
X1459750Y509500D01*
X1452750Y516500D02*
Y551750D01*
X1469750Y509500D02*
Y513500D01*
X1664000Y629500D02*
X1664750Y628750D01*
X1666750Y623000D02*
Y626750D01*
X1664750Y628750D02*
X1666750Y626750D01*
X1664750Y628750D02*
X1664750D01*
X1660750Y614500D02*
X1665750D01*
X1658500Y616750D02*
X1660750Y614500D01*
X1658500Y616750D02*
Y621750D01*
X1662250Y618500D02*
X1662250D01*
X1666750Y623000D01*
X1665750Y614500D02*
X1666250Y614000D01*
X1658000Y622250D02*
X1658500Y621750D01*
X1666250Y565250D02*
Y614000D01*
X1651000Y622250D02*
X1658000D01*
X1454750Y520500D02*
Y550000D01*
Y520500D02*
X1461750Y513500D01*
X1531500Y525250D02*
X1543750D01*
X1545750Y527250D01*
Y548500D01*
X1552500Y555250D01*
X1546250Y558250D02*
X1561000D01*
X1538250Y550250D02*
X1546250Y558250D01*
X1538250Y535000D02*
Y550250D01*
X1536750Y533500D02*
X1538250Y535000D01*
X1589250Y554250D02*
X1655250D01*
X1553000Y518000D02*
X1589250Y554250D01*
X1537250Y518000D02*
X1553000D01*
X1647500Y618750D02*
X1651000Y622250D01*
X1655250Y554250D02*
X1666250Y565250D01*
X1533750Y521500D02*
X1537250Y518000D01*
X1552500Y555250D02*
X1570500D01*
X1561250Y558250D02*
X1567250D01*
X1485750Y473500D02*
X1489500Y477250D01*
X1570500Y555250D02*
X1574500Y559250D01*
X1642250D01*
X1647250Y564250D01*
Y573500D01*
X1642000Y590500D02*
X1647250Y595750D01*
X1642000Y565500D02*
Y590500D01*
X1639000Y562500D02*
X1642000Y565500D01*
X1571500Y562500D02*
X1639000D01*
X1567250Y558250D02*
X1571500Y562500D01*
X1465500Y493750D02*
X1489000D01*
X1461750Y497500D02*
X1465500Y493750D01*
X1285890Y848250D02*
X1349000D01*
X1280250Y864500D02*
X1350000D01*
X1293680Y856040D02*
X1346790D01*
X1286140Y840500D02*
X1350000D01*
X1277750Y862000D02*
X1280250Y864500D01*
X1277750Y848110D02*
Y862000D01*
X1273680Y844040D02*
X1277750Y848110D01*
X1167210Y876040D02*
X1177680D01*
X1087500Y912500D02*
X1144000Y856000D01*
X1205720D01*
X1125460Y852040D02*
X1177680D01*
X1086250Y891250D02*
X1125460Y852040D01*
X1189640Y848000D02*
X1193680Y852040D01*
X1067790Y844040D02*
X1177680D01*
X1205720Y856000D02*
X1209680Y852040D01*
X1153210Y860040D02*
X1177680D01*
X1165460Y868040D02*
X1177680D01*
X1078040Y836040D02*
X1177680D01*
X1068210Y804040D02*
X1177680D01*
X1060710Y796040D02*
X1177680D01*
X989540Y812040D02*
X1177680D01*
X1172000Y884040D02*
X1177680D01*
X1055290Y820040D02*
X1177680D01*
X1213500Y915214D02*
X1213520Y915194D01*
X1221750Y905500D02*
X1221750Y905500D01*
X1230000Y864360D02*
Y898428D01*
X1225680Y860040D02*
X1230000Y864360D01*
X1229850Y898578D02*
X1230000Y898428D01*
X1255000Y906750D02*
Y919750D01*
X1238750Y856500D02*
X1246250D01*
X1234290Y852040D02*
X1238750Y856500D01*
X1233680Y852040D02*
X1234290D01*
X1273680Y915180D02*
X1308750Y950250D01*
X1281680Y910744D02*
X1330686Y959750D01*
X1281680Y900040D02*
Y910744D01*
X1289680Y900040D02*
Y907430D01*
X1198000Y895720D02*
X1201680Y892040D01*
X1305680Y900040D02*
Y906180D01*
X1198000Y906250D02*
Y907000D01*
X1181750Y917250D02*
X1190000Y909000D01*
X1217680Y868040D02*
X1221750Y872110D01*
X1190000Y895720D02*
X1193680Y892040D01*
X1233680Y860040D02*
X1237500Y863860D01*
X1273680Y900040D02*
Y915180D01*
X1229850Y898578D02*
Y915900D01*
X1213519Y880201D02*
X1217680Y876040D01*
X1259090Y912840D02*
X1288033Y941783D01*
X1259090Y901450D02*
Y912840D01*
X1205270Y888450D02*
X1209680Y884040D01*
X1257680Y900040D02*
X1259090Y901450D01*
X1190000Y895720D02*
Y909000D01*
X1198000Y895720D02*
Y907000D01*
X1213519Y901510D02*
X1213520Y901511D01*
Y915194D01*
X1213519Y880201D02*
Y901510D01*
X1221750Y872110D02*
Y905500D01*
X1089250Y731250D02*
X1122040Y764040D01*
X1177680D01*
X1281750Y780000D02*
X1286250Y784500D01*
X1081000Y952500D02*
X1165460Y868040D01*
X1066500Y946750D02*
X1153210Y860040D01*
X1289680Y907430D02*
X1353000Y970750D01*
X1146500Y917250D02*
X1181750D01*
X1180000Y1000000D02*
X1213500Y966500D01*
Y915214D02*
Y966500D01*
X1176250Y953750D02*
X1205270Y924730D01*
Y888450D02*
Y924730D01*
X1180250Y929750D02*
X1198000Y912000D01*
Y907000D02*
Y912000D01*
X1255000Y919750D02*
X1266750Y931500D01*
X1252750Y863000D02*
Y904500D01*
X1255000Y906750D01*
X1241680Y860040D02*
X1248470Y866830D01*
Y922220D01*
X1237500Y863860D02*
Y989620D01*
X1097750Y848000D02*
X1189640D01*
X1080500Y865250D02*
X1097750Y848000D01*
X1065500Y742500D02*
X1095040Y772040D01*
X1177680D01*
X1030000Y727500D02*
X1082540Y780040D01*
X1177680D01*
X1080540Y788040D02*
X1177680D01*
X1281680Y844040D02*
X1285890Y848250D01*
X1281680Y836040D02*
X1286140Y840500D01*
X1347250Y856500D02*
X1350000D01*
X1289680Y852040D02*
X1293680Y856040D01*
X1346790D02*
X1347250Y856500D01*
X1286250Y784500D02*
X1354000D01*
X1265680Y796040D02*
X1269640Y800000D01*
X1348000D01*
X1246250Y856500D02*
X1252750Y863000D01*
X1225680Y772040D02*
X1229750Y767970D01*
X1225680Y746070D02*
X1225750Y746000D01*
X1225680Y746070D02*
Y756040D01*
X1229750Y679500D02*
Y767970D01*
X1225750Y676500D02*
Y746000D01*
X1276000Y540000D02*
X1279750Y543750D01*
X1293000D02*
Y605000D01*
X1260000Y532000D02*
X1261500Y530500D01*
X1293000D01*
X1299000Y536500D01*
X1260000Y540000D02*
X1265250Y534750D01*
X1284000D01*
X1293000Y543750D01*
X1299000Y536500D02*
Y716500D01*
X1252250Y790610D02*
X1257680Y796040D01*
X1252250Y672750D02*
Y790610D01*
Y672750D02*
X1279500Y645500D01*
Y594500D02*
Y645500D01*
X1279750Y543750D02*
Y594750D01*
X1258250Y788000D02*
X1262500Y792250D01*
X1268250D01*
X1261750Y784110D02*
X1265680Y788040D01*
X1261750Y684250D02*
Y784110D01*
Y684250D02*
X1292750Y653250D01*
Y605500D02*
Y653250D01*
Y605500D02*
X1293250Y605000D01*
X1269750Y745750D02*
X1299000Y716500D01*
X1269750Y745750D02*
Y790750D01*
X1268250Y792250D02*
X1269750Y790750D01*
X1229390Y799750D02*
X1233680Y804040D01*
X1223000Y799750D02*
X1229390D01*
X1222000Y798750D02*
X1223000Y799750D01*
X1228000Y540000D02*
X1232000Y536000D01*
X1231750Y544250D02*
X1236000Y540000D01*
X1231250Y653500D02*
X1231750Y653000D01*
X1222000Y672750D02*
Y798750D01*
X1213750Y671000D02*
X1231500Y653250D01*
X1210000Y771750D02*
X1213750Y768000D01*
X1232000Y536000D02*
X1239750D01*
X1246500Y542750D02*
Y648250D01*
X1222000Y672750D02*
X1246500Y648250D01*
X1239750Y536000D02*
X1246500Y542750D01*
X1229750Y679500D02*
X1269000Y640250D01*
X1225750Y676500D02*
X1263500Y638750D01*
Y544500D02*
X1268000Y540000D01*
Y548000D02*
X1272250Y552250D01*
X1269000Y584250D02*
Y640250D01*
Y584250D02*
X1272250Y581000D01*
Y552250D02*
Y581000D01*
X1473750Y541750D02*
Y549000D01*
X1469750Y537750D02*
X1473750Y541750D01*
X1469750Y545500D02*
Y548500D01*
X1651500Y615000D02*
X1655000Y618500D01*
X1645000Y615000D02*
X1651500D01*
X1643500Y613500D02*
X1645000Y615000D01*
X1643500Y608250D02*
Y613500D01*
X1638438Y603187D02*
X1643500Y608250D01*
X1632188Y603187D02*
X1638438D01*
X1628250Y599250D02*
X1632188Y603187D01*
X1628250Y579000D02*
Y599250D01*
X1626750Y577500D02*
X1628250Y579000D01*
X1541500Y577500D02*
X1626750D01*
X1515500Y551500D02*
X1541500Y577500D01*
X1511500Y541250D02*
X1515500Y545250D01*
Y551500D01*
X1506500Y541250D02*
X1511500D01*
X1502625Y537375D02*
X1506500Y541250D01*
X1502625Y533375D02*
Y537375D01*
X1484500Y525750D02*
X1495000D01*
X1502625Y533375D01*
X1481250Y522500D02*
X1484500Y525750D01*
X1481250Y519500D02*
Y522500D01*
X1477750Y516000D02*
X1481250Y519500D01*
X1477750Y513500D02*
Y516000D01*
X1477750Y545500D02*
Y548500D01*
X1481500Y541250D02*
Y546750D01*
X1477750Y537500D02*
X1481500Y541250D01*
X1649750Y600750D02*
X1654750Y595750D01*
X1645250Y600750D02*
X1649750D01*
X1640000Y595500D02*
X1645250Y600750D01*
X1640000Y570000D02*
Y595500D01*
X1636250Y566250D02*
X1640000Y570000D01*
X1546750Y566250D02*
X1636250D01*
X1522000Y541500D02*
X1546750Y566250D01*
X1484250Y517750D02*
X1497000D01*
X1482250Y515750D02*
X1484250Y517750D01*
X1482000Y515750D02*
X1482250D01*
X1482000Y511250D02*
Y515750D01*
X1479750Y509000D02*
X1482000Y511250D01*
X1469750Y521500D02*
X1473750Y517500D01*
Y510250D02*
X1475000Y509000D01*
X1479750D01*
X1473750Y510250D02*
Y517500D01*
X1537500Y588500D02*
X1617250D01*
X1492000Y549250D02*
X1498250D01*
X1537500Y588500D01*
X1489750Y547000D02*
X1492000Y549250D01*
X1489750Y544000D02*
Y547000D01*
X1487500Y541750D02*
X1489750Y544000D01*
X1485000Y541750D02*
X1487500D01*
X1481750Y538500D02*
X1485000Y541750D01*
X1481750Y533750D02*
Y538500D01*
X1477750Y529750D02*
X1481750Y533750D01*
X1536500Y592500D02*
X1620750D01*
X1497000Y553000D02*
X1536500Y592500D01*
X1620750D02*
X1624750Y588500D01*
X1491250Y552750D02*
X1497000D01*
X1485750Y547250D02*
X1491250Y552750D01*
X1485750Y545500D02*
Y547250D01*
X1536750Y581000D02*
X1617500D01*
X1497250Y541500D02*
X1536750Y581000D01*
X1490750Y541500D02*
X1497250D01*
X1486750Y537500D02*
X1490750Y541500D01*
X1485750Y537500D02*
X1486750D01*
X1457750Y542750D02*
X1461750Y538750D01*
X1457750Y542750D02*
Y547750D01*
X1461750Y537500D02*
Y538750D01*
X1655750Y603000D02*
X1658500Y600250D01*
Y577250D02*
Y600250D01*
X1643250Y603000D02*
X1655750D01*
X1654750Y573500D02*
X1658500Y577250D01*
X1636000Y571500D02*
Y595750D01*
X1643250Y603000D01*
X1634250Y569750D02*
X1636000Y571500D01*
X1546250Y569750D02*
X1634250D01*
X1516750Y541750D02*
X1518250D01*
X1546250Y569750D01*
X1522000Y534750D02*
Y541500D01*
X1513250Y538250D02*
X1516750Y541750D01*
X1509750Y529500D02*
Y532250D01*
X1513250Y535750D01*
Y538250D01*
X1520750Y533500D02*
X1522000Y534750D01*
X1516250Y533500D02*
X1520750D01*
X1514000Y531250D02*
X1516250Y533500D01*
X1497000Y517750D02*
X1504250Y525000D01*
X1510750D01*
X1514000Y528250D01*
Y531250D01*
X1524250Y533500D02*
X1536750D01*
X1522000Y531250D02*
X1524250Y533500D01*
X1522000Y526500D02*
Y531250D01*
X1521000Y525500D02*
X1522000Y526500D01*
X1516500Y525500D02*
X1521000D01*
X1514000Y523000D02*
X1516500Y525500D01*
X1514000Y518750D02*
Y523000D01*
X1512000Y516750D02*
X1514000Y518750D01*
X1489000Y493750D02*
X1512250Y517000D01*
X1526750D02*
X1529750Y520000D01*
Y523500D01*
X1531500Y525250D01*
X1489500Y483500D02*
X1523000Y517000D01*
X1526750D01*
X1489500Y477250D02*
Y483500D01*
X1523500Y521500D02*
X1525750D01*
X1487250Y485250D02*
X1523500Y521500D01*
X1482750Y485250D02*
X1487250D01*
X1481500Y484000D02*
X1482750Y485250D01*
X1481500Y452750D02*
Y484000D01*
Y452750D02*
X1551000Y383250D01*
Y210250D02*
Y383250D01*
Y210250D02*
X1587250Y174000D01*
X1594750D01*
X1606500Y162250D01*
Y152250D02*
Y162250D01*
Y152250D02*
X1612250Y146500D01*
X1632750D01*
X1645750Y133500D01*
X1502250Y490000D02*
X1525750Y513500D01*
X1502250Y436750D02*
Y490000D01*
Y436750D02*
X1557500Y381500D01*
Y272750D02*
Y381500D01*
Y272750D02*
X1657000Y173250D01*
Y146500D02*
Y173250D01*
Y146500D02*
X1670750Y132750D01*
X1707500Y147900D02*
X1721400Y134000D01*
X1707500Y147900D02*
Y172000D01*
X1562750Y316750D02*
X1707500Y172000D01*
X1562750Y316750D02*
Y386500D01*
X1513500Y435750D02*
X1562750Y386500D01*
X1513500Y435750D02*
Y492750D01*
X1354000Y784500D02*
X1363000Y793500D01*
X1273680Y772040D02*
X1277750Y767970D01*
Y752500D02*
Y767970D01*
Y752500D02*
X1307625Y722625D01*
X1281680Y755820D02*
Y764040D01*
X1325500Y775750D02*
X1328750Y779000D01*
X1317000Y775750D02*
X1325500D01*
X1313500Y772250D02*
X1317000Y775750D01*
X1874250Y676250D02*
X1905750D01*
X1308000Y729250D02*
X1308250D01*
X1281680Y755820D02*
X1308250Y729250D01*
X1827250Y687250D02*
X1870000Y644500D01*
X1573500Y461250D02*
X1605750Y429000D01*
X1575000Y469500D02*
X1607250Y437250D01*
X1681835D01*
X1575250Y473500D02*
X1607500Y441250D01*
X1680178D01*
X1575250Y477250D02*
X1607500Y445000D01*
X1678624D01*
X1575000Y481500D02*
X1607250Y449250D01*
X1575000Y486000D02*
X1607250Y453750D01*
X1675000D01*
X1607250Y449250D02*
X1676864D01*
X1675000Y453750D02*
X1700750Y479500D01*
X1676864Y449250D02*
X1705250Y477636D01*
X1678624Y445000D02*
X1709500Y475876D01*
X1680178Y441250D02*
X1713250Y474322D01*
X1681835Y437250D02*
X1717250Y472665D01*
Y522750D01*
X1533750Y481500D02*
X1538250Y486000D01*
X1541750Y481500D02*
X1546000Y477250D01*
X1575250D01*
X1549750Y473500D02*
X1575250D01*
X1541750D02*
X1545750Y469500D01*
X1537750Y462750D02*
Y469500D01*
X1539250Y461250D02*
X1573500D01*
X1537750Y462750D02*
X1539250Y461250D01*
X1525750Y481500D02*
X1537750Y469500D01*
X1538250Y486000D02*
X1575000D01*
X1549750Y481500D02*
X1575000D01*
X1545750Y469500D02*
X1575000D01*
X1700750Y479500D02*
Y605000D01*
X1728750Y633000D01*
X1762750D01*
X1774500Y621250D01*
X1709500Y556700D02*
X1748760Y595960D01*
X1709500Y475876D02*
Y556700D01*
X1717250Y522750D02*
X1738750Y544250D01*
X1749000D01*
X1713250Y474322D02*
Y535500D01*
X1735250Y557500D01*
X1762750D01*
X1775250Y570000D01*
X1705250Y477636D02*
Y586000D01*
X1728500Y609250D01*
X1759250D01*
X1773250Y595250D01*
X1605750Y429000D02*
X1759750D01*
X1774750Y444000D01*
X1746250Y390000D02*
X1748750Y392500D01*
X1307625Y722625D02*
X1499875D01*
X1535250Y687250D01*
X1827250D01*
X1308250Y729250D02*
X1502000D01*
X1581250Y836500D02*
X1781250D01*
X1790500Y827250D01*
Y745750D02*
Y827250D01*
X1780500Y735750D02*
X1790500Y745750D01*
X1761250Y735750D02*
X1780500D01*
X1748500Y723000D02*
X1761250Y735750D01*
X1502000Y729250D02*
X1522750Y708500D01*
X1842000D01*
X1874250Y676250D01*
X1654500Y474750D02*
X1654750Y474500D01*
D27*
X1186000Y176100D02*
X1207850D01*
X1215500Y183750D01*
Y230250D01*
X1192250Y253500D02*
X1215500Y230250D01*
X1143250Y253500D02*
X1192250D01*
D30*
X909000Y235500D02*
X971000D01*
X1007500Y199000D01*
Y183750D02*
Y199000D01*
Y183750D02*
X1033000Y158250D01*
X1132750D01*
X1175250Y200750D01*
X1186750D01*
D32*
X1808250Y256250D02*
X1823500Y241000D01*
X1849750D01*
X1856750Y248000D01*
Y286750D01*
X1840500Y303000D02*
X1856750Y286750D01*
X1816000Y303000D02*
X1840500D01*
X1808000Y311000D02*
X1816000Y303000D01*
X1748250Y367750D02*
X1750750D01*
X1807250Y311250D01*
X1808250D01*
X1727250Y362250D02*
X1808250Y281250D01*
X1727250Y362250D02*
Y387500D01*
X1732250Y392500D01*
X1748500D01*
D34*
X1645200Y134000D02*
D03*
X1670600D02*
D03*
X1721400D02*
D03*
X1746800D02*
D03*
X949560Y1203960D02*
D03*
X1000360D02*
D03*
X1051160D02*
D03*
X1101960D02*
D03*
X1152760D02*
D03*
X1203560D02*
D03*
X1254360D02*
D03*
Y1229360D02*
D03*
X1279760Y1203960D02*
D03*
X1305160D02*
D03*
X1355960D02*
D03*
X1406760D02*
D03*
X1457560D02*
D03*
X1508360D02*
D03*
X1748760Y545160D02*
D03*
X1774160Y570560D02*
D03*
Y595960D02*
D03*
X1748760D02*
D03*
X1774160Y621360D02*
D03*
X1748760Y722960D02*
D03*
Y1002360D02*
D03*
X1774160Y1027760D02*
D03*
Y1053160D02*
D03*
Y1078560D02*
D03*
Y1103960D02*
D03*
X1748760Y367360D02*
D03*
Y392760D02*
D03*
X1774160Y443560D02*
D03*
X774160Y519760D02*
D03*
Y570560D02*
D03*
Y621360D02*
D03*
Y672160D02*
D03*
Y722960D02*
D03*
Y773760D02*
D03*
Y824560D02*
D03*
Y875360D02*
D03*
Y926160D02*
D03*
Y976960D02*
D03*
Y1027760D02*
D03*
Y1053160D02*
D03*
Y1078560D02*
D03*
Y1103960D02*
D03*
Y367360D02*
D03*
Y418160D02*
D03*
Y468960D02*
D03*
X1186000Y176100D02*
D03*
D35*
Y201500D02*
D03*
D37*
X1808250Y256250D02*
D03*
D38*
Y281250D02*
D03*
D39*
X1418000Y312650D02*
D03*
D45*
X1143250Y253750D02*
D03*
X909000Y235500D02*
D03*
X1905750Y676250D02*
D03*
X1869250Y645250D02*
D03*
X1607750Y792750D02*
D03*
X1639250Y792750D02*
D03*
X1672000Y792500D02*
D03*
X1581250Y836500D02*
D03*
D58*
X1549000Y793500D02*
X1560500Y805000D01*
X1595250D01*
X1607500Y792750D01*
M02*
