%FSLAX44Y44*%
%MOMM*%
G71*
G01*
G75*
G04 Layer_Physical_Order=5*
G04 Layer_Color=16737945*
%ADD10R,2.0000X4.0000*%
%ADD11R,0.4500X2.0000*%
%ADD12R,1.1000X1.7000*%
%ADD13C,0.4000*%
%ADD14R,1.7000X1.1000*%
%ADD15R,2.6000X1.1000*%
%ADD16R,1.5000X1.5000*%
%ADD17C,0.3600*%
%ADD18C,0.3000*%
%ADD19R,1.1000X2.6000*%
%ADD20R,0.6000X1.1500*%
%ADD21R,1.1500X0.7500*%
%ADD22R,2.0000X2.0000*%
%ADD23C,2.0000*%
%ADD24C,0.2540*%
%ADD25C,0.3048*%
%ADD26C,0.1000*%
%ADD27C,1.0000*%
%ADD28C,0.4000*%
%ADD29C,2.0000*%
%ADD30C,0.5080*%
%ADD31C,0.2000*%
%ADD32C,0.5000*%
%ADD33C,1.5240*%
%ADD34C,1.5000*%
%ADD35R,1.5000X1.5000*%
%ADD36C,3.8000*%
%ADD37C,1.6000*%
%ADD38R,1.6000X1.6000*%
%ADD39R,1.8500X1.8500*%
%ADD40C,1.8500*%
%ADD41R,1.3500X1.3500*%
%ADD42C,1.3500*%
%ADD43R,1.3500X1.3500*%
%ADD44C,1.7780*%
%ADD45C,1.0000*%
%ADD46C,1.2700*%
%ADD47C,7.0000*%
%ADD48C,1.0160*%
%ADD49C,1.1620*%
%ADD50C,1.3000*%
%ADD51C,2.7000*%
%ADD52C,1.3200*%
%ADD53C,1.2000*%
%ADD54C,1.6700*%
%ADD55C,0.9000*%
%ADD56C,0.6500*%
%ADD57C,5.4000*%
%ADD58C,0.3000*%
D13*
X1560000Y606000D02*
D03*
Y598500D02*
D03*
X1583250Y606000D02*
D03*
X1477750Y457500D02*
D03*
Y465500D02*
D03*
X1461750Y489500D02*
D03*
X1305680Y796040D02*
D03*
X1485750Y497500D02*
D03*
X1289680Y804040D02*
D03*
X1624500Y467250D02*
D03*
X1632000D02*
D03*
X1273680Y788040D02*
D03*
X1193680Y756040D02*
D03*
X1233680Y780040D02*
D03*
X1241680Y796040D02*
D03*
X1233680Y788040D02*
D03*
X1305680Y852040D02*
D03*
X1525750Y529500D02*
D03*
Y537500D02*
D03*
X1493750Y529500D02*
D03*
Y545500D02*
D03*
X1225680Y820040D02*
D03*
X1201680Y844040D02*
D03*
Y868040D02*
D03*
Y820040D02*
D03*
X1193680Y812040D02*
D03*
X1217680Y860040D02*
D03*
Y852040D02*
D03*
Y844040D02*
D03*
X1225680D02*
D03*
X1509750Y473500D02*
D03*
X1273680Y868040D02*
D03*
X1217680Y796040D02*
D03*
X1305680Y892040D02*
D03*
X1289680D02*
D03*
Y884040D02*
D03*
X1233680Y892040D02*
D03*
X1289680Y876040D02*
D03*
X1257680Y884040D02*
D03*
X1297680Y860040D02*
D03*
X1233680Y876040D02*
D03*
Y868040D02*
D03*
X1257680Y852040D02*
D03*
X1477750Y497500D02*
D03*
X1493750Y473500D02*
D03*
X1297680Y876040D02*
D03*
X1469750Y473500D02*
D03*
X1541750Y537500D02*
D03*
Y457500D02*
D03*
X1201680Y772040D02*
D03*
X1321680Y892040D02*
D03*
X1313680D02*
D03*
Y772040D02*
D03*
X1265680Y892040D02*
D03*
X1273680Y884040D02*
D03*
X1265680Y876040D02*
D03*
X1226310Y884043D02*
D03*
X1217680Y892040D02*
D03*
X1321680Y764040D02*
D03*
X1477750Y473500D02*
D03*
X1493750Y481500D02*
D03*
X1485750D02*
D03*
X1281680Y772040D02*
D03*
X1217680D02*
D03*
X1201680Y756040D02*
D03*
X1241680Y804040D02*
D03*
X1236000Y524000D02*
D03*
X1236000Y516000D02*
D03*
Y508000D02*
D03*
X1268000Y524000D02*
D03*
X1260000Y524000D02*
D03*
Y516000D02*
D03*
Y508000D02*
D03*
X1268000Y500000D02*
D03*
X1617250Y573500D02*
D03*
X1624500Y527250D02*
D03*
X1533750Y545500D02*
D03*
X1624750Y626000D02*
D03*
X1509750Y537500D02*
D03*
X1632000Y519750D02*
D03*
X1647250Y626000D02*
D03*
X1533750Y529500D02*
D03*
X1662250Y626000D02*
D03*
X1662000Y519750D02*
D03*
X1632000Y512250D02*
D03*
X1485750Y513500D02*
D03*
X1541750Y521500D02*
D03*
X1662250Y618500D02*
D03*
X1662000Y512250D02*
D03*
X1632250Y611000D02*
D03*
X1632000Y504750D02*
D03*
X1654750Y588500D02*
D03*
X1654500Y482250D02*
D03*
X1461750Y529500D02*
D03*
X1662250Y588500D02*
D03*
X1469750Y529500D02*
D03*
X1513500Y492750D02*
D03*
X1654750Y626000D02*
D03*
D24*
X976500Y1041250D02*
X1153750Y864000D01*
X760670Y1041250D02*
X976500D01*
X990000Y771250D02*
X1113000D01*
X877750Y659000D02*
X990000Y771250D01*
X761000Y659000D02*
X877750D01*
X1212500Y959750D02*
Y1067500D01*
X1150000Y1130000D02*
X1212500Y1067500D01*
X1125000Y1130000D02*
X1150000D01*
X748760Y1002360D02*
X761620Y989500D01*
X1025250Y837000D02*
X1030000Y832250D01*
X761720Y837000D02*
X1025250D01*
X748760Y849960D02*
X761720Y837000D01*
X1113000Y771250D02*
X1121500Y779750D01*
X748760Y646760D02*
X761000Y659000D01*
X748760Y697560D02*
X761450Y710250D01*
X835500D01*
X910500Y785250D01*
X1112250D01*
X1116750Y789750D01*
X748760Y799160D02*
X761350Y811750D01*
X830750D01*
X840500Y821500D01*
X1112210D01*
X1074750Y832000D02*
X1104750D01*
X1074500Y832250D02*
X1074750Y832000D01*
X1030000Y832250D02*
X1074500D01*
X748760Y900760D02*
X762270Y887250D01*
X1020250D01*
X1066960Y840540D01*
X1133290D01*
X748760Y951560D02*
X760570Y939750D01*
X748760Y1053160D02*
X760670Y1041250D01*
X748760Y1103960D02*
X761470Y1091250D01*
X951000D01*
X1135750Y906500D01*
X924160Y1229360D02*
X936750Y1216770D01*
X1365670Y951420D02*
X1365854D01*
X1325750Y911500D02*
X1365670Y951420D01*
X1610750Y1196500D02*
X1611000Y1196250D01*
X1470500Y1212250D02*
X1484750Y1226500D01*
X1228960Y1229360D02*
X1241250Y1217070D01*
X1128250Y1229000D02*
X1140000Y1217250D01*
X1080500Y1225250D02*
X1088750Y1217000D01*
X1318500Y1215750D02*
X1331000Y1228250D01*
X1420000Y1217200D02*
X1432160Y1229360D01*
X1610750Y1196500D02*
Y1201750D01*
X1583250Y1204500D02*
X1583750Y1204000D01*
X1521250Y1216850D02*
X1533760Y1229360D01*
X1368000Y1218750D02*
X1378500Y1229250D01*
X1183750Y1226500D02*
X1189500Y1220750D01*
X1025575Y1229175D02*
X1038500Y1216250D01*
X974960Y1229360D02*
X987750Y1216570D01*
X1261250Y906750D02*
X1269250Y914750D01*
X761620Y989500D02*
X985000D01*
X1118000Y856500D01*
X760570Y939750D02*
X993500D01*
X1085250Y848000D01*
X1241250Y1166250D02*
Y1217070D01*
Y1166250D02*
X1257750Y1149750D01*
Y911000D02*
Y1149750D01*
X1189500Y1200500D02*
Y1220750D01*
Y1200500D02*
X1250500Y1139500D01*
Y914000D02*
Y1139500D01*
X1140000Y1175500D02*
Y1217250D01*
Y1175500D02*
X1153625Y1161875D01*
X1088750Y1193750D02*
Y1217000D01*
X1180000Y1147500D02*
X1227750Y1099750D01*
Y963500D02*
Y1099750D01*
X1088750Y1193750D02*
X1135000Y1147500D01*
X1180000D01*
X1212500Y959750D02*
X1230000Y942250D01*
X1038500Y1197250D02*
Y1216250D01*
Y1197250D02*
X1055750Y1180000D01*
X1075000D01*
X1125000Y1130000D01*
X987750Y1194750D02*
Y1216570D01*
Y1194750D02*
X1025000Y1157500D01*
X1057500D01*
X1199280Y958970D02*
X1219750Y938500D01*
X1057500Y1157500D02*
X1097500Y1117500D01*
X936750Y1195750D02*
Y1216770D01*
X1185000Y947000D02*
X1198500Y933500D01*
X936750Y1195750D02*
X995000Y1137500D01*
X1055000D01*
X1089375Y1103125D01*
X1470500Y1181250D02*
Y1212250D01*
X1420000Y1197500D02*
Y1217200D01*
X1269250Y914750D02*
Y1149250D01*
X1318500Y1198500D01*
Y1215750D01*
X1368000Y1186500D02*
Y1218750D01*
X1278750Y1123750D02*
X1337500Y1182500D01*
X1364000D01*
X1368000Y1186500D01*
X1278750Y926250D02*
Y1123750D01*
X1347188Y1164688D02*
X1387188D01*
X1420000Y1197500D01*
X1288750Y918500D02*
Y1106250D01*
X1347188Y1164688D01*
X1436750Y1147500D02*
X1470500Y1181250D01*
X1299000Y921750D02*
Y1079000D01*
X1367500Y1147500D01*
X1436750D01*
X1308750Y925250D02*
Y1053750D01*
X1382500Y1127500D01*
X1560750Y1198250D02*
Y1204250D01*
X1301750Y909250D02*
X1335000Y942500D01*
Y1047000D01*
X1400500Y1112500D01*
X1382500Y1127500D02*
X1450000D01*
X1521250Y1198750D01*
Y1216850D01*
X1475000Y1112500D02*
X1560750Y1198250D01*
X1583750Y1201250D02*
Y1204000D01*
X1475000Y1092500D02*
X1583750Y1201250D01*
X1611000Y1193500D02*
Y1196250D01*
X1410000Y1092500D02*
X1475000D01*
X1400500Y1112500D02*
X1475000D01*
X1310000Y907250D02*
X1355000Y952250D01*
Y1037500D01*
X1410000Y1092500D01*
X1497500Y1080000D02*
X1611000Y1193500D01*
X1425000Y1080000D02*
X1497500D01*
X1365854Y951420D02*
X1375000Y960566D01*
Y1030000D01*
X1425000Y1080000D01*
X1097500Y1117500D02*
X1142500D01*
X1199280Y1060720D01*
Y958970D02*
Y1060720D01*
X1153625Y1161875D02*
X1195625D01*
X1242500Y1115000D01*
Y914250D02*
Y1115000D01*
X1185000Y947000D02*
Y1047500D01*
X1089375Y1103125D02*
X1129375D01*
X1185000Y1047500D01*
X1748000Y698000D02*
X1749000Y697000D01*
D26*
X1236750Y524750D02*
X1237500Y524000D01*
X1232250Y529250D02*
X1236750Y524750D01*
X1268000Y500000D02*
X1268125Y499875D01*
X1264000Y504000D02*
X1268000Y500000D01*
X1846000Y503000D02*
X1865500D01*
X1836000Y454250D02*
X1853500Y471750D01*
X1801500Y458500D02*
X1846000Y503000D01*
X1477500Y457500D02*
X1482000Y453000D01*
X1658500Y622250D02*
X1662750Y626500D01*
X1596000Y640750D02*
X1646750D01*
X1560000Y604750D02*
X1596000Y640750D01*
X1607000Y629750D02*
X1643500D01*
X1583750Y606500D02*
X1607000Y629750D01*
X1583750Y605000D02*
Y606500D01*
X1590750Y598500D02*
X1592500Y600250D01*
X1560000Y598500D02*
X1590750D01*
X1560000Y604750D02*
Y606000D01*
X1592500Y600250D02*
X1599000Y606750D01*
X1583250Y604500D02*
Y605500D01*
X1541750Y521500D02*
X1547500Y515750D01*
X1628500D01*
X1525000Y508750D02*
X1628000D01*
X1482000Y453000D02*
X1610250D01*
X1624500Y467250D01*
X1628250Y471000D02*
X1632250Y467000D01*
X1612250Y471000D02*
X1628250D01*
X1602750Y461500D02*
X1612250Y471000D01*
X1481750Y461500D02*
X1602750D01*
X1477750Y465500D02*
X1481750Y461500D01*
X1602250Y549750D02*
X1624750Y527250D01*
X1538000Y549750D02*
X1602250D01*
X1533750Y545500D02*
X1538000Y549750D01*
X1534000Y529500D02*
X1537750Y525750D01*
X1561750D01*
X1564000Y523500D01*
X1628250D01*
X1651000Y629750D02*
X1655000Y625750D01*
X1651000Y629750D02*
Y636500D01*
X1646750Y640750D02*
X1651000Y636500D01*
X1599000Y607000D02*
X1628250D01*
X1632250Y611000D01*
X1634500Y622500D02*
X1637500Y619500D01*
X1628250Y622500D02*
X1634500D01*
X1624750Y626000D02*
X1628250Y622500D01*
X1643500Y629750D02*
X1647500Y625750D01*
X1309720Y792000D02*
X1433750D01*
X1305680Y796040D02*
X1309720Y792000D01*
X1537500Y541750D02*
X1541750Y537500D01*
X1530500Y541750D02*
X1537500D01*
X1526250Y537500D02*
X1530500Y541750D01*
X1454500Y510500D02*
X1459750Y505250D01*
X1459000Y509250D02*
X1486250D01*
X1457500Y510750D02*
X1459000Y509250D01*
X1486250D02*
X1496000Y499500D01*
X1457500Y510750D02*
Y553000D01*
X1454500Y510500D02*
Y761500D01*
X1525750Y537500D02*
X1526250D01*
X1496000Y484290D02*
Y499500D01*
X1493210Y481500D02*
X1496000Y484290D01*
X1485750Y481500D02*
X1491000Y486750D01*
X1466000Y477250D02*
X1469750Y473500D01*
X1313680Y772040D02*
X1314960D01*
X1301750Y881500D02*
Y909250D01*
X1300750Y880500D02*
X1301750Y881500D01*
X1294140Y880500D02*
X1300750D01*
X1297680Y876040D02*
X1301720Y872000D01*
X1105040Y832290D02*
X1218880D01*
X1104750Y832000D02*
X1105040Y832290D01*
X1150250Y808500D02*
X1190140D01*
X1121500Y779750D02*
X1150250Y808500D01*
X1116750Y789750D02*
X1143000Y816000D01*
X1112210Y821500D02*
X1119460Y828750D01*
X1133290Y840540D02*
X1164890D01*
X1164250Y848000D02*
X1164500Y847750D01*
X1135750Y906500D02*
X1169750Y872500D01*
X1143000Y816000D02*
X1221640D01*
X1225680Y820040D01*
X1169750Y872500D02*
X1197220D01*
X1201680Y868040D01*
X1153750Y864000D02*
X1213720D01*
X1164500Y847750D02*
X1197970D01*
X1164930Y840500D02*
X1211090D01*
X1164890Y840540D02*
X1164930Y840500D01*
X1211090D02*
X1214630Y844040D01*
X1213720Y864000D02*
X1217680Y860040D01*
X1213220Y856500D02*
X1217680Y852040D01*
X1192970Y828750D02*
X1201680Y820040D01*
X1119460Y828750D02*
X1192970D01*
X1218880Y832290D02*
X1221180Y834590D01*
X1197970Y847750D02*
X1201680Y844040D01*
X1214630D02*
X1217680D01*
X1221180Y834590D02*
Y839540D01*
X1225680Y844040D01*
X1190140Y808500D02*
X1193680Y812040D01*
X1237750Y913000D02*
Y953500D01*
X1227750Y963500D02*
X1237750Y953500D01*
X1230000Y895720D02*
Y942250D01*
Y895720D02*
X1233680Y892040D01*
X1250250Y913250D02*
X1250750Y913750D01*
X1254000Y907250D02*
X1257750Y911000D01*
X1254000Y887720D02*
Y907250D01*
Y887720D02*
X1257680Y884040D01*
X1242500Y914000D02*
X1246000Y910500D01*
Y873500D02*
Y910500D01*
X1244500Y872000D02*
X1246000Y873500D01*
X1237750Y913000D02*
X1237750Y913000D01*
X1237750Y880110D02*
Y913000D01*
X1233680Y876040D02*
X1237750Y880110D01*
X1277750Y946000D02*
Y947250D01*
X1289460Y892040D02*
X1289680D01*
X1233500Y868500D02*
X1237000Y872000D01*
X1244500D01*
X1310000Y896360D02*
Y907250D01*
X1305680Y892040D02*
X1310000Y896360D01*
X1313750Y892250D02*
X1317250Y895750D01*
Y903000D01*
X1325750Y911500D01*
X1226310Y884043D02*
Y884670D01*
X1213500Y896220D02*
X1217680Y892040D01*
X1213500Y896220D02*
Y918500D01*
X1198500Y933500D02*
X1213500Y918500D01*
X1222000Y888979D02*
X1226310Y884670D01*
X1222000Y888979D02*
Y937250D01*
X1220250Y939000D02*
X1222000Y937250D01*
X1261250Y880470D02*
X1265680Y876040D01*
X1261250Y880470D02*
Y906750D01*
X1265680Y892040D02*
X1270000Y896360D01*
Y905750D01*
X1278750Y914500D01*
Y926250D01*
X1273680Y884040D02*
X1277750Y888110D01*
X1269500Y872220D02*
X1273680Y868040D01*
X1269500Y872220D02*
Y878750D01*
X1270500Y879750D01*
X1284750D01*
X1285750Y880750D01*
X1289680Y884040D02*
X1294000Y888360D01*
Y910500D01*
X1289680Y876040D02*
X1294140Y880500D01*
X1294000Y910000D02*
Y910500D01*
X1308750Y925250D01*
X1285750Y880750D02*
Y908500D01*
X1299000Y921750D01*
X1277750Y888110D02*
Y907500D01*
X1288750Y918500D01*
X1118000Y856500D02*
X1213220D01*
X1085250Y848000D02*
X1164250D01*
X1297680Y860040D02*
X1301720Y856000D01*
X1321680Y764040D02*
X1419960D01*
X1748000Y672160D02*
X1748760D01*
X1773500Y671500D02*
X1774160Y672160D01*
X1419960Y764040D02*
X1428750Y755250D01*
X1250250Y859470D02*
X1257680Y852040D01*
X1250250Y859470D02*
Y913250D01*
X1281680Y772040D02*
X1288500Y778860D01*
Y783000D01*
X1287000Y784500D02*
X1288500Y783000D01*
X1277250Y784500D02*
X1287000D01*
X1269500Y792250D02*
X1277250Y784500D01*
X1269500Y792250D02*
Y806750D01*
X1268250Y808000D02*
X1269500Y806750D01*
X1200500Y808000D02*
X1268250D01*
X1197750Y805250D02*
X1200500Y808000D01*
X1541750Y457500D02*
X1543500D01*
X1217680Y796040D02*
X1221700Y792020D01*
X1201680Y772040D02*
X1205400Y768320D01*
Y527600D02*
Y768320D01*
Y527600D02*
X1221000Y512000D01*
X1220750Y582750D02*
Y748000D01*
X1232250Y504250D02*
X1236000Y508000D01*
X1194000Y756000D02*
Y765500D01*
X1197750Y769250D01*
Y805250D01*
X1233680Y788040D02*
X1233960D01*
X1221000Y512000D02*
X1251250D01*
X1255250Y508000D01*
X1260000D01*
X1264000Y504000D02*
Y510250D01*
X1262250Y512000D02*
X1264000Y510250D01*
X1233680Y780040D02*
X1237720Y776000D01*
X1245500D01*
X1233960Y788040D02*
X1238000Y784000D01*
X1244750D01*
X1253750Y748750D02*
Y792000D01*
X1241750Y804000D02*
X1253750Y792000D01*
Y748750D02*
X1254500Y748000D01*
Y532250D02*
Y748000D01*
Y532250D02*
X1258750Y528000D01*
X1264000D01*
X1268000Y524000D01*
X1237220Y800500D02*
X1241680Y796040D01*
X1216750Y800500D02*
X1237220D01*
X1221500Y753250D02*
X1224500Y750250D01*
X1236000Y524000D02*
X1237500D01*
X1214000Y777250D02*
Y797750D01*
X1216750Y800500D01*
X1221700Y785550D02*
Y792020D01*
Y785550D02*
X1223363Y783887D01*
X1227363D01*
X1229500Y781750D01*
X1224500Y590000D02*
Y750250D01*
X1220750Y582750D02*
X1223750Y579750D01*
Y521500D02*
Y579750D01*
Y521500D02*
X1225500Y519750D01*
X1232250D01*
X1236000Y516000D01*
X1232250Y529250D02*
Y582250D01*
X1224500Y590000D02*
X1232250Y582250D01*
X1229500Y592250D02*
Y781750D01*
Y592250D02*
X1241000Y580750D01*
X1245250Y775750D02*
X1245500Y776000D01*
X1244750Y784000D02*
X1249250Y779500D01*
X1241000Y527500D02*
Y580750D01*
Y527500D02*
X1256500Y512000D01*
X1262250D01*
X1245250Y529750D02*
Y775750D01*
Y529750D02*
X1259000Y516000D01*
X1260000D01*
X1249250Y531750D02*
Y779500D01*
Y531750D02*
X1256750Y524250D01*
X1259750D01*
X1213750Y755000D02*
X1220750Y748000D01*
X1213750Y755000D02*
Y768250D01*
X1217500Y772000D01*
X1221500Y753250D02*
Y774500D01*
X1214000Y777250D02*
X1215250Y776000D01*
X1220000D01*
X1221500Y774500D01*
X1201680Y522070D02*
Y756040D01*
Y522070D02*
X1219500Y504250D01*
X1232250D01*
X1509750Y537750D02*
X1541500Y569500D01*
X1509750Y537500D02*
Y537750D01*
X1652250Y622250D02*
X1658500D01*
X1651250Y607500D02*
Y621250D01*
X1652250Y622250D01*
X1661250Y605500D02*
X1670750Y596000D01*
Y521500D02*
Y596000D01*
X1669000Y519750D02*
X1670750Y521500D01*
X1662000Y519750D02*
X1669000D01*
X1653250Y605500D02*
X1661250D01*
X1651250Y607500D02*
X1653250Y605500D01*
X1675000Y518250D02*
Y605750D01*
X1662250Y618500D02*
X1675000Y605750D01*
X1662250Y512500D02*
X1669250D01*
X1675000Y518250D01*
X1651500Y585000D02*
X1655250Y588750D01*
X1654875Y588375D02*
X1658250Y585000D01*
Y560312D02*
Y585000D01*
X1654750Y588500D02*
X1654875Y588375D01*
X1645750Y585000D02*
X1651500D01*
X1639750Y579000D02*
X1645750Y585000D01*
X1639750Y571750D02*
Y579000D01*
X1658250Y560312D02*
X1658465Y560098D01*
Y511152D02*
Y560098D01*
X1658250Y510938D02*
X1658465Y511152D01*
X1658250Y486250D02*
Y510938D01*
X1654500Y482500D02*
X1658250Y486250D01*
X1532750Y551750D02*
X1596500D01*
X1522250Y541250D02*
X1532750Y551750D01*
X1522250Y534750D02*
Y541250D01*
X1521500Y534000D02*
X1522250Y534750D01*
X1516250Y534000D02*
X1521500D01*
X1514000Y531750D02*
X1516250Y534000D01*
X1514000Y526500D02*
Y531750D01*
X1512500Y525000D02*
X1514000Y526500D01*
X1504750Y525000D02*
X1512500D01*
X1497500Y517750D02*
X1504750Y525000D01*
X1467250Y517750D02*
X1497500D01*
X1461750Y526500D02*
Y529500D01*
X1465500Y519500D02*
Y522750D01*
Y519500D02*
X1467250Y517750D01*
X1461750Y526500D02*
X1465500Y522750D01*
X1658500Y592250D02*
X1662250Y588500D01*
X1645500Y592250D02*
X1658500D01*
X1636250Y583000D02*
X1645500Y592250D01*
X1636250Y571500D02*
Y583000D01*
X1532750Y556250D02*
X1590000D01*
X1517750Y541250D02*
X1532750Y556250D01*
X1516250Y541250D02*
X1517750D01*
X1513500Y538500D02*
X1516250Y541250D01*
X1513500Y535500D02*
Y538500D01*
X1512000Y534000D02*
X1513500Y535500D01*
X1503250Y534000D02*
X1512000D01*
X1503000D02*
X1503250D01*
X1495000Y525750D02*
X1503250Y534000D01*
X1473500Y525750D02*
X1495000D01*
X1469500Y529750D02*
X1473500Y525750D01*
X1628500Y515750D02*
X1632000Y512250D01*
X1628000Y508750D02*
X1632500Y504250D01*
X1628250Y523500D02*
X1632000Y519750D01*
X1520750Y504500D02*
X1525000Y508750D01*
X1520750Y490500D02*
Y504500D01*
X1517750Y487500D02*
X1520750Y490500D01*
X1512000Y487500D02*
X1517750D01*
X1485500Y514000D02*
X1512000Y487500D01*
X1513500Y492750D02*
Y505500D01*
X1521750Y513750D01*
Y525250D01*
X1526000Y529500D01*
X1493750Y473500D02*
X1498250Y469000D01*
X1501750D01*
X1502250Y469500D01*
X1509750Y473500D02*
X1514250Y478000D01*
X1583000D01*
X1603000Y498000D01*
X1638750D01*
X1641500Y495250D01*
Y459250D02*
Y495250D01*
X1637750Y458500D02*
Y492750D01*
X1636000Y494500D02*
X1637750Y492750D01*
X1606500Y494500D02*
X1636000D01*
X1581500Y469500D02*
X1606500Y494500D01*
X1502250Y469500D02*
X1581500D01*
X1641500Y459250D02*
X1642250Y458500D01*
X1801500D01*
X1637750D02*
X1642000Y454250D01*
X1836000D01*
X1596500Y551750D02*
X1599500Y554750D01*
X1622750D01*
X1639750Y571750D01*
X1590000Y556250D02*
X1592500Y558750D01*
X1623500D01*
X1636250Y571500D01*
X1541500Y569500D02*
X1626250D01*
X1628250Y571500D01*
Y600250D01*
X1637500Y609500D01*
Y619500D01*
X1494000Y545000D02*
Y555250D01*
X1518250Y579500D01*
X1611250D01*
X1617250Y573500D01*
X1489750Y532737D02*
X1492986Y529500D01*
X1489750Y532737D02*
Y610240D01*
X1525710Y892040D02*
X1581250Y836500D01*
X1321680Y892040D02*
X1525710D01*
X1457500Y553000D02*
X1480750Y576250D01*
X1301720Y856000D02*
X1516750D01*
X1301720Y872000D02*
X1527750D01*
X1546750Y853000D01*
X1480500Y765250D02*
X1480750Y765500D01*
Y576250D02*
Y765500D01*
X1516750Y856000D02*
X1531000Y841750D01*
X1546750Y793000D02*
Y853000D01*
X1531000Y838000D02*
Y841750D01*
X1489750Y610240D02*
X1509500Y629990D01*
Y629750D02*
Y630000D01*
X1581250Y701750D01*
Y836500D01*
X1459750Y505250D02*
X1486750D01*
X1491000Y501000D01*
Y486750D02*
Y501000D01*
X1452000Y484000D02*
X1472250D01*
X1473750Y485500D01*
Y491250D01*
X1476000Y493500D01*
X1481750D01*
X1485750Y497500D01*
X1473250Y502250D02*
X1477500Y498000D01*
X1301750Y848110D02*
X1305680Y852040D01*
X1301750Y786500D02*
Y848110D01*
Y786500D02*
X1304250Y784000D01*
X1426500D01*
X1453500Y489750D02*
X1461750D01*
X1462250Y489250D01*
X1456000Y502250D02*
X1473250D01*
X1445500Y512750D02*
X1456000Y502250D01*
X1445500Y512750D02*
Y780250D01*
X1433750Y792000D02*
X1445500Y780250D01*
X1438500Y497500D02*
X1452000Y484000D01*
X1438500Y497500D02*
Y759250D01*
X1293250Y778250D02*
X1295250Y776250D01*
X1421500D01*
X1438500Y759250D01*
X1289680Y803820D02*
Y804040D01*
Y803820D02*
X1293250Y800250D01*
Y778250D02*
Y800250D01*
X1314960Y772040D02*
X1318750Y768250D01*
X1423750D01*
X1436500Y755500D01*
X1442500Y500750D02*
X1453500Y489750D01*
X1442500Y500750D02*
Y768000D01*
X1426500Y784000D02*
X1442500Y768000D01*
X1428750Y496750D02*
Y755250D01*
Y496750D02*
X1448250Y477250D01*
X1466000D01*
X1436500Y494000D02*
Y755500D01*
Y494000D02*
X1450250Y480250D01*
X1471250D01*
X1478000Y473500D01*
X1529500Y836500D02*
X1531000D01*
X1454500Y761500D02*
X1529500Y836500D01*
X1571250Y793000D02*
X1571500Y792750D01*
X1480750Y765500D02*
X1503500Y788250D01*
X1541750D01*
X1546500Y793000D01*
X1570250D01*
D34*
X1533760Y1229360D02*
D03*
X1559160Y1203960D02*
D03*
X1584560D02*
D03*
X1609960D02*
D03*
X924160Y1229360D02*
D03*
X974960D02*
D03*
X1025760D02*
D03*
X1076560D02*
D03*
X1127360D02*
D03*
X1178160D02*
D03*
X1228960D02*
D03*
X1330560D02*
D03*
X1381360D02*
D03*
X1432160D02*
D03*
X1482960D02*
D03*
X1774160Y672160D02*
D03*
X1748760D02*
D03*
Y697560D02*
D03*
X748760Y646760D02*
D03*
Y697560D02*
D03*
Y799160D02*
D03*
Y849960D02*
D03*
Y900760D02*
D03*
Y951560D02*
D03*
Y1002360D02*
D03*
Y1053160D02*
D03*
D35*
Y1103960D02*
D03*
D45*
X1864750Y502750D02*
D03*
X1853500Y471750D02*
D03*
X1570750Y792500D02*
D03*
X1581250Y836500D02*
D03*
X1531000D02*
D03*
M02*
