M48
;Layer_Color=9474304
;FILE_FORMAT=4:4
METRIC,LZ
;TYPE=PLATED
T1F00S00C0.2500
T2F00S00C0.5000
T3F00S00C0.7620
T4F00S00C0.8000
T5F00S00C0.9000
T6F00S00C0.9200
T7F00S00C1.1000
T8F00S00C1.2700
T9F00S00C2.3000
T10F00S00C5.0000
%
T01
X01617Y0046725
X016245
X01632
Y0047475
Y0048225
X016245
Y0047475
X01617
Y0048225
Y0048975
X016245
X01632
Y0050475
X016245
X01617
Y0051225
Y0051975
Y0052725
X016245
X01632
Y0051975
X016245
Y0051225
X01632
X01647
X016545
X01662
Y0050475
X016545
Y0051975
Y0052725
X01647
Y0051975
X01662
Y0052725
Y0048975
X016545
X01647
Y0048225
X016545
Y0047475
X01647
Y0046725
X016545
X01662
Y0047475
Y0048225
X0166225Y005735
Y00581
Y005885
Y00596
X0165475
X0164725
Y005885
X0165475
Y00581
X0164725
Y005735
X0165475
X0163225
X0162475
X0161725
Y00581
Y005885
Y00596
X0162475
X0163225
Y005885
X0162475
Y00581
X0163225
Y00611
X0162475
Y006185
X0163225
Y00626
Y006335
X0162475
Y00626
X0161725
Y006335
Y006185
Y00611
X0165475
Y006185
X0164725
Y00626
Y006335
X0165475
Y00626
X0166225
Y006335
Y006185
Y00611
X0160875Y005735
X0158325Y00606
X0156
Y005985
X0156025Y0063
Y006365
X0154975Y005455
Y005375
X0154175
X0153375
X0152575
Y005295
X0151775
Y005215
X0150975
Y005295
Y005375
X0149375
Y005295
Y005215
X0148575
Y005135
X0147775
X0146975
X0146175
Y005215
X0146975
Y005295
Y005375
Y005455
X0146175
Y005375
Y005295
X0147775
Y005375
Y005455
X0148575
X0149375
X0148575Y005375
Y004975
X0147775
X0146975
X0146175
Y004895
X0147775
X0148575
Y004815
Y004735
X0149375
Y004655
X0148575
X0147775
Y004575
X0146975
X0146175
Y004655
X0146975Y004735
X0147775
Y004815
X0149375
X0150975
Y004735
Y004655
X0151775
X0152575
X0153375
X0154175
Y004575
X0153375
X0152575
X0151775
X0150975
X0149375
X0148575
X0151775Y004735
Y004815
X0152575
Y004895
X0153375
Y004975
X0152575
Y005135
Y005215
X0153375
Y005295
X0154175
Y005215
X0154975
X0154175Y005135
X0153375
X0154975Y004975
Y004895
X0154175
Y004815
X0153375
X0152575Y004735
X0154175
X0154975
Y004815
Y004575
X015135Y0049275
X0153375Y005455
X01284Y00544
X01276Y0054
X01268
Y00548
X0126875Y0055525
X01276Y00556
Y00564
X01268Y00564
Y00572
X0126725Y0057925
X0127575Y0057975
X01284Y0058
Y00572
Y0056
X0126Y00556
X0125975Y00548
X0126Y0054
Y00532
Y00524
Y00516
Y00508
X01268Y00508
Y00516
Y00524
X012755Y005245
X01284Y00524
X0127625Y0050775
X01268Y005
X01236Y00508
X01228
Y00516
X01236
X01236Y00524
X01228
X01228Y00532
X01236
Y0054
X01228
X01236Y00548
Y00556
X0122775Y0055575
X01228Y00564
X0122775Y0057175
X01236Y00572
Y0058
X0123675Y00564
X012585Y0056375
X01212Y0056
Y00552
X012115Y0054375
X0122Y00532
X0121025Y0050625
X01216Y005
X01228
X01212Y00572
X01216Y005825
X0121768Y007565
Y0076404
X0122568
X0123368
Y0077204
X0124168
Y0078004
X0123368
X0122568
Y0077204
X0121768
Y0078004
X0120968Y0078804
X0120168
X0119368
Y0078004
X0120168
Y0077204
Y0076404
X0120968
Y0075604
X0120168
X0119368
Y0077204
X0120968
X0122568Y0078804
X0123368
X0124168
X0125768
X0126568
X0127368
Y0078004
X0128168
Y0077204
Y0076404
X0127368
X0126568
Y0075604
X0125768
Y0076404
Y00772038
X0126568Y0077204
X0126568Y0078004
X0127368Y0077204
X0128968
X0129768
X0130568
X0131368
X0132168
Y0078004
Y0078804
X0131368
Y0078004
X0130568
X0129768
Y0078804
X0128968
X0128168
X0130568
Y0076404
X0129768
Y0075604
X0128968
Y0076404
X0131368
X0132168
Y0075604
X0131368
X0130572Y00756
X0124168Y0075604
Y0076404
X0123368Y0075604
X0122568
X01319Y0043925
X0118568Y0075604
X0117768
Y0076404
Y0077204
Y0078004
Y0078804
X0118568
Y0078004
Y0077204
Y0076404
Y0079604
Y0080404
Y0081204
X0117768
Y0080404
Y0079604
Y0082004
X0118568
Y0083604
Y0084404
Y0085204
Y0086004
X0117768
Y0085204
Y0084404
Y0083604
Y0086804
Y0087604
Y0088404
X0118568
Y0089204
X0117768
Y0090004
X0118568
Y0087604
Y0086804
X0119368
Y0086004
Y0085204
Y0084404
Y0083604
X0120168
Y0084404
Y0085204
X0120968
Y0086004
X0121768
Y0085204
Y0084404
X0120968
Y0083604
X0121768
X0122568
Y0084404
Y0085204
Y0086004
Y0086804
X0121768
Y0087604
Y0088404
X0120968
X0120168
X0119368
Y0087604
X0120168
Y0086804
Y0086004
X0120968Y0086804
Y0087604
Y0089204
X0121768
X0121775Y0090025
X0120968Y0090004
X0120168
Y0089204
X0119368
Y0090004
X0122631Y00900044
X0123368Y0090004
X0124168
Y0089204
X0123368
X0122631Y00892044
Y00884043
X0123368Y0088404
X0124168
Y0087604
X0123368
X0122631Y00876043
X0123368Y0086804
Y0086004
Y0085204
X0124168
Y0084404
Y0083604
X0123368
Y0082004
Y0081204
Y0080404
X0122568
Y0079604
X0123368
X0124168
Y0080404
Y0081204
Y0082004
X0122568
X0121768
X0120968
X0120168
X0119368
Y0081204
X0120168
Y0080404
X0119368
Y0079604
X0120168
X0121768
X0125768
Y0080404
X0126568
Y0079604
X0127368
X0128168
Y0080404
X0128968
Y0081204
Y0082004
X0129768
X0130568
X0131368
X0132168
X0132122Y008125
X0131368Y0081204
X0130568
X0129768
Y0080404
Y0079604
X0130568
X0131368
Y0080404
X0132168
Y0079604
X0130568Y0080404
X0128968Y0079604
X0128168Y0081204
Y0082004
X0127368
X0126568
X0125768
Y0081204
X0127368
Y0083604
X0128168
X0128968
X0129768
X0130568
X0131368
Y0084404
Y0085204
X0130568
X0129768
Y0086004
X0130568
Y0086804
X0129768
Y0087604
Y0088404
Y0089204
Y0090004
X0128968
Y0089204
X0128168
Y0088404
X0128968
Y0087604
Y0086804
X0128168
X0127368
X0126568
X0125768
Y0087604
Y0088404
X0126568
Y0089204
X0125768
Y0090004
X0126568
X0127368
X0128168
X0127368Y0089204
Y0088404
Y0087604
X0126568
Y0086004
X0127368
Y0085204
X0128168
X0128968
Y0084404
X0128168
X0127368
X0126568
Y0085204
X0125768
Y0084404
Y0083604
X0126568
X0125768Y0086004
X0124168
Y0086804
X0128168Y0086004
Y0087604
X0130568
X0131368
Y0086804
X0132168
Y0087604
Y0088404
Y0089204
Y0090004
X0131368
X0130568
Y0089204
Y0088404
X0131368
Y0089204
Y0086004
X0132168
Y0085204
Y0084404
Y0083604
X0130568Y0084404
X0129768
T02
X0055Y003185
Y0035
X006805Y002955
X00719266Y00302734
X00783Y0030075
X0078725Y0023525
X0076325Y0024025
X00724Y0023425
X0071075Y0023675
X0071525Y00166
X0073025Y0016525
X0075175Y00155
X0076775Y00158
X00783Y0017425
X0080325Y0021925
X0087075Y0023375
X008865Y0024675
X00909Y002355
X009015Y001725
X009235Y00173
X0087725Y0017225
X009675Y00213
X0102625Y002185
X01048Y0023325
X01094Y00238
X011075Y0023725
X011445Y002355
X0114425Y0021725
X0114325Y0025375
X011205Y0030025
X010525Y00299
X01048Y001725
X01064Y001725
X01084Y001695
X0109925Y0017
X011205Y00173
X01Y0014
X013585Y001505
X014Y0015
X0145
X015
X0149475Y002725
X01514Y0027225
X01526Y003885
X0157Y0038925
X0143725Y00391
X014Y002
X016
X0171275Y0020275
Y0022525
X018Y002
X0191Y0024
Y003
Y0035
X01683Y0034875
X0159125Y0035325
X0159025Y004095
X0185925Y0041175
X0190697Y0041247
X019065Y0044175
X0190425Y00471
X01905Y005025
X0186475Y0050275
X018535Y0047175
X0184775Y004505
X01830775Y0044275
X018Y006
X0186925Y0064525
X019065
X01907Y0061475
X0190775Y00582
X0190575Y0067625
X019095Y00691
X019Y0075
X0167175Y0076475
X01672Y007925
X0163925Y0079275
X01639Y00765
X016055
X0160775Y0079275
X0157075Y007925
X0157075Y0076575
X0153475
X0141775Y0075125
X01398Y00743756
X013875Y00715
X0135Y007
X0132125Y006525
X0132375Y0061125
X013585
X01408Y0059775
X0140775Y00571
X0138725Y0056525
X01418Y0054375
X014175Y0051225
X0141875Y0046625
X01445Y00467
X01446Y0044925
X0142375Y0042975
X01438Y004115
X013935Y00418
X01319Y0040825
X012902Y0040645
X012614Y0040665
X012326Y004066
X012038Y0040705
Y0046995
X012326Y004699
X012614Y0046885
X012902Y0046855
X0134775Y0047175
X0135Y005
X0133275Y00528
X01336Y0055075
X01321Y005515
X011745Y00515
X0115125Y0047175
X011485Y0045225
X0109075Y0046175
X011Y005
X011Y004
X01175Y0040825
X01Y004
Y005
X009
Y006
Y007
X01Y0065
X01Y006
X01Y0075
X01067Y0072725
X0106Y007125
X010855Y007425
X0115Y007
X0115175Y005945
X006Y006
X0055Y006
Y0065
Y007
Y0075
Y0055
Y005
Y0045
Y004
X007Y004
Y008
X0055Y008
Y0085
Y009
Y0095
Y01
Y0105
Y011
Y0115
X006Y01
X009Y01
X01
Y009
X01051Y0090425
X0105425Y009355
X010705Y009235
X01087Y00902
X0111Y00995
X0105Y011
X01
X008895Y0110425
X009Y009
X0090525Y0080325
X012Y011
X013035
X014
X0150675Y011005
X015095Y0094725
X0145725Y00942
X014325Y0093525
X0140925Y0093425
X0141375Y0090675
X0145Y01
X01325Y00995
X01531Y008365
X0158125
X01633Y0081975
X0165Y0085
Y0095
X016Y0105
Y011
X018Y0115
X019
Y011
Y0105
Y01
Y0095
Y009
Y0085
Y008
X018Y01
X0175Y012
X017Y012
X017Y0125
X018
X0185
X019
Y012
X018Y013
Y0135
X0175
X017
X0165
X016
X0155
X015
X0145
X014
X0135
X013
X0125
X012
X0115
X011
X0105
X01
X0095
X009
X0085
X008
X00735Y01352
X0065Y0135
Y013
Y0125
X006
X0055
Y012
X007
X0075Y0125
T03
X0067175Y001335
X0070975
X0074775
X0078575
T04
X0087575Y0013375
X0092575Y0013375
X0106125Y0013375
X0111125Y0013375
X0111425Y0032725
X0106425Y0032725
X01005Y002655
X00955Y002655
X008325Y00275
X008325Y00225
T05
X005472Y002215
X005726
X00598
X0059575Y00278
X0057035
X0054495
X0074876Y0036736
X0077416
Y0039276
X0074876
X01186Y002015
Y001761
Y001507
Y001253
X01569Y00134
Y001594
X015944
Y00134
X016198
Y001594
X016452
Y00134
X016706
Y001594
X01696
Y00134
X017214
Y001594
X017468
Y00134
X017722
Y001594
X017976
Y00134
X0177416Y0036736
X0174876
Y0039276
X0177416
Y0041816
X0174876
Y0044356
X0177416
Y0046896
Y0049436
X0174876
Y0051976
X0177416
Y0054516
X0174876
Y0057056
X0177416
Y0059596
X0174876
Y0062136
X0177416
Y0064676
X0174876
Y0067216
X0177416
Y0069756
X0174876
Y0072296
X0177416
Y0074836
X0174876
Y0077376
X0177416
X0174876Y0046896
X0077416
Y0049436
X0074876
Y0051976
X0077416
Y0054516
X0074876
Y0057056
X0077416
Y0059596
X0074876
Y0062136
X0077416
Y0064676
X0074876
Y0067216
X0077416
Y0069756
X0074876
Y0072296
X0077416
Y0074836
X0074876
Y0077376
X0077416
Y0044356
Y0041816
X0074876
Y0044356
Y0046896
Y0079916
X0077416
Y0082456
X0074876
Y0084996
X0077416
Y0087536
X0074876
Y0090076
X0077416
Y0092616
X0074876
Y0095156
X0077416
Y0097696
X0074876
Y0100236
X0077416
Y0102776
X0074876
Y0105316
X0077416
Y0107856
X0074876
Y0110396
X0077416
X0062484Y0115316
Y0117856
X0174876Y0110396
Y0107856
Y0105316
Y0102776
Y0100236
Y0097696
Y0095156
Y0092616
Y0090076
Y0087536
Y0084996
Y0082456
Y0079916
X0177416
Y0082456
Y0084996
Y0087536
Y0090076
Y0092616
Y0095156
Y0097696
Y0100236
Y0102776
Y0105316
Y0107856
Y0110396
X0163536Y0120396
X0160996
Y0122936
X0163536
X0158456
X0155916
X0153376
Y0120396
X0155916
X0158456
X0150836
X0148296
X0145756
X0143216
X0140676
X0138136
X0135596
X0133056
X0130516
X0127976
X0125436
X0122896
X0120356
Y0122936
X0122896
X0125436
X0127976
X0130516
X0133056
X0135596
X0138136
X0140676
X0143216
X0145756
X0148296
X0150836
X0117816
X0115276
X0112736
X0110196
X0107656
X0105116
X0102576
X0100036
X0097496
X0094956
X0092416
X0089876
Y0120396
X0092416
X0094956
X0097496
X0100036
X0102576
X0105116
X0107656
X0110196
X0112736
X0115276
X0117816
X0062484
Y0122936
T06
X0180825Y0025625
X0182825
Y0028125
X0180825
T07
X01418Y0026185
Y0031265
T08
X0065Y003388
Y003642
T09
X0185535Y0020855
Y0032895
T10
X005975Y001475
X019
Y01325
X005975
M30
