M48
;Layer_Color=9474304
;FILE_FORMAT=2:5
INCH,LZ
;TYPE=PLATED
T1F00S00C0.01968
T2F00S00C0.02800
T3F00S00C0.03346
T4F00S00C0.03543
T5F00S00C0.04921
%
T01
X0164173Y0148819
X0259842Y013937
X0404724Y0141732
X0447244Y0148425
X0455905Y0141339
X0490551Y0148425
X0562992Y0150787
X0610235Y0088976
X0614246Y0092198
X0617714Y0095712
X0621654Y0099213
X0606692Y0085039
X0603936Y0080708
X0599999Y0077165
X0596457Y0073622
X0592126Y0070472
X0625441Y0102756
X0629133Y0106299
X0632676Y0110236
X0636614Y0113779
X0641339Y0117323
X0645276Y0120866
X0648818Y0125197
X0625Y0213
X0626Y0222
X06215Y02075
X0618Y0201
X0613Y01845
X0609Y0188
X06025Y01915
X0595276Y0195669
X0579134Y0195276
X05695Y0201
X0567Y02075
X05665Y0213
Y0219
X0559841Y0217322
X0581Y02225
X0586Y02305
X0576Y0234
X0582Y02505
X06015Y0263
Y02695
X05735Y02765
X05665Y0277
X0561Y02785
X05625Y02865
X0551Y02835
X05455Y0287
X0542Y02915
X0538Y0275
X0522Y0278
X05185Y0273
X0515Y0268
Y02595
X0507087Y0270079
X0507874Y0275984
X0509449Y0298425
X0527953Y0309055
X0484646Y0305118
X048Y0277
X0484646Y0268504
X0479472Y0259
X0485039Y0244882
X0485433Y0237795
X04905Y02345
X0490551Y0226378
X05005Y02265
X04965Y02215
X048Y02185
X0515Y0206
Y01825
X05249Y01887
X05339Y01888
X0544Y0187
X0551Y0188
X0557
X05619Y01849
X0571654Y0172835
X0546457Y016811
X054252Y017126
X05365Y0173
Y0201
X0538189Y0206693
Y0212598
X0546457Y0194095
X051063Y0163386
X0507087Y0242126
X05995Y0234
X0603Y02265
X0455905Y0226378
X04405Y02305
X0440158Y0245276
X0447Y0248
X0449606Y0239764
X04435Y02555
X0455905Y0259055
X0451124Y0264961
X0438583Y0268504
X04335Y0277
X0411028Y02685
X0404724Y0259055
Y0235039
X0379134Y0240158
X03555Y021
X034Y01935
X0331102Y0190157
X03355Y0178
X0344Y01725
X0362992Y0156693
X0327Y0206
X03515Y0272
X03475Y03
X0362205Y0302362
X0362992Y0292913
X0393Y03
X0404724Y0294882
X0439369Y030748
X045Y03
X0455905Y028937
X0434Y02185
X02014Y02206
X0212598Y0241339
X0220866Y0305906
X0172835Y029685
X0220079Y0164567
X0227559Y0156299
X0246063
X0240551Y0173228
X01545Y0217886
X0153Y02414
X0126902Y0197508
X01275Y02975
X01515Y03189
X0164567Y0377559
X0167323Y0435039
X01729Y04652
X0185039Y0465748
X0197638Y0450787
X0206Y04005
X0220472Y0383858
X03245Y03525
X03575
X03555Y03445
X0364
X03655Y03385
X0359Y0333
X0359055Y0326378
X03515Y03395
X0378398Y0337102
X03855Y033
X0403937Y032559
X0404724Y0318504
X0404331Y0337402
X0409842Y0347638
X03985Y0363
X03895Y0356
X03845Y0359
X0371Y0363
X0366142Y0360236
X0354Y0374472
X03885Y0374886
X0406299Y0377559
X0411811Y0386614
X0440043Y03865
X04335Y03965
X0455905Y0408661
X04485Y0419
X0440158Y0427559
X0435039Y0437402
X0440158Y0446457
X0455905
Y0437402
X0406299
X0411417Y0446457
X03955Y0424
X04062Y04117
X0374Y04065
X0388583Y0462992
X0440158Y0363779
X0447Y0359
X0455905Y0348819
Y0377559
Y0318504
X0438583Y0327559
X04335Y03365
X048
X0484646Y0327559
X0479917Y03185
X0504724Y0314173
X0484646Y0364173
X0479921Y0377559
X0484646Y0386614
X048Y03965
X0508268Y0399606
X051Y04275
X05155Y04325
X0521Y04375
X0522Y04225
X0540945Y041063
X0546063Y0414173
X0551181Y041811
X0555905Y0422441
X0561024Y0426378
X0566142Y0430709
X0570866Y0434646
X0579528
X0575591Y0438976
X0579528Y0426378
Y041811
X0583858Y0414173
Y0422441
Y0430709
X0579528Y0409449
X0580709Y0393701
X0579133Y0388582
X0586602Y0388965
X0598819Y0390945
X0598818Y0396062
X0598819Y0401575
X059252
X0599605Y0385432
X0600392Y0379133
X0602071Y0374196
X0604329Y0368897
X0606298Y0362598
X0608266Y0357086
X0613386Y0356693
X0618503Y0356692
X0623145Y0359032
X0579133Y0352361
X0579134Y0347244
X0579133Y0342125
Y0337007
X0579069Y033176
X0579133Y0326771
X0579Y03215
X0571Y03195
X05755Y0314
X0566Y03245
X0561Y03295
X0556Y03345
X0551Y03395
X0546Y03445
X0541Y03495
X0536Y03925
X0536614Y0447638
X0513779
X0494882Y0452756
Y0463386
X0488189
X0483071Y046811
X0484646Y0446457
Y0424016
X0491339Y0424409
X0496063Y0434252
X051Y04725
X0521Y04785
X034
X0240551Y0487402
X0226378Y0482282
X0233858Y0472441
T02
X0373Y03455
X04
T03
X0124488Y0132283
X0164488
X021Y04405
Y04805
T04
X01145Y01195
X01245
X01345
X01445
X01545
X01645
X0220551Y0119134
X0230551
X0240551
Y0129134
X0230551
X0220551
X0296272Y0132453
Y0122453
X0306272
Y0132453
X0316272
Y0122453
X0326272
Y0132453
X0336272
Y0122453
X0346272
Y0132453
X0356272
Y0122453
X0366272
Y0132453
X0376272
Y0122453
X0386272
Y0132453
X0396272
Y0122453
X0406272
Y0132453
X0416272
Y0122453
X0426272
Y0132453
X0436272
Y0122453
X0446272
Y0132453
X0456272
Y0122453
X0466272
Y0132453
X0476272
Y0122453
X0486272
Y0132453
X0496272
Y0122453
X0506272
Y0132453
X0516272
Y0122453
X0526272
Y0132453
X0536272
X0546272
Y0122453
X0556272
Y0132453
X0566272
Y0122453
X0576272
Y0132453
X0586272
Y0122453
X0536272
X03125Y02295
Y02395
X03025
Y02295
X02925
Y02395
X02825
Y02295
X0282Y02055
X0292
X0302
X0312
Y01955
X0302
X0292
X0282
Y0176
X0292
X0302
X0312
Y0166
X0302
X0292
X0282
X0257Y0182
X0247
Y0192
X0257
Y0202
X0247
Y0212
X0257
Y0222
X0247
Y0232
X0257
Y0242
X0247
Y0252
X0257
Y0262
X0247
Y0272
X0257
Y0282
X0247
Y0292
X0257
Y0302
X0247
Y0312
X0257
X02805Y03
X02905
X03005
X03105
Y029
X03005
X02905
X02805
X0282Y0272
X0292
X0302
X0312
Y0262
X0302
X0292
X0282
X02805Y0323
X02905
X03005
X03105
Y0333
X03005
X02905
X02805
X0257Y0332
Y0322
X0247
Y0332
Y0342
X0257
Y0352
X0247
Y0362
X0257
Y0372
X0247
Y0382
X0257
Y0392
X0247
Y0402
X0257
Y0412
X0247
Y0422
Y0432
X0257
Y0442
X0247
Y0452
X0257
Y0462
X0247
X0257Y0422
X02805Y0431
X02905
X03005
X03105
Y0441
X03005
X02905
X02805
Y04065
X02905
X03005
X03105
Y03965
X03005
X02905
X02805
Y03705
X02905
X03005
X03105
Y03605
X03005
X02905
X02805
X0638425Y0364173
Y0374173
Y0384173
Y0394173
Y0404173
Y0414173
Y0424173
Y0434173
Y0444173
Y0454173
Y0464173
X0648425
Y0454173
Y0444173
Y0434173
Y0424173
Y0414173
Y0404173
Y0394173
Y0384173
Y0374173
Y0364173
Y0354173
X0638425
Y0344173
X0648425
Y0334173
X0638425
Y0324173
X0648425
Y0314173
X0638425
Y0474173
Y0484173
X0648425
Y0474173
X0257Y0472
X0247
T05
X06643Y02231
X06645Y02387
X06642Y02543
Y02699
X06645Y02854
X06644Y03011
X06843
Y02855
X06844Y02699
X06843Y02543
X06842Y02387
X06843Y02231
X06844Y03166
X06842Y03323
X06844Y03479
Y03635
Y03791
X06843Y03947
X06842Y04103
X06843Y04258
X06842Y04415
X06843Y0457
X06641Y04571
X06643Y04415
Y04258
Y04103
X06641Y03946
X06645Y03789
X06644Y03635
X06643Y03479
X06644Y03323
X06641Y03166
Y04727
X06643Y04883
X06843Y04887
X06841Y04727
M30
