%FSLAX25Y25*%
%MOIN*%
G70*
G01*
G75*
G04 Layer_Color=8421504*
%ADD10O,0.01378X0.06693*%
%ADD11R,0.06693X0.04331*%
%ADD12R,0.11811X0.04331*%
%ADD13R,0.35827X0.41929*%
%ADD14R,0.10236X0.04331*%
%ADD15R,0.04331X0.06693*%
%ADD16R,0.05512X0.03937*%
%ADD17R,0.05512X0.12795*%
%ADD18O,0.07087X0.02362*%
%ADD19O,0.02165X0.07874*%
%ADD20O,0.07874X0.02165*%
%ADD21O,0.02756X0.09843*%
%ADD22C,0.01000*%
%ADD23C,0.02000*%
%ADD24C,0.02953*%
%ADD25C,0.03937*%
%ADD26C,0.04000*%
%ADD27C,0.01969*%
%ADD28R,0.05906X0.05906*%
%ADD29C,0.05906*%
%ADD30C,0.05512*%
%ADD31R,0.05906X0.05906*%
%ADD32C,0.07874*%
%ADD33C,0.03937*%
%ADD34C,0.05000*%
%ADD35C,0.07543*%
G04:AMPARAMS|DCode=36|XSize=93.465mil|YSize=93.465mil|CornerRadius=0mil|HoleSize=0mil|Usage=FLASHONLY|Rotation=0.000|XOffset=0mil|YOffset=0mil|HoleType=Round|Shape=Relief|Width=10mil|Gap=10mil|Entries=4|*
%AMTHD36*
7,0,0,0.09347,0.07347,0.01000,45*
%
%ADD36THD36*%
%ADD37C,0.07347*%
%ADD38C,0.08921*%
%ADD39C,0.05969*%
G04:AMPARAMS|DCode=40|XSize=79.685mil|YSize=79.685mil|CornerRadius=0mil|HoleSize=0mil|Usage=FLASHONLY|Rotation=0.000|XOffset=0mil|YOffset=0mil|HoleType=Round|Shape=Relief|Width=10mil|Gap=10mil|Entries=4|*
%AMTHD40*
7,0,0,0.07969,0.05969,0.01000,45*
%
%ADD40THD40*%
%ADD41C,0.06800*%
G04:AMPARAMS|DCode=42|XSize=95.433mil|YSize=95.433mil|CornerRadius=0mil|HoleSize=0mil|Usage=FLASHONLY|Rotation=0.000|XOffset=0mil|YOffset=0mil|HoleType=Round|Shape=Relief|Width=10mil|Gap=10mil|Entries=4|*
%AMTHD42*
7,0,0,0.09543,0.07543,0.01000,45*
%
%ADD42THD42*%
%ADD43C,0.02913*%
%ADD44C,0.00984*%
%ADD45C,0.02362*%
%ADD46C,0.00787*%
%ADD47C,0.00800*%
D10*
X363043Y330279D02*
D03*
X365602D02*
D03*
X368161D02*
D03*
X370721D02*
D03*
X373280D02*
D03*
X375839D02*
D03*
X378398D02*
D03*
X380957D02*
D03*
X363043Y352720D02*
D03*
X365602D02*
D03*
X368161D02*
D03*
X370721D02*
D03*
X373280D02*
D03*
X375839D02*
D03*
X378398D02*
D03*
X380957D02*
D03*
X564516Y200721D02*
D03*
X561957D02*
D03*
X559398D02*
D03*
X556839D02*
D03*
X554280D02*
D03*
X551721D02*
D03*
X549161D02*
D03*
X546602D02*
D03*
X544043D02*
D03*
X541484D02*
D03*
X564516Y178279D02*
D03*
X561957D02*
D03*
X559398D02*
D03*
X556839D02*
D03*
X554280D02*
D03*
X551721D02*
D03*
X549161D02*
D03*
X546602D02*
D03*
X544043D02*
D03*
X541484D02*
D03*
D11*
X553500Y157370D02*
D03*
Y168000D02*
D03*
X197000Y164815D02*
D03*
Y154185D02*
D03*
X206000Y164815D02*
D03*
Y154185D02*
D03*
X179000Y154370D02*
D03*
Y165000D02*
D03*
X188000Y154370D02*
D03*
Y165000D02*
D03*
X206000Y241315D02*
D03*
Y230685D02*
D03*
X197000Y241315D02*
D03*
Y230685D02*
D03*
X178500D02*
D03*
Y241315D02*
D03*
X188000Y230685D02*
D03*
Y241315D02*
D03*
X388500Y391815D02*
D03*
Y381185D02*
D03*
X354000Y391815D02*
D03*
Y381185D02*
D03*
X518110Y298228D02*
D03*
Y308858D02*
D03*
X504331Y452559D02*
D03*
Y463189D02*
D03*
X507874Y292717D02*
D03*
Y282087D02*
D03*
X503937Y444685D02*
D03*
Y434055D02*
D03*
X370866Y319488D02*
D03*
Y308858D02*
D03*
X362205Y319488D02*
D03*
Y308858D02*
D03*
X507087Y247835D02*
D03*
Y258465D02*
D03*
X508268Y406890D02*
D03*
Y417520D02*
D03*
X206000Y306185D02*
D03*
Y316815D02*
D03*
X197000Y306185D02*
D03*
Y316815D02*
D03*
X178500Y306370D02*
D03*
Y317000D02*
D03*
X188000Y306370D02*
D03*
Y317000D02*
D03*
X571654Y184055D02*
D03*
Y194685D02*
D03*
X586614Y184055D02*
D03*
Y194685D02*
D03*
X525000Y194000D02*
D03*
Y183370D02*
D03*
X534000Y194130D02*
D03*
Y183500D02*
D03*
X197000Y383685D02*
D03*
Y394315D02*
D03*
X206000Y383685D02*
D03*
Y394315D02*
D03*
X178500Y383685D02*
D03*
Y394315D02*
D03*
X188000Y383685D02*
D03*
Y394315D02*
D03*
X571654Y157283D02*
D03*
Y167913D02*
D03*
X562598Y157283D02*
D03*
Y167913D02*
D03*
X189764Y461221D02*
D03*
Y450591D02*
D03*
X180500Y461130D02*
D03*
Y450500D02*
D03*
X167500Y470185D02*
D03*
Y480815D02*
D03*
X179000Y470185D02*
D03*
Y480815D02*
D03*
D12*
X164106Y155114D02*
D03*
Y161807D02*
D03*
Y168500D02*
D03*
Y175193D02*
D03*
Y181886D02*
D03*
X164705Y234614D02*
D03*
Y241307D02*
D03*
Y248000D02*
D03*
Y254693D02*
D03*
Y261386D02*
D03*
Y310614D02*
D03*
Y317307D02*
D03*
Y324000D02*
D03*
Y330693D02*
D03*
Y337386D02*
D03*
Y388114D02*
D03*
Y394807D02*
D03*
Y401500D02*
D03*
Y408193D02*
D03*
Y414886D02*
D03*
D13*
X126902Y168500D02*
D03*
X127500Y248000D02*
D03*
Y324000D02*
D03*
Y401500D02*
D03*
D14*
X195000Y184815D02*
D03*
Y174185D02*
D03*
X181000D02*
D03*
Y184815D02*
D03*
X195000Y260315D02*
D03*
Y249685D02*
D03*
X180500D02*
D03*
Y260315D02*
D03*
X194500Y336815D02*
D03*
Y326185D02*
D03*
X180500D02*
D03*
Y336815D02*
D03*
X194500Y414815D02*
D03*
Y404185D02*
D03*
X180500D02*
D03*
Y414815D02*
D03*
X167500Y442000D02*
D03*
Y452630D02*
D03*
D15*
X428315Y446500D02*
D03*
X417685D02*
D03*
X428315Y386500D02*
D03*
X417685D02*
D03*
X428315Y327500D02*
D03*
X417685D02*
D03*
X428315Y268500D02*
D03*
X417685D02*
D03*
X472244Y446457D02*
D03*
X461614D02*
D03*
X472244Y386614D02*
D03*
X461614D02*
D03*
X462185Y327500D02*
D03*
X472815D02*
D03*
X462185Y268500D02*
D03*
X472815D02*
D03*
X428315Y437500D02*
D03*
X417685D02*
D03*
X428315Y377500D02*
D03*
X417685D02*
D03*
X428315Y318500D02*
D03*
X417685D02*
D03*
X428315Y259000D02*
D03*
X417685D02*
D03*
X472315Y437500D02*
D03*
X461685D02*
D03*
X472315Y377500D02*
D03*
X461685D02*
D03*
X472815Y318500D02*
D03*
X462185D02*
D03*
X472815Y259000D02*
D03*
X462185D02*
D03*
X554315Y221500D02*
D03*
X543685D02*
D03*
X554315Y212500D02*
D03*
X543685D02*
D03*
X472315Y396000D02*
D03*
X461685D02*
D03*
Y405500D02*
D03*
X472315D02*
D03*
X417685D02*
D03*
X428315D02*
D03*
Y396000D02*
D03*
X417685D02*
D03*
Y346000D02*
D03*
X428315D02*
D03*
Y336500D02*
D03*
X417685D02*
D03*
X462185Y346000D02*
D03*
X472815D02*
D03*
Y336500D02*
D03*
X462185D02*
D03*
X417685Y286000D02*
D03*
X428315D02*
D03*
Y277000D02*
D03*
X417685D02*
D03*
X462185Y286000D02*
D03*
X472815D02*
D03*
Y277000D02*
D03*
X462185D02*
D03*
X417685Y227000D02*
D03*
X428315D02*
D03*
Y218500D02*
D03*
X417685D02*
D03*
X462185Y227000D02*
D03*
X472815D02*
D03*
Y218500D02*
D03*
X462185D02*
D03*
D16*
X155000Y453445D02*
D03*
Y462500D02*
D03*
Y471555D02*
D03*
D17*
X128228Y462500D02*
D03*
D18*
X433236Y354000D02*
D03*
Y359000D02*
D03*
Y364000D02*
D03*
Y369000D02*
D03*
X412764Y354000D02*
D03*
Y359000D02*
D03*
Y364000D02*
D03*
Y369000D02*
D03*
X433236Y414000D02*
D03*
Y419000D02*
D03*
Y424000D02*
D03*
Y429000D02*
D03*
X412764Y414000D02*
D03*
Y419000D02*
D03*
Y424000D02*
D03*
Y429000D02*
D03*
X433236Y235000D02*
D03*
Y240000D02*
D03*
Y245000D02*
D03*
Y250000D02*
D03*
X412764Y235000D02*
D03*
Y240000D02*
D03*
Y245000D02*
D03*
Y250000D02*
D03*
X433236Y295000D02*
D03*
Y300000D02*
D03*
Y305000D02*
D03*
Y310000D02*
D03*
X412764Y295000D02*
D03*
Y300000D02*
D03*
Y305000D02*
D03*
Y310000D02*
D03*
X477236Y354000D02*
D03*
Y359000D02*
D03*
Y364000D02*
D03*
Y369000D02*
D03*
X456764Y354000D02*
D03*
Y359000D02*
D03*
Y364000D02*
D03*
Y369000D02*
D03*
X477236Y414000D02*
D03*
Y419000D02*
D03*
Y424000D02*
D03*
Y429000D02*
D03*
X456764Y414000D02*
D03*
Y419000D02*
D03*
Y424000D02*
D03*
Y429000D02*
D03*
X477236Y235000D02*
D03*
Y240000D02*
D03*
Y245000D02*
D03*
Y250000D02*
D03*
X456764Y235000D02*
D03*
Y240000D02*
D03*
Y245000D02*
D03*
Y250000D02*
D03*
X477736Y295000D02*
D03*
Y300000D02*
D03*
Y305000D02*
D03*
Y310000D02*
D03*
X457264Y295000D02*
D03*
Y300000D02*
D03*
Y305000D02*
D03*
Y310000D02*
D03*
D19*
X536000Y241504D02*
D03*
X541000D02*
D03*
X546000D02*
D03*
X551000D02*
D03*
X556000D02*
D03*
X561000D02*
D03*
X566000D02*
D03*
X571000D02*
D03*
X576000D02*
D03*
X581000D02*
D03*
X586000D02*
D03*
Y304496D02*
D03*
X581000D02*
D03*
X576000D02*
D03*
X571000D02*
D03*
X566000D02*
D03*
X561000D02*
D03*
X556000D02*
D03*
X551000D02*
D03*
X546000D02*
D03*
X541000D02*
D03*
X536000D02*
D03*
Y401004D02*
D03*
X541000D02*
D03*
X546000D02*
D03*
X551000D02*
D03*
X556000D02*
D03*
X561000D02*
D03*
X566000D02*
D03*
X571000D02*
D03*
X576000D02*
D03*
X581000D02*
D03*
X586000D02*
D03*
Y463996D02*
D03*
X581000D02*
D03*
X576000D02*
D03*
X571000D02*
D03*
X566000D02*
D03*
X561000D02*
D03*
X556000D02*
D03*
X551000D02*
D03*
X546000D02*
D03*
X541000D02*
D03*
X536000D02*
D03*
D20*
X592496Y248000D02*
D03*
Y253000D02*
D03*
Y258000D02*
D03*
Y263000D02*
D03*
Y268000D02*
D03*
Y273000D02*
D03*
Y278000D02*
D03*
Y283000D02*
D03*
Y288000D02*
D03*
Y293000D02*
D03*
Y298000D02*
D03*
X529504D02*
D03*
Y293000D02*
D03*
Y288000D02*
D03*
Y283000D02*
D03*
Y278000D02*
D03*
Y273000D02*
D03*
Y268000D02*
D03*
Y263000D02*
D03*
Y258000D02*
D03*
Y253000D02*
D03*
Y248000D02*
D03*
X592496Y407500D02*
D03*
Y412500D02*
D03*
Y417500D02*
D03*
Y422500D02*
D03*
Y427500D02*
D03*
Y432500D02*
D03*
Y437500D02*
D03*
Y442500D02*
D03*
Y447500D02*
D03*
Y452500D02*
D03*
Y457500D02*
D03*
X529504D02*
D03*
Y452500D02*
D03*
Y447500D02*
D03*
Y442500D02*
D03*
Y437500D02*
D03*
Y432500D02*
D03*
Y427500D02*
D03*
Y422500D02*
D03*
Y417500D02*
D03*
Y412500D02*
D03*
Y407500D02*
D03*
D21*
X379000Y396146D02*
D03*
X374000D02*
D03*
X369000D02*
D03*
X364000D02*
D03*
X379000Y376854D02*
D03*
X374000D02*
D03*
X369000D02*
D03*
X364000D02*
D03*
M02*
