%FSLAX25Y25*%
%MOIN*%
G70*
G01*
G75*
G04 Layer_Color=65535*
%ADD10O,0.01378X0.06693*%
%ADD11R,0.06693X0.04331*%
%ADD12R,0.11811X0.04331*%
%ADD13R,0.35827X0.41929*%
%ADD14R,0.10236X0.04331*%
%ADD15R,0.04331X0.06693*%
%ADD16R,0.05512X0.03937*%
%ADD17R,0.05512X0.12795*%
%ADD18O,0.07087X0.02362*%
%ADD19O,0.02165X0.07874*%
%ADD20O,0.07874X0.02165*%
%ADD21O,0.02756X0.09843*%
%ADD22C,0.01000*%
%ADD23C,0.02000*%
%ADD24C,0.02953*%
%ADD25C,0.03937*%
%ADD26C,0.04000*%
%ADD27C,0.01969*%
%ADD28R,0.05906X0.05906*%
%ADD29C,0.05906*%
%ADD30C,0.05512*%
%ADD31R,0.05906X0.05906*%
%ADD32C,0.07874*%
%ADD33C,0.03937*%
%ADD34C,0.05000*%
%ADD35C,0.07543*%
G04:AMPARAMS|DCode=36|XSize=93.465mil|YSize=93.465mil|CornerRadius=0mil|HoleSize=0mil|Usage=FLASHONLY|Rotation=0.000|XOffset=0mil|YOffset=0mil|HoleType=Round|Shape=Relief|Width=10mil|Gap=10mil|Entries=4|*
%AMTHD36*
7,0,0,0.09347,0.07347,0.01000,45*
%
%ADD36THD36*%
%ADD37C,0.07347*%
%ADD38C,0.08921*%
%ADD39C,0.05969*%
G04:AMPARAMS|DCode=40|XSize=79.685mil|YSize=79.685mil|CornerRadius=0mil|HoleSize=0mil|Usage=FLASHONLY|Rotation=0.000|XOffset=0mil|YOffset=0mil|HoleType=Round|Shape=Relief|Width=10mil|Gap=10mil|Entries=4|*
%AMTHD40*
7,0,0,0.07969,0.05969,0.01000,45*
%
%ADD40THD40*%
%ADD41C,0.06800*%
G04:AMPARAMS|DCode=42|XSize=95.433mil|YSize=95.433mil|CornerRadius=0mil|HoleSize=0mil|Usage=FLASHONLY|Rotation=0.000|XOffset=0mil|YOffset=0mil|HoleType=Round|Shape=Relief|Width=10mil|Gap=10mil|Entries=4|*
%AMTHD42*
7,0,0,0.09543,0.07543,0.01000,45*
%
%ADD42THD42*%
%ADD43C,0.02913*%
%ADD44C,0.00984*%
%ADD45C,0.02362*%
%ADD46C,0.00787*%
%ADD47C,0.00800*%
D22*
X126500Y484498D02*
Y479500D01*
X127500Y478500D01*
X129499D01*
X130499Y479500D01*
Y484498D01*
X132498Y478500D02*
X134497D01*
X133498D01*
Y484498D01*
X132498Y483498D01*
X137496D02*
X138496Y484498D01*
X140496D01*
X141495Y483498D01*
Y482499D01*
X140496Y481499D01*
X139496D01*
X140496D01*
X141495Y480499D01*
Y479500D01*
X140496Y478500D01*
X138496D01*
X137496Y479500D01*
X110000Y280498D02*
Y275500D01*
X111000Y274500D01*
X112999D01*
X113999Y275500D01*
Y280498D01*
X115998Y274500D02*
X117997D01*
X116998D01*
Y280498D01*
X115998Y279498D01*
X120996D02*
X121996Y280498D01*
X123995D01*
X124995Y279498D01*
Y275500D01*
X123995Y274500D01*
X121996D01*
X120996Y275500D01*
Y279498D01*
X110500Y431998D02*
Y427000D01*
X111500Y426000D01*
X113499D01*
X114499Y427000D01*
Y431998D01*
X116498Y426000D02*
X118497D01*
X117498D01*
Y431998D01*
X116498Y430998D01*
X125495Y426000D02*
X121496D01*
X125495Y429999D01*
Y430998D01*
X124495Y431998D01*
X122496D01*
X121496Y430998D01*
X110000Y200498D02*
Y195500D01*
X111000Y194500D01*
X112999D01*
X113999Y195500D01*
Y200498D01*
X115998Y195500D02*
X116998Y194500D01*
X118997D01*
X119997Y195500D01*
Y199498D01*
X118997Y200498D01*
X116998D01*
X115998Y199498D01*
Y198499D01*
X116998Y197499D01*
X119997D01*
X110000Y355998D02*
Y351000D01*
X111000Y350000D01*
X112999D01*
X113999Y351000D01*
Y355998D01*
X115998Y350000D02*
X117997D01*
X116998D01*
Y355998D01*
X115998Y354998D01*
X120996Y350000D02*
X122996D01*
X121996D01*
Y355998D01*
X120996Y354998D01*
X350252Y326850D02*
X355250D01*
X356250Y327850D01*
Y329849D01*
X355250Y330849D01*
X350252D01*
X356250Y332848D02*
Y334847D01*
Y333848D01*
X350252D01*
X351252Y332848D01*
X356250Y340845D02*
X350252D01*
X353251Y337846D01*
Y341845D01*
X531002Y162000D02*
X536000D01*
X537000Y163000D01*
Y164999D01*
X536000Y165999D01*
X531002D01*
X537000Y167998D02*
Y169997D01*
Y168998D01*
X531002D01*
X532002Y167998D01*
X531002Y176995D02*
Y172996D01*
X534001D01*
X533001Y174996D01*
Y175996D01*
X534001Y176995D01*
X536000D01*
X537000Y175996D01*
Y173996D01*
X536000Y172996D01*
X478500Y223500D02*
Y229498D01*
X481499D01*
X482499Y228498D01*
Y226499D01*
X481499Y225499D01*
X478500D01*
X480499D02*
X482499Y223500D01*
X484498D02*
X486497D01*
X485498D01*
Y229498D01*
X484498Y228498D01*
X478500Y343000D02*
Y348998D01*
X481499D01*
X482499Y347998D01*
Y345999D01*
X481499Y344999D01*
X478500D01*
X480499D02*
X482499Y343000D01*
X488497Y348998D02*
X484498D01*
Y345999D01*
X486497Y346999D01*
X487497D01*
X488497Y345999D01*
Y344000D01*
X487497Y343000D01*
X485498D01*
X484498Y344000D01*
X434500Y223500D02*
Y229498D01*
X437499D01*
X438499Y228498D01*
Y226499D01*
X437499Y225499D01*
X434500D01*
X436499D02*
X438499Y223500D01*
X440498Y224500D02*
X441498Y223500D01*
X443497D01*
X444497Y224500D01*
Y228498D01*
X443497Y229498D01*
X441498D01*
X440498Y228498D01*
Y227499D01*
X441498Y226499D01*
X444497D01*
X434500Y342500D02*
Y348498D01*
X437499D01*
X438499Y347498D01*
Y345499D01*
X437499Y344499D01*
X434500D01*
X436499D02*
X438499Y342500D01*
X440498D02*
X442497D01*
X441498D01*
Y348498D01*
X440498Y347498D01*
X445496D02*
X446496Y348498D01*
X448495D01*
X449495Y347498D01*
Y346499D01*
X448495Y345499D01*
X447496D01*
X448495D01*
X449495Y344499D01*
Y343500D01*
X448495Y342500D01*
X446496D01*
X445496Y343500D01*
X477500Y283500D02*
Y289498D01*
X480499D01*
X481499Y288498D01*
Y286499D01*
X480499Y285499D01*
X477500D01*
X479499D02*
X481499Y283500D01*
X487497D02*
X483498D01*
X487497Y287499D01*
Y288498D01*
X486497Y289498D01*
X484498D01*
X483498Y288498D01*
X478000Y402000D02*
Y407998D01*
X480999D01*
X481999Y406998D01*
Y404999D01*
X480999Y403999D01*
X478000D01*
X479999D02*
X481999Y402000D01*
X487997Y407998D02*
X485997Y406998D01*
X483998Y404999D01*
Y403000D01*
X484998Y402000D01*
X486997D01*
X487997Y403000D01*
Y403999D01*
X486997Y404999D01*
X483998D01*
X434500Y283000D02*
Y288998D01*
X437499D01*
X438499Y287998D01*
Y285999D01*
X437499Y284999D01*
X434500D01*
X436499D02*
X438499Y283000D01*
X440498D02*
X442497D01*
X441498D01*
Y288998D01*
X440498Y287998D01*
X445496D02*
X446496Y288998D01*
X448495D01*
X449495Y287998D01*
Y284000D01*
X448495Y283000D01*
X446496D01*
X445496Y284000D01*
Y287998D01*
X434500Y402500D02*
Y408498D01*
X437499D01*
X438499Y407498D01*
Y405499D01*
X437499Y404499D01*
X434500D01*
X436499D02*
X438499Y402500D01*
X440498D02*
X442497D01*
X441498D01*
Y408498D01*
X440498Y407498D01*
X448495Y402500D02*
Y408498D01*
X445496Y405499D01*
X449495D01*
X478500Y215000D02*
Y220998D01*
X481499D01*
X482499Y219998D01*
Y217999D01*
X481499Y216999D01*
X478500D01*
X480499D02*
X482499Y215000D01*
X484498Y219998D02*
X485498Y220998D01*
X487497D01*
X488497Y219998D01*
Y218999D01*
X487497Y217999D01*
X486497D01*
X487497D01*
X488497Y216999D01*
Y216000D01*
X487497Y215000D01*
X485498D01*
X484498Y216000D01*
X478500Y334000D02*
Y339998D01*
X481499D01*
X482499Y338998D01*
Y336999D01*
X481499Y335999D01*
X478500D01*
X480499D02*
X482499Y334000D01*
X484498Y339998D02*
X488497D01*
Y338998D01*
X484498Y335000D01*
Y334000D01*
X434500Y215000D02*
Y220998D01*
X437499D01*
X438499Y219998D01*
Y217999D01*
X437499Y216999D01*
X434500D01*
X436499D02*
X438499Y215000D01*
X440498D02*
X442497D01*
X441498D01*
Y220998D01*
X440498Y219998D01*
X445496Y215000D02*
X447496D01*
X446496D01*
Y220998D01*
X445496Y219998D01*
X434500Y333500D02*
Y339498D01*
X437499D01*
X438499Y338498D01*
Y336499D01*
X437499Y335499D01*
X434500D01*
X436499D02*
X438499Y333500D01*
X440498D02*
X442497D01*
X441498D01*
Y339498D01*
X440498Y338498D01*
X449495Y339498D02*
X445496D01*
Y336499D01*
X447496Y337499D01*
X448495D01*
X449495Y336499D01*
Y334500D01*
X448495Y333500D01*
X446496D01*
X445496Y334500D01*
X477500Y273500D02*
Y279498D01*
X480499D01*
X481499Y278498D01*
Y276499D01*
X480499Y275499D01*
X477500D01*
X479499D02*
X481499Y273500D01*
X486497D02*
Y279498D01*
X483498Y276499D01*
X487497D01*
X478000Y393000D02*
Y398998D01*
X480999D01*
X481999Y397998D01*
Y395999D01*
X480999Y394999D01*
X478000D01*
X479999D02*
X481999Y393000D01*
X483998Y397998D02*
X484998Y398998D01*
X486997D01*
X487997Y397998D01*
Y396999D01*
X486997Y395999D01*
X487997Y394999D01*
Y394000D01*
X486997Y393000D01*
X484998D01*
X483998Y394000D01*
Y394999D01*
X484998Y395999D01*
X483998Y396999D01*
Y397998D01*
X484998Y395999D02*
X486997D01*
X434500Y274000D02*
Y279998D01*
X437499D01*
X438499Y278998D01*
Y276999D01*
X437499Y275999D01*
X434500D01*
X436499D02*
X438499Y274000D01*
X440498D02*
X442497D01*
X441498D01*
Y279998D01*
X440498Y278998D01*
X449495Y274000D02*
X445496D01*
X449495Y277999D01*
Y278998D01*
X448495Y279998D01*
X446496D01*
X445496Y278998D01*
X434500Y392500D02*
Y398498D01*
X437499D01*
X438499Y397498D01*
Y395499D01*
X437499Y394499D01*
X434500D01*
X436499D02*
X438499Y392500D01*
X440498D02*
X442497D01*
X441498D01*
Y398498D01*
X440498Y397498D01*
X449495Y398498D02*
X447496Y397498D01*
X445496Y395499D01*
Y393500D01*
X446496Y392500D01*
X448495D01*
X449495Y393500D01*
Y394499D01*
X448495Y395499D01*
X445496D01*
X178000Y204000D02*
X183998D01*
Y201001D01*
X182998Y200001D01*
X180999D01*
X179999Y201001D01*
Y204000D01*
Y202001D02*
X178000Y200001D01*
Y198002D02*
Y196003D01*
Y197002D01*
X183998D01*
X182998Y198002D01*
Y193004D02*
X183998Y192004D01*
Y190005D01*
X182998Y189005D01*
X181999D01*
X180999Y190005D01*
X179999Y189005D01*
X179000D01*
X178000Y190005D01*
Y192004D01*
X179000Y193004D01*
X179999D01*
X180999Y192004D01*
X181999Y193004D01*
X182998D01*
X180999Y192004D02*
Y190005D01*
X177500Y358500D02*
X183498D01*
Y355501D01*
X182498Y354501D01*
X180499D01*
X179499Y355501D01*
Y358500D01*
Y356501D02*
X177500Y354501D01*
Y348503D02*
Y352502D01*
X181499Y348503D01*
X182498D01*
X183498Y349503D01*
Y351502D01*
X182498Y352502D01*
Y346504D02*
X183498Y345504D01*
Y343505D01*
X182498Y342505D01*
X181499D01*
X180499Y343505D01*
Y344504D01*
Y343505D01*
X179499Y342505D01*
X178500D01*
X177500Y343505D01*
Y345504D01*
X178500Y346504D01*
X177500Y436000D02*
X183498D01*
Y433001D01*
X182498Y432001D01*
X180499D01*
X179499Y433001D01*
Y436000D01*
Y434001D02*
X177500Y432001D01*
Y426003D02*
Y430002D01*
X181499Y426003D01*
X182498D01*
X183498Y427003D01*
Y429002D01*
X182498Y430002D01*
X183498Y420005D02*
Y424004D01*
X180499D01*
X181499Y422005D01*
Y421005D01*
X180499Y420005D01*
X178500D01*
X177500Y421005D01*
Y423004D01*
X178500Y424004D01*
X118338Y128934D02*
X112340D01*
Y131932D01*
X113340Y132932D01*
X115339D01*
X116339Y131932D01*
Y128934D01*
Y130933D02*
X118338Y132932D01*
Y134932D02*
Y136931D01*
Y135931D01*
X112340D01*
X113340Y134932D01*
X117339Y139930D02*
X118338Y140930D01*
Y142929D01*
X117339Y143929D01*
X113340D01*
X112340Y142929D01*
Y140930D01*
X113340Y139930D01*
X114339D01*
X115339Y140930D01*
Y143929D01*
X155500Y431500D02*
Y437498D01*
X158499D01*
X159499Y436498D01*
Y434499D01*
X158499Y433499D01*
X155500D01*
X157499D02*
X159499Y431500D01*
X165497D02*
X161498D01*
X165497Y435499D01*
Y436498D01*
X164497Y437498D01*
X162498D01*
X161498Y436498D01*
X167496Y437498D02*
X171495D01*
Y436498D01*
X167496Y432500D01*
Y431500D01*
X216500Y470500D02*
X222498D01*
Y467501D01*
X221498Y466501D01*
X219499D01*
X218499Y467501D01*
Y470500D01*
Y468501D02*
X216500Y466501D01*
Y460503D02*
Y464502D01*
X220499Y460503D01*
X221498D01*
X222498Y461503D01*
Y463502D01*
X221498Y464502D01*
X222498Y454505D02*
X221498Y456504D01*
X219499Y458504D01*
X217500D01*
X216500Y457504D01*
Y455505D01*
X217500Y454505D01*
X218499D01*
X219499Y455505D01*
Y458504D01*
X192000Y281000D02*
X197998D01*
Y278001D01*
X196998Y277001D01*
X194999D01*
X193999Y278001D01*
Y281000D01*
Y279001D02*
X192000Y277001D01*
Y271003D02*
Y275002D01*
X195999Y271003D01*
X196998D01*
X197998Y272003D01*
Y274002D01*
X196998Y275002D01*
Y269004D02*
X197998Y268004D01*
Y266005D01*
X196998Y265005D01*
X193000D01*
X192000Y266005D01*
Y268004D01*
X193000Y269004D01*
X196998D01*
X177500Y281000D02*
X183498D01*
Y278001D01*
X182498Y277001D01*
X180499D01*
X179499Y278001D01*
Y281000D01*
Y279001D02*
X177500Y277001D01*
Y271003D02*
Y275002D01*
X181499Y271003D01*
X182498D01*
X183498Y272003D01*
Y274002D01*
X182498Y275002D01*
X177500Y269004D02*
Y267004D01*
Y268004D01*
X183498D01*
X182498Y269004D01*
X191500Y436000D02*
X197498D01*
Y433001D01*
X196498Y432001D01*
X194499D01*
X193499Y433001D01*
Y436000D01*
Y434001D02*
X191500Y432001D01*
Y426003D02*
Y430002D01*
X195499Y426003D01*
X196498D01*
X197498Y427003D01*
Y429002D01*
X196498Y430002D01*
X191500Y421005D02*
X197498D01*
X194499Y424004D01*
Y420005D01*
X191500Y203685D02*
X197498D01*
Y200686D01*
X196498Y199686D01*
X194499D01*
X193499Y200686D01*
Y203685D01*
Y201686D02*
X191500Y199686D01*
Y197687D02*
Y195688D01*
Y196687D01*
X197498D01*
X196498Y197687D01*
X197498Y192689D02*
Y188690D01*
X196498D01*
X192500Y192689D01*
X191500D01*
X191500Y358500D02*
X197498D01*
Y355501D01*
X196498Y354501D01*
X194499D01*
X193499Y355501D01*
Y358500D01*
Y356501D02*
X191500Y354501D01*
Y348503D02*
Y352502D01*
X195499Y348503D01*
X196498D01*
X197498Y349503D01*
Y351502D01*
X196498Y352502D01*
X191500Y342505D02*
Y346504D01*
X195499Y342505D01*
X196498D01*
X197498Y343505D01*
Y345504D01*
X196498Y346504D01*
X549200Y109800D02*
Y115798D01*
X552199D01*
X553199Y114798D01*
Y112799D01*
X552199Y111799D01*
X549200D01*
X555198Y113799D02*
Y110800D01*
X556198Y109800D01*
X557197Y110800D01*
X558197Y109800D01*
X559197Y110800D01*
Y113799D01*
X564195Y109800D02*
X562196D01*
X561196Y110800D01*
Y112799D01*
X562196Y113799D01*
X564195D01*
X565195Y112799D01*
Y111799D01*
X561196D01*
X567194Y109800D02*
X570193D01*
X571193Y110800D01*
X570193Y111799D01*
X568194D01*
X567194Y112799D01*
X568194Y113799D01*
X571193D01*
X574192Y114798D02*
Y113799D01*
X573192D01*
X575192D01*
X574192D01*
Y110800D01*
X575192Y109800D01*
X578191D02*
X580190D01*
X579190D01*
Y115798D01*
X578191Y114798D01*
X264000Y461300D02*
Y467298D01*
X266999D01*
X267999Y466298D01*
Y464299D01*
X266999Y463299D01*
X264000D01*
X269998Y461300D02*
Y465299D01*
X272997D01*
X273997Y464299D01*
Y461300D01*
X276996D02*
X278995D01*
X279995Y462300D01*
Y464299D01*
X278995Y465299D01*
X276996D01*
X275996Y464299D01*
Y462300D01*
X276996Y461300D01*
X281994Y465299D02*
Y461300D01*
Y463299D01*
X282994Y464299D01*
X283994Y465299D01*
X284993D01*
X288992Y466298D02*
Y465299D01*
X287992D01*
X289992D01*
X288992D01*
Y462300D01*
X289992Y461300D01*
X292991Y467298D02*
Y461300D01*
Y464299D01*
X293990Y465299D01*
X295990D01*
X296989Y464299D01*
Y461300D01*
X298989D02*
X300988D01*
X299988D01*
Y467298D01*
X298989Y466298D01*
X325150Y209850D02*
X331148D01*
Y206851D01*
X330148Y205851D01*
X328149D01*
X327149Y206851D01*
Y209850D01*
X325150Y199853D02*
Y203852D01*
X329149Y199853D01*
X330148D01*
X331148Y200853D01*
Y202852D01*
X330148Y203852D01*
X325150Y276350D02*
X331148D01*
Y273351D01*
X330148Y272351D01*
X328149D01*
X327149Y273351D01*
Y276350D01*
X325150Y267353D02*
X331148D01*
X328149Y270352D01*
Y266353D01*
X323650Y337350D02*
X329648D01*
Y334351D01*
X328648Y333351D01*
X326649D01*
X325649Y334351D01*
Y337350D01*
X329648Y327353D02*
X328648Y329353D01*
X326649Y331352D01*
X324650D01*
X323650Y330352D01*
Y328353D01*
X324650Y327353D01*
X325649D01*
X326649Y328353D01*
Y331352D01*
X323650Y374850D02*
X329648D01*
Y371851D01*
X328648Y370851D01*
X326649D01*
X325649Y371851D01*
Y374850D01*
X329648Y368852D02*
Y364853D01*
X328648D01*
X324650Y368852D01*
X323650D01*
Y410850D02*
X329648D01*
Y407851D01*
X328648Y406851D01*
X326649D01*
X325649Y407851D01*
Y410850D01*
X328648Y404852D02*
X329648Y403852D01*
Y401853D01*
X328648Y400853D01*
X327649D01*
X326649Y401853D01*
X325649Y400853D01*
X324650D01*
X323650Y401853D01*
Y403852D01*
X324650Y404852D01*
X325649D01*
X326649Y403852D01*
X327649Y404852D01*
X328648D01*
X326649Y403852D02*
Y401853D01*
X323650Y445350D02*
X329648D01*
Y442351D01*
X328648Y441351D01*
X326649D01*
X325649Y442351D01*
Y445350D01*
X324650Y439352D02*
X323650Y438352D01*
Y436353D01*
X324650Y435353D01*
X328648D01*
X329648Y436353D01*
Y438352D01*
X328648Y439352D01*
X327649D01*
X326649Y438352D01*
Y435353D01*
X325150Y180350D02*
X331148D01*
Y177351D01*
X330148Y176351D01*
X328149D01*
X327149Y177351D01*
Y180350D01*
X325150Y174352D02*
Y172353D01*
Y173352D01*
X331148D01*
X330148Y174352D01*
X325650Y243850D02*
X331648D01*
Y240851D01*
X330648Y239851D01*
X328649D01*
X327649Y240851D01*
Y243850D01*
X330648Y237852D02*
X331648Y236852D01*
Y234853D01*
X330648Y233853D01*
X329649D01*
X328649Y234853D01*
Y235853D01*
Y234853D01*
X327649Y233853D01*
X326650D01*
X325650Y234853D01*
Y236852D01*
X326650Y237852D01*
X323650Y304350D02*
X329648D01*
Y301351D01*
X328648Y300351D01*
X326649D01*
X325649Y301351D01*
Y304350D01*
X329648Y294353D02*
Y298352D01*
X326649D01*
X327649Y296353D01*
Y295353D01*
X326649Y294353D01*
X324650D01*
X323650Y295353D01*
Y297352D01*
X324650Y298352D01*
X609200Y483500D02*
Y489498D01*
X612199D01*
X613199Y488498D01*
Y486499D01*
X612199Y485499D01*
X609200D01*
X615198Y483500D02*
X617197D01*
X616198D01*
Y489498D01*
X615198Y488498D01*
X620196D02*
X621196Y489498D01*
X623196D01*
X624195Y488498D01*
Y484500D01*
X623196Y483500D01*
X621196D01*
X620196Y484500D01*
Y488498D01*
X173000Y117000D02*
Y122998D01*
X175999D01*
X176999Y121998D01*
Y119999D01*
X175999Y118999D01*
X173000D01*
X178998Y117000D02*
X180997D01*
X179998D01*
Y122998D01*
X178998Y121998D01*
X187995Y117000D02*
X183996D01*
X187995Y120999D01*
Y121998D01*
X186995Y122998D01*
X184996D01*
X183996Y121998D01*
X251969Y128347D02*
Y134344D01*
X254967D01*
X255967Y133345D01*
Y131345D01*
X254967Y130346D01*
X251969D01*
X257967Y128347D02*
X259966D01*
X258966D01*
Y134344D01*
X257967Y133345D01*
X262965D02*
X263965Y134344D01*
X265964D01*
X266964Y133345D01*
Y132345D01*
X265964Y131345D01*
X264964D01*
X265964D01*
X266964Y130346D01*
Y129346D01*
X265964Y128347D01*
X263965D01*
X262965Y129346D01*
X588113Y178868D02*
X587113Y179868D01*
X585114D01*
X584114Y178868D01*
Y174870D01*
X585114Y173870D01*
X587113D01*
X588113Y174870D01*
X593111Y173870D02*
Y179868D01*
X590112Y176869D01*
X594111D01*
X596110Y179868D02*
X600109D01*
Y178868D01*
X596110Y174870D01*
Y173870D01*
X572652Y203869D02*
X571653Y204868D01*
X569653D01*
X568653Y203869D01*
Y199870D01*
X569653Y198870D01*
X571653D01*
X572652Y199870D01*
X577651Y198870D02*
Y204868D01*
X574652Y201869D01*
X578650D01*
X580650Y203869D02*
X581649Y204868D01*
X583649D01*
X584648Y203869D01*
Y202869D01*
X583649Y201869D01*
X584648Y200869D01*
Y199870D01*
X583649Y198870D01*
X581649D01*
X580650Y199870D01*
Y200869D01*
X581649Y201869D01*
X580650Y202869D01*
Y203869D01*
X581649Y201869D02*
X583649D01*
X180998Y145371D02*
X181998Y146371D01*
Y148370D01*
X180998Y149370D01*
X177000D01*
X176000Y148370D01*
Y146371D01*
X177000Y145371D01*
X176000Y143372D02*
Y141373D01*
Y142372D01*
X181998D01*
X180998Y143372D01*
Y138374D02*
X181998Y137374D01*
Y135375D01*
X180998Y134375D01*
X177000D01*
X176000Y135375D01*
Y137374D01*
X177000Y138374D01*
X180998D01*
X190498Y145501D02*
X191498Y146501D01*
Y148500D01*
X190498Y149500D01*
X186500D01*
X185500Y148500D01*
Y146501D01*
X186500Y145501D01*
Y143502D02*
X185500Y142502D01*
Y140503D01*
X186500Y139503D01*
X190498D01*
X191498Y140503D01*
Y142502D01*
X190498Y143502D01*
X189499D01*
X188499Y142502D01*
Y139503D01*
X180998Y222001D02*
X181998Y223001D01*
Y225000D01*
X180998Y226000D01*
X177000D01*
X176000Y225000D01*
Y223001D01*
X177000Y222001D01*
X176000Y216003D02*
Y220002D01*
X179999Y216003D01*
X180998D01*
X181998Y217003D01*
Y219002D01*
X180998Y220002D01*
X176000Y210005D02*
Y214004D01*
X179999Y210005D01*
X180998D01*
X181998Y211005D01*
Y213004D01*
X180998Y214004D01*
X189998Y222001D02*
X190998Y223001D01*
Y225000D01*
X189998Y226000D01*
X186000D01*
X185000Y225000D01*
Y223001D01*
X186000Y222001D01*
X185000Y216003D02*
Y220002D01*
X188999Y216003D01*
X189998D01*
X190998Y217003D01*
Y219002D01*
X189998Y220002D01*
X185000Y214004D02*
Y212004D01*
Y213004D01*
X190998D01*
X189998Y214004D01*
X180998Y297001D02*
X181998Y298001D01*
Y300000D01*
X180998Y301000D01*
X177000D01*
X176000Y300000D01*
Y298001D01*
X177000Y297001D01*
X180998Y295002D02*
X181998Y294002D01*
Y292003D01*
X180998Y291003D01*
X179999D01*
X178999Y292003D01*
Y293003D01*
Y292003D01*
X177999Y291003D01*
X177000D01*
X176000Y292003D01*
Y294002D01*
X177000Y295002D01*
X181998Y285005D02*
X180998Y287004D01*
X178999Y289004D01*
X177000D01*
X176000Y288004D01*
Y286005D01*
X177000Y285005D01*
X177999D01*
X178999Y286005D01*
Y289004D01*
X189998Y297001D02*
X190998Y298001D01*
Y300000D01*
X189998Y301000D01*
X186000D01*
X185000Y300000D01*
Y298001D01*
X186000Y297001D01*
X189998Y295002D02*
X190998Y294002D01*
Y292003D01*
X189998Y291003D01*
X188999D01*
X187999Y292003D01*
Y293003D01*
Y292003D01*
X186999Y291003D01*
X186000D01*
X185000Y292003D01*
Y294002D01*
X186000Y295002D01*
X190998Y285005D02*
Y289004D01*
X187999D01*
X188999Y287004D01*
Y286005D01*
X187999Y285005D01*
X186000D01*
X185000Y286005D01*
Y288004D01*
X186000Y289004D01*
X180998Y374001D02*
X181998Y375001D01*
Y377000D01*
X180998Y378000D01*
X177000D01*
X176000Y377000D01*
Y375001D01*
X177000Y374001D01*
X176000Y369003D02*
X181998D01*
X178999Y372002D01*
Y368003D01*
X176000Y362005D02*
Y366004D01*
X179999Y362005D01*
X180998D01*
X181998Y363005D01*
Y365004D01*
X180998Y366004D01*
X190498Y374001D02*
X191498Y375001D01*
Y377000D01*
X190498Y378000D01*
X186500D01*
X185500Y377000D01*
Y375001D01*
X186500Y374001D01*
X185500Y369003D02*
X191498D01*
X188499Y372002D01*
Y368003D01*
X185500Y366004D02*
Y364004D01*
Y365004D01*
X191498D01*
X190498Y366004D01*
X481558Y270353D02*
X480558Y271352D01*
X478559D01*
X477559Y270353D01*
Y266354D01*
X478559Y265354D01*
X480558D01*
X481558Y266354D01*
X483557Y265354D02*
X485557D01*
X484557D01*
Y271352D01*
X483557Y270353D01*
X482184Y329998D02*
X481184Y330998D01*
X479185D01*
X478185Y329998D01*
Y326000D01*
X479185Y325000D01*
X481184D01*
X482184Y326000D01*
X488182Y325000D02*
X484183D01*
X488182Y328999D01*
Y329998D01*
X487182Y330998D01*
X485183D01*
X484183Y329998D01*
X481952Y388857D02*
X480952Y389856D01*
X478952D01*
X477953Y388857D01*
Y384858D01*
X478952Y383858D01*
X480952D01*
X481952Y384858D01*
X483951Y388857D02*
X484950Y389856D01*
X486950D01*
X487950Y388857D01*
Y387857D01*
X486950Y386857D01*
X485950D01*
X486950D01*
X487950Y385858D01*
Y384858D01*
X486950Y383858D01*
X484950D01*
X483951Y384858D01*
X479983Y448699D02*
X478983Y449699D01*
X476984D01*
X475984Y448699D01*
Y444700D01*
X476984Y443701D01*
X478983D01*
X479983Y444700D01*
X484981Y443701D02*
Y449699D01*
X481982Y446700D01*
X485981D01*
X438499Y270498D02*
X437499Y271498D01*
X435500D01*
X434500Y270498D01*
Y266500D01*
X435500Y265500D01*
X437499D01*
X438499Y266500D01*
X444497Y271498D02*
X440498D01*
Y268499D01*
X442497Y269499D01*
X443497D01*
X444497Y268499D01*
Y266500D01*
X443497Y265500D01*
X441498D01*
X440498Y266500D01*
X438499Y329998D02*
X437499Y330998D01*
X435500D01*
X434500Y329998D01*
Y326000D01*
X435500Y325000D01*
X437499D01*
X438499Y326000D01*
X444497Y330998D02*
X442497Y329998D01*
X440498Y327999D01*
Y326000D01*
X441498Y325000D01*
X443497D01*
X444497Y326000D01*
Y326999D01*
X443497Y327999D01*
X440498D01*
X438644Y388463D02*
X437645Y389463D01*
X435645D01*
X434646Y388463D01*
Y384464D01*
X435645Y383465D01*
X437645D01*
X438644Y384464D01*
X440644Y389463D02*
X444642D01*
Y388463D01*
X440644Y384464D01*
Y383465D01*
X438499Y447998D02*
X437499Y448998D01*
X435500D01*
X434500Y447998D01*
Y444000D01*
X435500Y443000D01*
X437499D01*
X438499Y444000D01*
X440498Y447998D02*
X441498Y448998D01*
X443497D01*
X444497Y447998D01*
Y446999D01*
X443497Y445999D01*
X444497Y444999D01*
Y444000D01*
X443497Y443000D01*
X441498D01*
X440498Y444000D01*
Y444999D01*
X441498Y445999D01*
X440498Y446999D01*
Y447998D01*
X441498Y445999D02*
X443497D01*
X481684Y260998D02*
X480684Y261998D01*
X478685D01*
X477685Y260998D01*
Y257000D01*
X478685Y256000D01*
X480684D01*
X481684Y257000D01*
X483683Y256000D02*
X485682D01*
X484683D01*
Y261998D01*
X483683Y260998D01*
X488682D02*
X489681Y261998D01*
X491680D01*
X492680Y260998D01*
Y259999D01*
X491680Y258999D01*
X490681D01*
X491680D01*
X492680Y257999D01*
Y257000D01*
X491680Y256000D01*
X489681D01*
X488682Y257000D01*
X482499Y320998D02*
X481499Y321998D01*
X479500D01*
X478500Y320998D01*
Y317000D01*
X479500Y316000D01*
X481499D01*
X482499Y317000D01*
X484498Y316000D02*
X486497D01*
X485498D01*
Y321998D01*
X484498Y320998D01*
X492495Y316000D02*
Y321998D01*
X489496Y318999D01*
X493495D01*
X481999Y379498D02*
X480999Y380498D01*
X479000D01*
X478000Y379498D01*
Y375500D01*
X479000Y374500D01*
X480999D01*
X481999Y375500D01*
X483998Y374500D02*
X485997D01*
X484998D01*
Y380498D01*
X483998Y379498D01*
X492995Y380498D02*
X488996D01*
Y377499D01*
X490996Y378499D01*
X491995D01*
X492995Y377499D01*
Y375500D01*
X491995Y374500D01*
X489996D01*
X488996Y375500D01*
X479983Y440038D02*
X478983Y441037D01*
X476984D01*
X475984Y440038D01*
Y436039D01*
X476984Y435039D01*
X478983D01*
X479983Y436039D01*
X481982Y435039D02*
X483982D01*
X482982D01*
Y441037D01*
X481982Y440038D01*
X490979Y441037D02*
X488980Y440038D01*
X486981Y438038D01*
Y436039D01*
X487980Y435039D01*
X489980D01*
X490979Y436039D01*
Y437039D01*
X489980Y438038D01*
X486981D01*
X438499Y260998D02*
X437499Y261998D01*
X435500D01*
X434500Y260998D01*
Y257000D01*
X435500Y256000D01*
X437499D01*
X438499Y257000D01*
X440498Y256000D02*
X442497D01*
X441498D01*
Y261998D01*
X440498Y260998D01*
X445496Y261998D02*
X449495D01*
Y260998D01*
X445496Y257000D01*
Y256000D01*
X438499Y319998D02*
X437499Y320998D01*
X435500D01*
X434500Y319998D01*
Y316000D01*
X435500Y315000D01*
X437499D01*
X438499Y316000D01*
X440498Y315000D02*
X442497D01*
X441498D01*
Y320998D01*
X440498Y319998D01*
X445496D02*
X446496Y320998D01*
X448495D01*
X449495Y319998D01*
Y318999D01*
X448495Y317999D01*
X449495Y316999D01*
Y316000D01*
X448495Y315000D01*
X446496D01*
X445496Y316000D01*
Y316999D01*
X446496Y317999D01*
X445496Y318999D01*
Y319998D01*
X446496Y317999D02*
X448495D01*
X438499Y379498D02*
X437499Y380498D01*
X435500D01*
X434500Y379498D01*
Y375500D01*
X435500Y374500D01*
X437499D01*
X438499Y375500D01*
X440498Y374500D02*
X442497D01*
X441498D01*
Y380498D01*
X440498Y379498D01*
X445496Y375500D02*
X446496Y374500D01*
X448495D01*
X449495Y375500D01*
Y379498D01*
X448495Y380498D01*
X446496D01*
X445496Y379498D01*
Y378499D01*
X446496Y377499D01*
X449495D01*
X438499Y438998D02*
X437499Y439998D01*
X435500D01*
X434500Y438998D01*
Y435000D01*
X435500Y434000D01*
X437499D01*
X438499Y435000D01*
X444497Y434000D02*
X440498D01*
X444497Y437999D01*
Y438998D01*
X443497Y439998D01*
X441498D01*
X440498Y438998D01*
X446496D02*
X447496Y439998D01*
X449495D01*
X450495Y438998D01*
Y435000D01*
X449495Y434000D01*
X447496D01*
X446496Y435000D01*
Y438998D01*
X562999Y214498D02*
X561999Y215498D01*
X560000D01*
X559000Y214498D01*
Y210500D01*
X560000Y209500D01*
X561999D01*
X562999Y210500D01*
X564998Y214498D02*
X565998Y215498D01*
X567997D01*
X568997Y214498D01*
Y213499D01*
X567997Y212499D01*
X566997D01*
X567997D01*
X568997Y211499D01*
Y210500D01*
X567997Y209500D01*
X565998D01*
X564998Y210500D01*
X570996D02*
X571996Y209500D01*
X573995D01*
X574995Y210500D01*
Y214498D01*
X573995Y215498D01*
X571996D01*
X570996Y214498D01*
Y213499D01*
X571996Y212499D01*
X574995D01*
X560600Y140782D02*
X559600Y139783D01*
Y137783D01*
X560600Y136784D01*
X564599D01*
X565598Y137783D01*
Y139783D01*
X564599Y140782D01*
X565598Y145781D02*
X559600D01*
X562599Y142781D01*
Y146780D01*
X564599Y148780D02*
X565598Y149779D01*
Y151779D01*
X564599Y152778D01*
X560600D01*
X559600Y151779D01*
Y149779D01*
X560600Y148780D01*
X561600D01*
X562599Y149779D01*
Y152778D01*
X562999Y223498D02*
X561999Y224498D01*
X560000D01*
X559000Y223498D01*
Y219500D01*
X560000Y218500D01*
X561999D01*
X562999Y219500D01*
X567997Y218500D02*
Y224498D01*
X564998Y221499D01*
X568997D01*
X570996Y223498D02*
X571996Y224498D01*
X573995D01*
X574995Y223498D01*
Y219500D01*
X573995Y218500D01*
X571996D01*
X570996Y219500D01*
Y223498D01*
X569155Y140912D02*
X568155Y139912D01*
Y137913D01*
X569155Y136913D01*
X573154D01*
X574154Y137913D01*
Y139912D01*
X573154Y140912D01*
X568155Y146910D02*
Y142911D01*
X571154D01*
X570155Y144911D01*
Y145911D01*
X571154Y146910D01*
X573154D01*
X574154Y145911D01*
Y143911D01*
X573154Y142911D01*
X569155Y148909D02*
X568155Y149909D01*
Y151909D01*
X569155Y152908D01*
X573154D01*
X574154Y151909D01*
Y149909D01*
X573154Y148909D01*
X569155D01*
X352002Y399999D02*
X351002Y398999D01*
Y397000D01*
X352002Y396000D01*
X356000D01*
X357000Y397000D01*
Y398999D01*
X356000Y399999D01*
X357000Y405997D02*
Y401998D01*
X353001Y405997D01*
X352002D01*
X351002Y404997D01*
Y402998D01*
X352002Y401998D01*
X351002Y411995D02*
Y407996D01*
X354001D01*
X353001Y409996D01*
Y410995D01*
X354001Y411995D01*
X356000D01*
X357000Y410995D01*
Y408996D01*
X356000Y407996D01*
X386502Y399999D02*
X385502Y398999D01*
Y397000D01*
X386502Y396000D01*
X390500D01*
X391500Y397000D01*
Y398999D01*
X390500Y399999D01*
X391500Y405997D02*
Y401998D01*
X387501Y405997D01*
X386502D01*
X385502Y404997D01*
Y402998D01*
X386502Y401998D01*
X385502Y411995D02*
X386502Y409996D01*
X388501Y407996D01*
X390500D01*
X391500Y408996D01*
Y410995D01*
X390500Y411995D01*
X389501D01*
X388501Y410995D01*
Y407996D01*
X360206Y293172D02*
X359207Y292172D01*
Y290173D01*
X360206Y289173D01*
X364205D01*
X365205Y290173D01*
Y292172D01*
X364205Y293172D01*
X360206Y295171D02*
X359207Y296171D01*
Y298170D01*
X360206Y299170D01*
X361206D01*
X362206Y298170D01*
Y297171D01*
Y298170D01*
X363205Y299170D01*
X364205D01*
X365205Y298170D01*
Y296171D01*
X364205Y295171D01*
X365205Y301169D02*
Y303169D01*
Y302169D01*
X359207D01*
X360206Y301169D01*
X368868Y292987D02*
X367868Y291987D01*
Y289988D01*
X368868Y288988D01*
X372867D01*
X373866Y289988D01*
Y291987D01*
X372867Y292987D01*
X368868Y294986D02*
X367868Y295986D01*
Y297985D01*
X368868Y298985D01*
X369867D01*
X370867Y297985D01*
Y296986D01*
Y297985D01*
X371867Y298985D01*
X372867D01*
X373866Y297985D01*
Y295986D01*
X372867Y294986D01*
X373866Y304983D02*
Y300984D01*
X369867Y304983D01*
X368868D01*
X367868Y303983D01*
Y301984D01*
X368868Y300984D01*
X208498Y145501D02*
X209498Y146501D01*
Y148500D01*
X208498Y149500D01*
X204500D01*
X203500Y148500D01*
Y146501D01*
X204500Y145501D01*
X203500Y143502D02*
Y141503D01*
Y142502D01*
X209498D01*
X208498Y143502D01*
X203500Y138504D02*
Y136504D01*
Y137504D01*
X209498D01*
X208498Y138504D01*
X199498Y145501D02*
X200498Y146501D01*
Y148500D01*
X199498Y149500D01*
X195500D01*
X194500Y148500D01*
Y146501D01*
X195500Y145501D01*
X194500Y143502D02*
Y141503D01*
Y142502D01*
X200498D01*
X199498Y143502D01*
X194500Y134505D02*
Y138504D01*
X198499Y134505D01*
X199498D01*
X200498Y135504D01*
Y137504D01*
X199498Y138504D01*
Y222001D02*
X200498Y223001D01*
Y225000D01*
X199498Y226000D01*
X195500D01*
X194500Y225000D01*
Y223001D01*
X195500Y222001D01*
X194500Y216003D02*
Y220002D01*
X198499Y216003D01*
X199498D01*
X200498Y217003D01*
Y219002D01*
X199498Y220002D01*
Y214004D02*
X200498Y213004D01*
Y211005D01*
X199498Y210005D01*
X198499D01*
X197499Y211005D01*
Y212004D01*
Y211005D01*
X196499Y210005D01*
X195500D01*
X194500Y211005D01*
Y213004D01*
X195500Y214004D01*
X208498Y222001D02*
X209498Y223001D01*
Y225000D01*
X208498Y226000D01*
X204500D01*
X203500Y225000D01*
Y223001D01*
X204500Y222001D01*
X203500Y216003D02*
Y220002D01*
X207499Y216003D01*
X208498D01*
X209498Y217003D01*
Y219002D01*
X208498Y220002D01*
X203500Y211005D02*
X209498D01*
X206499Y214004D01*
Y210005D01*
X199498Y297001D02*
X200498Y298001D01*
Y300000D01*
X199498Y301000D01*
X195500D01*
X194500Y300000D01*
Y298001D01*
X195500Y297001D01*
X199498Y295002D02*
X200498Y294002D01*
Y292003D01*
X199498Y291003D01*
X198499D01*
X197499Y292003D01*
Y293003D01*
Y292003D01*
X196499Y291003D01*
X195500D01*
X194500Y292003D01*
Y294002D01*
X195500Y295002D01*
X200498Y289004D02*
Y285005D01*
X199498D01*
X195500Y289004D01*
X194500D01*
X208498Y297001D02*
X209498Y298001D01*
Y300000D01*
X208498Y301000D01*
X204500D01*
X203500Y300000D01*
Y298001D01*
X204500Y297001D01*
X208498Y295002D02*
X209498Y294002D01*
Y292003D01*
X208498Y291003D01*
X207499D01*
X206499Y292003D01*
Y293003D01*
Y292003D01*
X205499Y291003D01*
X204500D01*
X203500Y292003D01*
Y294002D01*
X204500Y295002D01*
X208498Y289004D02*
X209498Y288004D01*
Y286005D01*
X208498Y285005D01*
X207499D01*
X206499Y286005D01*
X205499Y285005D01*
X204500D01*
X203500Y286005D01*
Y288004D01*
X204500Y289004D01*
X205499D01*
X206499Y288004D01*
X207499Y289004D01*
X208498D01*
X206499Y288004D02*
Y286005D01*
X208498Y374001D02*
X209498Y375001D01*
Y377000D01*
X208498Y378000D01*
X204500D01*
X203500Y377000D01*
Y375001D01*
X204500Y374001D01*
X203500Y369003D02*
X209498D01*
X206499Y372002D01*
Y368003D01*
X208498Y366004D02*
X209498Y365004D01*
Y363005D01*
X208498Y362005D01*
X207499D01*
X206499Y363005D01*
Y364004D01*
Y363005D01*
X205499Y362005D01*
X204500D01*
X203500Y363005D01*
Y365004D01*
X204500Y366004D01*
X199498Y374001D02*
X200498Y375001D01*
Y377000D01*
X199498Y378000D01*
X195500D01*
X194500Y377000D01*
Y375001D01*
X195500Y374001D01*
X194500Y369003D02*
X200498D01*
X197499Y372002D01*
Y368003D01*
X194500Y363005D02*
X200498D01*
X197499Y366004D01*
Y362005D01*
X180499Y490498D02*
X179499Y491498D01*
X177500D01*
X176500Y490498D01*
Y486500D01*
X177500Y485500D01*
X179499D01*
X180499Y486500D01*
X186497Y491498D02*
X182498D01*
Y488499D01*
X184497Y489499D01*
X185497D01*
X186497Y488499D01*
Y486500D01*
X185497Y485500D01*
X183498D01*
X182498Y486500D01*
X188496Y485500D02*
X190496D01*
X189496D01*
Y491498D01*
X188496Y490498D01*
X158499D02*
X157499Y491498D01*
X155500D01*
X154500Y490498D01*
Y486500D01*
X155500Y485500D01*
X157499D01*
X158499Y486500D01*
X164497Y491498D02*
X160498D01*
Y488499D01*
X162497Y489499D01*
X163497D01*
X164497Y488499D01*
Y486500D01*
X163497Y485500D01*
X161498D01*
X160498Y486500D01*
X170495Y485500D02*
X166496D01*
X170495Y489499D01*
Y490498D01*
X169495Y491498D01*
X167496D01*
X166496Y490498D01*
X182499Y445498D02*
X181499Y446498D01*
X179500D01*
X178500Y445498D01*
Y441500D01*
X179500Y440500D01*
X181499D01*
X182499Y441500D01*
X188497Y446498D02*
X184498D01*
Y443499D01*
X186497Y444499D01*
X187497D01*
X188497Y443499D01*
Y441500D01*
X187497Y440500D01*
X185498D01*
X184498Y441500D01*
X190496Y445498D02*
X191496Y446498D01*
X193495D01*
X194495Y445498D01*
Y444499D01*
X193495Y443499D01*
X192496D01*
X193495D01*
X194495Y442499D01*
Y441500D01*
X193495Y440500D01*
X191496D01*
X190496Y441500D01*
X196765Y452219D02*
X195766Y451220D01*
Y449220D01*
X196765Y448220D01*
X200764D01*
X201764Y449220D01*
Y451220D01*
X200764Y452219D01*
X195766Y458217D02*
Y454218D01*
X198765D01*
X197765Y456218D01*
Y457218D01*
X198765Y458217D01*
X200764D01*
X201764Y457218D01*
Y455218D01*
X200764Y454218D01*
X201764Y463216D02*
X195766D01*
X198765Y460217D01*
Y464215D01*
X497912Y442852D02*
X498911Y443851D01*
Y445851D01*
X497912Y446850D01*
X493913D01*
X492913Y445851D01*
Y443851D01*
X493913Y442852D01*
X492913Y436854D02*
Y440852D01*
X496912Y436854D01*
X497912D01*
X498911Y437853D01*
Y439853D01*
X497912Y440852D01*
X493913Y434854D02*
X492913Y433855D01*
Y431855D01*
X493913Y430856D01*
X497912D01*
X498911Y431855D01*
Y433855D01*
X497912Y434854D01*
X496912D01*
X495912Y433855D01*
Y430856D01*
X500872Y290403D02*
X501872Y291403D01*
Y293402D01*
X500872Y294402D01*
X496874D01*
X495874Y293402D01*
Y291403D01*
X496874Y290403D01*
X500872Y288404D02*
X501872Y287404D01*
Y285404D01*
X500872Y284405D01*
X499873D01*
X498873Y285404D01*
Y286404D01*
Y285404D01*
X497873Y284405D01*
X496874D01*
X495874Y285404D01*
Y287404D01*
X496874Y288404D01*
X500872Y282405D02*
X501872Y281406D01*
Y279406D01*
X500872Y278407D01*
X496874D01*
X495874Y279406D01*
Y281406D01*
X496874Y282405D01*
X500872D01*
X497912Y461749D02*
X498911Y462749D01*
Y464748D01*
X497912Y465748D01*
X493913D01*
X492913Y464748D01*
Y462749D01*
X493913Y461749D01*
X492913Y455751D02*
Y459750D01*
X496912Y455751D01*
X497912D01*
X498911Y456751D01*
Y458750D01*
X497912Y459750D01*
X498911Y453752D02*
Y449753D01*
X497912D01*
X493913Y453752D01*
X492913D01*
X511109Y307230D02*
X512108Y308229D01*
Y310229D01*
X511109Y311228D01*
X507110D01*
X506110Y310229D01*
Y308229D01*
X507110Y307230D01*
X506110Y301232D02*
Y305230D01*
X510109Y301232D01*
X511109D01*
X512108Y302231D01*
Y304231D01*
X511109Y305230D01*
Y299232D02*
X512108Y298233D01*
Y296233D01*
X511109Y295233D01*
X510109D01*
X509109Y296233D01*
X508110Y295233D01*
X507110D01*
X506110Y296233D01*
Y298233D01*
X507110Y299232D01*
X508110D01*
X509109Y298233D01*
X510109Y299232D01*
X511109D01*
X509109Y298233D02*
Y296233D01*
X501266Y415391D02*
X502266Y416391D01*
Y418390D01*
X501266Y419390D01*
X497267D01*
X496268Y418390D01*
Y416391D01*
X497267Y415391D01*
X501266Y413392D02*
X502266Y412392D01*
Y410393D01*
X501266Y409393D01*
X500266D01*
X499267Y410393D01*
Y411392D01*
Y410393D01*
X498267Y409393D01*
X497267D01*
X496268Y410393D01*
Y412392D01*
X497267Y413392D01*
X501266Y407394D02*
X502266Y406394D01*
Y404395D01*
X501266Y403395D01*
X500266D01*
X499267Y404395D01*
Y405394D01*
Y404395D01*
X498267Y403395D01*
X497267D01*
X496268Y404395D01*
Y406394D01*
X497267Y407394D01*
X500085Y256336D02*
X501085Y257336D01*
Y259335D01*
X500085Y260335D01*
X496086D01*
X495087Y259335D01*
Y257336D01*
X496086Y256336D01*
X500085Y254337D02*
X501085Y253337D01*
Y251338D01*
X500085Y250338D01*
X499085D01*
X498086Y251338D01*
Y252337D01*
Y251338D01*
X497086Y250338D01*
X496086D01*
X495087Y251338D01*
Y253337D01*
X496086Y254337D01*
X495087Y245339D02*
X501085D01*
X498086Y248339D01*
Y244340D01*
X522502Y202499D02*
X521502Y201499D01*
Y199500D01*
X522502Y198500D01*
X526500D01*
X527500Y199500D01*
Y201499D01*
X526500Y202499D01*
X527500Y207497D02*
X521502D01*
X524501Y204498D01*
Y208497D01*
X521502Y214495D02*
X522502Y212495D01*
X524501Y210496D01*
X526500D01*
X527500Y211496D01*
Y213495D01*
X526500Y214495D01*
X525501D01*
X524501Y213495D01*
Y210496D01*
X531502Y202499D02*
X530502Y201499D01*
Y199500D01*
X531502Y198500D01*
X535500D01*
X536500Y199500D01*
Y201499D01*
X535500Y202499D01*
X536500Y207497D02*
X530502D01*
X533501Y204498D01*
Y208497D01*
X530502Y214495D02*
Y210496D01*
X533501D01*
X532501Y212495D01*
Y213495D01*
X533501Y214495D01*
X535500D01*
X536500Y213495D01*
Y211496D01*
X535500Y210496D01*
X551502Y140999D02*
X550502Y139999D01*
Y138000D01*
X551502Y137000D01*
X555500D01*
X556500Y138000D01*
Y139999D01*
X555500Y140999D01*
X550502Y146997D02*
Y142998D01*
X553501D01*
X552501Y144997D01*
Y145997D01*
X553501Y146997D01*
X555500D01*
X556500Y145997D01*
Y143998D01*
X555500Y142998D01*
X550502Y152995D02*
Y148996D01*
X553501D01*
X552501Y150996D01*
Y151995D01*
X553501Y152995D01*
X555500D01*
X556500Y151995D01*
Y149996D01*
X555500Y148996D01*
X522000Y236998D02*
X525999Y233000D01*
X522000D02*
X525999Y236998D01*
X522000Y234999D02*
X525999D01*
X523999Y233000D02*
Y236998D01*
X527998Y232000D02*
X529997D01*
X528998D01*
Y237998D01*
X527998Y236998D01*
X483465Y245368D02*
Y240370D01*
X484464Y239370D01*
X486464D01*
X487463Y240370D01*
Y245368D01*
X489463Y239370D02*
X491462D01*
X490462D01*
Y245368D01*
X489463Y244369D01*
X483500Y304998D02*
Y300000D01*
X484500Y299000D01*
X486499D01*
X487499Y300000D01*
Y304998D01*
X493497Y299000D02*
X489498D01*
X493497Y302999D01*
Y303998D01*
X492497Y304998D01*
X490498D01*
X489498Y303998D01*
X483500Y363498D02*
Y358500D01*
X484500Y357500D01*
X486499D01*
X487499Y358500D01*
Y363498D01*
X489498Y362498D02*
X490498Y363498D01*
X492497D01*
X493497Y362498D01*
Y361499D01*
X492497Y360499D01*
X491497D01*
X492497D01*
X493497Y359499D01*
Y358500D01*
X492497Y357500D01*
X490498D01*
X489498Y358500D01*
X483500Y423998D02*
Y419000D01*
X484500Y418000D01*
X486499D01*
X487499Y419000D01*
Y423998D01*
X492497Y418000D02*
Y423998D01*
X489498Y420999D01*
X493497D01*
X439000Y245498D02*
Y240500D01*
X440000Y239500D01*
X441999D01*
X442999Y240500D01*
Y245498D01*
X448997D02*
X444998D01*
Y242499D01*
X446997Y243499D01*
X447997D01*
X448997Y242499D01*
Y240500D01*
X447997Y239500D01*
X445998D01*
X444998Y240500D01*
X439000Y304498D02*
Y299500D01*
X440000Y298500D01*
X441999D01*
X442999Y299500D01*
Y304498D01*
X448997D02*
X446997Y303498D01*
X444998Y301499D01*
Y299500D01*
X445998Y298500D01*
X447997D01*
X448997Y299500D01*
Y300499D01*
X447997Y301499D01*
X444998D01*
X439000Y363498D02*
Y358500D01*
X440000Y357500D01*
X441999D01*
X442999Y358500D01*
Y363498D01*
X444998D02*
X448997D01*
Y362498D01*
X444998Y358500D01*
Y357500D01*
X439000Y423998D02*
Y419000D01*
X440000Y418000D01*
X441999D01*
X442999Y419000D01*
Y423998D01*
X444998Y422998D02*
X445998Y423998D01*
X447997D01*
X448997Y422998D01*
Y421999D01*
X447997Y420999D01*
X448997Y419999D01*
Y419000D01*
X447997Y418000D01*
X445998D01*
X444998Y419000D01*
Y419999D01*
X445998Y420999D01*
X444998Y421999D01*
Y422998D01*
X445998Y420999D02*
X447997D01*
X522000Y397498D02*
X525999Y393500D01*
X522000D02*
X525999Y397498D01*
X522000Y395499D02*
X525999D01*
X523999Y393500D02*
Y397498D01*
X531997Y392500D02*
X527998D01*
X531997Y396499D01*
Y397498D01*
X530997Y398498D01*
X528998D01*
X527998Y397498D01*
X352502Y365000D02*
X356500Y368999D01*
Y365000D02*
X352502Y368999D01*
X354501Y365000D02*
Y368999D01*
X356500Y366999D02*
X352502D01*
Y370998D02*
X351502Y371998D01*
Y373997D01*
X352502Y374997D01*
X353501D01*
X354501Y373997D01*
Y372997D01*
Y373997D01*
X355501Y374997D01*
X356500D01*
X357500Y373997D01*
Y371998D01*
X356500Y370998D01*
D44*
X360681Y330279D02*
G03*
X360681Y330279I-492J0D01*
G01*
X539122Y178279D02*
G03*
X539122Y178279I-492J0D01*
G01*
X164598Y150784D02*
G03*
X164598Y150784I-492J0D01*
G01*
X165197Y230283D02*
G03*
X165197Y230283I-492J0D01*
G01*
Y306283D02*
G03*
X165197Y306283I-492J0D01*
G01*
Y383784D02*
G03*
X165197Y383784I-492J0D01*
G01*
X155492Y449311D02*
G03*
X155492Y449311I-492J0D01*
G01*
X413256Y372346D02*
G03*
X413256Y372346I-492J0D01*
G01*
Y432346D02*
G03*
X413256Y432346I-492J0D01*
G01*
Y253346D02*
G03*
X413256Y253346I-492J0D01*
G01*
Y313347D02*
G03*
X413256Y313347I-492J0D01*
G01*
X457256Y372346D02*
G03*
X457256Y372346I-492J0D01*
G01*
Y432346D02*
G03*
X457256Y432346I-492J0D01*
G01*
Y253346D02*
G03*
X457256Y253346I-492J0D01*
G01*
X457756Y313347D02*
G03*
X457756Y313347I-492J0D01*
G01*
X523894Y273000D02*
G03*
X523894Y273000I-492J0D01*
G01*
Y432500D02*
G03*
X523894Y432500I-492J0D01*
G01*
X360949Y376854D02*
G03*
X360949Y376854I-492J0D01*
G01*
D45*
X367079Y339138D02*
G03*
X367079Y339138I-1181J0D01*
G01*
X545126Y187138D02*
G03*
X545126Y187138I-1181J0D01*
G01*
X423000Y367406D02*
G03*
X423000Y367406I-1181J0D01*
G01*
Y427406D02*
G03*
X423000Y427406I-1181J0D01*
G01*
Y248406D02*
G03*
X423000Y248406I-1181J0D01*
G01*
Y308405D02*
G03*
X423000Y308405I-1181J0D01*
G01*
X467000Y367406D02*
G03*
X467000Y367406I-1181J0D01*
G01*
Y427406D02*
G03*
X467000Y427406I-1181J0D01*
G01*
Y248406D02*
G03*
X467000Y248406I-1181J0D01*
G01*
X467500Y308405D02*
G03*
X467500Y308405I-1181J0D01*
G01*
X544071Y273000D02*
G03*
X544071Y273000I-1181J0D01*
G01*
Y432500D02*
G03*
X544071Y432500I-1181J0D01*
G01*
D46*
X361961Y335201D02*
X382039D01*
X361961Y347799D02*
X382039D01*
X361961Y335201D02*
Y347799D01*
X382039Y335201D02*
Y347799D01*
X565992Y183201D02*
Y195799D01*
X540008Y183201D02*
Y195799D01*
X565992D01*
X540008Y183201D02*
X565992D01*
X550547Y161110D02*
Y164260D01*
X556453Y161110D02*
Y164260D01*
X146390Y147831D02*
X154854D01*
Y189169D01*
X146390D02*
X154854D01*
X169500Y114500D02*
Y124500D01*
X109500Y114500D02*
Y124500D01*
X169500D01*
X109500Y114500D02*
X169500D01*
X199724Y177925D02*
Y181075D01*
X190276Y177925D02*
Y181075D01*
X421425Y443547D02*
X424575D01*
X421425Y449453D02*
X424575D01*
X421425Y383547D02*
X424575D01*
X421425Y389453D02*
X424575D01*
X421425Y324547D02*
X424575D01*
X421425Y330453D02*
X424575D01*
X421425Y265547D02*
X424575D01*
X421425Y271453D02*
X424575D01*
X465354Y443504D02*
X468504D01*
X465354Y449409D02*
X468504D01*
X465354Y383661D02*
X468504D01*
X465354Y389567D02*
X468504D01*
X465925Y330453D02*
X469075D01*
X465925Y324547D02*
X469075D01*
X465925Y271453D02*
X469075D01*
X465925Y265547D02*
X469075D01*
X199953Y157925D02*
Y161075D01*
X194047Y157925D02*
Y161075D01*
X208953Y157925D02*
Y161075D01*
X203047Y157925D02*
Y161075D01*
X176047Y158110D02*
Y161260D01*
X181953Y158110D02*
Y161260D01*
X185047Y158110D02*
Y161260D01*
X190953Y158110D02*
Y161260D01*
X215551Y114134D02*
Y134134D01*
X245551Y114134D02*
Y134134D01*
X215551Y114134D02*
X245551D01*
X215551Y134134D02*
X245551D01*
X215551D02*
X234718D01*
X176276Y177925D02*
Y181075D01*
X185724Y177925D02*
Y181075D01*
X156488Y128284D02*
Y136284D01*
X132488Y128284D02*
X156488D01*
X132488D02*
Y136284D01*
X156488D01*
Y132283D02*
X160488D01*
X128488D02*
X132488D01*
X421425Y434547D02*
X424575D01*
X421425Y440453D02*
X424575D01*
X421425Y374547D02*
X424575D01*
X421425Y380453D02*
X424575D01*
X421425Y315547D02*
X424575D01*
X421425Y321453D02*
X424575D01*
X421425Y256047D02*
X424575D01*
X421425Y261953D02*
X424575D01*
X465425Y434547D02*
X468575D01*
X465425Y440453D02*
X468575D01*
X465425Y374547D02*
X468575D01*
X465425Y380453D02*
X468575D01*
X465925Y315547D02*
X469075D01*
X465925Y321453D02*
X469075D01*
X465925Y256047D02*
X469075D01*
X465925Y261953D02*
X469075D01*
X146988Y227331D02*
X155453D01*
Y268669D01*
X146988D02*
X155453D01*
X199724Y253425D02*
Y256575D01*
X190276Y253425D02*
Y256575D01*
X208953Y234425D02*
Y237575D01*
X203047Y234425D02*
Y237575D01*
X199953Y234425D02*
Y237575D01*
X194047Y234425D02*
Y237575D01*
X175547Y234425D02*
Y237575D01*
X181453Y234425D02*
Y237575D01*
X185047Y234425D02*
Y237575D01*
X190953Y234425D02*
Y237575D01*
X175776Y253425D02*
Y256575D01*
X185224Y253425D02*
Y256575D01*
X391453Y384925D02*
Y388075D01*
X385547Y384925D02*
Y388075D01*
X356953Y384925D02*
Y388075D01*
X351047Y384925D02*
Y388075D01*
X515158Y301969D02*
Y305118D01*
X521063Y301969D02*
Y305118D01*
X501378Y456299D02*
Y459449D01*
X507283Y456299D02*
Y459449D01*
X510827Y285827D02*
Y288976D01*
X504921Y285827D02*
Y288976D01*
X506890Y437795D02*
Y440945D01*
X500984Y437795D02*
Y440945D01*
X373819Y312598D02*
Y315748D01*
X367913Y312598D02*
Y315748D01*
X365158Y312598D02*
Y315748D01*
X359252Y312598D02*
Y315748D01*
X146988Y303331D02*
X155453D01*
Y344669D01*
X146988D02*
X155453D01*
X504134Y251575D02*
Y254724D01*
X510039Y251575D02*
Y254724D01*
X505315Y410630D02*
Y413779D01*
X511221Y410630D02*
Y413779D01*
X199224Y329925D02*
Y333075D01*
X189776Y329925D02*
Y333075D01*
X203047Y309925D02*
Y313075D01*
X208953Y309925D02*
Y313075D01*
X194047Y309925D02*
Y313075D01*
X199953Y309925D02*
Y313075D01*
X175547Y310110D02*
Y313260D01*
X181453Y310110D02*
Y313260D01*
X185047Y310110D02*
Y313260D01*
X190953Y310110D02*
Y313260D01*
X175776Y329925D02*
Y333075D01*
X185224Y329925D02*
Y333075D01*
X146988Y380831D02*
X155453D01*
Y422169D01*
X146988D02*
X155453D01*
X199224Y407925D02*
Y411075D01*
X189776Y407925D02*
Y411075D01*
X547425Y218547D02*
X550575D01*
X547425Y224453D02*
X550575D01*
X547425Y209547D02*
X550575D01*
X547425Y215453D02*
X550575D01*
X568701Y187795D02*
Y190945D01*
X574606Y187795D02*
Y190945D01*
X583661Y187795D02*
Y190945D01*
X589567Y187795D02*
Y190945D01*
X527953Y187110D02*
Y190260D01*
X522047Y187110D02*
Y190260D01*
X536953Y187240D02*
Y190390D01*
X531047Y187240D02*
Y190390D01*
X194047Y387425D02*
Y390575D01*
X199953Y387425D02*
Y390575D01*
X203047Y387425D02*
Y390575D01*
X208953Y387425D02*
Y390575D01*
X175547Y387425D02*
Y390575D01*
X181453Y387425D02*
Y390575D01*
X185047Y387425D02*
Y390575D01*
X190953Y387425D02*
Y390575D01*
X175776Y407925D02*
Y411075D01*
X185224Y407925D02*
Y411075D01*
X206000Y472500D02*
X214000D01*
Y448500D02*
Y472500D01*
X206000Y448500D02*
X214000D01*
X206000D02*
Y472500D01*
X210000D02*
Y476500D01*
Y444500D02*
Y448500D01*
X568701Y161024D02*
Y164173D01*
X574606Y161024D02*
Y164173D01*
X559646Y161024D02*
Y164173D01*
X565551Y161024D02*
Y164173D01*
X150669Y449311D02*
Y475689D01*
X132559Y449311D02*
Y475689D01*
Y449311D02*
X150669D01*
X132559Y475689D02*
X150669D01*
X192717Y454331D02*
Y457480D01*
X186811Y454331D02*
Y457480D01*
X183453Y454240D02*
Y457390D01*
X177547Y454240D02*
Y457390D01*
X164547Y473925D02*
Y477075D01*
X170453Y473925D02*
Y477075D01*
X176047Y473925D02*
Y477075D01*
X181953Y473925D02*
Y477075D01*
X162776Y445740D02*
Y448890D01*
X172224Y445740D02*
Y448890D01*
X653425Y309173D02*
Y489173D01*
X633425Y309173D02*
Y489173D01*
Y309173D02*
X653425D01*
X633425Y489173D02*
X653425D01*
X242000Y477512D02*
X262000D01*
X242000Y177000D02*
X262000D01*
X242000D02*
Y477512D01*
X262000Y177000D02*
Y477512D01*
X277000Y161000D02*
X317000D01*
X277000Y181000D02*
X317000D01*
X277000Y161000D02*
Y181000D01*
X317000Y161000D02*
Y181000D01*
X277000Y190500D02*
X317000D01*
X277000Y210500D02*
X317000D01*
X277000Y190500D02*
Y210500D01*
X317000Y190500D02*
Y210500D01*
X277500Y224500D02*
X317500D01*
X277500Y244500D02*
X317500D01*
X277500Y224500D02*
Y244500D01*
X317500Y224500D02*
Y244500D01*
X277000Y257000D02*
X317000D01*
X277000Y277000D02*
X317000D01*
X277000Y257000D02*
Y277000D01*
X317000Y257000D02*
Y277000D01*
X275500Y285000D02*
X315500D01*
X275500Y305000D02*
X315500D01*
X275500Y285000D02*
Y305000D01*
X315500Y285000D02*
Y305000D01*
X275500Y318000D02*
X315500D01*
X275500Y338000D02*
X315500D01*
X275500Y318000D02*
Y338000D01*
X315500Y318000D02*
Y338000D01*
X275500Y355500D02*
X315500D01*
X275500Y375500D02*
X315500D01*
X275500Y355500D02*
Y375500D01*
X315500Y355500D02*
Y375500D01*
X275500Y391500D02*
X315500D01*
X275500Y411500D02*
X315500D01*
X275500Y391500D02*
Y411500D01*
X315500Y391500D02*
Y411500D01*
X591784Y117453D02*
Y137453D01*
X291272Y117453D02*
Y137453D01*
X591784D01*
X291272Y117453D02*
X591784D01*
X275500Y426000D02*
X315500D01*
X275500Y446000D02*
X315500D01*
X275500Y426000D02*
Y446000D01*
X315500Y426000D02*
Y446000D01*
X417882Y351658D02*
X428118D01*
X417882Y371342D02*
X428118D01*
Y351658D02*
Y371342D01*
X417882Y351658D02*
Y371342D01*
Y411657D02*
X428118D01*
X417882Y431343D02*
X428118D01*
Y411657D02*
Y431343D01*
X417882Y411657D02*
Y431343D01*
Y232658D02*
X428118D01*
X417882Y252343D02*
X428118D01*
Y232658D02*
Y252343D01*
X417882Y232658D02*
Y252343D01*
Y292657D02*
X428118D01*
X417882Y312343D02*
X428118D01*
Y292657D02*
Y312343D01*
X417882Y292657D02*
Y312343D01*
X461882Y351658D02*
X472118D01*
X461882Y371342D02*
X472118D01*
Y351658D02*
Y371342D01*
X461882Y351658D02*
Y371342D01*
Y411657D02*
X472118D01*
X461882Y431343D02*
X472118D01*
Y411657D02*
Y431343D01*
X461882Y411657D02*
Y431343D01*
Y232658D02*
X472118D01*
X461882Y252343D02*
X472118D01*
Y232658D02*
Y252343D01*
X461882Y232658D02*
Y252343D01*
X462382Y292657D02*
X472618D01*
X462382Y312343D02*
X472618D01*
Y292657D02*
Y312343D01*
X462382Y292657D02*
Y312343D01*
X535016Y250953D02*
X538953Y247016D01*
X586984D01*
Y298984D01*
X535016D02*
X586984D01*
X535016Y250953D02*
Y298984D01*
X538953Y247016D02*
Y298984D01*
X535016Y410453D02*
X538953Y406516D01*
X586984D01*
Y458484D01*
X535016D02*
X586984D01*
X535016Y410453D02*
Y458484D01*
X538953Y406516D02*
Y458484D01*
X381343Y383350D02*
Y389650D01*
X361658Y383350D02*
Y389650D01*
X381343D01*
X361658Y383350D02*
X381343D01*
X465425Y393047D02*
X468575D01*
X465425Y398953D02*
X468575D01*
X465425Y408453D02*
X468575D01*
X465425Y402547D02*
X468575D01*
X421425Y408453D02*
X424575D01*
X421425Y402547D02*
X424575D01*
X421425Y393047D02*
X424575D01*
X421425Y398953D02*
X424575D01*
X421425Y348953D02*
X424575D01*
X421425Y343047D02*
X424575D01*
X421425Y333547D02*
X424575D01*
X421425Y339453D02*
X424575D01*
X465925Y348953D02*
X469075D01*
X465925Y343047D02*
X469075D01*
X465925Y333547D02*
X469075D01*
X465925Y339453D02*
X469075D01*
X421425Y288953D02*
X424575D01*
X421425Y283047D02*
X424575D01*
X421425Y274047D02*
X424575D01*
X421425Y279953D02*
X424575D01*
X465925Y288953D02*
X469075D01*
X465925Y283047D02*
X469075D01*
X465925Y274047D02*
X469075D01*
X465925Y279953D02*
X469075D01*
X421425Y229953D02*
X424575D01*
X421425Y224047D02*
X424575D01*
X421425Y215547D02*
X424575D01*
X421425Y221453D02*
X424575D01*
X465925Y229953D02*
X469075D01*
X465925Y224047D02*
X469075D01*
X465925Y215547D02*
X469075D01*
X465925Y221453D02*
X469075D01*
D47*
X211219Y116136D02*
X212885Y116969D01*
X214551Y118635D01*
Y120301D01*
X213718Y121134D01*
X212052D01*
X211219Y120301D01*
Y119468D01*
X212052Y118635D01*
X214551D01*
X211219Y126136D02*
X214551D01*
Y128635D01*
X212885Y127802D01*
X212052D01*
X211219Y128635D01*
Y130301D01*
X212052Y131134D01*
X213718D01*
X214551Y130301D01*
X247219Y121134D02*
X250551D01*
X247219Y117802D01*
Y116969D01*
X248052Y116136D01*
X249718D01*
X250551Y116969D01*
X248551Y131134D02*
X246885D01*
X247718D01*
Y126136D01*
X248551Y126969D01*
X628135Y480700D02*
X627302Y481533D01*
Y483199D01*
X628135Y484032D01*
X628968D01*
X629801Y483199D01*
Y482366D01*
Y483199D01*
X630634Y484032D01*
X631467D01*
X632300Y483199D01*
Y481533D01*
X631467Y480700D01*
X627302Y489031D02*
X628135Y487364D01*
X629801Y485698D01*
X631467D01*
X632300Y486531D01*
Y488198D01*
X631467Y489031D01*
X630634D01*
X629801Y488198D01*
Y485698D01*
X655535Y483000D02*
X654702Y483833D01*
Y485499D01*
X655535Y486332D01*
X656368D01*
X657201Y485499D01*
Y484666D01*
Y485499D01*
X658034Y486332D01*
X658867D01*
X659700Y485499D01*
Y483833D01*
X658867Y483000D01*
X654702Y491331D02*
Y487998D01*
X657201D01*
X656368Y489665D01*
Y490498D01*
X657201Y491331D01*
X658867D01*
X659700Y490498D01*
Y488831D01*
X658867Y487998D01*
X650600Y306000D02*
Y307666D01*
Y306833D01*
X645602D01*
X646435Y306000D01*
X640800Y307432D02*
Y304100D01*
X637468Y307432D01*
X636635D01*
X635802Y306599D01*
Y304933D01*
X636635Y304100D01*
X249000Y175332D02*
Y172000D01*
X245668Y175332D01*
X244835D01*
X244002Y174499D01*
Y172833D01*
X244835Y172000D01*
X259000D02*
Y173666D01*
Y172833D01*
X254002D01*
X254835Y172000D01*
X254002Y483332D02*
Y480000D01*
X256501D01*
X255668Y481666D01*
Y482499D01*
X256501Y483332D01*
X258167D01*
X259000Y482499D01*
Y480833D01*
X258167Y480000D01*
Y484998D02*
X259000Y485831D01*
Y487498D01*
X258167Y488331D01*
X254835D01*
X254002Y487498D01*
Y485831D01*
X254835Y484998D01*
X255668D01*
X256501Y485831D01*
Y488331D01*
X244002Y483332D02*
X244835Y481666D01*
X246501Y480000D01*
X248167D01*
X249000Y480833D01*
Y482499D01*
X248167Y483332D01*
X247334D01*
X246501Y482499D01*
Y480000D01*
X244835Y484998D02*
X244002Y485831D01*
Y487498D01*
X244835Y488331D01*
X248167D01*
X249000Y487498D01*
Y485831D01*
X248167Y484998D01*
X244835D01*
X275332Y174000D02*
X272000D01*
X275332Y177332D01*
Y178165D01*
X274499Y178998D01*
X272833D01*
X272000Y178165D01*
X274000Y164000D02*
X275666D01*
X274833D01*
Y168998D01*
X274000Y168165D01*
X318000Y168998D02*
X321332D01*
Y168165D01*
X318000Y164833D01*
Y164000D01*
Y178165D02*
X318833Y178998D01*
X320499D01*
X321332Y178165D01*
Y177332D01*
X320499Y176499D01*
X321332Y175666D01*
Y174833D01*
X320499Y174000D01*
X318833D01*
X318000Y174833D01*
Y175666D01*
X318833Y176499D01*
X318000Y177332D01*
Y178165D01*
X318833Y176499D02*
X320499D01*
X275332Y203500D02*
X272000D01*
X275332Y206832D01*
Y207665D01*
X274499Y208498D01*
X272833D01*
X272000Y207665D01*
X274000Y193500D02*
X275666D01*
X274833D01*
Y198498D01*
X274000Y197665D01*
X318000Y198498D02*
X321332D01*
Y197665D01*
X318000Y194333D01*
Y193500D01*
Y207665D02*
X318833Y208498D01*
X320499D01*
X321332Y207665D01*
Y206832D01*
X320499Y205999D01*
X321332Y205166D01*
Y204333D01*
X320499Y203500D01*
X318833D01*
X318000Y204333D01*
Y205166D01*
X318833Y205999D01*
X318000Y206832D01*
Y207665D01*
X318833Y205999D02*
X320499D01*
X275832Y237500D02*
X272500D01*
X275832Y240832D01*
Y241665D01*
X274999Y242498D01*
X273333D01*
X272500Y241665D01*
X274500Y227500D02*
X276166D01*
X275333D01*
Y232498D01*
X274500Y231665D01*
X318500Y232498D02*
X321832D01*
Y231665D01*
X318500Y228333D01*
Y227500D01*
Y241665D02*
X319333Y242498D01*
X320999D01*
X321832Y241665D01*
Y240832D01*
X320999Y239999D01*
X321832Y239166D01*
Y238333D01*
X320999Y237500D01*
X319333D01*
X318500Y238333D01*
Y239166D01*
X319333Y239999D01*
X318500Y240832D01*
Y241665D01*
X319333Y239999D02*
X320999D01*
X275332Y270000D02*
X272000D01*
X275332Y273332D01*
Y274165D01*
X274499Y274998D01*
X272833D01*
X272000Y274165D01*
X274000Y260000D02*
X275666D01*
X274833D01*
Y264998D01*
X274000Y264165D01*
X318000Y264998D02*
X321332D01*
Y264165D01*
X318000Y260833D01*
Y260000D01*
Y274165D02*
X318833Y274998D01*
X320499D01*
X321332Y274165D01*
Y273332D01*
X320499Y272499D01*
X321332Y271666D01*
Y270833D01*
X320499Y270000D01*
X318833D01*
X318000Y270833D01*
Y271666D01*
X318833Y272499D01*
X318000Y273332D01*
Y274165D01*
X318833Y272499D02*
X320499D01*
X273832Y298000D02*
X270500D01*
X273832Y301332D01*
Y302165D01*
X272999Y302998D01*
X271333D01*
X270500Y302165D01*
X272500Y288000D02*
X274166D01*
X273333D01*
Y292998D01*
X272500Y292165D01*
X316500Y292998D02*
X319832D01*
Y292165D01*
X316500Y288833D01*
Y288000D01*
Y302165D02*
X317333Y302998D01*
X318999D01*
X319832Y302165D01*
Y301332D01*
X318999Y300499D01*
X319832Y299666D01*
Y298833D01*
X318999Y298000D01*
X317333D01*
X316500Y298833D01*
Y299666D01*
X317333Y300499D01*
X316500Y301332D01*
Y302165D01*
X317333Y300499D02*
X318999D01*
X273832Y331000D02*
X270500D01*
X273832Y334332D01*
Y335165D01*
X272999Y335998D01*
X271333D01*
X270500Y335165D01*
X272500Y321000D02*
X274166D01*
X273333D01*
Y325998D01*
X272500Y325165D01*
X316500Y325998D02*
X319832D01*
Y325165D01*
X316500Y321833D01*
Y321000D01*
Y335165D02*
X317333Y335998D01*
X318999D01*
X319832Y335165D01*
Y334332D01*
X318999Y333499D01*
X319832Y332666D01*
Y331833D01*
X318999Y331000D01*
X317333D01*
X316500Y331833D01*
Y332666D01*
X317333Y333499D01*
X316500Y334332D01*
Y335165D01*
X317333Y333499D02*
X318999D01*
X273832Y368500D02*
X270500D01*
X273832Y371832D01*
Y372665D01*
X272999Y373498D01*
X271333D01*
X270500Y372665D01*
X272500Y358500D02*
X274166D01*
X273333D01*
Y363498D01*
X272500Y362665D01*
X316500Y363498D02*
X319832D01*
Y362665D01*
X316500Y359333D01*
Y358500D01*
Y372665D02*
X317333Y373498D01*
X318999D01*
X319832Y372665D01*
Y371832D01*
X318999Y370999D01*
X319832Y370166D01*
Y369333D01*
X318999Y368500D01*
X317333D01*
X316500Y369333D01*
Y370166D01*
X317333Y370999D01*
X316500Y371832D01*
Y372665D01*
X317333Y370999D02*
X318999D01*
X273832Y404500D02*
X270500D01*
X273832Y407832D01*
Y408665D01*
X272999Y409498D01*
X271333D01*
X270500Y408665D01*
X272500Y394500D02*
X274166D01*
X273333D01*
Y399498D01*
X272500Y398665D01*
X316500Y399498D02*
X319832D01*
Y398665D01*
X316500Y395333D01*
Y394500D01*
Y408665D02*
X317333Y409498D01*
X318999D01*
X319832Y408665D01*
Y407832D01*
X318999Y406999D01*
X319832Y406166D01*
Y405333D01*
X318999Y404500D01*
X317333D01*
X316500Y405333D01*
Y406166D01*
X317333Y406999D01*
X316500Y407832D01*
Y408665D01*
X317333Y406999D02*
X318999D01*
X289604Y130453D02*
X286272D01*
X289604Y133785D01*
Y134618D01*
X288771Y135451D01*
X287105D01*
X286272Y134618D01*
Y120453D02*
X287938D01*
X287105D01*
Y125451D01*
X286272Y124618D01*
X597604Y125451D02*
X594272D01*
Y122952D01*
X595938Y123785D01*
X596771D01*
X597604Y122952D01*
Y121286D01*
X596771Y120453D01*
X595105D01*
X594272Y121286D01*
X599270D02*
X600103Y120453D01*
X601769D01*
X602602Y121286D01*
Y124618D01*
X601769Y125451D01*
X600103D01*
X599270Y124618D01*
Y123785D01*
X600103Y122952D01*
X602602D01*
X597604Y135451D02*
X595938Y134618D01*
X594272Y132952D01*
Y131286D01*
X595105Y130453D01*
X596771D01*
X597604Y131286D01*
Y132119D01*
X596771Y132952D01*
X594272D01*
X599270Y134618D02*
X600103Y135451D01*
X601769D01*
X602602Y134618D01*
Y131286D01*
X601769Y130453D01*
X600103D01*
X599270Y131286D01*
Y134618D01*
X273832Y439000D02*
X270500D01*
X273832Y442332D01*
Y443165D01*
X272999Y443998D01*
X271333D01*
X270500Y443165D01*
X272500Y429000D02*
X274166D01*
X273333D01*
Y433998D01*
X272500Y433165D01*
X316500Y433998D02*
X319832D01*
Y433165D01*
X316500Y429833D01*
Y429000D01*
Y443165D02*
X317333Y443998D01*
X318999D01*
X319832Y443165D01*
Y442332D01*
X318999Y441499D01*
X319832Y440666D01*
Y439833D01*
X318999Y439000D01*
X317333D01*
X316500Y439833D01*
Y440666D01*
X317333Y441499D01*
X316500Y442332D01*
Y443165D01*
X317333Y441499D02*
X318999D01*
M02*
