%FSLAX25Y25*%
%MOIN*%
G70*
G01*
G75*
G04 Layer_Physical_Order=2*
G04 Layer_Color=36540*
%ADD10O,0.01378X0.06693*%
%ADD11R,0.06693X0.04331*%
%ADD12R,0.11811X0.04331*%
%ADD13R,0.35827X0.41929*%
%ADD14R,0.10236X0.04331*%
%ADD15R,0.04331X0.06693*%
%ADD16R,0.05512X0.03937*%
%ADD17R,0.05512X0.12795*%
%ADD18O,0.07087X0.02362*%
%ADD19O,0.02165X0.07874*%
%ADD20O,0.07874X0.02165*%
%ADD21O,0.02756X0.09843*%
%ADD22C,0.01000*%
%ADD23C,0.02000*%
%ADD24C,0.02953*%
%ADD25C,0.03937*%
%ADD26C,0.04000*%
%ADD27C,0.01969*%
%ADD28R,0.05906X0.05906*%
%ADD29C,0.05906*%
%ADD30C,0.05512*%
%ADD31R,0.05906X0.05906*%
%ADD32C,0.07874*%
%ADD33C,0.03937*%
%ADD34C,0.05000*%
D22*
X557168Y188169D02*
X608832D01*
X609000Y188000D01*
X557000D02*
X557168Y188169D01*
X561900Y184513D02*
Y184900D01*
Y184513D02*
X561957Y184457D01*
X614457D01*
X451124Y264961D02*
X451461D01*
X451500Y265000D01*
X451968Y264531D01*
X389500Y356000D02*
X399000D01*
X371000Y363000D02*
X398500D01*
X596531Y264531D02*
X601500Y269500D01*
X451968Y264531D02*
X596531D01*
X594000Y255500D02*
X601500Y263000D01*
X443500Y255500D02*
X594000D01*
X542000Y291500D02*
X556938D01*
X559407Y293969D01*
X562468D01*
X579000Y310500D01*
Y321500D01*
X555000Y283500D02*
X559031Y287531D01*
Y287937D01*
X564117Y289788D02*
X565288D01*
X563937Y289968D02*
X564117Y289788D01*
X555266Y287000D02*
X560235Y291968D01*
X545500Y287000D02*
X555266D01*
X560235Y291968D02*
X563469D01*
X561063Y289968D02*
X563937D01*
X559031Y287937D02*
X561063Y289968D01*
X551000Y283500D02*
X555000D01*
X562500Y286500D02*
X566500D01*
X565063Y280469D02*
X566468D01*
X563095Y278500D02*
X565063Y280469D01*
X561000Y278500D02*
X563095D01*
X573500Y276500D02*
X577000D01*
X373000Y345500D02*
X400000D01*
X378000Y337500D02*
X406000D01*
X378000D02*
X378398Y337102D01*
X393000Y300000D02*
X450000D01*
X402000Y359000D02*
X447000D01*
X399000Y356000D02*
X402000Y359000D01*
X444500Y419000D02*
X448500D01*
X439500Y424000D02*
X444500Y419000D01*
X395500Y424000D02*
X439500D01*
X614457Y184457D02*
X614500Y184500D01*
X551000Y188000D02*
X554500Y191500D01*
X602500D01*
X613000Y184500D02*
X614500D01*
X569500Y201000D02*
X618000D01*
X567000Y207500D02*
X621500D01*
X566500Y213000D02*
X625000D01*
X599000Y234500D02*
X599500Y234000D01*
X500500Y226500D02*
X603000D01*
X496500Y221500D02*
X497469Y222468D01*
X579969D01*
X623000Y219000D02*
X626000Y222000D01*
X566500Y219000D02*
X623000D01*
X566000Y324500D02*
X566142Y430709D01*
X579500Y248000D02*
X582000Y250500D01*
X494000Y238000D02*
X576000D01*
X492000Y240000D02*
X494000Y238000D01*
X574563Y230532D02*
X577437D01*
X440500Y230500D02*
X571766D01*
X573735Y228532D01*
X578265D01*
X580234Y230500D01*
X586000D01*
X581405Y234500D02*
X599000D01*
X490500D02*
X570595D01*
X574563Y230532D01*
X577437D02*
X581405Y234500D01*
X576000Y234000D02*
Y237500D01*
X576000Y237500D02*
X576000Y237500D01*
X576000Y237500D02*
Y238000D01*
X537532Y275468D02*
X538000Y275000D01*
X567000Y277500D02*
X569500D01*
X566500Y277000D02*
X567000Y277500D01*
X536000Y392500D02*
X537532Y390968D01*
Y275468D02*
Y390968D01*
X487638Y240000D02*
X492000D01*
X486319Y238681D02*
X487638Y240000D01*
X485433Y239567D02*
X486319Y238681D01*
X486476Y248350D02*
X486827Y248000D01*
X579500D01*
X447000D02*
X447350Y248350D01*
X486476D01*
X405902Y337402D02*
X406000Y337500D01*
X404331Y337402D02*
X405902D01*
X379134Y240000D02*
X449606D01*
X579133Y326771D02*
X579134Y326770D01*
X579069Y331760D02*
X579397D01*
X579133Y336615D02*
X579134Y336614D01*
X579133Y336615D02*
Y337007D01*
Y340946D02*
Y342125D01*
Y352361D02*
X584138D01*
X579134Y336614D02*
X581386D01*
X579397Y331760D02*
X579526Y331889D01*
X579133Y340946D02*
X579603Y340476D01*
X580569D01*
X592469Y291968D02*
Y344032D01*
X569500Y277500D02*
X590469Y298468D01*
Y335909D01*
X579134Y347244D02*
X590469Y335909D01*
X566468Y280469D02*
X588469Y302468D01*
Y332577D01*
X580569Y340476D02*
X588469Y332577D01*
X566500Y286500D02*
X586469Y306469D01*
Y331532D01*
X581386Y336614D02*
X586469Y331532D01*
X565288Y289788D02*
X584469Y308968D01*
Y326340D01*
X579526Y331282D02*
X584469Y326340D01*
X563469Y291968D02*
X582469Y310968D01*
Y323031D01*
X577000Y276500D02*
X592469Y291968D01*
X584138Y352361D02*
X592469Y344032D01*
X635433Y468898D02*
X643701D01*
X648425Y464173D01*
X579133Y326043D02*
Y326367D01*
Y326771D01*
X579134Y326043D02*
Y326366D01*
Y326770D01*
X579133Y326043D02*
X579134D01*
X579133Y326367D02*
X579134Y326366D01*
X582469Y323031D01*
X579526Y331282D02*
Y331889D01*
X551000Y339500D02*
X551181Y418110D01*
X540945Y349555D02*
X541000Y349500D01*
X540945Y349555D02*
Y410630D01*
X546000Y344500D02*
X546063Y344563D01*
Y414173D01*
X579528Y409449D02*
X643701D01*
X648425Y404724D01*
X583858Y414173D02*
X631496D01*
X636221Y418898D01*
X643701D01*
X648425Y414173D01*
X579528Y418110D02*
X631102D01*
X633465Y420472D01*
Y426378D01*
X635827Y428740D01*
X643858D01*
X648425Y424173D01*
X583858Y422441D02*
X629921D01*
X631465Y423984D01*
Y427238D01*
X633465Y429238D01*
Y436614D01*
X635827Y438976D01*
X643622D01*
X648425Y434173D01*
X556000Y334500D02*
Y422441D01*
X579528Y426378D02*
X627953D01*
X629465Y427890D01*
Y438262D01*
X633465Y442262D01*
Y446850D01*
X635827Y449213D01*
X643701D01*
X648425Y444488D01*
X561000Y329500D02*
Y426378D01*
X583858Y430709D02*
X625984D01*
X627465Y432189D01*
Y444498D01*
X632283Y449317D01*
Y456693D01*
X634646Y459055D01*
X643543D01*
X648425Y454173D01*
X579528Y434646D02*
X624803D01*
X625465Y435307D01*
Y445575D01*
X630283Y450394D01*
Y458630D01*
X633465Y461811D01*
Y466929D01*
X635433Y468898D01*
X571000Y319500D02*
Y434646D01*
X575591Y438976D02*
X622835D01*
X623465Y439606D01*
Y446403D01*
X628284Y451222D01*
Y459458D01*
X631465Y462639D01*
Y475953D01*
X635039Y479528D01*
X643071D01*
X648425Y474173D01*
X575500Y314000D02*
Y438976D01*
X538000Y275000D02*
X559595D01*
X561563Y273031D01*
X594468Y291140D02*
Y318091D01*
X561563Y273031D02*
X576360D01*
X594468Y291140D01*
Y318091D02*
X595669Y319291D01*
X643701D01*
X648425Y324016D01*
D23*
X434000Y218500D02*
X480000D01*
X433500Y277000D02*
X480000D01*
X433500Y336500D02*
X480000D01*
X433500Y396500D02*
X480000D01*
X429000Y332000D02*
X433500Y336500D01*
X414500Y332000D02*
X429000D01*
X412500Y330000D02*
X414500Y332000D01*
X385500Y330000D02*
X412500D01*
D29*
X648425Y474173D02*
D03*
Y464173D02*
D03*
Y454173D02*
D03*
Y444173D02*
D03*
Y434173D02*
D03*
Y424173D02*
D03*
Y414173D02*
D03*
Y404173D02*
D03*
Y324173D02*
D03*
D33*
X561900Y184900D02*
D03*
X451124Y264961D02*
D03*
X389500Y356000D02*
D03*
X385500Y330000D02*
D03*
X443500Y255500D02*
D03*
X447000Y248000D02*
D03*
X542000Y291500D02*
D03*
X579134Y347244D02*
D03*
X378398Y337102D02*
D03*
X398500Y363000D02*
D03*
X371000D02*
D03*
X393000Y300000D02*
D03*
X447000Y359000D02*
D03*
X448500Y419000D02*
D03*
X395500Y424000D02*
D03*
X557000Y188000D02*
D03*
X551000D02*
D03*
X569500Y201000D02*
D03*
X567000Y207500D02*
D03*
X602500Y191500D02*
D03*
X609000Y188000D02*
D03*
X613000Y184500D02*
D03*
X618000Y201000D02*
D03*
X621500Y207500D02*
D03*
X566500Y213000D02*
D03*
X625000D02*
D03*
X626000Y222000D02*
D03*
X566500Y219000D02*
D03*
X586000Y230500D02*
D03*
X440500D02*
D03*
X490500Y234500D02*
D03*
X599500Y234000D02*
D03*
X500500Y226500D02*
D03*
X603000D02*
D03*
X496500Y221500D02*
D03*
X581000Y222500D02*
D03*
X575500Y314000D02*
D03*
X571000Y319500D02*
D03*
X566000Y324500D02*
D03*
X561000Y329500D02*
D03*
X556000Y334500D02*
D03*
X551000Y339500D02*
D03*
X546000Y344500D02*
D03*
X541000Y349500D02*
D03*
X601500Y263000D02*
D03*
X582000Y250500D02*
D03*
X601500Y269500D02*
D03*
X576000Y234000D02*
D03*
X538000Y275000D02*
D03*
X545500Y287000D02*
D03*
X551000Y283500D02*
D03*
X562500Y286500D02*
D03*
X561000Y278500D02*
D03*
X566500Y277000D02*
D03*
X573500Y276500D02*
D03*
X536000Y392500D02*
D03*
X450000Y300000D02*
D03*
X434000Y218500D02*
D03*
X480000D02*
D03*
X433500Y277000D02*
D03*
X480000D02*
D03*
X433500Y336500D02*
D03*
X480000D02*
D03*
X433500Y396500D02*
D03*
X480000D02*
D03*
X485433Y237795D02*
D03*
X404331Y337402D02*
D03*
X449606Y239764D02*
D03*
X379134Y240158D02*
D03*
X579000Y321500D02*
D03*
X579133Y326771D02*
D03*
X579069Y331760D02*
D03*
X579133Y337007D02*
D03*
Y342125D02*
D03*
Y352361D02*
D03*
X540945Y410630D02*
D03*
X546063Y414173D02*
D03*
X551181Y418110D02*
D03*
X555905Y422441D02*
D03*
X561024Y426378D02*
D03*
X566142Y430709D02*
D03*
X570866Y434646D02*
D03*
X575591Y438976D02*
D03*
X579528Y409449D02*
D03*
X583858Y414173D02*
D03*
X579528Y418110D02*
D03*
X583858Y422441D02*
D03*
X579528Y426378D02*
D03*
X583858Y430709D02*
D03*
X579528Y434646D02*
D03*
D34*
X400000Y345500D02*
D03*
X373000D02*
D03*
M02*
