%FSLAX25Y25*%
%MOIN*%
G70*
G01*
G75*
G04 Layer_Physical_Order=1*
G04 Layer_Color=255*
%ADD10O,0.01378X0.06693*%
%ADD11R,0.06693X0.04331*%
%ADD12R,0.11811X0.04331*%
%ADD13R,0.35827X0.41929*%
%ADD14R,0.10236X0.04331*%
%ADD15R,0.04331X0.06693*%
%ADD16R,0.05512X0.03937*%
%ADD17R,0.05512X0.12795*%
%ADD18O,0.07087X0.02362*%
%ADD19O,0.02165X0.07874*%
%ADD20O,0.07874X0.02165*%
%ADD21O,0.02756X0.09843*%
%ADD22C,0.01000*%
%ADD23C,0.02000*%
%ADD24C,0.02953*%
%ADD25C,0.03937*%
%ADD26C,0.04000*%
%ADD27C,0.01969*%
%ADD28R,0.05906X0.05906*%
%ADD29C,0.05906*%
%ADD30C,0.05512*%
%ADD31R,0.05906X0.05906*%
%ADD32C,0.07874*%
%ADD33C,0.03937*%
%ADD34C,0.05000*%
D10*
X363043Y330279D02*
D03*
X365602D02*
D03*
X368161D02*
D03*
X370721D02*
D03*
X373280D02*
D03*
X375839D02*
D03*
X378398D02*
D03*
X380957D02*
D03*
X363043Y352720D02*
D03*
X365602D02*
D03*
X368161D02*
D03*
X370721D02*
D03*
X373280D02*
D03*
X375839D02*
D03*
X378398D02*
D03*
X380957D02*
D03*
X564516Y200721D02*
D03*
X561957D02*
D03*
X559398D02*
D03*
X556839D02*
D03*
X554280D02*
D03*
X551721D02*
D03*
X549161D02*
D03*
X546602D02*
D03*
X544043D02*
D03*
X541484D02*
D03*
X564516Y178279D02*
D03*
X561957D02*
D03*
X559398D02*
D03*
X556839D02*
D03*
X554280D02*
D03*
X551721D02*
D03*
X549161D02*
D03*
X546602D02*
D03*
X544043D02*
D03*
X541484D02*
D03*
D11*
X553500Y157370D02*
D03*
Y168000D02*
D03*
X197000Y164815D02*
D03*
Y154185D02*
D03*
X206000Y164815D02*
D03*
Y154185D02*
D03*
X179000Y154370D02*
D03*
Y165000D02*
D03*
X188000Y154370D02*
D03*
Y165000D02*
D03*
X206000Y241315D02*
D03*
Y230685D02*
D03*
X197000Y241315D02*
D03*
Y230685D02*
D03*
X178500D02*
D03*
Y241315D02*
D03*
X188000Y230685D02*
D03*
Y241315D02*
D03*
X388500Y391815D02*
D03*
Y381185D02*
D03*
X354000Y391815D02*
D03*
Y381185D02*
D03*
X518110Y298228D02*
D03*
Y308858D02*
D03*
X504331Y452559D02*
D03*
Y463189D02*
D03*
X507874Y292717D02*
D03*
Y282087D02*
D03*
X503937Y444685D02*
D03*
Y434055D02*
D03*
X370866Y319488D02*
D03*
Y308858D02*
D03*
X362205Y319488D02*
D03*
Y308858D02*
D03*
X507087Y247835D02*
D03*
Y258465D02*
D03*
X508268Y406890D02*
D03*
Y417520D02*
D03*
X206000Y306185D02*
D03*
Y316815D02*
D03*
X197000Y306185D02*
D03*
Y316815D02*
D03*
X178500Y306370D02*
D03*
Y317000D02*
D03*
X188000Y306370D02*
D03*
Y317000D02*
D03*
X571654Y184055D02*
D03*
Y194685D02*
D03*
X586614Y184055D02*
D03*
Y194685D02*
D03*
X525000Y194000D02*
D03*
Y183370D02*
D03*
X534000Y194130D02*
D03*
Y183500D02*
D03*
X197000Y383685D02*
D03*
Y394315D02*
D03*
X206000Y383685D02*
D03*
Y394315D02*
D03*
X178500Y383685D02*
D03*
Y394315D02*
D03*
X188000Y383685D02*
D03*
Y394315D02*
D03*
X571654Y157283D02*
D03*
Y167913D02*
D03*
X562598Y157283D02*
D03*
Y167913D02*
D03*
X189764Y461221D02*
D03*
Y450591D02*
D03*
X180500Y461130D02*
D03*
Y450500D02*
D03*
X167500Y470185D02*
D03*
Y480815D02*
D03*
X179000Y470185D02*
D03*
Y480815D02*
D03*
D12*
X164106Y155114D02*
D03*
Y161807D02*
D03*
Y168500D02*
D03*
Y175193D02*
D03*
Y181886D02*
D03*
X164705Y234614D02*
D03*
Y241307D02*
D03*
Y248000D02*
D03*
Y254693D02*
D03*
Y261386D02*
D03*
Y310614D02*
D03*
Y317307D02*
D03*
Y324000D02*
D03*
Y330693D02*
D03*
Y337386D02*
D03*
Y388114D02*
D03*
Y394807D02*
D03*
Y401500D02*
D03*
Y408193D02*
D03*
Y414886D02*
D03*
D13*
X126902Y168500D02*
D03*
X127500Y248000D02*
D03*
Y324000D02*
D03*
Y401500D02*
D03*
D14*
X195000Y184815D02*
D03*
Y174185D02*
D03*
X181000D02*
D03*
Y184815D02*
D03*
X195000Y260315D02*
D03*
Y249685D02*
D03*
X180500D02*
D03*
Y260315D02*
D03*
X194500Y336815D02*
D03*
Y326185D02*
D03*
X180500D02*
D03*
Y336815D02*
D03*
X194500Y414815D02*
D03*
Y404185D02*
D03*
X180500D02*
D03*
Y414815D02*
D03*
X167500Y442000D02*
D03*
Y452630D02*
D03*
D15*
X428315Y446500D02*
D03*
X417685D02*
D03*
X428315Y386500D02*
D03*
X417685D02*
D03*
X428315Y327500D02*
D03*
X417685D02*
D03*
X428315Y268500D02*
D03*
X417685D02*
D03*
X472244Y446457D02*
D03*
X461614D02*
D03*
X472244Y386614D02*
D03*
X461614D02*
D03*
X462185Y327500D02*
D03*
X472815D02*
D03*
X462185Y268500D02*
D03*
X472815D02*
D03*
X428315Y437500D02*
D03*
X417685D02*
D03*
X428315Y377500D02*
D03*
X417685D02*
D03*
X428315Y318500D02*
D03*
X417685D02*
D03*
X428315Y259000D02*
D03*
X417685D02*
D03*
X472315Y437500D02*
D03*
X461685D02*
D03*
X472315Y377500D02*
D03*
X461685D02*
D03*
X472815Y318500D02*
D03*
X462185D02*
D03*
X472815Y259000D02*
D03*
X462185D02*
D03*
X554315Y221500D02*
D03*
X543685D02*
D03*
X554315Y212500D02*
D03*
X543685D02*
D03*
X472315Y396000D02*
D03*
X461685D02*
D03*
Y405500D02*
D03*
X472315D02*
D03*
X417685D02*
D03*
X428315D02*
D03*
Y396000D02*
D03*
X417685D02*
D03*
Y346000D02*
D03*
X428315D02*
D03*
Y336500D02*
D03*
X417685D02*
D03*
X462185Y346000D02*
D03*
X472815D02*
D03*
Y336500D02*
D03*
X462185D02*
D03*
X417685Y286000D02*
D03*
X428315D02*
D03*
Y277000D02*
D03*
X417685D02*
D03*
X462185Y286000D02*
D03*
X472815D02*
D03*
Y277000D02*
D03*
X462185D02*
D03*
X417685Y227000D02*
D03*
X428315D02*
D03*
Y218500D02*
D03*
X417685D02*
D03*
X462185Y227000D02*
D03*
X472815D02*
D03*
Y218500D02*
D03*
X462185D02*
D03*
D16*
X155000Y453445D02*
D03*
Y462500D02*
D03*
Y471555D02*
D03*
D17*
X128228Y462500D02*
D03*
D18*
X433236Y354000D02*
D03*
Y359000D02*
D03*
Y364000D02*
D03*
Y369000D02*
D03*
X412764Y354000D02*
D03*
Y359000D02*
D03*
Y364000D02*
D03*
Y369000D02*
D03*
X433236Y414000D02*
D03*
Y419000D02*
D03*
Y424000D02*
D03*
Y429000D02*
D03*
X412764Y414000D02*
D03*
Y419000D02*
D03*
Y424000D02*
D03*
Y429000D02*
D03*
X433236Y235000D02*
D03*
Y240000D02*
D03*
Y245000D02*
D03*
Y250000D02*
D03*
X412764Y235000D02*
D03*
Y240000D02*
D03*
Y245000D02*
D03*
Y250000D02*
D03*
X433236Y295000D02*
D03*
Y300000D02*
D03*
Y305000D02*
D03*
Y310000D02*
D03*
X412764Y295000D02*
D03*
Y300000D02*
D03*
Y305000D02*
D03*
Y310000D02*
D03*
X477236Y354000D02*
D03*
Y359000D02*
D03*
Y364000D02*
D03*
Y369000D02*
D03*
X456764Y354000D02*
D03*
Y359000D02*
D03*
Y364000D02*
D03*
Y369000D02*
D03*
X477236Y414000D02*
D03*
Y419000D02*
D03*
Y424000D02*
D03*
Y429000D02*
D03*
X456764Y414000D02*
D03*
Y419000D02*
D03*
Y424000D02*
D03*
Y429000D02*
D03*
X477236Y235000D02*
D03*
Y240000D02*
D03*
Y245000D02*
D03*
Y250000D02*
D03*
X456764Y235000D02*
D03*
Y240000D02*
D03*
Y245000D02*
D03*
Y250000D02*
D03*
X477736Y295000D02*
D03*
Y300000D02*
D03*
Y305000D02*
D03*
Y310000D02*
D03*
X457264Y295000D02*
D03*
Y300000D02*
D03*
Y305000D02*
D03*
Y310000D02*
D03*
D19*
X536000Y241504D02*
D03*
X541000D02*
D03*
X546000D02*
D03*
X551000D02*
D03*
X556000D02*
D03*
X561000D02*
D03*
X566000D02*
D03*
X571000D02*
D03*
X576000D02*
D03*
X581000D02*
D03*
X586000D02*
D03*
Y304496D02*
D03*
X581000D02*
D03*
X576000D02*
D03*
X571000D02*
D03*
X566000D02*
D03*
X561000D02*
D03*
X556000D02*
D03*
X551000D02*
D03*
X546000D02*
D03*
X541000D02*
D03*
X536000D02*
D03*
Y401004D02*
D03*
X541000D02*
D03*
X546000D02*
D03*
X551000D02*
D03*
X556000D02*
D03*
X561000D02*
D03*
X566000D02*
D03*
X571000D02*
D03*
X576000D02*
D03*
X581000D02*
D03*
X586000D02*
D03*
Y463996D02*
D03*
X581000D02*
D03*
X576000D02*
D03*
X571000D02*
D03*
X566000D02*
D03*
X561000D02*
D03*
X556000D02*
D03*
X551000D02*
D03*
X546000D02*
D03*
X541000D02*
D03*
X536000D02*
D03*
D20*
X592496Y248000D02*
D03*
Y253000D02*
D03*
Y258000D02*
D03*
Y263000D02*
D03*
Y268000D02*
D03*
Y273000D02*
D03*
Y278000D02*
D03*
Y283000D02*
D03*
Y288000D02*
D03*
Y293000D02*
D03*
Y298000D02*
D03*
X529504D02*
D03*
Y293000D02*
D03*
Y288000D02*
D03*
Y283000D02*
D03*
Y278000D02*
D03*
Y273000D02*
D03*
Y268000D02*
D03*
Y263000D02*
D03*
Y258000D02*
D03*
Y253000D02*
D03*
Y248000D02*
D03*
X592496Y407500D02*
D03*
Y412500D02*
D03*
Y417500D02*
D03*
Y422500D02*
D03*
Y427500D02*
D03*
Y432500D02*
D03*
Y437500D02*
D03*
Y442500D02*
D03*
Y447500D02*
D03*
Y452500D02*
D03*
Y457500D02*
D03*
X529504D02*
D03*
Y452500D02*
D03*
Y447500D02*
D03*
Y442500D02*
D03*
Y437500D02*
D03*
Y432500D02*
D03*
Y427500D02*
D03*
Y422500D02*
D03*
Y417500D02*
D03*
Y412500D02*
D03*
Y407500D02*
D03*
D21*
X379000Y396146D02*
D03*
X374000D02*
D03*
X369000D02*
D03*
X364000D02*
D03*
X379000Y376854D02*
D03*
X374000D02*
D03*
X369000D02*
D03*
X364000D02*
D03*
D22*
X406200Y413680D02*
X406520Y414000D01*
X406200Y411700D02*
Y413680D01*
X533870Y183370D02*
Y188770D01*
X533900Y188800D01*
X524686Y188700D02*
X524900D01*
X524409Y188976D02*
X524686Y188700D01*
X561957Y178279D02*
Y184843D01*
X561900Y184900D02*
X561957Y184843D01*
X360000Y333323D02*
Y334000D01*
Y333323D02*
X362823Y330500D01*
X538189Y206693D02*
X542913D01*
X544043Y205563D01*
Y200721D02*
Y205563D01*
X542520Y171260D02*
X544095D01*
X546602Y173768D01*
Y178279D01*
X549161Y171602D02*
Y178279D01*
X546063Y168504D02*
X549161Y171602D01*
X507874Y275984D02*
Y282087D01*
X167323Y435039D02*
X167500Y435217D01*
Y442000D01*
X324500Y338000D02*
X331000Y331500D01*
Y190055D02*
Y331500D01*
X524409Y188976D02*
X525000Y189567D01*
X527756Y308858D02*
X527953Y309055D01*
X518110Y308858D02*
X527756D01*
X503937Y434252D02*
X511417Y441732D01*
X518504D01*
X519272Y442500D01*
X529504D01*
X504331Y313779D02*
X504724Y314173D01*
X536476Y447500D02*
X536614Y447638D01*
X507874Y282087D02*
X508787Y283000D01*
X529504D01*
X507874Y289370D02*
Y292717D01*
Y289370D02*
X509244Y288000D01*
X529504D01*
X495079Y434055D02*
X503937D01*
Y434252D01*
X179000Y470185D02*
X180500Y468685D01*
Y461130D02*
X180591Y461221D01*
X189673Y450500D02*
X189764Y450591D01*
X554315Y212500D02*
Y221500D01*
X517323Y254331D02*
X520992Y258000D01*
X517913Y294685D02*
Y298425D01*
Y294685D02*
X519598Y293000D01*
X529504D01*
X507087Y258268D02*
Y258465D01*
X513996Y417500D02*
X529504D01*
X513976Y417520D02*
X513996Y417500D01*
X508268Y417520D02*
X513976D01*
X507087Y242126D02*
Y247835D01*
X520992Y258000D02*
X529504D01*
X445276Y299224D02*
X451461Y293039D01*
Y264961D02*
Y293039D01*
X451124Y264961D02*
X451461D01*
X447000Y248000D02*
Y293328D01*
X213358Y383858D02*
X214500Y385000D01*
X206000Y306185D02*
X206279Y305906D01*
X212575Y241315D02*
X212598Y241339D01*
X219685Y164961D02*
X220079Y164567D01*
X206000Y164815D02*
X206146Y164961D01*
X164567Y377559D02*
X164705Y377697D01*
X164106Y155114D02*
X164173Y155047D01*
X165354Y234614D02*
X169386D01*
X164705D02*
X165354D01*
X386500Y353000D02*
X389500Y356000D01*
X386500Y342500D02*
Y353000D01*
X395500Y366500D02*
Y424000D01*
X385221Y330279D02*
X385500Y330000D01*
X380957Y330279D02*
X385221D01*
X522000Y422500D02*
X529504D01*
X522000Y278000D02*
X529504D01*
X518500Y273000D02*
X529504D01*
X443500Y255500D02*
Y294000D01*
X515000Y268000D02*
X529504D01*
X515000Y259500D02*
Y260500D01*
X517500Y263000D01*
X529504D01*
X510000Y427500D02*
X529504D01*
X515500Y432500D02*
X529504D01*
X521000Y437500D02*
X529504D01*
X541000Y241504D02*
Y246500D01*
X542000Y247500D01*
Y291500D01*
X541000Y359500D02*
Y401004D01*
X561000Y360236D02*
Y401004D01*
X209685Y480815D02*
X210000Y480500D01*
X166685Y453445D02*
X167500Y452630D01*
X155000Y453445D02*
X166685D01*
X167315Y481000D02*
X167500Y480815D01*
X214315Y385185D02*
X214500Y385000D01*
X214315Y404185D02*
X214500Y404000D01*
X194500Y404185D02*
X214315D01*
X164705Y408193D02*
X173878D01*
X180500Y414815D01*
Y399500D02*
Y404185D01*
X178500Y397500D02*
X180500Y399500D01*
X178500Y394315D02*
Y397500D01*
X180500Y414815D02*
X194500D01*
X164705Y394807D02*
X164898Y395000D01*
X164705Y388114D02*
X169386D01*
X127500Y401500D02*
X140886Y388114D01*
X164705D01*
X127500Y401500D02*
X164705D01*
X127500Y248000D02*
X140886Y234614D01*
X164705D01*
Y310614D02*
Y317307D01*
X188000Y317000D02*
X188185Y316815D01*
X164705Y337386D02*
X165276Y336815D01*
X180500D01*
X194500D01*
X175130Y306370D02*
X178500D01*
X164705Y310614D02*
X170886D01*
X178492Y241307D02*
X178500Y241315D01*
X127500Y248000D02*
X164705D01*
X205000Y267500D02*
X206000Y266500D01*
X204685Y249685D02*
X206000Y251000D01*
X164705Y254693D02*
X174878D01*
X180500Y260315D01*
X195000D01*
X197000Y241315D02*
Y243500D01*
X180500Y246000D02*
Y249685D01*
X178500Y244000D02*
X180500Y246000D01*
X178500Y241315D02*
Y244000D01*
X195000Y170500D02*
X197000Y168500D01*
X174185Y184815D02*
X181000D01*
X171256Y181886D02*
X174185Y184815D01*
X164106Y181886D02*
X171256D01*
X181000Y184815D02*
X195000D01*
X171386Y155114D02*
X172130Y154370D01*
X197000Y154185D02*
Y157500D01*
X195000Y159500D02*
X197000Y157500D01*
X189500Y159500D02*
X195000D01*
X188000Y161000D02*
X189500Y159500D01*
X188000Y161000D02*
Y165000D01*
X164106Y175193D02*
X169193D01*
X417685Y218500D02*
Y227000D01*
X417807Y227122D01*
Y242807D01*
X415614Y245000D02*
X417807Y242807D01*
X412764Y245000D02*
X415614D01*
X428193Y227122D02*
X428315Y227000D01*
X428193Y227122D02*
Y237307D01*
X430886Y240000D01*
X433236D01*
X410445Y242319D02*
X412764Y240000D01*
X409291Y242319D02*
X410445D01*
X386000Y265610D02*
Y321500D01*
X382500Y325000D02*
X386000Y321500D01*
X410445Y302319D02*
X412764Y300000D01*
X409291Y302319D02*
X410445D01*
X400000Y311610D02*
X409291Y302319D01*
X400000Y311610D02*
Y345500D01*
X373000D02*
Y352441D01*
X386000Y265610D02*
X409291Y242319D01*
X407500Y359000D02*
X412764D01*
X378398Y330279D02*
Y337102D01*
X378028Y337472D02*
X378398Y337102D01*
X401500Y419000D02*
X412764D01*
X400000Y417500D02*
X401500Y419000D01*
X400000Y364500D02*
Y417500D01*
X398500Y363000D02*
X400000Y364500D01*
X371000Y353000D02*
Y363000D01*
X450000Y300000D02*
X457264D01*
X447000Y359000D02*
X456764D01*
X378500Y352823D02*
Y358500D01*
X378398Y352720D02*
X378500Y352823D01*
X385000Y341000D02*
X386500Y342500D01*
X376000Y341000D02*
X385000D01*
X373280Y338280D02*
X376000Y341000D01*
X373280Y330279D02*
Y338280D01*
X448500Y419000D02*
X456764D01*
X375839Y352720D02*
Y358839D01*
X477736Y300000D02*
X487000D01*
X490500Y296500D01*
X477236Y359000D02*
X496000D01*
X496500Y358500D01*
X477236Y419000D02*
X496000D01*
X559398Y178279D02*
Y182111D01*
X558488Y183020D02*
X559398Y182111D01*
X558488Y183020D02*
Y185512D01*
X557000Y187000D02*
X558488Y185512D01*
X556488Y178630D02*
X556839Y178279D01*
X556488Y178630D02*
Y182512D01*
X551000Y188000D02*
X556488Y182512D01*
X564795Y201000D02*
X569500D01*
X561957Y200721D02*
Y204957D01*
X567000Y207500D01*
X613203Y185797D02*
X614500Y184500D01*
X613203Y185797D02*
X613203D01*
X615969Y187937D02*
Y190265D01*
X592496Y288000D02*
X612000D01*
X606468Y192469D02*
Y270969D01*
X604437Y273000D02*
X606468Y270969D01*
X592496Y273000D02*
X604437D01*
X592496Y278000D02*
X608000D01*
X609000Y189500D02*
Y277000D01*
X608000Y278000D02*
X609000Y277000D01*
X611500Y191905D02*
Y283000D01*
X592496D02*
X611500D01*
X592496Y293000D02*
X614000D01*
X617000Y290000D01*
X612000Y288000D02*
X614000Y286000D01*
X592496Y298000D02*
X592996Y297500D01*
X619500Y216500D02*
Y295000D01*
X617000Y297500D02*
X619500Y295000D01*
X592996Y297500D02*
X617000D01*
X605500Y191500D02*
X606468Y192469D01*
X602500Y191500D02*
X605500D01*
X609000Y189500D02*
X610500Y188000D01*
X609000D02*
X610500D01*
X613000Y184500D02*
X614500D01*
X613203Y185797D02*
Y190203D01*
X611500Y191905D02*
X613203Y190203D01*
X615969Y187937D02*
X617000Y186905D01*
X564516Y178279D02*
X615279D01*
X617000Y180000D01*
Y186905D01*
X614000Y192234D02*
X615969Y190265D01*
X614000Y192234D02*
Y286000D01*
X617000Y207500D02*
Y290000D01*
X618000Y201000D02*
Y206500D01*
X617000Y207500D02*
X618000Y206500D01*
X621500Y207500D02*
Y214500D01*
X619500Y216500D02*
X621500Y214500D01*
X559398Y200721D02*
Y205898D01*
X566500Y213000D01*
X625000D02*
Y216500D01*
X622000Y219500D02*
X625000Y216500D01*
X622000Y219500D02*
Y302000D01*
X619500Y304500D02*
X622000Y302000D01*
X586004Y304500D02*
X619500D01*
X586000Y304496D02*
X586004Y304500D01*
X581000Y304496D02*
Y310000D01*
X582000Y311000D01*
X622000D01*
X624500Y308500D01*
Y223500D02*
Y308500D01*
Y223500D02*
X626000Y222000D01*
X557980Y210480D02*
X566500Y219000D01*
X557980Y207653D02*
Y210480D01*
X556839Y206512D02*
X557980Y207653D01*
X556839Y200721D02*
Y206512D01*
X586000Y230500D02*
Y241504D01*
Y230500D02*
X586000Y230500D01*
X490500Y234500D02*
Y296500D01*
X599500Y234000D02*
Y251500D01*
X598000Y253000D02*
X599500Y251500D01*
X592496Y253000D02*
X598000D01*
X603000Y226500D02*
Y255500D01*
X600500Y258000D02*
X603000Y255500D01*
X592496Y258000D02*
X600500D01*
X496000Y419000D02*
X500500Y414500D01*
Y226500D02*
Y414500D01*
X496500Y221500D02*
Y358500D01*
X581000Y222500D02*
X581000Y222500D01*
X581000Y222500D02*
Y241504D01*
X576000Y304496D02*
Y313500D01*
X575500Y314000D02*
X576000Y313500D01*
X571000Y304496D02*
Y319500D01*
X571000Y319500D01*
X571000Y463996D02*
X571000Y463996D01*
X566000Y304496D02*
Y324500D01*
X566000Y324500D01*
X561000Y304496D02*
Y329500D01*
X561000Y329500D01*
X556000Y304496D02*
Y334500D01*
X556000Y334500D01*
X551000Y304496D02*
Y339500D01*
X551000Y339500D01*
X551000Y463996D02*
X551000Y463996D01*
X546000Y304496D02*
Y344500D01*
X546000Y344500D01*
X546000Y463996D02*
X546000Y463996D01*
X541000Y304496D02*
Y349500D01*
X433236Y300000D02*
X437500D01*
X443500Y294000D01*
X592496Y263000D02*
X601500D01*
X433236Y359000D02*
X438500D01*
X582000Y250500D02*
X583500D01*
X586000Y248000D01*
X592496D01*
Y268000D02*
X600000D01*
X601500Y269500D01*
X433236Y419000D02*
X440500D01*
X576000Y234000D02*
X576000Y234000D01*
X576000Y234000D02*
Y241504D01*
X536000D02*
Y273000D01*
X538000Y275000D01*
X536000Y395500D02*
Y401004D01*
X545500Y242004D02*
Y287000D01*
Y242004D02*
X546000Y241504D01*
X551000Y241504D02*
Y283500D01*
X551000Y241504D02*
X551000Y241504D01*
X556000Y280000D02*
X562500Y286500D01*
X556000Y241504D02*
Y280000D01*
X561000Y241504D02*
Y278500D01*
X561000Y241504D02*
X561000Y241504D01*
X566500Y242004D02*
Y277000D01*
X566000Y241504D02*
X566500Y242004D01*
X573500Y274500D02*
Y276500D01*
X571000Y272000D02*
X573500Y274500D01*
X571000Y241504D02*
Y272000D01*
X536000Y395500D02*
X536000Y395500D01*
Y392500D02*
Y395500D01*
X472815Y227000D02*
Y230185D01*
X472000Y231000D02*
X472815Y230185D01*
X472000Y231000D02*
Y238500D01*
X473500Y240000D01*
X477236D01*
X462185Y218500D02*
Y227000D01*
Y242815D01*
X460000Y245000D02*
X462185Y242815D01*
X456764Y245000D02*
X460000D01*
X462185Y277000D02*
Y286000D01*
Y292685D01*
X462500Y293000D01*
Y303500D01*
X461000Y305000D02*
X462500Y303500D01*
X457264Y305000D02*
X461000D01*
X472693Y286122D02*
X472815Y286000D01*
X472693Y286122D02*
Y298807D01*
X473886Y300000D01*
X477736D01*
X417685Y277000D02*
Y286000D01*
Y292185D01*
X419000Y293500D01*
Y303500D01*
X417500Y305000D02*
X419000Y303500D01*
X412764Y305000D02*
X417500D01*
X428315Y286000D02*
Y293185D01*
X428000Y293500D02*
X428315Y293185D01*
X428000Y293500D02*
Y298500D01*
X429500Y300000D01*
X433236D01*
X417685Y336500D02*
Y346000D01*
Y351185D01*
X418500Y352000D01*
Y362000D01*
X416500Y364000D02*
X418500Y362000D01*
X412764Y364000D02*
X416500D01*
X428315Y346000D02*
Y350185D01*
X427000Y351500D02*
X428315Y350185D01*
X427000Y351500D02*
Y357500D01*
X428500Y359000D01*
X433236D01*
X462185Y336500D02*
Y346000D01*
Y350685D01*
X463000Y351500D01*
Y362500D01*
X461500Y364000D02*
X463000Y362500D01*
X456764Y364000D02*
X461500D01*
X472815Y346000D02*
Y350685D01*
X472000Y351500D02*
X472815Y350685D01*
X472000Y351500D02*
Y358000D01*
X473000Y359000D01*
X477236D01*
X417685Y396000D02*
Y405500D01*
Y410185D01*
X418500Y411000D01*
Y421500D01*
X416000Y424000D02*
X418500Y421500D01*
X412764Y424000D02*
X416000D01*
X428315Y405500D02*
Y410685D01*
X427000Y412000D02*
X428315Y410685D01*
X427000Y412000D02*
Y418000D01*
X428000Y419000D01*
X433236D01*
X461685Y396000D02*
Y405500D01*
Y411185D01*
X462500Y412000D01*
Y422500D01*
X461000Y424000D02*
X462500Y422500D01*
X456764Y424000D02*
X461000D01*
X472315Y405500D02*
Y409685D01*
X470500Y411500D02*
X472315Y409685D01*
X470500Y411500D02*
Y418000D01*
X471500Y419000D01*
X477236D01*
X428315Y218500D02*
X434000D01*
X472815D02*
X480000D01*
X428315Y277000D02*
X433500D01*
X472815D02*
X480000D01*
X428315Y336500D02*
X433500D01*
X472815D02*
X480000D01*
X433500Y396000D02*
Y396500D01*
X479500Y396000D02*
X480000Y396500D01*
X472315Y396000D02*
X479500D01*
X364000Y344500D02*
X365602Y346102D01*
Y352720D01*
X365500Y330382D02*
Y338500D01*
Y330382D02*
X365602Y330279D01*
X544000Y178323D02*
Y187000D01*
Y178323D02*
X544043Y178279D01*
X546500Y200618D02*
X546602Y200721D01*
X536500Y173000D02*
X541484Y177984D01*
Y178279D01*
X357500Y352500D02*
X362823D01*
X363043Y352720D01*
X536500Y201000D02*
X541205D01*
X541484Y200721D01*
X287000Y267000D02*
X292000Y262000D01*
X250000Y267000D02*
X287000D01*
X247000Y264000D02*
X250000Y267000D01*
X247000Y262000D02*
Y264000D01*
X297500Y266500D02*
X302000Y262000D01*
X297500Y266500D02*
Y276000D01*
X296500Y277000D02*
X297500Y276000D01*
X250500Y277000D02*
X296500D01*
X247000Y273500D02*
X250500Y277000D01*
X247000Y272000D02*
Y273500D01*
X307500Y266500D02*
X312000Y262000D01*
X307500Y266500D02*
Y281500D01*
X304500Y284500D02*
X307500Y281500D01*
X262000Y284500D02*
X304500D01*
X260000Y286500D02*
X262000Y284500D01*
X251500Y286500D02*
X260000D01*
X247000Y282000D02*
X251500Y286500D01*
X297000Y200500D02*
X302000Y195500D01*
X297000Y200500D02*
Y217500D01*
X293500Y221000D02*
X297000Y217500D01*
X268000Y221000D02*
X293500D01*
X261500Y227500D02*
X268000Y221000D01*
X251500Y227500D02*
X261500D01*
X247000Y232000D02*
X251500Y227500D01*
X307000Y200500D02*
X312000Y195500D01*
X307000Y200500D02*
Y220500D01*
X304000Y223500D02*
X307000Y220500D01*
X269000Y223500D02*
X304000D01*
X262000Y230500D02*
X269000Y223500D01*
X262000Y230500D02*
Y235000D01*
X260000Y237000D02*
X262000Y235000D01*
X252000Y237000D02*
X260000D01*
X247000Y242000D02*
X252000Y237000D01*
X277000Y166000D02*
X282000D01*
X274500Y168500D02*
X277000Y166000D01*
X274500Y168500D02*
Y209000D01*
X271500Y212000D02*
X274500Y209000D01*
X257000Y212000D02*
X271500D01*
X287000Y161000D02*
X292000Y166000D01*
X276000Y161000D02*
X287000D01*
X271500Y165500D02*
X276000Y161000D01*
X271500Y165500D02*
Y199000D01*
X268500Y202000D02*
X271500Y199000D01*
X257000Y202000D02*
X268500D01*
X302000Y161500D02*
Y166000D01*
X298500Y158000D02*
X302000Y161500D01*
X274000Y158000D02*
X298500D01*
X269000Y163000D02*
X274000Y158000D01*
X269000Y163000D02*
Y190000D01*
X267000Y192000D02*
X269000Y190000D01*
X257000Y192000D02*
X267000D01*
X312000Y157500D02*
Y166000D01*
X309500Y155000D02*
X312000Y157500D01*
X272500Y155000D02*
X309500D01*
X266000Y161500D02*
X272500Y155000D01*
X266000Y161500D02*
Y177500D01*
X261500Y182000D02*
X266000Y177500D01*
X257000Y182000D02*
X261500D01*
X280500Y441000D02*
X290500D01*
X300500D01*
X310500D01*
X280500Y406500D02*
X290500D01*
X300500D01*
X310500D01*
X280500Y370500D02*
X290500D01*
X300500D01*
X310500D01*
X280500Y333000D02*
X290500D01*
X300500D01*
X310500D01*
X280500Y300000D02*
X290500D01*
X300500D01*
X310500D01*
X312500Y239500D02*
X325000D01*
X340000Y193500D02*
Y333000D01*
X332000Y341000D02*
X340000Y333000D01*
X332000Y341000D02*
Y403000D01*
X328500Y406500D02*
X332000Y403000D01*
X310500Y406500D02*
X328500D01*
X335500Y178000D02*
Y332500D01*
X328000Y340000D02*
X335500Y332500D01*
X328000Y340000D02*
Y365000D01*
X322500Y370500D02*
X328000Y365000D01*
X310500Y370500D02*
X322500D01*
X327000Y206000D02*
Y237500D01*
X325000Y239500D02*
X327000Y237500D01*
X344000Y172500D02*
Y333500D01*
X335000Y342500D02*
X344000Y333500D01*
X335000Y342500D02*
Y438500D01*
X332500Y441000D02*
X335000Y438500D01*
X310500Y441000D02*
X332500D01*
X340000Y341000D02*
Y478500D01*
Y341000D02*
X347500Y333500D01*
Y300000D02*
Y333500D01*
X351500Y272000D02*
Y339500D01*
X355500Y210000D02*
Y344500D01*
X359000Y333000D02*
X360000Y334000D01*
X324500Y338000D02*
Y352500D01*
X394500Y365500D02*
X395500Y366500D01*
X375839Y358839D02*
X382500Y365500D01*
X394500D01*
X378500Y358500D02*
X383500Y363500D01*
X392000D01*
X392969Y362531D01*
Y354563D02*
Y362531D01*
X393000Y300000D02*
Y357500D01*
X380957Y355457D02*
X384500Y359000D01*
X380957Y352720D02*
Y355457D01*
X374000Y396146D02*
Y406500D01*
X428315Y396000D02*
X433500D01*
X554280Y200721D02*
Y212465D01*
X554315Y212500D01*
X543685D02*
Y221500D01*
X551721Y172780D02*
Y178279D01*
Y172780D02*
X553500Y171000D01*
Y168000D02*
Y171000D01*
Y157370D02*
X562512D01*
X562598Y157283D02*
X571654D01*
X562512Y157370D02*
X562598Y157283D01*
X554280Y173673D02*
Y178279D01*
Y173673D02*
X555905Y172047D01*
X561024D01*
X562598Y170472D01*
Y167913D02*
Y170472D01*
X546457Y194095D02*
X546500Y194051D01*
Y200618D01*
X549161Y196295D02*
Y200721D01*
Y196295D02*
X549925Y195531D01*
Y192658D02*
Y195531D01*
X547893Y190626D02*
X549925Y192658D01*
X545020Y190626D02*
X547893D01*
X544701Y190945D02*
X545020Y190626D01*
X537185Y190945D02*
X544701D01*
X534000Y194130D02*
X537185Y190945D01*
X525000Y183370D02*
X533870D01*
X525000Y194000D02*
X533870D01*
X534000Y194130D01*
X406520Y414000D02*
X412764D01*
X409842Y347638D02*
X412764Y350559D01*
Y354000D01*
X404724Y294882D02*
X412646D01*
X412764Y295000D01*
X404724Y259055D02*
X417630D01*
X417685Y259000D01*
X404724Y235039D02*
X404764Y235000D01*
X412764D01*
X404728Y318500D02*
X417685D01*
X404724Y318504D02*
X404728Y318500D01*
X406299Y437402D02*
X417587D01*
X417685Y437500D01*
X440500Y419000D02*
X445276Y414224D01*
Y299224D02*
Y355819D01*
X443532Y357563D02*
X445276Y355819D01*
X443532Y357563D02*
Y360437D01*
X445276Y362181D01*
Y414224D01*
X442913Y297415D02*
X447000Y293328D01*
X442913Y297415D02*
Y354587D01*
X438500Y359000D02*
X442913Y354587D01*
X428315Y446500D02*
X440114D01*
X440158Y446457D01*
X436598Y424000D02*
X440158Y427559D01*
X433236Y424000D02*
X436598D01*
X428315Y386500D02*
X440043D01*
X433457Y363779D02*
X440158D01*
X433236Y364000D02*
X433457Y363779D01*
X438524Y327500D02*
X438583Y327559D01*
X428315Y327500D02*
X438524D01*
X436890Y305000D02*
X439369Y307480D01*
X433236Y305000D02*
X436890D01*
X438579Y268500D02*
X438583Y268504D01*
X428315Y268500D02*
X438579D01*
X433512Y245276D02*
X440158D01*
X433236Y245000D02*
X433512Y245276D01*
X456764Y227236D02*
Y235000D01*
X455905Y226378D02*
X456764Y227236D01*
X455905Y259055D02*
X462130D01*
X462185Y259000D01*
X455905Y289370D02*
Y293642D01*
X457264Y295000D01*
X455905Y318504D02*
X462181D01*
X462185Y318500D01*
X455905Y348819D02*
Y353142D01*
X456764Y354000D01*
X455905Y377559D02*
X461626D01*
X461685Y377500D01*
X472244Y446457D02*
X484646D01*
X484630Y424000D02*
X484646Y424016D01*
X477236Y424000D02*
X484630D01*
X472244Y386614D02*
X484646D01*
X477410Y364173D02*
X484646D01*
X477236Y364000D02*
X477410Y364173D01*
X484587Y327500D02*
X484646Y327559D01*
X472815Y327500D02*
X484587D01*
X477854Y305118D02*
X484646D01*
X477736Y305000D02*
X477854Y305118D01*
X472815Y268500D02*
X484642D01*
X484646Y268504D01*
X477236Y240000D02*
X483228D01*
X485433Y237795D01*
X477236Y245000D02*
X484528D01*
X455905Y408661D02*
X456764Y409520D01*
Y414000D01*
X455905Y437402D02*
X461587D01*
X461685Y437500D01*
X404331Y337402D02*
Y355831D01*
X407500Y359000D01*
X562598Y157283D02*
X562992Y156890D01*
Y150787D02*
Y156890D01*
X433236Y240000D02*
X434803D01*
X440500Y234303D01*
Y230500D02*
Y234303D01*
X448236Y239764D02*
X449606D01*
X448000Y240000D02*
X448236Y239764D01*
X448000Y240000D02*
X456764D01*
X484646Y244488D02*
X485039D01*
X484528Y245000D02*
X484842Y244685D01*
X485039Y244488D01*
X484646D02*
X484842Y244685D01*
X485039Y244882D01*
X411461Y446500D02*
X417685D01*
X411417Y446457D02*
X411461Y446500D01*
X428315Y437500D02*
X434941D01*
X435039Y437402D01*
X411925Y386500D02*
X417685D01*
X411811Y386614D02*
X411925Y386500D01*
X406358Y377500D02*
X417685D01*
X406299Y377559D02*
X406358Y377500D01*
X417685Y386500D02*
X420752D01*
X422835Y384417D01*
Y381496D02*
Y384417D01*
Y381496D02*
X426831Y377500D01*
X428315D01*
X405847Y327500D02*
X417685D01*
X403937Y325590D02*
X405847Y327500D01*
X417685D02*
X421713D01*
X423228Y325984D01*
Y323587D02*
Y325984D01*
Y323587D02*
X428315Y318500D01*
X411028Y268500D02*
X417685D01*
X421264D01*
X422835Y266929D01*
Y261024D02*
Y266929D01*
Y261024D02*
X424858Y259000D01*
X428315D01*
X472815D02*
X479472D01*
X462185Y268500D02*
X466539D01*
X467717Y267323D01*
Y261024D02*
Y267323D01*
Y261024D02*
X469740Y259000D01*
X472815D01*
Y318500D02*
X479917D01*
X462185Y327500D02*
X466083D01*
X467323Y326260D01*
Y320866D02*
Y326260D01*
Y320866D02*
X469689Y318500D01*
X472815D01*
X472315Y377500D02*
X472374Y377559D01*
X479921D01*
X461614Y386614D02*
X465748D01*
X466929Y385433D01*
Y379528D02*
Y385433D01*
Y379528D02*
X468957Y377500D01*
X472315D01*
X455905Y446457D02*
X461614D01*
X464961D01*
X466929Y444488D01*
Y440158D02*
Y444488D01*
Y440158D02*
X469587Y437500D01*
X472315D01*
X368161Y326122D02*
Y330279D01*
X362205Y321654D02*
X364961Y324410D01*
X366449D02*
X368161Y326122D01*
X364961Y324410D02*
X366449D01*
X362205Y303150D02*
Y305512D01*
X375856Y326644D02*
X377500Y325000D01*
X382500D01*
X374803Y324016D02*
X379134Y319685D01*
X370721Y326130D02*
Y330279D01*
Y326130D02*
X372835Y324016D01*
X374803D01*
X362205Y308858D02*
X370866D01*
X362205Y305118D02*
Y305512D01*
Y308858D01*
Y319488D02*
X370866D01*
X379134Y240000D02*
Y319685D01*
X551721Y196571D02*
Y200721D01*
X538287Y212500D02*
X543685D01*
X538189Y212598D02*
X538287Y212500D01*
X593008Y195669D02*
X595276D01*
X551721Y196571D02*
X553016Y195276D01*
X586154D01*
X586614Y194815D01*
X592126Y194787D02*
X593008Y195669D01*
X592126Y191732D02*
Y194787D01*
X589764Y189370D02*
X592126Y191732D01*
X571654Y184055D02*
X586614D01*
Y187402D02*
X588583Y189370D01*
X589764D01*
X586614Y184055D02*
Y187402D01*
X388024Y380709D02*
X388500Y381185D01*
X382854Y380709D02*
X388024D01*
X379000Y376854D02*
X382854Y380709D01*
X388500Y374886D02*
Y381185D01*
X374000Y376854D02*
X379000D01*
X368161Y352720D02*
Y358217D01*
X366142Y360236D02*
X368161Y358217D01*
X369000Y376854D02*
Y384150D01*
X366535Y386614D02*
X369000Y384150D01*
X355512Y386614D02*
X366535D01*
X354000Y388126D02*
X355512Y386614D01*
X354000Y388126D02*
Y391815D01*
Y374472D02*
Y381185D01*
X388500Y388106D02*
Y391815D01*
X387008Y386614D02*
X388500Y388106D01*
X371465Y386614D02*
X387008D01*
X369000Y384150D02*
X371465Y386614D01*
X504390Y452500D02*
X529504D01*
X504331Y452559D02*
X504390Y452500D01*
X495079Y463189D02*
X504331D01*
X508268Y399606D02*
Y406890D01*
X388500Y452673D02*
X388583Y452756D01*
X504134D02*
X504331Y452559D01*
X494882Y434252D02*
X495079Y434055D01*
X494882Y434252D02*
X496063D01*
X541000Y359500D02*
X579000Y321500D01*
X546000Y359923D02*
Y401004D01*
X551000Y359500D02*
Y401004D01*
X577709Y328291D02*
X579133Y326867D01*
X546000Y359923D02*
X577632Y328291D01*
X577709D01*
X556000Y360140D02*
X579133Y337007D01*
X556000Y360140D02*
Y401004D01*
X579133Y340946D02*
X579134Y340945D01*
X579133Y340946D02*
Y342125D01*
X566000Y359984D02*
Y401004D01*
Y359984D02*
X578937Y347047D01*
X571000Y360494D02*
Y401004D01*
Y360494D02*
X579133Y352361D01*
X648425Y474173D02*
Y475591D01*
Y464173D02*
Y465354D01*
X579133Y326771D02*
Y326867D01*
X551000Y359500D02*
X578904Y331596D01*
X561024Y360236D02*
X579134Y342126D01*
X540945Y410630D02*
Y463941D01*
X541000Y463996D01*
X546000Y463996D02*
X546063Y463933D01*
Y414173D02*
Y463933D01*
X555905Y422441D02*
Y463902D01*
X556000Y463996D01*
X561024Y426378D02*
Y463973D01*
X561000Y463996D02*
X561024Y463973D01*
X566000Y463996D02*
X566000Y463996D01*
X540945Y410630D02*
X543701D01*
X544882Y409449D01*
X579528D01*
X546063Y414173D02*
X583858D01*
X551181Y418110D02*
X579528D01*
X551181D02*
Y463996D01*
X555905Y422441D02*
X583858D01*
X561024Y426378D02*
X579528D01*
X566142Y430709D02*
X583858D01*
X566142D02*
Y463996D01*
X570866Y434646D02*
X579528D01*
X570866D02*
Y463996D01*
X575591Y438976D02*
Y463996D01*
X592496Y401598D02*
Y407500D01*
Y401598D02*
X592520Y401575D01*
X576000Y391715D02*
Y401004D01*
Y391715D02*
X579133Y388582D01*
X296272Y73413D02*
Y122453D01*
X306272Y75224D02*
Y122453D01*
X590689Y73941D02*
X593563D01*
X593882Y73622D01*
X596457D01*
X580709Y393701D02*
Y400713D01*
X316272Y76642D02*
Y122453D01*
X591011Y77091D02*
X599925D01*
X599999Y77164D02*
Y77165D01*
X599925Y77091D02*
X599999Y77164D01*
X586602Y388965D02*
Y393713D01*
X585827Y394488D02*
X586602Y393713D01*
X585827Y394488D02*
Y400831D01*
X586000Y401004D01*
X326272Y78547D02*
Y122453D01*
X603861Y80634D02*
X603936Y80708D01*
X592496Y412500D02*
X598721D01*
Y412303D02*
Y412500D01*
Y412303D02*
X599213Y411811D01*
X598819Y401575D02*
X599213D01*
X606298Y84646D02*
X606692Y85039D01*
X336347Y81102D02*
Y122378D01*
X336272Y122453D02*
X336347Y122378D01*
X599213Y401575D02*
Y411811D01*
X610235Y88975D02*
Y88976D01*
X609768Y88508D02*
X610235Y88975D01*
X598818Y396062D02*
Y396849D01*
X600075Y398106D01*
X600256D01*
X602287Y400138D01*
Y413065D01*
X597852Y417500D02*
X602287Y413065D01*
X592496Y417500D02*
X597852D01*
X592496Y422500D02*
X597697D01*
X604331Y415866D01*
Y395669D02*
Y415866D01*
X598819Y390945D02*
X599213Y390551D01*
X614000Y92445D02*
X614246Y92198D01*
X599213Y390551D02*
X604331Y395669D01*
X593427Y88508D02*
X609768D01*
X591725Y80634D02*
X603861D01*
X592394Y84646D02*
X606298D01*
X594536Y92445D02*
X614000D01*
X346272Y80315D02*
Y122453D01*
X591968Y70315D02*
X592126Y70472D01*
X296272Y73413D02*
X299370Y70315D01*
X589063Y72315D02*
X590689Y73941D01*
X306272Y75224D02*
X309181Y72315D01*
X588235Y74315D02*
X591011Y77091D01*
X316272Y76642D02*
X318598Y74315D01*
X587406Y76315D02*
X591725Y80634D01*
X326272Y78547D02*
X328504Y76315D01*
X586063Y78315D02*
X592394Y84646D01*
X336347Y81102D02*
X339134Y78315D01*
X585235Y80315D02*
X593427Y88508D01*
X299370Y70315D02*
X591968D01*
X309181Y72315D02*
X589063D01*
X318598Y74315D02*
X588235D01*
X328504Y76315D02*
X587406D01*
X339134Y78315D02*
X586063D01*
X346272Y80315D02*
X585235D01*
X584768Y82677D02*
X594536Y92445D01*
X356272Y85067D02*
Y122453D01*
Y85067D02*
X358661Y82677D01*
X584768D01*
X366272Y87665D02*
Y122453D01*
Y87665D02*
X369260Y84677D01*
X583940D01*
X594930Y95667D01*
X617669D02*
X617714Y95712D01*
X594930Y95667D02*
X617669D01*
X599605Y385432D02*
Y386826D01*
X606331Y393551D01*
Y417685D01*
X596516Y427500D02*
X606331Y417685D01*
X592496Y427500D02*
X596516D01*
X376272Y89264D02*
Y122453D01*
Y89264D02*
X378858Y86677D01*
X583111D01*
X595615Y99181D01*
X622377Y99213D02*
X622409Y99181D01*
X621654Y99213D02*
X622377D01*
X600392Y379133D02*
Y381314D01*
X608331Y389253D01*
Y421197D01*
X597028Y432500D02*
X608331Y421197D01*
X592496Y432500D02*
X597028D01*
X595615Y99181D02*
X622409D01*
X386272Y91390D02*
Y122453D01*
Y91390D02*
X388984Y88677D01*
X582283D01*
X596287Y102681D01*
X625441Y102756D02*
X625516Y102681D01*
X601968Y374299D02*
X602071Y374196D01*
X601968Y374299D02*
Y375804D01*
X610331Y384166D01*
Y423921D01*
X596752Y437500D02*
X610331Y423921D01*
X592496Y437500D02*
X596752D01*
X596287Y102681D02*
X625516D01*
X396272Y93224D02*
Y122453D01*
Y93224D02*
X398819Y90677D01*
X581455D01*
X597002Y106224D01*
X629058D01*
X629133Y106299D01*
X603937Y369289D02*
X604329Y368897D01*
X603937Y369289D02*
Y371157D01*
X612331Y379551D01*
Y427433D01*
X597264Y442500D02*
X612331Y427433D01*
X592496Y442500D02*
X597264D01*
X406272Y94910D02*
Y122453D01*
Y94910D02*
X408504Y92677D01*
X580626D01*
X597717Y109767D01*
X632208D01*
X632676Y110235D02*
Y110236D01*
X632208Y109767D02*
X632676Y110235D01*
X605905Y362990D02*
X606298Y362598D01*
X605905Y362990D02*
Y365568D01*
X614331Y373993D01*
Y430945D01*
X597776Y447500D02*
X614331Y430945D01*
X592496Y447500D02*
X597776D01*
X579000Y321500D02*
X634801D01*
X636581Y319721D01*
X640980D01*
X643780Y322520D01*
Y327244D01*
X648425Y331890D01*
X579133Y326771D02*
X630314D01*
X416272Y96720D02*
Y122453D01*
Y96720D02*
X418315Y94677D01*
X579798D01*
X598900Y113779D01*
X636614D01*
X608266Y357086D02*
Y359661D01*
X616331Y367725D01*
Y435244D01*
X599075Y452500D02*
X616331Y435244D01*
X592496Y452500D02*
X599075D01*
X633665Y329720D02*
X640270D01*
X642878Y332329D01*
Y335004D01*
X648425Y340551D01*
Y344173D01*
X630314Y326771D02*
X633465Y329921D01*
X633665Y329720D01*
X579069Y331760D02*
X631480D01*
X633972Y334252D01*
Y336018D01*
X637325Y339370D01*
X640158D01*
X643972Y343185D01*
Y348626D01*
X648425Y353079D01*
Y354173D01*
X579133Y337007D02*
X631102D01*
X632677Y338583D01*
Y347244D01*
X635153Y349721D01*
X640270D01*
X642878Y352329D01*
Y357445D01*
X648425Y362992D01*
X579133Y342125D02*
X629133D01*
X630677Y343669D01*
Y355087D01*
X635311Y359720D01*
X640270D01*
X642878Y362329D01*
Y367287D01*
X648425Y372835D01*
X579134Y347244D02*
X627102D01*
X628677Y348819D01*
Y360722D01*
X637675Y369721D01*
X640270D01*
X643972Y373423D01*
Y380193D01*
X647953Y384173D01*
X579133Y352361D02*
X624314D01*
X626677Y354724D01*
Y362504D01*
X633071Y368898D01*
Y375116D01*
X637675Y379720D01*
X640270D01*
X642878Y382329D01*
Y388626D01*
X648110Y393858D01*
X592496Y457500D02*
X594913Y455083D01*
X618331Y361952D02*
Y436072D01*
X613386Y357007D02*
X618331Y361952D01*
X594913Y455083D02*
X599321D01*
X618331Y436072D01*
X613386Y356693D02*
Y357007D01*
X599615Y117323D02*
X641339D01*
X578969Y96677D02*
X599615Y117323D01*
X429307Y96677D02*
X578969D01*
X426378Y99606D02*
X429307Y96677D01*
X426378Y99606D02*
Y122346D01*
X426272Y122453D02*
X426378Y122346D01*
X436272Y101524D02*
Y122453D01*
Y101524D02*
X439118Y98677D01*
X578141D01*
X600330Y120866D01*
X645276D01*
X618503Y356692D02*
X618897D01*
Y359690D02*
X620331Y361123D01*
Y436901D01*
X597149Y460083D02*
X620331Y436901D01*
X595823Y460083D02*
X597149D01*
X591909Y463996D02*
X595823Y460083D01*
X586000Y463996D02*
X591909D01*
X618897Y356692D02*
Y359690D01*
X581000Y463996D02*
Y469787D01*
X582866Y471654D01*
X585087Y469433D01*
X590627D01*
X622331Y437729D01*
Y358772D02*
X622884D01*
X623145Y359032D01*
X647956Y124335D02*
X648818Y125197D01*
X600970Y124335D02*
X647956D01*
X577313Y100677D02*
X600970Y124335D01*
X448929Y100677D02*
X577313D01*
X446457Y103150D02*
X448929Y100677D01*
X446457Y103150D02*
Y122268D01*
X446272Y122453D02*
X446457Y122268D01*
X622331Y358772D02*
Y437729D01*
X648425Y474173D02*
X649673D01*
X656200Y480700D01*
X676900Y238700D02*
X684200D01*
X666737Y248863D02*
X676900Y238700D01*
X661948Y248863D02*
X666737D01*
X643972Y266839D02*
X661948Y248863D01*
X643972Y266839D02*
Y318626D01*
X648425Y323079D01*
Y324173D01*
X669637Y268963D02*
X684300Y254300D01*
X669637Y268963D02*
Y272574D01*
X648425Y331890D02*
Y333079D01*
X669937Y284363D02*
X684400Y269900D01*
X669937Y284363D02*
Y287874D01*
X669837Y299963D02*
X684300Y285500D01*
X669837Y299963D02*
Y303352D01*
X666652Y306537D02*
X669837Y303352D01*
X666474Y306537D02*
X666652D01*
X684300Y301100D02*
Y304711D01*
X658963Y330048D02*
X684300Y304711D01*
X658963Y330048D02*
Y345548D01*
X656900Y316111D02*
X666474Y306537D01*
X654800Y303011D02*
X669937Y287874D01*
X652800Y310521D02*
X652878Y310599D01*
Y317747D01*
X652800Y317825D02*
X652878Y317747D01*
X654800Y303011D02*
Y309693D01*
X654878Y309771D01*
Y318576D01*
X654800Y318654D02*
X654878Y318576D01*
X652800Y317825D02*
Y322251D01*
X652878Y322329D01*
X654800Y318654D02*
Y321423D01*
X654878Y321500D01*
X652800Y289411D02*
Y310521D01*
X652878Y322329D02*
Y328626D01*
X648425Y333079D02*
X652878Y328626D01*
X652800Y289411D02*
X669637Y272574D01*
X648425Y344173D02*
X654878Y337720D01*
Y321500D02*
Y337720D01*
X648425Y352075D02*
Y354173D01*
Y352075D02*
X656900Y343600D01*
Y316111D02*
Y343600D01*
X652878Y351633D02*
X658963Y345548D01*
X652878Y351633D02*
Y358626D01*
X648425Y363079D02*
X652878Y358626D01*
X648425Y363079D02*
Y364173D01*
Y362992D02*
Y363079D01*
X669837Y331163D02*
X684400Y316600D01*
X656141Y353337D02*
X666552D01*
X669837Y331163D02*
Y350052D01*
X666552Y353337D02*
X669837Y350052D01*
X654878Y354600D02*
X656141Y353337D01*
X654878Y354600D02*
Y367721D01*
X648425Y374173D02*
X654878Y367721D01*
X673700Y332300D02*
X684200D01*
X671837Y334163D02*
X673700Y332300D01*
X671837Y334163D02*
Y350881D01*
X667381Y355337D02*
X671837Y350881D01*
X658000Y355337D02*
X667381D01*
X656878Y356459D02*
X658000Y355337D01*
X656878Y356459D02*
Y375248D01*
X647953Y384173D02*
X656878Y375248D01*
X670100Y362200D02*
X684400Y347900D01*
X670100Y362200D02*
Y382000D01*
X666600Y385500D02*
X670100Y382000D01*
X655300Y385500D02*
X666600D01*
X653200Y387600D02*
X655300Y385500D01*
X653200Y387600D02*
Y392100D01*
X651127Y394173D02*
X653200Y392100D01*
X648110Y394173D02*
X648425D01*
X651127D01*
X673100Y363500D02*
X684400D01*
X672100Y364500D02*
X673100Y363500D01*
X672100Y364500D02*
Y382828D01*
X667428Y387500D02*
X672100Y382828D01*
X667300Y387500D02*
X667428D01*
X666400Y388400D02*
X667300Y387500D01*
X657000Y388400D02*
X666400D01*
X655200Y390200D02*
X657000Y388400D01*
X655200Y390200D02*
Y394528D01*
X653600Y396128D02*
X655200Y394528D01*
X653600Y396128D02*
Y400800D01*
X650227Y404173D02*
X653600Y400800D01*
X648425Y404173D02*
X650227D01*
X683600Y379900D02*
X684400Y379100D01*
X677900Y379900D02*
X683600D01*
X669537Y388263D02*
X677900Y379900D01*
X669537Y388263D02*
Y397389D01*
X666889Y400037D02*
X669537Y397389D01*
X657863Y400037D02*
X666889D01*
X653900Y404000D02*
X657863Y400037D01*
X653900Y404000D02*
Y408698D01*
X648425Y414173D02*
X653900Y408698D01*
X673700Y394700D02*
X684300D01*
X671537Y396863D02*
X673700Y394700D01*
X671537Y396863D02*
Y398218D01*
X667718Y402037D02*
X671537Y398218D01*
X658863Y402037D02*
X667718D01*
X655900Y405000D02*
X658863Y402037D01*
X655900Y405000D02*
Y410500D01*
X653300Y413100D02*
X655900Y410500D01*
X653300Y413100D02*
Y419298D01*
X648425Y424173D02*
X653300Y419298D01*
X671989Y410300D02*
X684200D01*
X666552Y415737D02*
X671989Y410300D01*
X659463Y415737D02*
X666552D01*
X655400Y419800D02*
X659463Y415737D01*
X655400Y419800D02*
Y429800D01*
X651027Y434173D02*
X655400Y429800D01*
X648425Y434173D02*
X651027D01*
X676400Y425800D02*
X684300D01*
X673800Y428400D02*
X676400Y425800D01*
X673800Y428400D02*
Y432000D01*
X671600Y434200D02*
X673800Y432000D01*
X655500Y434200D02*
X671600D01*
X653600Y436100D02*
X655500Y434200D01*
X653600Y436100D02*
Y438998D01*
X648425Y444173D02*
X653600Y438998D01*
X676200Y441500D02*
X684200D01*
X673900Y443800D02*
X676200Y441500D01*
X673900Y443800D02*
Y447800D01*
X672000Y449700D02*
X673900Y447800D01*
X654100Y449700D02*
X672000D01*
X649627Y454173D02*
X654100Y449700D01*
X648425Y454173D02*
X649627D01*
X676400Y457000D02*
X684300D01*
X674600Y458800D02*
X676400Y457000D01*
X674600Y458800D02*
Y461200D01*
X671700Y464100D02*
X674600Y461200D01*
X648498Y464100D02*
X671700D01*
X648425Y464173D02*
X648498Y464100D01*
X677600Y472700D02*
X684100D01*
X669600Y480700D02*
X677600Y472700D01*
X656200Y480700D02*
X669600D01*
D23*
X172835Y465300D02*
Y470185D01*
X185039Y461221D02*
X189764D01*
X180591D02*
X185039D01*
Y465748D01*
X172835Y470185D02*
X179000D01*
X167500D02*
X172835D01*
X240551Y445551D02*
X247000Y452000D01*
X240551Y173228D02*
Y445551D01*
X525000Y189567D02*
Y194000D01*
X529504Y447500D02*
X536476D01*
X503937Y444685D02*
X515945D01*
X513779Y445000D02*
Y447638D01*
X197441Y450591D02*
X197638Y450787D01*
X189764Y450591D02*
X197441D01*
X128228Y462500D02*
X155000D01*
X180500Y461130D02*
Y468685D01*
Y450500D02*
X189673D01*
X168500Y462500D02*
X180500Y450500D01*
X155000Y462500D02*
X168500D01*
X179000Y480815D02*
X209685D01*
X167500D02*
X179000D01*
X156500Y481000D02*
X167315D01*
X155000Y479500D02*
X156500Y481000D01*
X155000Y471555D02*
Y479500D01*
X518760Y447500D02*
X529504D01*
X515945Y444685D02*
X518760Y447500D01*
X247000Y452000D02*
Y462000D01*
D24*
X151500Y324000D02*
X164705D01*
X127500D02*
X151500D01*
Y318900D02*
Y324000D01*
X504331Y296260D02*
Y313779D01*
Y296260D02*
X507874Y292717D01*
X488189Y459449D02*
Y463386D01*
Y459449D02*
X494882Y452756D01*
X388583D02*
Y462992D01*
X483071Y456693D02*
Y468110D01*
X205000Y267500D02*
X222224D01*
X202756D02*
X205000D01*
X222224D02*
X226378Y271653D01*
Y482282D01*
X554386Y217000D02*
X554708Y217322D01*
X559841D01*
X514961Y254331D02*
X517323D01*
X511024D02*
X514961D01*
X562598Y167913D02*
X571654D01*
Y172835D01*
X510555Y178055D02*
X510630Y177980D01*
X510555Y178055D02*
Y207841D01*
X514961Y212247D01*
Y254331D01*
X507087Y258268D02*
X511024Y254331D01*
X483071Y456693D02*
X491339Y448425D01*
Y424409D02*
Y448425D01*
X509449Y298425D02*
X517913D01*
X491732Y424803D02*
X503937D01*
X491339Y424409D02*
X491732Y424803D01*
X507087Y258465D02*
Y270079D01*
X206279Y305906D02*
X220866D01*
X214500Y306000D02*
X215500Y307000D01*
Y325000D01*
X214315Y326185D02*
X215500Y325000D01*
X194500Y326185D02*
X214315D01*
X197000Y317000D02*
X205815D01*
X178500D02*
X188000D01*
X194500Y326185D02*
Y329000D01*
X192000Y331500D02*
X194500Y329000D01*
X176000Y331500D02*
X192000D01*
X175193Y330693D02*
X176000Y331500D01*
X164705Y330693D02*
X175193D01*
X174685Y326185D02*
X180500D01*
X172500Y324000D02*
X174685Y326185D01*
X164705Y324000D02*
X172500D01*
X180500Y322000D02*
Y326185D01*
X178500Y320000D02*
X180500Y322000D01*
X178500Y317000D02*
Y320000D01*
X197000Y306185D02*
X206000D01*
X178500Y306370D02*
X188000D01*
X444095Y236221D02*
X447244Y233071D01*
X444095Y236221D02*
Y241339D01*
X440158Y245276D02*
X444095Y241339D01*
X490551Y148425D02*
Y226378D01*
X227559Y156299D02*
X246063D01*
X362205Y319488D02*
Y321654D01*
X388500Y391815D02*
Y452673D01*
X494882Y452756D02*
X504134D01*
X508268Y417520D02*
Y420472D01*
X503937Y424803D02*
X508268Y420472D01*
X362992Y156693D02*
Y292913D01*
X510630Y163386D02*
Y177980D01*
X455905Y141339D02*
Y226378D01*
X447244Y148425D02*
Y233071D01*
X404724Y141732D02*
Y235039D01*
X206000Y394315D02*
Y400500D01*
X188185Y316815D02*
X197000D01*
X127500Y297500D02*
Y324000D01*
D25*
X233858Y178347D02*
Y472441D01*
X220079Y164567D02*
X233858Y178347D01*
X213358Y383858D02*
X220472D01*
X206173D02*
X213358D01*
X206000Y383685D02*
X206173Y383858D01*
X206000Y241315D02*
X212575D01*
X206146Y164961D02*
X219685D01*
X169961Y296850D02*
X172835D01*
X164705Y302106D02*
X169961Y296850D01*
X164705Y302106D02*
Y310614D01*
X165354Y228740D02*
Y234614D01*
X164705Y377697D02*
Y388114D01*
X164173Y148819D02*
Y155047D01*
X154500Y217886D02*
X165354Y228740D01*
X214500Y404000D02*
Y421500D01*
X214315Y385185D02*
Y404185D01*
X213000Y423000D02*
X214500Y421500D01*
X169000Y423000D02*
X213000D01*
X164705Y418705D02*
X169000Y423000D01*
X164705Y414886D02*
Y418705D01*
X164898Y395000D02*
X173000D01*
X173685Y394315D01*
X178500D01*
X188000D01*
X197000D02*
X206000D01*
X197000Y383685D02*
X206000D01*
X178500D02*
X188000D01*
X173815D02*
X178500D01*
X169386Y388114D02*
X173815Y383685D01*
X170886Y310614D02*
X175130Y306370D01*
X172000Y168500D02*
X175500Y165000D01*
X179000D02*
X188000D01*
X181000Y167000D02*
Y174185D01*
X195000Y170500D02*
Y174185D01*
X197000Y164815D02*
Y168500D01*
X172130Y154370D02*
X179000D01*
X164106Y155114D02*
X171386D01*
X179000Y154370D02*
X188000D01*
X197000Y154185D02*
X206000D01*
X197000Y164815D02*
X206000D01*
X164106Y155114D02*
Y161807D01*
X230551Y129134D02*
Y135669D01*
X234252Y139370D01*
X259842D01*
X359055Y326378D02*
X362205Y323228D01*
Y321654D02*
Y323228D01*
X126902Y168500D02*
Y197508D01*
Y168500D02*
X164106D01*
X172000D01*
X494882Y463386D02*
X495079Y463189D01*
X188000Y394315D02*
X192400D01*
X197000D01*
D26*
X167000Y267500D02*
X202756D01*
X164705Y241307D02*
X178492D01*
X164705Y261386D02*
Y265205D01*
X167000Y267500D01*
X206000Y251000D02*
Y266500D01*
X195000Y249685D02*
X204685D01*
X178500Y241315D02*
X188000D01*
X197000D02*
X206000D01*
X195000Y245500D02*
Y249685D01*
Y245500D02*
X197000Y243500D01*
X178500Y230685D02*
X188000D01*
X173315D02*
X178500D01*
X169386Y234614D02*
X173315Y230685D01*
X201300Y220700D02*
X201400Y220600D01*
X201300Y220700D02*
Y230685D01*
X153093Y241307D02*
X164705D01*
X153000Y241400D02*
X153093Y241307D01*
D27*
X169193Y175193D02*
X173000Y179000D01*
X190185D01*
X195000Y174185D01*
D28*
X114500Y119500D02*
D03*
X240551Y129134D02*
D03*
X282000Y166000D02*
D03*
Y195500D02*
D03*
X282500Y229500D02*
D03*
X282000Y262000D02*
D03*
X280500Y290000D02*
D03*
Y323000D02*
D03*
Y360500D02*
D03*
Y396500D02*
D03*
X296272Y122453D02*
D03*
X280500Y431000D02*
D03*
D29*
X124500Y119500D02*
D03*
X134500D02*
D03*
X144500D02*
D03*
X154500D02*
D03*
X164500D02*
D03*
X240551Y119134D02*
D03*
X230551Y129134D02*
D03*
Y119134D02*
D03*
X220551Y129134D02*
D03*
Y119134D02*
D03*
X638425Y484173D02*
D03*
X648425D02*
D03*
X638425Y474173D02*
D03*
X648425D02*
D03*
X638425Y464173D02*
D03*
X648425D02*
D03*
X638425Y454173D02*
D03*
X648425D02*
D03*
X638425Y444173D02*
D03*
X648425D02*
D03*
X638425Y434173D02*
D03*
X648425D02*
D03*
X638425Y424173D02*
D03*
X648425D02*
D03*
X638425Y414173D02*
D03*
X648425D02*
D03*
X638425Y404173D02*
D03*
X648425D02*
D03*
X638425Y394173D02*
D03*
X648425D02*
D03*
X638425Y384173D02*
D03*
X648425D02*
D03*
X638425Y374173D02*
D03*
X648425D02*
D03*
X638425Y364173D02*
D03*
X648425D02*
D03*
X638425Y354173D02*
D03*
X648425D02*
D03*
X638425Y344173D02*
D03*
X648425D02*
D03*
X638425Y334173D02*
D03*
X648425D02*
D03*
X638425Y324173D02*
D03*
X648425D02*
D03*
X638425Y314173D02*
D03*
X257000Y432000D02*
D03*
X247000D02*
D03*
X257000Y442000D02*
D03*
X247000D02*
D03*
X257000Y452000D02*
D03*
X247000D02*
D03*
X257000Y462000D02*
D03*
X247000D02*
D03*
X257000Y472000D02*
D03*
X247000D02*
D03*
Y182000D02*
D03*
X257000Y192000D02*
D03*
X247000D02*
D03*
X257000Y202000D02*
D03*
X247000D02*
D03*
X257000Y212000D02*
D03*
X247000D02*
D03*
X257000Y222000D02*
D03*
X247000D02*
D03*
X257000Y232000D02*
D03*
X247000D02*
D03*
X257000Y242000D02*
D03*
X247000D02*
D03*
X257000Y252000D02*
D03*
X247000D02*
D03*
X257000Y262000D02*
D03*
X247000D02*
D03*
X257000Y272000D02*
D03*
X247000D02*
D03*
X257000Y282000D02*
D03*
X247000D02*
D03*
X257000Y292000D02*
D03*
X247000D02*
D03*
X257000Y302000D02*
D03*
X247000D02*
D03*
X257000Y312000D02*
D03*
X247000D02*
D03*
X257000Y322000D02*
D03*
X247000D02*
D03*
X257000Y332000D02*
D03*
X247000D02*
D03*
X257000Y342000D02*
D03*
X247000D02*
D03*
X257000Y352000D02*
D03*
X247000D02*
D03*
X257000Y362000D02*
D03*
X247000D02*
D03*
X257000Y372000D02*
D03*
X247000D02*
D03*
X257000Y382000D02*
D03*
X247000D02*
D03*
X257000Y392000D02*
D03*
X247000D02*
D03*
X257000Y402000D02*
D03*
X247000D02*
D03*
X257000Y412000D02*
D03*
X247000D02*
D03*
X257000Y422000D02*
D03*
X247000D02*
D03*
X312000Y176000D02*
D03*
Y166000D02*
D03*
X302000Y176000D02*
D03*
Y166000D02*
D03*
X292000Y176000D02*
D03*
Y166000D02*
D03*
X282000Y176000D02*
D03*
X312000Y205500D02*
D03*
Y195500D02*
D03*
X302000Y205500D02*
D03*
Y195500D02*
D03*
X292000Y205500D02*
D03*
Y195500D02*
D03*
X282000Y205500D02*
D03*
X312500Y239500D02*
D03*
Y229500D02*
D03*
X302500Y239500D02*
D03*
Y229500D02*
D03*
X292500Y239500D02*
D03*
Y229500D02*
D03*
X282500Y239500D02*
D03*
X312000Y272000D02*
D03*
Y262000D02*
D03*
X302000Y272000D02*
D03*
Y262000D02*
D03*
X292000Y272000D02*
D03*
Y262000D02*
D03*
X282000Y272000D02*
D03*
X310500Y300000D02*
D03*
Y290000D02*
D03*
X300500Y300000D02*
D03*
Y290000D02*
D03*
X290500Y300000D02*
D03*
Y290000D02*
D03*
X280500Y300000D02*
D03*
X310500Y333000D02*
D03*
Y323000D02*
D03*
X300500Y333000D02*
D03*
Y323000D02*
D03*
X290500Y333000D02*
D03*
Y323000D02*
D03*
X280500Y333000D02*
D03*
X310500Y370500D02*
D03*
Y360500D02*
D03*
X300500Y370500D02*
D03*
Y360500D02*
D03*
X290500Y370500D02*
D03*
Y360500D02*
D03*
X280500Y370500D02*
D03*
X310500Y406500D02*
D03*
Y396500D02*
D03*
X300500Y406500D02*
D03*
Y396500D02*
D03*
X290500Y406500D02*
D03*
Y396500D02*
D03*
X280500Y406500D02*
D03*
X546272Y122453D02*
D03*
Y132453D02*
D03*
X556272Y122453D02*
D03*
Y132453D02*
D03*
X566272Y122453D02*
D03*
Y132453D02*
D03*
X576272Y122453D02*
D03*
Y132453D02*
D03*
X586272Y122453D02*
D03*
Y132453D02*
D03*
X296272D02*
D03*
X306272Y122453D02*
D03*
Y132453D02*
D03*
X316272Y122453D02*
D03*
Y132453D02*
D03*
X326272Y122453D02*
D03*
Y132453D02*
D03*
X336272Y122453D02*
D03*
Y132453D02*
D03*
X346272Y122453D02*
D03*
Y132453D02*
D03*
X356272Y122453D02*
D03*
Y132453D02*
D03*
X366272Y122453D02*
D03*
Y132453D02*
D03*
X376272Y122453D02*
D03*
Y132453D02*
D03*
X386272Y122453D02*
D03*
Y132453D02*
D03*
X396272Y122453D02*
D03*
Y132453D02*
D03*
X406272Y122453D02*
D03*
Y132453D02*
D03*
X416272Y122453D02*
D03*
Y132453D02*
D03*
X426272Y122453D02*
D03*
Y132453D02*
D03*
X436272Y122453D02*
D03*
Y132453D02*
D03*
X446272Y122453D02*
D03*
Y132453D02*
D03*
X456272Y122453D02*
D03*
Y132453D02*
D03*
X466272Y122453D02*
D03*
Y132453D02*
D03*
X476272Y122453D02*
D03*
Y132453D02*
D03*
X486272Y122453D02*
D03*
Y132453D02*
D03*
X496272Y122453D02*
D03*
Y132453D02*
D03*
X506272Y122453D02*
D03*
Y132453D02*
D03*
X516272Y122453D02*
D03*
Y132453D02*
D03*
X526272Y122453D02*
D03*
Y132453D02*
D03*
X536272Y122453D02*
D03*
Y132453D02*
D03*
X310500Y441000D02*
D03*
Y431000D02*
D03*
X300500Y441000D02*
D03*
Y431000D02*
D03*
X290500Y441000D02*
D03*
Y431000D02*
D03*
X280500Y441000D02*
D03*
D30*
X164488Y132283D02*
D03*
X124488D02*
D03*
X210000Y480500D02*
D03*
Y440500D02*
D03*
D31*
X648425Y314173D02*
D03*
X257000Y182000D02*
D03*
D32*
X664300Y488300D02*
D03*
X684300Y488700D02*
D03*
X664100Y472700D02*
D03*
X684100D02*
D03*
X664100Y457100D02*
D03*
X684300Y457000D02*
D03*
X664300Y441500D02*
D03*
X684200D02*
D03*
X664300Y425800D02*
D03*
X684300D02*
D03*
X664300Y410300D02*
D03*
X684200D02*
D03*
X664100Y394600D02*
D03*
X684300Y394700D02*
D03*
X664500Y378900D02*
D03*
X684400Y379100D02*
D03*
X664400Y363500D02*
D03*
X684400D02*
D03*
X664300Y347900D02*
D03*
X684400D02*
D03*
X664400Y332300D02*
D03*
X684200D02*
D03*
X664100Y316600D02*
D03*
X684400D02*
D03*
X664400Y301100D02*
D03*
X684300D02*
D03*
X664500Y285400D02*
D03*
X684300Y285500D02*
D03*
X664200Y269900D02*
D03*
X684400D02*
D03*
X664200Y254300D02*
D03*
X684300D02*
D03*
X664500Y238700D02*
D03*
X684200D02*
D03*
X664300Y223100D02*
D03*
X684300D02*
D03*
D33*
X406200Y411700D02*
D03*
X172900Y465200D02*
D03*
X533900Y188800D02*
D03*
X524900Y188700D02*
D03*
X151500Y318900D02*
D03*
X561900Y184900D02*
D03*
X538189Y206693D02*
D03*
X542520Y171260D02*
D03*
X546457Y168110D02*
D03*
X507874Y275984D02*
D03*
X240551Y487402D02*
D03*
X185039Y465748D02*
D03*
X167323Y435039D02*
D03*
X240551Y173228D02*
D03*
X331102Y190157D02*
D03*
X527953Y309055D02*
D03*
X504724Y314173D02*
D03*
X536614Y447638D02*
D03*
X513779D02*
D03*
X488189Y463386D02*
D03*
X388583Y462992D02*
D03*
X483071Y468110D02*
D03*
X197638Y450787D02*
D03*
X233858Y472441D02*
D03*
X226378Y482282D02*
D03*
X559841Y217322D02*
D03*
X571654Y172835D02*
D03*
X510630Y163386D02*
D03*
X509449Y298425D02*
D03*
X491339Y424409D02*
D03*
X484646Y424016D02*
D03*
X507087Y270079D02*
D03*
Y242126D02*
D03*
X451124Y264961D02*
D03*
X220472Y383858D02*
D03*
X220866Y305906D02*
D03*
X212598Y241339D02*
D03*
X220079Y164567D02*
D03*
X172835Y296850D02*
D03*
X164567Y377559D02*
D03*
X164173Y148819D02*
D03*
X154500Y217886D02*
D03*
X389500Y356000D02*
D03*
X385500Y330000D02*
D03*
X522000Y422500D02*
D03*
Y278000D02*
D03*
X515000Y268000D02*
D03*
X518500Y273000D02*
D03*
X443500Y255500D02*
D03*
X447000Y248000D02*
D03*
X515000Y206000D02*
D03*
Y259500D02*
D03*
X510000Y427500D02*
D03*
Y472500D02*
D03*
X515500Y432500D02*
D03*
X521000Y437500D02*
D03*
Y478500D02*
D03*
X542000Y291500D02*
D03*
X579134Y347244D02*
D03*
X378398Y337102D02*
D03*
X398500Y363000D02*
D03*
X371000D02*
D03*
X393000Y300000D02*
D03*
X447000Y359000D02*
D03*
X448500Y419000D02*
D03*
X395500Y424000D02*
D03*
X557000Y188000D02*
D03*
X551000D02*
D03*
X569500Y201000D02*
D03*
X567000Y207500D02*
D03*
X602500Y191500D02*
D03*
X609000Y188000D02*
D03*
X613000Y184500D02*
D03*
X618000Y201000D02*
D03*
X621500Y207500D02*
D03*
X566500Y213000D02*
D03*
X625000D02*
D03*
X626000Y222000D02*
D03*
X566500Y219000D02*
D03*
X586000Y230500D02*
D03*
X440500D02*
D03*
X490500Y234500D02*
D03*
X599500Y234000D02*
D03*
X500500Y226500D02*
D03*
X603000D02*
D03*
X496500Y221500D02*
D03*
X581000Y222500D02*
D03*
X575500Y314000D02*
D03*
X571000Y319500D02*
D03*
X566000Y324500D02*
D03*
X561000Y329500D02*
D03*
X556000Y334500D02*
D03*
X551000Y339500D02*
D03*
X546000Y344500D02*
D03*
X541000Y349500D02*
D03*
X601500Y263000D02*
D03*
X582000Y250500D02*
D03*
X601500Y269500D02*
D03*
X576000Y234000D02*
D03*
X538000Y275000D02*
D03*
X545500Y287000D02*
D03*
X551000Y283500D02*
D03*
X562500Y286500D02*
D03*
X561000Y278500D02*
D03*
X566500Y277000D02*
D03*
X573500Y276500D02*
D03*
X536000Y392500D02*
D03*
X450000Y300000D02*
D03*
X434000Y218500D02*
D03*
X480000D02*
D03*
X433500Y277000D02*
D03*
X480000D02*
D03*
X433500Y336500D02*
D03*
X480000D02*
D03*
X433500Y396500D02*
D03*
X480000D02*
D03*
X364000Y344500D02*
D03*
X365500Y338500D02*
D03*
X544000Y187000D02*
D03*
X340000Y193500D02*
D03*
X536500Y173000D02*
D03*
X357500Y352500D02*
D03*
X536500Y201000D02*
D03*
X335500Y178000D02*
D03*
X327000Y206000D02*
D03*
X344000Y172500D02*
D03*
X515000Y182500D02*
D03*
X340000Y478500D02*
D03*
X347500Y300000D02*
D03*
X351500Y339500D02*
D03*
Y272000D02*
D03*
X355500Y344500D02*
D03*
Y210000D02*
D03*
X359000Y333000D02*
D03*
X324500Y352500D02*
D03*
X384500Y359000D02*
D03*
X374000Y406500D02*
D03*
X546457Y194095D02*
D03*
X409842Y347638D02*
D03*
X404724Y294882D02*
D03*
Y259055D02*
D03*
Y235039D02*
D03*
Y318504D02*
D03*
X406299Y437402D02*
D03*
X440158Y446457D02*
D03*
Y427559D02*
D03*
X440043Y386500D02*
D03*
X440158Y363779D02*
D03*
X438583Y327559D02*
D03*
X439369Y307480D02*
D03*
X438583Y268504D02*
D03*
X440158Y245276D02*
D03*
X455905Y226378D02*
D03*
Y259055D02*
D03*
Y289370D02*
D03*
Y318504D02*
D03*
Y348819D02*
D03*
Y377559D02*
D03*
X484646Y446457D02*
D03*
Y386614D02*
D03*
Y364173D02*
D03*
Y327559D02*
D03*
Y305118D02*
D03*
Y268504D02*
D03*
X485433Y237795D02*
D03*
X485039Y244882D02*
D03*
X455905Y408661D02*
D03*
Y437402D02*
D03*
X404331Y337402D02*
D03*
X562992Y150787D02*
D03*
X449606Y239764D02*
D03*
X259842Y139370D02*
D03*
X447244Y148425D02*
D03*
X404724Y141732D02*
D03*
X455905Y141339D02*
D03*
X490551Y148425D02*
D03*
Y226378D02*
D03*
X411417Y446457D02*
D03*
X435039Y437402D02*
D03*
X411811Y386614D02*
D03*
X406299Y377559D02*
D03*
X403937Y325590D02*
D03*
X411028Y268500D02*
D03*
X479472Y259000D02*
D03*
X479917Y318500D02*
D03*
X479921Y377559D02*
D03*
X455905Y446457D02*
D03*
X362205Y302362D02*
D03*
X379134Y240158D02*
D03*
X538189Y212598D02*
D03*
X227559Y156299D02*
D03*
X246063D02*
D03*
X362992Y156693D02*
D03*
Y292913D02*
D03*
X359055Y326378D02*
D03*
X595276Y195669D02*
D03*
X579134Y195276D02*
D03*
X388500Y374886D02*
D03*
X366142Y360236D02*
D03*
X354000Y374472D02*
D03*
X126902Y197508D02*
D03*
X494882Y463386D02*
D03*
X508268Y399606D02*
D03*
X494882Y452756D02*
D03*
X496063Y434252D02*
D03*
X579000Y321500D02*
D03*
X579133Y326771D02*
D03*
X579069Y331760D02*
D03*
X579133Y337007D02*
D03*
Y342125D02*
D03*
Y352361D02*
D03*
X540945Y410630D02*
D03*
X546063Y414173D02*
D03*
X551181Y418110D02*
D03*
X555905Y422441D02*
D03*
X561024Y426378D02*
D03*
X566142Y430709D02*
D03*
X570866Y434646D02*
D03*
X575591Y438976D02*
D03*
X579528Y409449D02*
D03*
X583858Y414173D02*
D03*
X579528Y418110D02*
D03*
X583858Y422441D02*
D03*
X579528Y426378D02*
D03*
X583858Y430709D02*
D03*
X579528Y434646D02*
D03*
X592520Y401575D02*
D03*
X579133Y388582D02*
D03*
X592126Y70472D02*
D03*
X596457Y73622D02*
D03*
X580709Y393701D02*
D03*
X599999Y77165D02*
D03*
X586602Y388965D02*
D03*
X603936Y80708D02*
D03*
X598819Y401575D02*
D03*
X606692Y85039D02*
D03*
X610235Y88976D02*
D03*
X598818Y396062D02*
D03*
X598819Y390945D02*
D03*
X614246Y92198D02*
D03*
X617714Y95712D02*
D03*
X599605Y385432D02*
D03*
X621654Y99213D02*
D03*
X600392Y379133D02*
D03*
X625441Y102756D02*
D03*
X602071Y374196D02*
D03*
X629133Y106299D02*
D03*
X604329Y368897D02*
D03*
X632676Y110236D02*
D03*
X606298Y362598D02*
D03*
X636614Y113779D02*
D03*
X608266Y357086D02*
D03*
X613386Y356693D02*
D03*
X641339Y117323D02*
D03*
X645276Y120866D02*
D03*
X618503Y356692D02*
D03*
X623145Y359032D02*
D03*
X648818Y125197D02*
D03*
X206000Y400500D02*
D03*
X127500Y297500D02*
D03*
X201400Y220600D02*
D03*
X153000Y241400D02*
D03*
D34*
X400000Y345500D02*
D03*
X373000D02*
D03*
M02*
