%FSLAX25Y25*%
%MOIN*%
G70*
G01*
G75*
G04 Layer_Physical_Order=5*
G04 Layer_Color=16440176*
%ADD10O,0.01378X0.06693*%
%ADD11R,0.06693X0.04331*%
%ADD12R,0.11811X0.04331*%
%ADD13R,0.35827X0.41929*%
%ADD14R,0.10236X0.04331*%
%ADD15R,0.04331X0.06693*%
%ADD16R,0.05512X0.03937*%
%ADD17R,0.05512X0.12795*%
%ADD18O,0.07087X0.02362*%
%ADD19O,0.02165X0.07874*%
%ADD20O,0.07874X0.02165*%
%ADD21O,0.02756X0.09843*%
%ADD22C,0.01000*%
%ADD23C,0.02000*%
%ADD24C,0.02953*%
%ADD25C,0.03937*%
%ADD26C,0.04000*%
%ADD27C,0.01969*%
%ADD28R,0.05906X0.05906*%
%ADD29C,0.05906*%
%ADD30C,0.05512*%
%ADD31R,0.05906X0.05906*%
%ADD32C,0.07874*%
%ADD33C,0.03937*%
%ADD34C,0.05000*%
%ADD35C,0.07543*%
G04:AMPARAMS|DCode=36|XSize=93.465mil|YSize=93.465mil|CornerRadius=0mil|HoleSize=0mil|Usage=FLASHONLY|Rotation=0.000|XOffset=0mil|YOffset=0mil|HoleType=Round|Shape=Relief|Width=10mil|Gap=10mil|Entries=4|*
%AMTHD36*
7,0,0,0.09347,0.07347,0.01000,45*
%
%ADD36THD36*%
%ADD37C,0.07347*%
%ADD38C,0.08921*%
%ADD39C,0.05969*%
G04:AMPARAMS|DCode=40|XSize=79.685mil|YSize=79.685mil|CornerRadius=0mil|HoleSize=0mil|Usage=FLASHONLY|Rotation=0.000|XOffset=0mil|YOffset=0mil|HoleType=Round|Shape=Relief|Width=10mil|Gap=10mil|Entries=4|*
%AMTHD40*
7,0,0,0.07969,0.05969,0.01000,45*
%
%ADD40THD40*%
%ADD41C,0.06800*%
G04:AMPARAMS|DCode=42|XSize=95.433mil|YSize=95.433mil|CornerRadius=0mil|HoleSize=0mil|Usage=FLASHONLY|Rotation=0.000|XOffset=0mil|YOffset=0mil|HoleType=Round|Shape=Relief|Width=10mil|Gap=10mil|Entries=4|*
%AMTHD42*
7,0,0,0.09543,0.07543,0.01000,45*
%
%ADD42THD42*%
D22*
X240551Y203937D02*
Y487402D01*
X242488Y202000D02*
X247000D01*
X240551Y203937D02*
X242488Y202000D01*
X522000Y278000D02*
Y422500D01*
X515000Y268000D02*
Y423000D01*
X510500Y427500D02*
X515000Y423000D01*
X510000Y427500D02*
X510500D01*
X518500Y273000D02*
Y429500D01*
X515500Y432500D02*
X518500Y429500D01*
X515000Y204500D02*
Y259500D01*
X510000Y427500D02*
Y472500D01*
X521000Y437500D02*
Y478500D01*
X518500Y186000D02*
Y273000D01*
X515000Y182500D02*
X518500Y186000D01*
X579133Y357267D02*
Y388582D01*
Y357267D02*
X582602Y353797D01*
Y258343D02*
Y353797D01*
Y258343D02*
X589807Y251138D01*
Y191201D02*
Y251138D01*
Y191201D02*
X592126Y188882D01*
Y70472D02*
Y188882D01*
X596457Y73622D02*
Y187380D01*
X591807Y192030D02*
X596457Y187380D01*
X591807Y192030D02*
Y251966D01*
X584602Y259171D02*
X591807Y251966D01*
X584602Y259171D02*
Y355192D01*
X581133Y358661D02*
X584602Y355192D01*
X581133Y358661D02*
Y385677D01*
X582601Y387145D01*
Y391021D01*
X580709Y392913D02*
X582601Y391021D01*
X580709Y392913D02*
Y393701D01*
X599606Y76773D02*
X599999Y77165D01*
X596712Y199138D02*
X598744Y197106D01*
X596244Y199138D02*
X596712D01*
X598744Y190351D02*
X599606Y189488D01*
X598744Y190351D02*
Y197106D01*
X593807Y201575D02*
X596244Y199138D01*
X593807Y201575D02*
Y252795D01*
X586602Y259999D02*
X593807Y252795D01*
X586602Y259999D02*
Y388965D01*
X599606Y76773D02*
Y189488D01*
X603150Y79922D02*
X603936Y80708D01*
X603150Y187244D02*
X605969Y190063D01*
Y192937D01*
X603937Y194968D02*
X605969Y192937D01*
X603850Y194968D02*
X603937D01*
X595807Y203012D02*
X603850Y194968D01*
X595807Y203012D02*
Y253623D01*
X588602Y260828D02*
X595807Y253623D01*
X588602Y260828D02*
Y386059D01*
X590071Y387528D01*
Y399126D01*
X592520Y401575D01*
X603150Y79922D02*
Y187244D01*
X592071Y394827D02*
X598819Y401575D01*
X592071Y385231D02*
Y394827D01*
X590602Y383762D02*
X592071Y385231D01*
X590602Y261656D02*
Y383762D01*
X599532Y227937D02*
X602969Y231374D01*
X599532Y202874D02*
Y227937D01*
Y202874D02*
X616468Y185937D01*
Y181035D02*
Y185937D01*
X590602Y261656D02*
X602969Y249290D01*
Y231374D02*
Y249290D01*
X610630Y175197D02*
X616468Y181035D01*
X608661Y175197D02*
X610630D01*
X606299Y172835D02*
X608661Y175197D01*
X606299Y85432D02*
Y172835D01*
Y85432D02*
X606692Y85039D01*
X610235Y88976D02*
Y171974D01*
X618469Y180207D01*
Y186765D01*
X606468Y198765D02*
X618469Y186765D01*
X606468Y198765D02*
Y248619D01*
X592602Y262485D02*
X606468Y248619D01*
X592602Y262485D02*
Y382934D01*
X594071Y384402D01*
Y392890D01*
X597243Y396062D01*
X598818D01*
X598819Y390150D02*
Y390945D01*
X596071Y387402D02*
X598819Y390150D01*
X596071Y383574D02*
Y387402D01*
X594602Y382106D02*
X596071Y383574D01*
X594602Y263313D02*
Y382106D01*
Y263313D02*
X608468Y249447D01*
Y199593D02*
Y249447D01*
Y199593D02*
X620469Y187593D01*
Y179379D02*
Y187593D01*
X614246Y173156D02*
X620469Y179379D01*
X614246Y92198D02*
Y173156D01*
X622469Y178550D02*
Y188422D01*
X610468Y200422D02*
X622469Y188422D01*
X610468Y200422D02*
Y265437D01*
X602937Y272969D02*
X610468Y265437D01*
X598437Y272969D02*
X602937D01*
X596602Y274803D02*
X598437Y272969D01*
X596602Y274803D02*
Y381277D01*
X598071Y382746D01*
Y384291D01*
X599212Y385432D01*
X599605D01*
X617672Y173753D02*
X622469Y178550D01*
X617672Y95669D02*
X617714Y95712D01*
X617672Y95669D02*
Y173753D01*
X621654Y99213D02*
Y174907D01*
X624469Y177722D01*
Y189575D01*
X612468Y201575D02*
X624469Y189575D01*
X612468Y201575D02*
Y266265D01*
X603765Y274969D02*
X612468Y266265D01*
X600012Y274969D02*
X603765D01*
X598602Y276378D02*
X600012Y274969D01*
X598602Y276378D02*
Y378130D01*
X599606Y379133D01*
X600392D01*
X625441Y102756D02*
Y175866D01*
X626469Y176893D01*
X615906Y204468D02*
X619437D01*
X626469Y176893D02*
Y197437D01*
X619437Y204468D02*
X626469Y197437D01*
X614468Y205906D02*
X615906Y204468D01*
X614468Y205906D02*
Y267093D01*
X604594Y276969D02*
X614468Y267093D01*
X601193Y276969D02*
X604594D01*
X600602Y277559D02*
X601193Y276969D01*
X600602Y374224D02*
X602042D01*
X602071Y374196D01*
X600602Y277559D02*
Y374224D01*
X628469Y106963D02*
X629133Y106299D01*
X628469Y106963D02*
Y214437D01*
X626437Y216469D02*
X628469Y214437D01*
X622441Y216469D02*
X626437D01*
X616468Y222441D02*
X622441Y216469D01*
X616468Y222441D02*
Y267922D01*
X602602Y281788D02*
X616468Y267922D01*
X602602Y281788D02*
Y367957D01*
X603543Y368897D01*
X604329D01*
X623315Y225468D02*
X627437D01*
X632676Y110236D02*
Y220229D01*
X627437Y225468D02*
X632676Y220229D01*
X618469Y230315D02*
X623315Y225468D01*
X618469Y230315D02*
Y269205D01*
X604724Y282949D02*
X618469Y269205D01*
X604724Y282949D02*
Y361024D01*
X606298Y362598D01*
X624890Y227468D02*
X628265D01*
X636614Y113779D02*
Y219120D01*
X628265Y227468D02*
X636614Y219120D01*
X620469Y231890D02*
X624890Y227468D01*
X620469Y231890D02*
Y270033D01*
X606724Y283777D02*
X620469Y270033D01*
X606724Y283777D02*
Y355937D01*
X607873Y357086D01*
X608266D01*
X613386Y353480D02*
Y356693D01*
X608724Y348819D02*
X613386Y353480D01*
X608724Y284606D02*
Y348819D01*
Y284606D02*
X622469Y270862D01*
Y236093D02*
Y270862D01*
Y236093D02*
X641339Y217224D01*
Y117323D02*
Y217224D01*
X645276Y120866D02*
Y216201D01*
X624469Y237008D02*
X645276Y216201D01*
X624469Y237008D02*
Y271690D01*
X610724Y285434D02*
X624469Y271690D01*
X610724Y285434D02*
Y347990D01*
X616854Y354120D01*
Y355437D01*
X618110Y356692D01*
X618503D01*
X621971Y357859D02*
X623145Y359032D01*
X621971Y355256D02*
Y357859D01*
X619939Y353224D02*
X621971Y355256D01*
X618786Y353224D02*
X619939D01*
X612724Y347162D02*
X618786Y353224D01*
X612724Y286262D02*
Y347162D01*
Y286262D02*
X626469Y272518D01*
Y237836D02*
Y272518D01*
Y237836D02*
X648425Y215880D01*
Y125589D02*
Y215880D01*
Y125589D02*
X648818Y125197D01*
D29*
X247000Y202000D02*
D03*
D33*
X240551Y487402D02*
D03*
X522000Y422500D02*
D03*
Y278000D02*
D03*
X515000Y268000D02*
D03*
X518500Y273000D02*
D03*
X515000Y206000D02*
D03*
Y259500D02*
D03*
X510000Y427500D02*
D03*
Y472500D02*
D03*
X515500Y432500D02*
D03*
X521000Y437500D02*
D03*
Y478500D02*
D03*
X515000Y182500D02*
D03*
X592520Y401575D02*
D03*
X579133Y388582D02*
D03*
X592126Y70472D02*
D03*
X596457Y73622D02*
D03*
X580709Y393701D02*
D03*
X599999Y77165D02*
D03*
X586602Y388965D02*
D03*
X603936Y80708D02*
D03*
X598819Y401575D02*
D03*
X606692Y85039D02*
D03*
X610235Y88976D02*
D03*
X598818Y396062D02*
D03*
X598819Y390945D02*
D03*
X614246Y92198D02*
D03*
X617714Y95712D02*
D03*
X599605Y385432D02*
D03*
X621654Y99213D02*
D03*
X600392Y379133D02*
D03*
X625441Y102756D02*
D03*
X602071Y374196D02*
D03*
X629133Y106299D02*
D03*
X604329Y368897D02*
D03*
X632676Y110236D02*
D03*
X606298Y362598D02*
D03*
X636614Y113779D02*
D03*
X608266Y357086D02*
D03*
X613386Y356693D02*
D03*
X641339Y117323D02*
D03*
X645276Y120866D02*
D03*
X618503Y356692D02*
D03*
X623145Y359032D02*
D03*
X648818Y125197D02*
D03*
M02*
