%FSLAX25Y25*%
%MOIN*%
G70*
G01*
G75*
G04 Layer_Physical_Order=4*
G04 Layer_Color=128*
%ADD10O,0.01378X0.06693*%
%ADD11R,0.06693X0.04331*%
%ADD12R,0.11811X0.04331*%
%ADD13R,0.35827X0.41929*%
%ADD14R,0.10236X0.04331*%
%ADD15R,0.04331X0.06693*%
%ADD16R,0.05512X0.03937*%
%ADD17R,0.05512X0.12795*%
%ADD18O,0.07087X0.02362*%
%ADD19O,0.02165X0.07874*%
%ADD20O,0.07874X0.02165*%
%ADD21O,0.02756X0.09843*%
%ADD22C,0.01000*%
%ADD23C,0.02000*%
%ADD24C,0.02953*%
%ADD25C,0.03937*%
%ADD26C,0.04000*%
%ADD27C,0.01969*%
%ADD28R,0.05906X0.05906*%
%ADD29C,0.05906*%
%ADD30C,0.05512*%
%ADD31R,0.05906X0.05906*%
%ADD32C,0.07874*%
%ADD33C,0.03937*%
%ADD34C,0.05000*%
%ADD35C,0.07543*%
G04:AMPARAMS|DCode=36|XSize=93.465mil|YSize=93.465mil|CornerRadius=0mil|HoleSize=0mil|Usage=FLASHONLY|Rotation=0.000|XOffset=0mil|YOffset=0mil|HoleType=Round|Shape=Relief|Width=10mil|Gap=10mil|Entries=4|*
%AMTHD36*
7,0,0,0.09347,0.07347,0.01000,45*
%
%ADD36THD36*%
%ADD37C,0.07347*%
%ADD38C,0.08921*%
%ADD39C,0.05969*%
G04:AMPARAMS|DCode=40|XSize=79.685mil|YSize=79.685mil|CornerRadius=0mil|HoleSize=0mil|Usage=FLASHONLY|Rotation=0.000|XOffset=0mil|YOffset=0mil|HoleType=Round|Shape=Relief|Width=10mil|Gap=10mil|Entries=4|*
%AMTHD40*
7,0,0,0.07969,0.05969,0.01000,45*
%
%ADD40THD40*%
%ADD41C,0.06800*%
G04:AMPARAMS|DCode=42|XSize=95.433mil|YSize=95.433mil|CornerRadius=0mil|HoleSize=0mil|Usage=FLASHONLY|Rotation=0.000|XOffset=0mil|YOffset=0mil|HoleType=Round|Shape=Relief|Width=10mil|Gap=10mil|Entries=4|*
%AMTHD42*
7,0,0,0.09543,0.07543,0.01000,45*
%
%ADD42THD42*%
D26*
X100000Y59449D02*
Y500000D01*
X700000D01*
Y59449D02*
Y500000D01*
X100000Y59449D02*
X700000D01*
D35*
X114500Y119500D02*
D03*
X124500D02*
D03*
X134500D02*
D03*
X144500D02*
D03*
X154500D02*
D03*
X164500D02*
D03*
X240551Y129134D02*
D03*
Y119134D02*
D03*
X230551Y129134D02*
D03*
Y119134D02*
D03*
X220551Y129134D02*
D03*
Y119134D02*
D03*
X638425Y484173D02*
D03*
X648425D02*
D03*
X638425Y474173D02*
D03*
X648425D02*
D03*
X638425Y464173D02*
D03*
X648425D02*
D03*
X638425Y454173D02*
D03*
X648425D02*
D03*
X638425Y444173D02*
D03*
X648425D02*
D03*
X638425Y434173D02*
D03*
X648425D02*
D03*
X638425Y424173D02*
D03*
X648425D02*
D03*
X638425Y414173D02*
D03*
X648425D02*
D03*
X638425Y404173D02*
D03*
X648425D02*
D03*
X638425Y394173D02*
D03*
X648425D02*
D03*
X638425Y384173D02*
D03*
X648425D02*
D03*
X638425Y374173D02*
D03*
X648425D02*
D03*
X638425Y364173D02*
D03*
X648425D02*
D03*
X638425Y354173D02*
D03*
X648425D02*
D03*
X638425Y344173D02*
D03*
X648425D02*
D03*
X638425Y334173D02*
D03*
X648425D02*
D03*
X638425Y324173D02*
D03*
X648425D02*
D03*
X638425Y314173D02*
D03*
X648425D02*
D03*
X257000Y432000D02*
D03*
X247000D02*
D03*
X257000Y442000D02*
D03*
X247000D02*
D03*
X257000Y452000D02*
D03*
X247000D02*
D03*
X257000Y462000D02*
D03*
X247000D02*
D03*
X257000Y182000D02*
D03*
X247000D02*
D03*
X257000Y192000D02*
D03*
X247000D02*
D03*
X257000Y202000D02*
D03*
X247000D02*
D03*
X257000Y212000D02*
D03*
X247000D02*
D03*
X257000Y222000D02*
D03*
X247000D02*
D03*
X257000Y232000D02*
D03*
X247000D02*
D03*
X257000Y242000D02*
D03*
X247000D02*
D03*
X257000Y252000D02*
D03*
X247000D02*
D03*
X257000Y262000D02*
D03*
X247000D02*
D03*
X257000Y272000D02*
D03*
X247000D02*
D03*
X257000Y282000D02*
D03*
X247000D02*
D03*
X257000Y292000D02*
D03*
X247000D02*
D03*
X257000Y302000D02*
D03*
X247000D02*
D03*
X257000Y312000D02*
D03*
X247000D02*
D03*
X257000Y322000D02*
D03*
X247000D02*
D03*
X257000Y332000D02*
D03*
X247000D02*
D03*
X257000Y342000D02*
D03*
X247000D02*
D03*
X257000Y352000D02*
D03*
X247000D02*
D03*
X257000Y362000D02*
D03*
X247000D02*
D03*
X257000Y372000D02*
D03*
X247000D02*
D03*
X257000Y382000D02*
D03*
X247000D02*
D03*
X257000Y392000D02*
D03*
X247000D02*
D03*
X257000Y402000D02*
D03*
X247000D02*
D03*
X257000Y412000D02*
D03*
X247000D02*
D03*
X257000Y422000D02*
D03*
X247000D02*
D03*
X312000Y176000D02*
D03*
Y166000D02*
D03*
X302000Y176000D02*
D03*
Y166000D02*
D03*
X292000Y176000D02*
D03*
Y166000D02*
D03*
X282000Y176000D02*
D03*
Y166000D02*
D03*
X312000Y205500D02*
D03*
Y195500D02*
D03*
X302000Y205500D02*
D03*
Y195500D02*
D03*
X292000Y205500D02*
D03*
Y195500D02*
D03*
X282000Y205500D02*
D03*
Y195500D02*
D03*
X312500Y239500D02*
D03*
Y229500D02*
D03*
X302500Y239500D02*
D03*
Y229500D02*
D03*
X292500Y239500D02*
D03*
Y229500D02*
D03*
X282500Y239500D02*
D03*
Y229500D02*
D03*
X312000Y272000D02*
D03*
Y262000D02*
D03*
X302000Y272000D02*
D03*
Y262000D02*
D03*
X292000Y272000D02*
D03*
Y262000D02*
D03*
X282000Y272000D02*
D03*
Y262000D02*
D03*
X310500Y300000D02*
D03*
Y290000D02*
D03*
X300500Y300000D02*
D03*
Y290000D02*
D03*
X290500Y300000D02*
D03*
Y290000D02*
D03*
X280500Y300000D02*
D03*
Y290000D02*
D03*
X310500Y333000D02*
D03*
Y323000D02*
D03*
X300500Y333000D02*
D03*
Y323000D02*
D03*
X290500Y333000D02*
D03*
Y323000D02*
D03*
X280500Y333000D02*
D03*
Y323000D02*
D03*
X310500Y370500D02*
D03*
Y360500D02*
D03*
X300500Y370500D02*
D03*
Y360500D02*
D03*
X290500Y370500D02*
D03*
Y360500D02*
D03*
X280500Y370500D02*
D03*
Y360500D02*
D03*
X310500Y406500D02*
D03*
Y396500D02*
D03*
X300500Y406500D02*
D03*
Y396500D02*
D03*
X290500Y406500D02*
D03*
Y396500D02*
D03*
X280500Y406500D02*
D03*
Y396500D02*
D03*
X546272Y122453D02*
D03*
Y132453D02*
D03*
X556272Y122453D02*
D03*
Y132453D02*
D03*
X566272Y122453D02*
D03*
Y132453D02*
D03*
X576272Y122453D02*
D03*
Y132453D02*
D03*
X586272Y122453D02*
D03*
Y132453D02*
D03*
X296272Y122453D02*
D03*
Y132453D02*
D03*
X306272Y122453D02*
D03*
Y132453D02*
D03*
X316272Y122453D02*
D03*
Y132453D02*
D03*
X326272Y122453D02*
D03*
Y132453D02*
D03*
X336272Y122453D02*
D03*
Y132453D02*
D03*
X346272Y122453D02*
D03*
Y132453D02*
D03*
X356272Y122453D02*
D03*
Y132453D02*
D03*
X366272Y122453D02*
D03*
Y132453D02*
D03*
X376272Y122453D02*
D03*
Y132453D02*
D03*
X386272Y122453D02*
D03*
Y132453D02*
D03*
X396272Y122453D02*
D03*
Y132453D02*
D03*
X406272Y122453D02*
D03*
Y132453D02*
D03*
X416272Y122453D02*
D03*
Y132453D02*
D03*
X426272Y122453D02*
D03*
Y132453D02*
D03*
X436272Y122453D02*
D03*
Y132453D02*
D03*
X446272Y122453D02*
D03*
Y132453D02*
D03*
X456272Y122453D02*
D03*
Y132453D02*
D03*
X466272Y122453D02*
D03*
Y132453D02*
D03*
X476272Y122453D02*
D03*
Y132453D02*
D03*
X486272Y122453D02*
D03*
Y132453D02*
D03*
X496272Y122453D02*
D03*
Y132453D02*
D03*
X506272Y122453D02*
D03*
Y132453D02*
D03*
X516272Y122453D02*
D03*
Y132453D02*
D03*
X526272Y122453D02*
D03*
Y132453D02*
D03*
X536272Y122453D02*
D03*
Y132453D02*
D03*
X310500Y441000D02*
D03*
Y431000D02*
D03*
X300500Y441000D02*
D03*
Y431000D02*
D03*
X290500Y441000D02*
D03*
Y431000D02*
D03*
X280500Y441000D02*
D03*
Y431000D02*
D03*
D37*
X164488Y132283D02*
D03*
X124488D02*
D03*
X210000Y480500D02*
D03*
Y440500D02*
D03*
D38*
X664300Y488300D02*
D03*
X684300Y488700D02*
D03*
X664100Y472700D02*
D03*
X684100D02*
D03*
X664100Y457100D02*
D03*
X684300Y457000D02*
D03*
X664300Y441500D02*
D03*
X684200D02*
D03*
X664300Y425800D02*
D03*
X684300D02*
D03*
X664300Y410300D02*
D03*
X684200D02*
D03*
X664100Y394600D02*
D03*
X684300Y394700D02*
D03*
X664500Y378900D02*
D03*
X684400Y379100D02*
D03*
X664400Y363500D02*
D03*
X684400D02*
D03*
X664300Y347900D02*
D03*
X684400D02*
D03*
X664400Y332300D02*
D03*
X684200D02*
D03*
X664100Y316600D02*
D03*
X684400D02*
D03*
X664400Y301100D02*
D03*
X684300D02*
D03*
X664500Y285400D02*
D03*
X684300Y285500D02*
D03*
X664200Y269900D02*
D03*
X684400D02*
D03*
X664200Y254300D02*
D03*
X684300D02*
D03*
X664500Y238700D02*
D03*
X684200D02*
D03*
X664300Y223100D02*
D03*
X684300D02*
D03*
D39*
X406200Y411700D02*
D03*
X524900Y188700D02*
D03*
X151500Y318900D02*
D03*
X561900Y184900D02*
D03*
X546457Y168110D02*
D03*
X240551Y487402D02*
D03*
Y173228D02*
D03*
X331102Y190157D02*
D03*
X527953Y309055D02*
D03*
X504724Y314173D02*
D03*
X536614Y447638D02*
D03*
X513779D02*
D03*
X488189Y463386D02*
D03*
X388583Y462992D02*
D03*
X483071Y468110D02*
D03*
X197638Y450787D02*
D03*
X233858Y472441D02*
D03*
X226378Y482282D02*
D03*
X559841Y217322D02*
D03*
X571654Y172835D02*
D03*
X510630Y163386D02*
D03*
X509449Y298425D02*
D03*
X491339Y424409D02*
D03*
X484646Y424016D02*
D03*
X507087Y270079D02*
D03*
Y242126D02*
D03*
X451124Y264961D02*
D03*
X220472Y383858D02*
D03*
X220866Y305906D02*
D03*
X212598Y241339D02*
D03*
X220079Y164567D02*
D03*
X172835Y296850D02*
D03*
X164567Y377559D02*
D03*
X164173Y148819D02*
D03*
X154500Y217886D02*
D03*
X389500Y356000D02*
D03*
X385500Y330000D02*
D03*
X522000Y422500D02*
D03*
Y278000D02*
D03*
X515000Y268000D02*
D03*
X518500Y273000D02*
D03*
X443500Y255500D02*
D03*
X447000Y248000D02*
D03*
X515000Y206000D02*
D03*
Y259500D02*
D03*
X510000Y427500D02*
D03*
Y472500D02*
D03*
X515500Y432500D02*
D03*
X521000Y437500D02*
D03*
Y478500D02*
D03*
X542000Y291500D02*
D03*
X579134Y347244D02*
D03*
X378398Y337102D02*
D03*
X398500Y363000D02*
D03*
X371000D02*
D03*
X393000Y300000D02*
D03*
X447000Y359000D02*
D03*
X448500Y419000D02*
D03*
X395500Y424000D02*
D03*
X557000Y188000D02*
D03*
X551000D02*
D03*
X569500Y201000D02*
D03*
X567000Y207500D02*
D03*
X602500Y191500D02*
D03*
X609000Y188000D02*
D03*
X613000Y184500D02*
D03*
X618000Y201000D02*
D03*
X621500Y207500D02*
D03*
X566500Y213000D02*
D03*
X625000D02*
D03*
X626000Y222000D02*
D03*
X566500Y219000D02*
D03*
X586000Y230500D02*
D03*
X440500D02*
D03*
X490500Y234500D02*
D03*
X599500Y234000D02*
D03*
X500500Y226500D02*
D03*
X603000D02*
D03*
X496500Y221500D02*
D03*
X581000Y222500D02*
D03*
X575500Y314000D02*
D03*
X571000Y319500D02*
D03*
X566000Y324500D02*
D03*
X561000Y329500D02*
D03*
X556000Y334500D02*
D03*
X551000Y339500D02*
D03*
X546000Y344500D02*
D03*
X541000Y349500D02*
D03*
X601500Y263000D02*
D03*
X582000Y250500D02*
D03*
X601500Y269500D02*
D03*
X576000Y234000D02*
D03*
X538000Y275000D02*
D03*
X545500Y287000D02*
D03*
X551000Y283500D02*
D03*
X562500Y286500D02*
D03*
X561000Y278500D02*
D03*
X566500Y277000D02*
D03*
X573500Y276500D02*
D03*
X536000Y392500D02*
D03*
X450000Y300000D02*
D03*
X434000Y218500D02*
D03*
X480000D02*
D03*
X433500Y277000D02*
D03*
X480000D02*
D03*
X433500Y336500D02*
D03*
X480000D02*
D03*
X433500Y396500D02*
D03*
X480000D02*
D03*
X364000Y344500D02*
D03*
X365500Y338500D02*
D03*
X544000Y187000D02*
D03*
X340000Y193500D02*
D03*
X536500Y173000D02*
D03*
X357500Y352500D02*
D03*
X536500Y201000D02*
D03*
X335500Y178000D02*
D03*
X327000Y206000D02*
D03*
X344000Y172500D02*
D03*
X515000Y182500D02*
D03*
X340000Y478500D02*
D03*
X347500Y300000D02*
D03*
X351500Y339500D02*
D03*
Y272000D02*
D03*
X355500Y344500D02*
D03*
Y210000D02*
D03*
X359000Y333000D02*
D03*
X324500Y352500D02*
D03*
X384500Y359000D02*
D03*
X374000Y406500D02*
D03*
X546457Y194095D02*
D03*
X409842Y347638D02*
D03*
X404724Y294882D02*
D03*
Y259055D02*
D03*
Y235039D02*
D03*
Y318504D02*
D03*
X406299Y437402D02*
D03*
X440158Y446457D02*
D03*
Y427559D02*
D03*
X440043Y386500D02*
D03*
X440158Y363779D02*
D03*
X438583Y327559D02*
D03*
X439369Y307480D02*
D03*
X438583Y268504D02*
D03*
X440158Y245276D02*
D03*
X455905Y226378D02*
D03*
Y259055D02*
D03*
Y289370D02*
D03*
Y318504D02*
D03*
Y348819D02*
D03*
Y377559D02*
D03*
X484646Y446457D02*
D03*
Y386614D02*
D03*
Y364173D02*
D03*
Y327559D02*
D03*
Y305118D02*
D03*
Y268504D02*
D03*
X485433Y237795D02*
D03*
X485039Y244882D02*
D03*
X455905Y408661D02*
D03*
Y437402D02*
D03*
X404331Y337402D02*
D03*
X562992Y150787D02*
D03*
X449606Y239764D02*
D03*
X259842Y139370D02*
D03*
X447244Y148425D02*
D03*
X404724Y141732D02*
D03*
X455905Y141339D02*
D03*
X490551Y148425D02*
D03*
Y226378D02*
D03*
X411417Y446457D02*
D03*
X435039Y437402D02*
D03*
X411811Y386614D02*
D03*
X406299Y377559D02*
D03*
X403937Y325590D02*
D03*
X411028Y268500D02*
D03*
X479472Y259000D02*
D03*
X479917Y318500D02*
D03*
X479921Y377559D02*
D03*
X455905Y446457D02*
D03*
X362205Y302362D02*
D03*
X379134Y240158D02*
D03*
X538189Y212598D02*
D03*
X227559Y156299D02*
D03*
X246063D02*
D03*
X362992Y156693D02*
D03*
Y292913D02*
D03*
X359055Y326378D02*
D03*
X595276Y195669D02*
D03*
X579134Y195276D02*
D03*
X388500Y374886D02*
D03*
X366142Y360236D02*
D03*
X354000Y374472D02*
D03*
X126902Y197508D02*
D03*
X494882Y463386D02*
D03*
X508268Y399606D02*
D03*
X494882Y452756D02*
D03*
X579000Y321500D02*
D03*
X579133Y326771D02*
D03*
X579069Y331760D02*
D03*
X579133Y337007D02*
D03*
Y342125D02*
D03*
Y352361D02*
D03*
X540945Y410630D02*
D03*
X546063Y414173D02*
D03*
X551181Y418110D02*
D03*
X555905Y422441D02*
D03*
X561024Y426378D02*
D03*
X566142Y430709D02*
D03*
X570866Y434646D02*
D03*
X575591Y438976D02*
D03*
X579528Y409449D02*
D03*
X583858Y414173D02*
D03*
X579528Y418110D02*
D03*
X583858Y422441D02*
D03*
X579528Y426378D02*
D03*
X583858Y430709D02*
D03*
X579528Y434646D02*
D03*
X592520Y401575D02*
D03*
X579133Y388582D02*
D03*
X592126Y70472D02*
D03*
X596457Y73622D02*
D03*
X580709Y393701D02*
D03*
X599999Y77165D02*
D03*
X586602Y388965D02*
D03*
X603936Y80708D02*
D03*
X598819Y401575D02*
D03*
X606692Y85039D02*
D03*
X610235Y88976D02*
D03*
X598818Y396062D02*
D03*
X598819Y390945D02*
D03*
X614246Y92198D02*
D03*
X617714Y95712D02*
D03*
X599605Y385432D02*
D03*
X621654Y99213D02*
D03*
X600392Y379133D02*
D03*
X625441Y102756D02*
D03*
X602071Y374196D02*
D03*
X629133Y106299D02*
D03*
X604329Y368897D02*
D03*
X632676Y110236D02*
D03*
X606298Y362598D02*
D03*
X636614Y113779D02*
D03*
X608266Y357086D02*
D03*
X613386Y356693D02*
D03*
X641339Y117323D02*
D03*
X645276Y120866D02*
D03*
X618503Y356692D02*
D03*
X623145Y359032D02*
D03*
X648818Y125197D02*
D03*
X206000Y400500D02*
D03*
X127500Y297500D02*
D03*
X201400Y220600D02*
D03*
X153000Y241400D02*
D03*
D40*
X172900Y465200D02*
D03*
X533900Y188800D02*
D03*
X538189Y206693D02*
D03*
X542520Y171260D02*
D03*
X507874Y275984D02*
D03*
X185039Y465748D02*
D03*
X167323Y435039D02*
D03*
X496063Y434252D02*
D03*
D41*
X400000Y345500D02*
D03*
X373000D02*
D03*
D42*
X257000Y472000D02*
D03*
X247000D02*
D03*
M02*
